<svg class="animate mermaid layer4" xmlns="http://www.w3.org/2000/svg" viewBox="0 0 274.06 430.67">
	<title>animate_mermaid-4</title>
	<path class="mermaid mm-cls1 layer4" d="M102.52,138.13a11.68,11.68,0,0,1,4.65-2.58l6.38-.55c1.59.15,2.72.87,4.06.85l.85-.3a2.28,2.28,0,0,0,.4-.23.33.33,0,0,0,.15-.42c-.06-.13-.17-.31-.28-.34a28.23,28.23,0,0,1-3.15-1,6.48,6.48,0,0,0-2.33-.39,34.94,34.94,0,0,0-6.38.55,8.55,8.55,0,0,0-4.92,2.66,1.14,1.14,0,0,0-.28,1.1A.84.84,0,0,0,102.52,138.13Z"/>
	<path class="mermaid mm-cls1 layer4" d="M115.27,143.34a3.87,3.87,0,0,0-.13-2.1,6.25,6.25,0,0,0-1.66-1.63,4.21,4.21,0,0,0-.61-.1c-1,0-1.39.4-1.56,1.4a.56.56,0,0,0,0,.13,2.27,2.27,0,0,0-2.21-.07,2.54,2.54,0,0,0-.91,1.35,3.43,3.43,0,0,0,2,3.6l2.5.3A8,8,0,0,0,115.27,143.34Zm-4.92,0h.13l.07.1c-.12.07-.19,0-.21-.05Zm.38.34v-.09c.09.12.11.16,0,.14Zm1.24-1.46a1.44,1.44,0,0,1-.59-1.11,3.22,3.22,0,0,1,1.68.43.44.44,0,0,1,0,.74.91.91,0,0,1-1.09,0Z"/>
	<path class="mermaid mm-cls1 layer4" d="M118,150l-1.87.76a24.16,24.16,0,0,1-4.89.11.87.87,0,0,0-.8.44,1.57,1.57,0,0,0-.13.58,1.21,1.21,0,0,0,1,.67c1.1.06,2.21.06,3.31.08a7.76,7.76,0,0,0,2.29,0,10.9,10.9,0,0,0,3.43-2.18,6.59,6.59,0,0,0,2.57-4.64v-.51l-.32-.57c-.54-.12-.93,0-1,.22-.19.43-.35.88-.53,1.32a6.83,6.83,0,0,1-2.51,3.36A2.1,2.1,0,0,0,118,150Z"/>
	<path class="mermaid mm-cls1 layer4" d="M89.19,150.49c.71.29.86.26,1.2-.19s0-.8.44-1,.59.16.87.3a4.89,4.89,0,0,0,.85.38.91.91,0,0,0,1.08-.37c-.07-.18-.1-.45-.25-.59a16,16,0,0,0-2.18-1.79c-.86-.55-1.34-1.53-2.26-2-.69-.13-1,.33-1.18.9a3,3,0,0,0,.07.67q.54,1.68,1.11,3.33A1.84,1.84,0,0,0,89.19,150.49Z"/>
	<path class="mermaid mm-cls1 layer4" d="M108.69,128.73a6.47,6.47,0,0,0,5.05,1.27l.48-.13.46-.45c0-.54-.19-.89-.48-.94-.46-.07-.92-.11-1.38-.17a7.35,7.35,0,0,1-2.71-.77c-.64-.36-1-1-1.71-1.25a1.72,1.72,0,0,0-1.28,0,.8.8,0,0,0-.18.11.4.4,0,0,0-.16.26.57.57,0,0,0,.09.32A5.28,5.28,0,0,0,108.69,128.73Z"/>
	<path class="mermaid mm-cls1 layer4" d="M273.89,244.27v-.61a8.36,8.36,0,0,0,0-1.54,8.69,8.69,0,0,1,0-1.8,4.52,4.52,0,0,0,0-1,26.86,26.86,0,0,1,0-4l-.07-1.88a7.83,7.83,0,0,1,.06-1v-.14c0-.35,0-.71.06-1.06-.2-.83-.37-1.67-.54-2.48v-.17c-.19-.93-.4-1.87-.62-2.81l.06-.37-1.18-4.64-.21-.73-.16-.53c-.48-1.65-1.37-5-1.37-5l-.45-1.87s-1-3.8-1.63-5.41c-.22-.57-.41-1.17-.57-1.69l-.4-1.26-.56-1.74s-1.56-4.49-2.59-6.69a4.88,4.88,0,0,1-.39-1.09,8.39,8.39,0,0,0-1.28-2.93l-.08-.12a3.06,3.06,0,0,1-.46-.92,10.9,10.9,0,0,0-.65-1.72V189l-.43-1c-.39-1.06-.88-2.21-1.55-3.63l-.62-1.28a28.13,28.13,0,0,1-1.72-4,1.9,1.9,0,0,0-.15-.32,2.74,2.74,0,0,1-.13-.26A48.54,48.54,0,0,0,254,174a36.68,36.68,0,0,0-3.6-5.48c-.47-.57-1-1.25-1.49-1.93s-.91-1.19-1.38-1.76a23,23,0,0,1-2.31-3.22,2.27,2.27,0,0,0-.49-.62,10.92,10.92,0,0,1-.93-.89,8.39,8.39,0,0,0-1.33-1.17,9.29,9.29,0,0,1-1.53-1.34,24.15,24.15,0,0,0-2.59-2.34c-1-.78-2-1.62-3-2.43l-.61-.51a8.31,8.31,0,0,0-1.62-1.18l-1.73-.87-.48-.24c-1.78-.91-3.63-1.85-5.49-2.66l-.64-.28a12.57,12.57,0,0,0-2.39-.88,8.71,8.71,0,0,1-1.55-.56l-.54-.23-1.35-.56-.56-.24h-.31l-.43-.05-.91-.13h-.07c-.83-.12-1.68-.24-2.52-.41a7.7,7.7,0,0,1-1.32-.44l-.57-.22-.26-.08-.38-.13a4,4,0,0,0-2-.28,11.73,11.73,0,0,1-2.48,0l-3.52-.39h-.21a3.27,3.27,0,0,0-1.23,0,7,7,0,0,1-2.53.07H199a9.55,9.55,0,0,0-1.32-.08,15.09,15.09,0,0,0-1.61.12h-.23l-.89.07-.25-.07a7.93,7.93,0,0,0-2.8-.45l-2.09.51-1.49-.13L187,142.4l-.65-.06a9,9,0,0,0-2.37,0,3.57,3.57,0,0,1-1,0,5.08,5.08,0,0,0-1.64,0,2.34,2.34,0,0,1-1.18-.12,2.36,2.36,0,0,0-.85-.14h-.46a1.35,1.35,0,0,0-.35,0h-.1a11.14,11.14,0,0,1-3.27-.13c-.65-.1-1.3-.18-2-.25l-1.09-.13h-.29a2.28,2.28,0,0,1-.88-.19,7.53,7.53,0,0,0-2.54-.64h-.13l-.68-.1a6,6,0,0,1-1.21-.37,6.66,6.66,0,0,0-.9-.3,5.93,5.93,0,0,1-1.09-.36l-2.15-1-1-.49-3.1-.36h-.34a7.8,7.8,0,0,1-.77.16,6.58,6.58,0,0,0-1.21.29c-.92-.55-2.26-.77-3.06-1.19a14.17,14.17,0,0,0-2.59-1.18,38.35,38.35,0,0,1-4.46-1.65c-.95-.39-1.84-.93-2.78-1.35a17.86,17.86,0,0,1-3.12-1.7c-.78-.56-1.74-.77-2.49-1.37a8.84,8.84,0,0,1-1.77-.66c-.81-.31-1.67-.47-2.47-.83a6.76,6.76,0,0,1-3-1.38c-1-.65-2-1.33-3-2a12.79,12.79,0,0,0-1.92-.94c-1.08-.46-2.13-1-3.21-1.44a5.75,5.75,0,0,1-2-2c-.56-.76-1.16-1.63-2.09-1.8a4,4,0,0,0-1.55.15,13.4,13.4,0,0,1-2.59.27c-.3,0-.58.08-.88.09a4.27,4.27,0,0,0-1.08.05,12.13,12.13,0,0,1-2.95.22,10.89,10.89,0,0,0-2.65.63c-.64.32-1.32.55-2,.81a22.22,22.22,0,0,0-3.5,1.47l-2.92.25a6.93,6.93,0,0,1-2.8-.94,2.66,2.66,0,0,1-.17-1.7,10.85,10.85,0,0,0,0-3.56c-.1-1-.26-2-.36-3.08a17.36,17.36,0,0,0-1-4.15,17.82,17.82,0,0,1-.58-2c.38,0,.77.06,1.15.05l4.44-.93a12.1,12.1,0,0,0,1.24-1.18c.65-.81,1.23-1.66,1.79-2.43-.56-1.94-.56-1.94-2.61-3.8a14.36,14.36,0,0,0-6.15-1.53,10.11,10.11,0,0,1-1.5-.12c-.23-.93-.54-1.84-.8-2.76a28.18,28.18,0,0,0-1.14-3.19L93.48,91a46.08,46.08,0,0,0,6.87-4,10.68,10.68,0,0,0,1-3.21L101,82.36c-.91-1.15-1.85-2.35-2.8-3.53a3.36,3.36,0,0,0-.62-.46,5.79,5.79,0,0,0-1.72.17c-1.45.6-3,.76-4.49,1.27l-.52.16-.44-.44-3.74-3.62c-.88-.51-1.76-.91-2.61-1.33l1.53-1.45,2.6-1.07a23,23,0,0,0,7.33-1c1.24-.68,1.59-2,2.23-2.92l.55-2.42a3.07,3.07,0,0,0-1.44-1.59c-.7-.07-1.42-.19-2.14-.19a6.42,6.42,0,0,1-2.14-.27,14.32,14.32,0,0,0-5-.65c-.84,0-1.68-.06-2.6-.1l-2.47.92h-2.3a22.57,22.57,0,0,1-2.57,1.36,20.31,20.31,0,0,0-5.2,2.9c-1.27.32-2.42.69-3.6.89a21.6,21.6,0,0,1-2.86.17l-.13-.31a23.13,23.13,0,0,1,4.25-5.12,7.31,7.31,0,0,1,3.64-2.13,3.24,3.24,0,0,0,1.9-1.32c.25-.67.58-1.53.88-2.4a6.28,6.28,0,0,0,.22-1,2.28,2.28,0,0,0-1.56-2.46A17.87,17.87,0,0,0,73,54c0-.15-.18-.39-.12-.57a9.92,9.92,0,0,1,1.49-3.12c1.46-1.81,2.26-5,3-7.23.31-1.11.77-2.19,1.15-3.28.18-.54.32-1.1.46-1.6-.47-1.19-.82-2.31-1.23-3.29a1.09,1.09,0,0,0-1.23-.44,3.32,3.32,0,0,0-2,1.42,4.5,4.5,0,0,1-1.86,1.59c-.41.22-.8.51-1,.66A11.87,11.87,0,0,0,70,40.61c-.55,1.58-1.71,2.77-2.54,4.15-.41.69-1,1.32-1.34,2-1.05,1.69-2.2,3.94-3.8,5.12-.11-2.27-.35-3.27.08-4.71s.9-3.1,1.48-4.63a18.53,18.53,0,0,1,1.29-2.85A5.16,5.16,0,0,0,66,37.5a1.84,1.84,0,0,1,.37-1c1-1.36.72-3.12,1.54-4.55,0-2.18.74-4.31.63-6.7C68,24,68,22.31,66.77,21c-1.44-.29-2.13.77-3,1.55A32.64,32.64,0,0,1,61,28.1a2.61,2.61,0,0,1-1.38,1.19c-.19-.23-.51-.46-.54-.73a40.25,40.25,0,0,1-.67-5.79A12,12,0,0,0,58,19.7c-.24-1-.53-2-.7-3a6.46,6.46,0,0,0-1.72-3.37c-1.2-1.28-2.48-2.49-3.75-3.76a6.37,6.37,0,0,0-1,.22,1,1,0,0,0-.52.47,14,14,0,0,1-2.87,4.25,14.14,14.14,0,0,0-1.12,4.36c.25,1.65,1,3.15.89,5a16.63,16.63,0,0,1-1.18,3.41c0,.06-.16.07-.3.13a4.49,4.49,0,0,1-.57-.84c-.29-.75-.53-1.52-.77-2.29A10.8,10.8,0,0,0,44,22.62a34.94,34.94,0,0,1-2.7-6.38,5.92,5.92,0,0,0-.3-.63,27.64,27.64,0,0,1-1.42-3.9c-.76-3.58-3.19-6.09-5.67-8.62a6.47,6.47,0,0,0-2-1.38c-.87-.38-1.69-.88-2.58-1.35a4.92,4.92,0,0,0-4,1.45,12.15,12.15,0,0,1-.08,1.64c-.06.57-.2,1.36-.31,2,.27.69.51,1.33.77,2s.66,1.48.92,2.24A1.55,1.55,0,0,1,26,11.54a1.78,1.78,0,0,1-1.65,0A28.36,28.36,0,0,0,20,6,25.65,25.65,0,0,0,14.49,1L11.05,0A9.87,9.87,0,0,0,9.24.27C7.54.85,5.91,1.61,4.15,2a1.48,1.48,0,0,0-.83,1.43,19.91,19.91,0,0,0,.49,2.36c.44,1.43,1,2.83,1.44,4.26a6.08,6.08,0,0,0,2.42,3.34,6.56,6.56,0,0,1,.8.7,8.76,8.76,0,0,0,3,1.91,3.69,3.69,0,0,1,1.41,1.07c.68.79,1.26,1.66,1.86,2.51a4.58,4.58,0,0,1,.49.92,1,1,0,0,1,0,1,1.2,1.2,0,0,1-1.32,0,8.43,8.43,0,0,1-1.23-.69,5.08,5.08,0,0,0-3-1.08,48,48,0,0,1-5-.68A22.22,22.22,0,0,0,.49,21.56c-.78,1-.45,1.94-.26,2.9L2.3,27.29a11,11,0,0,0,5.25,2.84c3.18,2,6.12,3.81,9,5.72a11.78,11.78,0,0,0,4.26,1.87,18,18,0,0,1,1.9.56c.73.53,1.32,1,1.86,1.37,1.25,1,1.53,1.82,1.46,4.07a2.64,2.64,0,0,1-1,.17c-1.38-.39-2.76-.82-4.12-1.27a11.41,11.41,0,0,0-5-.6,2.34,2.34,0,0,0-1.63,1.05l-.51,2,.74,2.61c1.17,1.05,2.2,2,3.27,2.9.41.42,1.07.11,1.6.37a12.88,12.88,0,0,1,3.55,2.35,6.24,6.24,0,0,0,2.21,1.25A7.49,7.49,0,0,1,27.94,56a3.68,3.68,0,0,0,1.67.61c.58.11,1.2,0,1.8.12a5.3,5.3,0,0,1,1,.32,4.19,4.19,0,0,1,1.41,1.55,1.37,1.37,0,0,1-.87,1.53c-1.9.23-3.88.73-6,.34a1.67,1.67,0,0,0-1.72,1,3.87,3.87,0,0,0,0,3.53A17.88,17.88,0,0,0,27,67a29.4,29.4,0,0,0,2.57,1.9,24.89,24.89,0,0,1,9.66,1.88,20,20,0,0,1,3.38,3.85,1.48,1.48,0,0,1,.27.63,1,1,0,0,1,0,.66c-.09.15-.36.21-.61.33-1-.5-2.29-.63-3.22-1.41a7.6,7.6,0,0,0-3.21-1.52c-1.63-.4-3.24-.9-4.89-1.25a7.65,7.65,0,0,0-6.16,1.27,2.8,2.8,0,0,0-1.31,3,3.77,3.77,0,0,0,1.46,2.74l4.48,1.76a38.4,38.4,0,0,0,3.88,2.73,27.79,27.79,0,0,0,4.16,2.08,28.47,28.47,0,0,0,3.52.74,1.83,1.83,0,0,1,1.54,2.08l0,.12-4.33.9c-1.51-.38-3.32.06-4.78-1.17l-3.59-.19-2.8-.8-1.7.45c-.57.16-1.47-.19-2.11.49-.12.23-.3.53-.44.84a4.24,4.24,0,0,0,.19,4,9.66,9.66,0,0,0,2.09,3,22,22,0,0,0,7.67,2,11.34,11.34,0,0,0,4,1.87c.36.07.73.12,1.1.18a20.82,20.82,0,0,0-2.85,2.6c-1,1.05-2.08,2-3,3-2.39,2.71-8,1.85-9.39,5.34-.17.44-.34.89-.54,1.32a3.08,3.08,0,0,1-.81,1.16,3.17,3.17,0,0,0-1.11,2.53v1.6c-.25.83-.48,1.58-.72,2.34a2.22,2.22,0,0,1-.2.43c-.36.62-.75,1.22-1.08,1.85a30.82,30.82,0,0,1-1.67,3.16,5.08,5.08,0,0,0-.49,1.34c-.15.53-.26,1.08-.38,1.61a13.25,13.25,0,0,0,.41,4.36c.33.6.69,1.31,1.1,2a5.23,5.23,0,0,0,1.4,1.61c.84.6,1.67,1.21,2.55,1.74a3.88,3.88,0,0,0,2,.58c.55,0,1.11-.06,1.66-.09a15.13,15.13,0,0,1,1.66-.1,1.48,1.48,0,0,1,1.17.73,2.77,2.77,0,0,1,.31.64,7.65,7.65,0,0,0,1,1.89,3.23,3.23,0,0,1,.21.43l.23,1.47c.8.93,1,2.25,1.92,3.2,1.41.52,2.62,1.5,4.4,1.72h1.19c.47,0,.94.05,1.39.08l1.24-.8c.14.05.36.07.42.17a10.17,10.17,0,0,1,.87,1.68,3.93,3.93,0,0,0,.86,1.4l.59.63.09.34a25,25,0,0,1-8.67-1.35h-3c-1.21.41-2.14.77-3.08,1.05a7.14,7.14,0,0,0-3.66,2.49,2,2,0,0,0-.46,2.13,3.92,3.92,0,0,0,.84,1.23,14,14,0,0,0,1.45,1.11,48.23,48.23,0,0,0,8.28,1.79,6.48,6.48,0,0,1,4.36,2,6.16,6.16,0,0,1-.2,1.13,4,4,0,0,0-.14,1.53,2.32,2.32,0,0,0,1.75,2.32,12.23,12.23,0,0,1,2.8,1.56c1.11.18,2.08.31,3,.5a2.77,2.77,0,0,1,1.41.81.69.69,0,0,1,0,1l-.15.1c-.55.3-1.12.57-1.64.84l-3.37-.66c-4-2-4-2-8.93-3-2.25,0-4.11,1.28-6.06,1.9l-3.52-.31a28.07,28.07,0,0,1-3.36.58,14.81,14.81,0,0,0-4.76,1c-1.92,1.21-3.6,2.3-5.16,3.33-.87,1.07-1.65,2-2.29,2.85-.47,1.94,1,2.62,2.26,2.52,1.66-.13,3,.51,4.7.22,2.19.35,4.67.08,6.35,1,1.46.05,2.65.14,3.87.16.84,0,1.71-.09,2.56-.13,1.12-.67,2.18-.34,3.25-.35a2.31,2.31,0,0,1,.67.2,7.5,7.5,0,0,1,.76.91c.3.5,0,1-.53,1.43a17.57,17.57,0,0,1-5.19,2.09c-2.55.63-5.1,1.35-7.64,2.08l-3.38,1-2.64,1.64a22.51,22.51,0,0,1-2.22,2.28c-1.67,1.27-2.47,3-3.72,4.46a2.93,2.93,0,0,0-.33.61,3.19,3.19,0,0,0-.13.31c-.43,1.16-.8,2.32-1.23,3.47a2,2,0,0,0,.41,2c.35.42,1,.35,1.57.35h.52c3.45-1,6.71-1.78,10.14-2.56l2.56.07c.08.2.22.36.21.54a1.43,1.43,0,0,1-.26.6,8.51,8.51,0,0,1-4.06,3.77,3.25,3.25,0,0,0-.9.58,37.71,37.71,0,0,0-3.57,3.25c-.89,1.94-1.69,3.76-2.52,5.7-1.45,1.91-2.86,4-2.69,6.37.47.58.86,1.15,1.34,1.65a16.35,16.35,0,0,0,1.81,1.57,2.85,2.85,0,0,0,2.47.59c1.11-.59,2-1.12,2.9-1.51a17.71,17.71,0,0,0,4.28-2.64c1-.77,2-1.49,3-2.2a3.38,3.38,0,0,1,.69-.27H24.5l1.72.93a4.19,4.19,0,0,0,3-.58,85.8,85.8,0,0,0,10.23-6,16,16,0,0,1,1.36-.94,2.35,2.35,0,0,1,1.57-.36.9.9,0,0,1,.53,1,7,7,0,0,1-.35,1.49,12.09,12.09,0,0,0-.73,3q.2,1.29.39,2.55a40.36,40.36,0,0,1-2.67,3.24,25.7,25.7,0,0,0-3.13,4c-.78,1.25-1.53,2.52-2.27,3.75a19.19,19.19,0,0,0-4.58,4.85,8.3,8.3,0,0,1-1.23,1.43c-.6.6-1.24,1.15-1.78,1.64-1.15,1.9-2.39,3.64-3.29,5.53a42,42,0,0,1-3.65,5.79c-.37,1.29-.65,2.52-1.09,3.71s-1,2.31-1.55,3.47a9.77,9.77,0,0,0-.38,1.2c-.41,1.42-.82,2.84-1.22,4.26a26.26,26.26,0,0,1-1.51,4.1c.22.57.35,1.09.91,1.31a1.24,1.24,0,0,0,1.32-.67,67.91,67.91,0,0,1,5-6.93c.54-.65,1-1.35,1.33-1.76.59-1.37,1-2.46,1.53-3.49a13.18,13.18,0,0,1,2.51-2.86,16.82,16.82,0,0,1,4.41-6.87,11.68,11.68,0,0,0,1.44-1.68,14.59,14.59,0,0,1,3.23-3.46,9.67,9.67,0,0,0,2.55-2.83,12.42,12.42,0,0,1,3.21-3.5l1.25-1c.24-.36.49-.7.7-1.07a6.6,6.6,0,0,1,2.34-2.53,4.32,4.32,0,0,0,1.12-1.1,10.69,10.69,0,0,1,1.68-1.88,25.16,25.16,0,0,0,2-2,.25.25,0,0,1,.24,0c.08.06.17.19.15.26a65.89,65.89,0,0,0-1.8,7.68,18.69,18.69,0,0,1-1.08,4,19.51,19.51,0,0,0-1.4,5.83,11.3,11.3,0,0,1-.33,1.54c-.31,1.44-.53,2.91-.94,4.33a9.28,9.28,0,0,0-.33,2.81,11,11,0,0,1-.08,2.84,12.31,12.31,0,0,0-.25,3.14c0,2.54,0,5.08.11,7.62a10.5,10.5,0,0,0,.68,4,4.2,4.2,0,0,1,.24,1.24,18.61,18.61,0,0,0,.55,3.12,12.1,12.1,0,0,1,.26,1.88c.07.52.12,1,.18,1.57,0,.28.49.44.75.29a2.41,2.41,0,0,0,1.16-1.57,29.8,29.8,0,0,1,1-8.63,11.88,11.88,0,0,0,.49-3.37,7.55,7.55,0,0,1,.23-1.56,35.52,35.52,0,0,1,3.08-8.94,19.6,19.6,0,0,1,1.6-6.07l0-2.64a35.15,35.15,0,0,0,1.71-5,7.9,7.9,0,0,1,1.43-3.23,4.46,4.46,0,0,0,1-2.26,6.9,6.9,0,0,1,.81-2.05,31.64,31.64,0,0,1,3.5-5.85c.12-.57.19-1,.29-1.39a6.13,6.13,0,0,1,1.42-2.8.56.56,0,0,1,.76-.21l.06,0c.06,1,.17,2.05.18,3.11,0,3.6.34,7.19.55,10.78a11,11,0,0,0,.18,1.89c.51,2.15,1.1,4.28,1.46,6.47a5.86,5.86,0,0,0,.93,2.34,5.54,5.54,0,0,1,1,2.32,8.5,8.5,0,0,0,1.62,3.75A6.27,6.27,0,0,1,73,255.42,6.39,6.39,0,0,0,74.1,258a19.16,19.16,0,0,1,2,4.18A12.41,12.41,0,0,1,78.55,266a3,3,0,0,0,.49.81c.58.75,1.17,1.49,1.76,2.22a1.08,1.08,0,0,0,.26.18,1.33,1.33,0,0,0,1.41-1.12,15,15,0,0,0-.68-4.6,29.39,29.39,0,0,1-1.06-4.62,8.24,8.24,0,0,0-.86-2.69l-1-1.91a27.65,27.65,0,0,0-2.24-8.52,23.64,23.64,0,0,0-1.36-7.53,9.48,9.48,0,0,1-.46-3.76,22.63,22.63,0,0,1,.49-4.09,36,36,0,0,0,1.27-6.84,3.13,3.13,0,0,1,.16-.61,19.54,19.54,0,0,0,.72-5.4c.29-1.09.68-2,.93-3l1.35.35,3.17-.73A9.72,9.72,0,0,0,84,213.2a18.5,18.5,0,0,1-.23,1.95,10.9,10.9,0,0,0-.08,2.22c.05,1.69.14,3.38.22,5.08a5.28,5.28,0,0,0,.12,1.26c.67,2.22.93,4.54,1.61,6.77.34,1.11.57,2.25.84,3.36.51.93,1,1.87,1.53,2.78.14.23.47.34.68.47a1.33,1.33,0,0,0,.83-1,2.86,2.86,0,0,0,.08-.94,12.57,12.57,0,0,0-.62-4.06,64.44,64.44,0,0,1-.6-7.9,5.56,5.56,0,0,1,.31-1.55c.74-2.31,1.59-4.59,2.14-7a6.15,6.15,0,0,1,.58-1.47,11.79,11.79,0,0,0,.56-1.26,5.41,5.41,0,0,0,.35,1.17c1,1.49,2.15,3.37,3.41,5.2a14,14,0,0,1,2.6,6.75c.31,3.21.41,3.2,1.79,6.7.2.52.39,1,.56,1.48a7.9,7.9,0,0,0,.67.85,28.86,28.86,0,0,1,5.76,7.27,6.23,6.23,0,0,0,.75,1.1,26.44,26.44,0,0,1,3.71,6.47c.36,3.24,1,6.3.88,9.43a5.34,5.34,0,0,0,.2,1,25.1,25.1,0,0,1,.69,5.79c-.22.67-.54,1.5-.77,2.36a3.12,3.12,0,0,0,.05,2,5.11,5.11,0,0,0,.52.83l.86-.14c1.09-1.42,2.13-2.72,3.1-4.06a7.84,7.84,0,0,1,2.13-2.07,11.32,11.32,0,0,0,2.72-2.43,3.65,3.65,0,0,1,1.26-1.06,6.19,6.19,0,0,0,2.28-1.88c.77-.94,1.65-1.78,2.71-2.91.15-.29.46-.88.78-1.46a8.55,8.55,0,0,1,2.86-3.17c1.11-.72,2-1.69,3.22-2.35a3.51,3.51,0,0,0,1.25-1.08c.94-1.49,2.13-2.85,2.42-4.69a4.82,4.82,0,0,1,.65-1.88c1.23-1.84,2.09-3.94,3.9-5.52a29,29,0,0,0,2.93-1.28,24.09,24.09,0,0,1,2.94-1.3c1.2-1,2.3-1.91,3.45-2.79a5.48,5.48,0,0,0,.42-.41l.22.29c.35.42.67.87,1,1.34l.51.72a12.71,12.71,0,0,1,3.53,3.32l1.36,3.53c.33.37.68.72,1,1.06a11.83,11.83,0,0,1,2,2.39l.38.64a12.6,12.6,0,0,1,1.94,4.67l.07,1.61-.41,1.31.32,1.6a.94.94,0,0,0,.77.43,1.65,1.65,0,0,0,.62-.12l.36-.47a13.36,13.36,0,0,1,.92-1.13c.38-.4.79-.77,1.24-1.17l.65-.59.27-.38c.24-.32.5-.69.73-1.07a11.07,11.07,0,0,1,2.62-3,6.25,6.25,0,0,0,1.32-1.39,15,15,0,0,1,2-2.23l.51-.51,2.55-4.88.09-1.49c.06-1.2.13-2.44.2-3.66a5.19,5.19,0,0,1,.21-1.3,9.46,9.46,0,0,0,.42-1.85,11,11,0,0,1,.27-1.27,2.3,2.3,0,0,1,.14-.56,10,10,0,0,1,.58-1.64,9.88,9.88,0,0,0,.59-1.66,8.3,8.3,0,0,1,.29-.89,9.81,9.81,0,0,1,3.09,2.34,10.62,10.62,0,0,0,2.55,4.33,15.35,15.35,0,0,1,2.72,4.15c.4.91.91,1.78,1.34,2.61.61.58,1.19,1.11,1.73,1.66a10.41,10.41,0,0,1,1.39,1.56,20.44,20.44,0,0,1,3.15,6.19,7.8,7.8,0,0,0,1.12,2.4c.37.55.74,1.11,1.09,1.67a94.28,94.28,0,0,1,6,10.77,10.2,10.2,0,0,1,.84,2.16c.32,1.64,1.12,3.12,1.46,4.76a1.52,1.52,0,0,0,1.78,1.21h0c.19-.2.5-.41.61-.69a10.49,10.49,0,0,0,.81-5.19,35.87,35.87,0,0,1-.07-4l-1.49-3.8c.08-2.09-.89-4-1.48-6a13.82,13.82,0,0,0-2.4-4.14,25.8,25.8,0,0,0-1.51-4.23,16.94,16.94,0,0,1-1.72-5,11.83,11.83,0,0,0-1.64-4.32q-1.27-2.13-2.39-4.31c1.67.68,3.33,1.41,5.15,2.18.37.33.88.75,1.35,1.21.31.31.54.7.84,1a8.9,8.9,0,0,0,1.17,1.17,18.64,18.64,0,0,1,3.42,3.6,11.12,11.12,0,0,0,1.81,1.92c.69.55,1.35,1.14,2,1.69.46.11.92.29,1.31,0a3.18,3.18,0,0,0,.56-.8l-.44-2.95a9.83,9.83,0,0,0-2.31-3.64,6,6,0,0,1-1-1.7c-1.1-2.06-2.18-4.12-3.17-6-1.78-2-3.86-3.36-5.07-5.57a16.75,16.75,0,0,0-4.1-2.74c-1.09-.65-2.22-1.25-3.34-1.85a3.25,3.25,0,0,0,1-.15,1.78,1.78,0,0,1,.77,0,12.14,12.14,0,0,0,3.87-.2,6.27,6.27,0,0,1,.8-.07h.32l.48-.06a3.6,3.6,0,0,1,1.1,0,6,6,0,0,0,1.27,0h.6c.88,0,1.68-.07,2.49,0a46.47,46.47,0,0,0,6-.25l.38.13.24.08c.4.14.81.28,1.23.4a2.61,2.61,0,0,0,1.78,0,2,2,0,0,1,.49-.11h.39l.34.15h.11a9.64,9.64,0,0,1,.95.44c.9.49,2.08,1.14,3.26,1.86a2.2,2.2,0,0,1,1,1.18l.08,1,.8,1a28.88,28.88,0,0,0,2,2.3,20.57,20.57,0,0,1,1.56,1.78l.61.73a7.79,7.79,0,0,1,1.1,1.91l.26.56v.07a3.37,3.37,0,0,1,0,.65,1.44,1.44,0,0,0,.07.87l1,.6a10.21,10.21,0,0,1,.91,2,11.71,11.71,0,0,0,.75,1.77,2.75,2.75,0,0,1,.23.65.33.33,0,0,0,.06.23l.07.19a2.34,2.34,0,0,1,.14.48c.11.72.27,1.45.44,2.21a25,25,0,0,1,.57,3.22v.77a8.57,8.57,0,0,0,.09,1.18,20.32,20.32,0,0,1,.32,4.92.6.6,0,0,0,0,.11,7.72,7.72,0,0,1,0,2.84,1.36,1.36,0,0,1-.07.53c-.38,3.21-.78,6.47-1.17,9.62l-.06.42a7.35,7.35,0,0,1-.56,2.38,2.36,2.36,0,0,0-.15.76v.24c-.19,1.4-.37,2.81-.54,4.15l-.18,1.25c-.16.34-.33.66-.48,1a7.44,7.44,0,0,0-.75,1.74,5.06,5.06,0,0,1-.7,1.46,24.17,24.17,0,0,0-1.73,3.51c-.27.63-.57,1.34-.91,2a2.57,2.57,0,0,0-.17.64v.16l-.17.9-.1.37-.32.42a7.78,7.78,0,0,0-.53.72l-.25.41c-.6,1-1.21,2-1.76,3a12,12,0,0,1-2.37,3l-.22.2-.09.08q-.17.15-.33.31c-1.5,1.6-3.1,3.15-4.64,4.65l-.52.5-.5.53a6.22,6.22,0,0,1-.92.89,8.4,8.4,0,0,0-1,1,9.19,9.19,0,0,1-1,1,11.93,11.93,0,0,1-3.61,3c-1.27.74-2.49,1.6-3.57,2.36l-.11.08c-.88.61-1.8,1.25-2.72,1.83a1,1,0,0,0-.2.21,1.51,1.51,0,0,1-.25.25c-.38.27-.75.59-1.11.89l-.06,0a9.93,9.93,0,0,1-2.2,1.57,4.37,4.37,0,0,0-1.28,1.06,22.8,22.8,0,0,1-3.36,2.93c-1.09.8-2.27,1.64-3.61,2.56-.39.27-.78.56-1.15.84l-.08,0,.05.07a15.84,15.84,0,0,1-2.69,1.75,28.09,28.09,0,0,1-2.52,1.71l-1.12.72a15.88,15.88,0,0,1-2.54,1.41,26.06,26.06,0,0,0-3.64,2,12.14,12.14,0,0,1-4.38,1.66c-1,.17-2,.31-2.92.45H172l-5.1.79a1.61,1.61,0,0,1-.31,0l-.14,0a25.35,25.35,0,0,1-6.86.1,20.09,20.09,0,0,1-5.81-1.43c-.78-.35-1.42-.62-2-.85s-.94-.34-1.4-.5h-.07l-.8-.28a3.32,3.32,0,0,1-.43-.2c-.6-.32-3.87-2.57-4.23-2.82a6.64,6.64,0,0,1-1-.88v-.07c-.17-.18-.36-.38-.56-.54s-.53-.42-.79-.63l-.09-.07c-.28-.22-.57-.44-.84-.68a33.64,33.64,0,0,0-4.24-3.09,9.65,9.65,0,0,1-1.76-1.4l-.49-.48-.45-.46a9,9,0,0,0-2.24-1.67,13.87,13.87,0,0,1-3.77-2.8,4.24,4.24,0,0,0-1.3-1,16.56,16.56,0,0,1-3.31-2.21,13,13,0,0,0-2.37-1.49c-.94-.45-1.85-1-2.74-1.47l-.95-.53c-.5-.27-1-.56-1.54-.89a4.22,4.22,0,0,0-1.06-.43,5.89,5.89,0,0,1-.73-.25l-.61-.3-.38-.19-1-.45-.38-.18-.86-.41-.5-.24c-.53-.25-1.08-.54-1.69-.84a13.71,13.71,0,0,0-2.39-1,28.31,28.31,0,0,1-3.12-1.17,9.43,9.43,0,0,0-3.5-1,1.78,1.78,0,0,1-.46-.09l-.22-.05-.76-.12-.26,0c-.8-.14-1.64-.27-2.46-.35A19.65,19.65,0,0,0,94,291h-.8a7.66,7.66,0,0,1-2.2-.23,6.6,6.6,0,0,0-2.11-.19l-2.22.07-.14,0-1.88.06-.27,0a4,4,0,0,0-1.14.15,8.24,8.24,0,0,1-2.45.32l-.46.06-.6.08h-.1a20.44,20.44,0,0,0-2.13.17A32.11,32.11,0,0,0,72.23,293a23.2,23.2,0,0,0-5.29,2.56l-.19.13a2.1,2.1,0,0,1-.64.33,6.22,6.22,0,0,0-1.73.78l-2.8,1.69-1.17.71a8,8,0,0,0-2.58,1.57,5.32,5.32,0,0,1-.9.86l-.1.08a9.2,9.2,0,0,0-2.15,2.65,15.71,15.71,0,0,1-2.28,3.32,2.34,2.34,0,0,0-.45.65,9.26,9.26,0,0,1-.83,1.4,8.23,8.23,0,0,0-.82,1.44,3,3,0,0,1-.45.7,3.74,3.74,0,0,0-.3.42,5.22,5.22,0,0,0-.25.52,3.57,3.57,0,0,1-.48.86,4.42,4.42,0,0,0-.75,1.48l-.16.46c-.45,1.63-2.31,4.41-3.17,5.87A11,11,0,0,1,43.4,324c-.21.33-.46.71-.67,1.09l-.06.07-.5.31a5,5,0,0,0-.81.57,9.51,9.51,0,0,1-3.1,1.83,16.23,16.23,0,0,0-2,1c-.5.29-1,.56-1.47.81a2.83,2.83,0,0,0-.9.81,5.9,5.9,0,0,1-2,1.55,33.35,33.35,0,0,0-3.62,6.57l0,.16a2.1,2.1,0,0,0,0,.28l-.05.78a14.27,14.27,0,0,1-.31,2.54,3.38,3.38,0,0,0,0,1.06l0,.22a7.71,7.71,0,0,0,.12.86,3.87,3.87,0,0,1,0,2.1,1,1,0,0,0,0,.47l.09.27c.06.41.13.82.19,1.2l.1.69a6.68,6.68,0,0,1-1.17,2.87l-.21.33a10.76,10.76,0,0,1-3.41,3.23l-.19.24-.33.42a17.61,17.61,0,0,1-2.78,3.2,2.72,2.72,0,0,0-.64.78,13,13,0,0,1-1.89,2.57l-.11.13a9.88,9.88,0,0,0-1.19,1.73l-.08.4a3.83,3.83,0,0,1-.41,1.33,8.3,8.3,0,0,0-.47,1l-.25.59a6.39,6.39,0,0,0-.78,3.64,2.2,2.2,0,0,1,0,.74,7.94,7.94,0,0,0,0,2.21c0,.34.05.69.06,1a3.91,3.91,0,0,0,.22,1l.06.18A.87.87,0,0,0,15,377a.31.31,0,0,0,.13-.14l0-.13a.8.8,0,0,0,0-.17,12.14,12.14,0,0,1-.29-2.54l.24-.85,0-.13c.17-.6.35-1.16.48-1.75a19.61,19.61,0,0,1,1.92-5.64,4,4,0,0,1,1-1.86l.08-.11.15-.19a11.83,11.83,0,0,1,1.21-1.33,12.38,12.38,0,0,0,1.79-2.1l.88-1.28.47-.68.1,0a5.58,5.58,0,0,0,2-1.62l.16-.17a13.11,13.11,0,0,1,2.43-2l1-.64.14,0a22.8,22.8,0,0,0,3.32-2.44,10.57,10.57,0,0,1,2-1.38l.39-.22a6.68,6.68,0,0,1,1.12-.48,4.81,4.81,0,0,0,1.24-.6,10.52,10.52,0,0,1,1.67-1l.68-.34a9,9,0,0,1,.82-.38c1.55-.62,2.87-1.18,4-1.74,1.57-.74,3.18-1.54,4.93-2.42l.4-.2a7.77,7.77,0,0,1,.81-.4,10.32,10.32,0,0,0,2.76-1.65,10.09,10.09,0,0,1,2.21-.9l.1,0a10.78,10.78,0,0,0,3.45-2,2.11,2.11,0,0,1,.55-.35l.08,0L61.82,336l.56-.29a32.22,32.22,0,0,1,6.56-4.48l.61-.61A16.07,16.07,0,0,1,72,328.49a3.17,3.17,0,0,0,.7-.74l.15-.19.52-.68c.7-.92,1.42-1.87,2-2.85.5-.78,1-1.55,1.56-2.29l.56-.81a6.87,6.87,0,0,1,1.42-1.48l.61-.47A14,14,0,0,0,81.72,317a9.09,9.09,0,0,1,1.9-1.6,11.55,11.55,0,0,0,1.81-1.55l.71-.7.41-.4.12,0a8.06,8.06,0,0,0,2.07-.63,20.74,20.74,0,0,1,5.16-2,3.12,3.12,0,0,0,.74-.29,9.49,9.49,0,0,1,3.9-1,3.69,3.69,0,0,0,.66-.09l.39-.05.38,0a5.91,5.91,0,0,1,1-.13l.43-.06c1.67-.06,3.39-.12,5.1-.12a14.37,14.37,0,0,1,4,.42,13,13,0,0,0,3.15.43l1.15.29.24.06c.9.23,1.73.44,2.54.68s1.8.63,2.66,1c.65.25,1.38.52,2.11.73a20,20,0,0,1,3.05,1.37c.76.41,1.58.8,2.38,1.15a22.63,22.63,0,0,1,3.35,1.73l.12,0a5.77,5.77,0,0,1,1.95.85l.33.2.88.51.15.08c1.23.7,2.51,1.43,3.71,2.27.42.3.89.57,1.31.84l.16.09.4.24a5.74,5.74,0,0,0,1.55.67,21.18,21.18,0,0,1,3.33,1.25c.41.18.83.33,1.21.47l1.44.5,2.11.73a11.2,11.2,0,0,0,3.12.74,12.12,12.12,0,0,1,1.81.28,10.72,10.72,0,0,0,1.89.27h.07a6.19,6.19,0,0,0,2.5.33h5.1l.13,0a1,1,0,0,1,.83.24l.1.11-.05.14a1.59,1.59,0,0,1-1,.9l-.12,0c-.25.11-.52.21-.73.29a5.64,5.64,0,0,0-1.07.46,14.76,14.76,0,0,1-3.51,1.47l-.27,0a9.66,9.66,0,0,0-2.7,1.1l-2.48.32a5.84,5.84,0,0,1-2.84.81,4.45,4.45,0,0,0-1.23.16,11.11,11.11,0,0,1-2.45.38,5.69,5.69,0,0,0-1.65.32,13.88,13.88,0,0,1-2.77.67,8.55,8.55,0,0,0-1.56.31,8.7,8.7,0,0,1-1.31.17,7.92,7.92,0,0,0-1.31.17,9.8,9.8,0,0,1-1.17.15,5.74,5.74,0,0,0-1.6.33,2.1,2.1,0,0,1-.73.1l-.22,0-2.18.29a22.4,22.4,0,0,1-3.31.29,2.24,2.24,0,0,0-.59.08,28,28,0,0,1-2.8.54,16,16,0,0,0-2.4.44,19.14,19.14,0,0,1-3.09.41,7.33,7.33,0,0,0-.79.1,12.17,12.17,0,0,0-2.31.72c-1,.4-2,.89-2.91,1.39-.73.37-1.48.76-2.24,1.09a7.17,7.17,0,0,0-1,.58l-.3.19-.55.36-.14.1c-.38.26-.77.52-1.17.75a9.35,9.35,0,0,0-2.71,2.37c-.36.45-.75.89-1.13,1.33l-.09.09c-.45.51-.87,1-1.34,1.6a18.15,18.15,0,0,1-2.48,2.48c-.51.45-1,.9-1.49,1.36a1.83,1.83,0,0,1-.44.3l-.15.09-.7.48-.49.33a24.52,24.52,0,0,0-3.35,1.58l-.23.1a16.47,16.47,0,0,0-4.62,3.22,3.45,3.45,0,0,0-1.09,2,15,15,0,0,1-.72,2.62l0,.14c-.1.3-.2.59-.29.88a5.1,5.1,0,0,1-.58,1.26,17.93,17.93,0,0,0-1,1.91,6.9,6.9,0,0,1-1.16,1.69,33.74,33.74,0,0,0-2.34,2.85c-.54.72-1.15,1.52-1.81,2.25a3.86,3.86,0,0,0-.82,1.43,22.29,22.29,0,0,1-1.11,2.95,19.62,19.62,0,0,0-1.15,3.62c-.17.7-.34,1.38-.54,2.09a5.2,5.2,0,0,0-.15,1.46,26.35,26.35,0,0,1-.21,3.33c-.19,1.21.29,2.06.48,3.27v.14a5.46,5.46,0,0,1,.09,1.46,7.79,7.79,0,0,0,.22,2.33c.08.38.15.76.22,1.2a11.77,11.77,0,0,0,.45,2c.56,1.56,1,3.19,1.4,4.75l.14.54a37.2,37.2,0,0,0,2,5.08,1.42,1.42,0,0,0,.39.48,2,2,0,0,1,.43.48l.24.64c.18.46.33.88.46,1.3.5,1.67,1,3.5,1.51,5.8a3.12,3.12,0,0,1,.11.65,14.55,14.55,0,0,0,.14,1.45,9.77,9.77,0,0,1,.14,2.32,2.2,2.2,0,0,0,0,.79,8.45,8.45,0,0,1,0,3.26l-.1.82a6.38,6.38,0,0,0-.45,2.38,6.47,6.47,0,0,1-.1,1.28v.08a.63.63,0,0,0,.21-.14,4.66,4.66,0,0,0,.53-1.13c.13-.47.24-.95.36-1.45.16-.68.34-1.45.59-2.18a12.23,12.23,0,0,0,.52-3.63l0-.54c0-.62,0-1.25,0-1.86a7.39,7.39,0,0,0-.15-1.05v-.12a1.44,1.44,0,0,0-.1-.53,2.08,2.08,0,0,1,0-.26,1.24,1.24,0,0,0,0-.19,4.2,4.2,0,0,0-.11-.85,12.69,12.69,0,0,0-.33-2c-.13-.45-.24-.9-.35-1.35a22.69,22.69,0,0,0-1-3.25,13.11,13.11,0,0,1-1-4.13,5.31,5.31,0,0,0-.14-.82A17.23,17.23,0,0,1,82.9,399c.08-.64.21-1.26.34-1.86a19.61,19.61,0,0,0,.37-2.25,1.84,1.84,0,0,1,.13-.48,2,2,0,0,0,.07-.19l.26-1a8.68,8.68,0,0,1,.26-.91,9.86,9.86,0,0,0,1.17-2.89l.08-.21a4.23,4.23,0,0,1,.67-1.22,9.18,9.18,0,0,0,1.41-2.37l.34-.73,0-.07.13-.11a2.87,2.87,0,0,0,.49-.46,14.06,14.06,0,0,1,2.28-2.14c.43-.35.92-.69,1.36-1s1.11-.78,1.63-1.22a11.89,11.89,0,0,1,3.34-2.25,3.44,3.44,0,0,0,.73-.47l.33-.25a17.44,17.44,0,0,1,3.49-2,61.38,61.38,0,0,0,5.6-2.54l.77-.36a24.68,24.68,0,0,0,6.68-4.15,9.5,9.5,0,0,1,.91-.71,11.86,11.86,0,0,0,3.06-3.23,10.9,10.9,0,0,1,2.73-1.82c1.49-.69,2.86-1.28,4-1.8a12.29,12.29,0,0,1,1.17-.43l.5-.17,5.85-2,1.37-1.07.24-.18s.63-.48.7-.5a4.54,4.54,0,0,0,1.59-.94,9,9,0,0,1,.92-.65,7.07,7.07,0,0,0,1-.79,5.48,5.48,0,0,0,.51-.53,4.53,4.53,0,0,1,1.15-1,6.47,6.47,0,0,0,1-.72,7.87,7.87,0,0,1,.91-.71,18,18,0,0,0,3.41-3c.46-.48.94-1,1.45-1.44l.09-.1a10.15,10.15,0,0,1,1.89-2.4l.11-.13.7-.75a7.92,7.92,0,0,1,1.75-1.44l.35-.23h.1c.28-.18.57-.36.83-.55s.54-.42.79-.65l.56-.47c.51-.41,1-.8,1.61-1.22a27.73,27.73,0,0,0,3.63-3.08,1.48,1.48,0,0,1,.69-.45,5.37,5.37,0,0,0,1.71-1c.27-.2.55-.4.84-.57.52-.3,1.05-.57,1.57-.84h.07l.55-.27.22-.11a9.23,9.23,0,0,0,1.59-.46h.08c.49-.18,3-.68,3.51-.75.21,0,1.54-.22,1.75-.27a2.74,2.74,0,0,1,1.36,0,6.08,6.08,0,0,0,1.84-.07,16.52,16.52,0,0,0,2.49-.23c.84-.21,1.63-.56,2.48-.74a37.58,37.58,0,0,0,8.73-3.06,3.25,3.25,0,0,0,2.33-.79,6.6,6.6,0,0,1,2.65-1.31,47.74,47.74,0,0,0,7.71-3.14l.81-.4.17-.08c.59-.3,1.2-.61,1.82-.87A21.86,21.86,0,0,0,208,318a22.49,22.49,0,0,1,3.69-1.77l.94-.39a7.64,7.64,0,0,1,.72-.26,6.27,6.27,0,0,0,1.09-.44,7.2,7.2,0,0,1,.81-.37,5,5,0,0,0,1-.47,11.68,11.68,0,0,1,1.23-.72l.15-.08.55-.3.15-.09a57.08,57.08,0,0,1,5.71-3,12.68,12.68,0,0,0,2.08-1.16c1.2-.82,2.51-1.65,4.12-2.6a10.23,10.23,0,0,0,3.07-2.66,7.55,7.55,0,0,1,2.56-2.23H236a1.46,1.46,0,0,0,.41-.26,12.11,12.11,0,0,1,1.77-1.52,13.78,13.78,0,0,0,1.12-.9,13.73,13.73,0,0,1,2.06-1.51l.14-.14.06-.06a19.3,19.3,0,0,1,5-4.39,2.06,2.06,0,0,0,.47-.42l.28-.29.49-.43.2-.13a2.42,2.42,0,0,1,.5,0,1.13,1.13,0,0,0,.69-.17l.29-.48c.26-.43.56-.92.9-1.4l.28-.4a19,19,0,0,1,3.59-4.17,7,7,0,0,0,.56-.53l.08-.08L255,284l4.11-4a17.85,17.85,0,0,1,1.7-2.51,23,23,0,0,0,2.74-4.2,11.32,11.32,0,0,1,1.63-2.43,7.92,7.92,0,0,0,.86-1.23,81.16,81.16,0,0,0,4.68-9.69,3.52,3.52,0,0,0,.18-.59,22.17,22.17,0,0,1,.65-2.36,4.62,4.62,0,0,0,.27-1.44,8.69,8.69,0,0,1,.88-3.49,7,7,0,0,0,.69-2.44,7.71,7.71,0,0,1,.66-2.53v-.42a7.09,7.09,0,0,1-.1-.9,6.68,6.68,0,0,1,0-.84A1.62,1.62,0,0,1,273.89,244.27ZM79.45,262.13c.07.14,0,.35,0,.53-.1-.11-.24-.2-.28-.33a1.67,1.67,0,0,1,0-.46C79.23,261.92,79.39,262,79.45,262.13Zm132.39-30.2v.31c-.07-.09-.18-.16-.2-.26-.07-.43,0-.45.2-.08Zm-66.92,89.26h0a.53.53,0,0,1-.21.13l-.2,0a14.54,14.54,0,0,1-4.74-1.92c-.56-.34-1.11-.74-1.85-1.23a31.4,31.4,0,0,0-3-1.81l-.13-.07c-.6-.34-1.22-.69-1.81-1.05a1.73,1.73,0,0,0-.41-.16l-.37-.12c-1.31-.56-2.8-1.2-4.21-2-1.63-.87-3.46-1.75-5.76-2.75-.43-.19-.9-.35-1.31-.48h-.08l-.44-.15-.6-.21-.15-.05c-.52-.17-1.06-.36-1.54-.56a7,7,0,0,0-2.47-.62,2.57,2.57,0,0,1-.64-.12,3.18,3.18,0,0,0-.46-.11c-.52-.06-1-.16-1.55-.25h-.08a17,17,0,0,0-2.5-.34,6.8,6.8,0,0,1-1-.17,5.9,5.9,0,0,0-1.1-.16h-.07a6.28,6.28,0,0,0-2.5-.28h0a5.29,5.29,0,0,1-.89,0A22.26,22.26,0,0,0,102,307l-.39.05-2.61.34c-.76.1-1.72.28-2.64.35a4.81,4.81,0,0,0-1,.24l-.46.14c-.61.19-1.24.38-1.84.61a4.78,4.78,0,0,1-1.56.41,3.06,3.06,0,0,0-1.7.62,11.29,11.29,0,0,1-3,1.47l-.25.09a6.89,6.89,0,0,0-2.7,1.63,1.09,1.09,0,0,1-.23.17l-.13.09a28.78,28.78,0,0,1-3,2.68h0a27.87,27.87,0,0,0-2.89,2.6,3.42,3.42,0,0,1-.54.45h0l-.32.24a6.28,6.28,0,0,0-1.63,1.94A11.85,11.85,0,0,1,74,322.94l-.24.33-.06.09c-.29.4-.6.79-.86,1.12l-.07.08a19.14,19.14,0,0,0-1.29,1.72,4.19,4.19,0,0,1-.79.85h0l-1.1,1c-1,.88-2,1.8-3,2.66-.75.61-1.65.83-2.44,1.39l-.31.22a17.43,17.43,0,0,0-1.42,1.1A23.25,23.25,0,0,1,58,336.44c-.72.4-1.42.81-2.08,1.22l-.13,0A24.67,24.67,0,0,1,52.5,339a4.06,4.06,0,0,0-.87.56h0c-.18.14-.35.26-.51.37l-.66.44a14.13,14.13,0,0,1-1.75,1.08h0a44.27,44.27,0,0,0-4,2.18A17.16,17.16,0,0,1,41.82,345l-.41.13a23.76,23.76,0,0,0-2.55,1.22l-.58.32-.28.15-.89.49-.1,0a2.61,2.61,0,0,1-.79.32,6.06,6.06,0,0,0-1.5.55l-.16.05-.33.11a7.74,7.74,0,0,0-1.5.79c-.67.49-1.37,1-2,1.43l-.14,0-.13,0-.46.15-.1-.12a.82.82,0,0,1,0-1.06.87.87,0,0,0,.15-.29l0-.15h0a.69.69,0,0,0,0-.2c0-.48-.11-1-.17-1.48l-.11-.91.21-2.29-.34-2.47a12.16,12.16,0,0,1,.33-1.29,5.81,5.81,0,0,0,.36-2.12l0-.07.42-.91.59-1.24a14.87,14.87,0,0,1,2.39-3.66A13.08,13.08,0,0,0,35.82,331h0l.81-.68h0c.63-.29,1.26-.62,2-1s1.65-.88,2.57-1.28a10.1,10.1,0,0,0,4.77-4.5l.26-.51v0c.15-.3.28-.55.4-.8.28-.61.5-1.13.67-1.61.11-.31,1.34-1.69,1.44-2a5.56,5.56,0,0,1,.79-1.69,6.38,6.38,0,0,1,.73-1.65c.14-.24.28-.49.39-.73l.21-.46a4.75,4.75,0,0,1,1.06-1.68.66.66,0,0,0,.18-.27,12.22,12.22,0,0,1,1.33-2.57h0l.56-.92.1-.17a6.88,6.88,0,0,1,.84-1.29,44,44,0,0,0,3-4.22c.6-1.06.2-.49,1.2-1.19a12.93,12.93,0,0,0,1.5-1.2h.07l.68-.61h0l.16-.09a3.89,3.89,0,0,1,.57-.28,13.82,13.82,0,0,0,2.46-1.25l.4-.23a10.76,10.76,0,0,1,2.24-1.11,5.87,5.87,0,0,0,1.25-.64l.25-.15a17.5,17.5,0,0,1,3.18-1.62c.43-.16.84-.34,1.28-.54a13.67,13.67,0,0,1,2.7-1l1-.13h0A12.82,12.82,0,0,0,79,292.6a6.29,6.29,0,0,1,1.6-.15l.13,0,.5,0,1,0c.47-.06,1,0,1.46-.07s1-.13,1.53-.2l1.05-.14a5.9,5.9,0,0,0,2.83,0,3.22,3.22,0,0,1,1.42,0,7.58,7.58,0,0,0,1.38.14l.56,0a15.63,15.63,0,0,1,2.43.26,17,17,0,0,0,2.25.27l1.08.09,1-.21h.06l.83.28.39.13c.89.3,1.8.61,2.71.95a19,19,0,0,0,2.28.64,7.48,7.48,0,0,1,1.72.6l.29.14h0a4.9,4.9,0,0,1,.48.24,15.5,15.5,0,0,0,2.69,1.2c.54.2,1.16.43,1.74.7l.2.09a25.86,25.86,0,0,1,3.84,2,23.37,23.37,0,0,0,3.4,2,10.29,10.29,0,0,1,2.31,1.39,25.76,25.76,0,0,0,2.14,1.55h0c.59.4,1.2.85,1.77,1.25a4.41,4.41,0,0,0,.43.3,5.41,5.41,0,0,1,.65.49,23.15,23.15,0,0,0,3.35,2.45,8.63,8.63,0,0,1,.91.67l.94.81c.48.41,1,.88,1.57,1.33a25.88,25.88,0,0,0,2.3,1.72,15.65,15.65,0,0,1,1.78,1.35,13.67,13.67,0,0,0,1.56,1.16,10.63,10.63,0,0,1,2.91,2.4l.26.28a13.71,13.71,0,0,0,2,1.81.91.91,0,0,1,.25.31v.11l.14.2Zm122-105.85,1.47,1.63.2.11.39.23.14.29q.12.24.24.51a1.06,1.06,0,0,1,0,.27.62.62,0,0,0,0,.15,12,12,0,0,1,1,3.89,5,5,0,0,0,.24,1l-.07.07h.08a2,2,0,0,0,.13.44,2.17,2.17,0,0,1,0,.91h0V225a.38.38,0,0,1,.1.14.37.37,0,0,1,0,.31l-.13.29-.25-.21a.38.38,0,0,1-.18-.22h-.12v-.15l-.41-.18h-.06a4,4,0,0,0-.86-.34,3.22,3.22,0,0,1-1.9-1.35l-.08-.12a3.26,3.26,0,0,0-.93-1,7.72,7.72,0,0,0-2.4-.09h-.12a6.43,6.43,0,0,0-2.39-.55,9.37,9.37,0,0,0-3.66,2.24l-2.77,3.59-.19.23a2.25,2.25,0,0,0-.32.43,20.88,20.88,0,0,1-1.43,2.26c-.26.38-.57.82-.85,1.26a9.22,9.22,0,0,1-3.48,3.13c-.78.43-1.61.8-2.42,1.16l-.77.34a10.34,10.34,0,0,1-2.87.87l-.67.07a7.85,7.85,0,0,1-.84,0h-1.59l-.65-.48v-.09l-.44-2.18-.21-1v-.09a1.17,1.17,0,0,1,.68-1,9.48,9.48,0,0,0,2.33-1.52,13.53,13.53,0,0,0,1.25-1.19,7.63,7.63,0,0,1,1.52-1.37,14.4,14.4,0,0,0,2-1.75h0l.68-.66a9.15,9.15,0,0,0,1.47-1.84,18.11,18.11,0,0,1,2.05-2.64,4.26,4.26,0,0,0,1.15-2,2,2,0,0,1,.27-.7c.27-.4.52-.83.75-1.22a13.23,13.23,0,0,1,1.43-2.12,8.29,8.29,0,0,0,1.34-1.91,7.14,7.14,0,0,1,.64-1,7,7,0,0,0,.62-1,2.77,2.77,0,0,1,1-1.07,6.56,6.56,0,0,0,1.8-2.06,2.35,2.35,0,0,1,.32-.36h0l.1-.1.1-.11.81.19,1.26.3,1.26.33.25.07a2.36,2.36,0,0,1,1.14,1.38,4.6,4.6,0,0,0,.25.53h0l.52.46a2.69,2.69,0,0,1,1,1.64,8,8,0,0,0,.75,2.19v.07Zm-19-45.38H248l.74.32h0a14.29,14.29,0,0,1,2.23,2.65l.06.08a4.59,4.59,0,0,1,.29.5h0a1.79,1.79,0,0,0,.76.9.62.62,0,0,1,.25.26c.26.46.56.92.85,1.36a15.14,15.14,0,0,1,1.37,2.42v.12a.59.59,0,0,1-.21.41.45.45,0,0,1-.36.08,1.19,1.19,0,0,1-.49-.24l-1.13-.86-.32-.24a1.54,1.54,0,0,0-1.34.11,2.67,2.67,0,0,1-1.1.49,17.54,17.54,0,0,0-2,.6,15.63,15.63,0,0,1-2,.6,2.84,2.84,0,0,0-1,.89l-1,1.26-.24.15-.08.05a3.83,3.83,0,0,0-.7.49,4.49,4.49,0,0,0-.62.83l-.12.18a1.19,1.19,0,0,0-.09.22,1.21,1.21,0,0,1-.2.4,6.94,6.94,0,0,0-1.25,3.09c-.07.3-.14.6-.22.89a1.28,1.28,0,0,0,0,.55,8,8,0,0,1,0,2.44v.26c-.15,1.36-.29,2.75-.41,4.09v.11c-.07.79-.15,1.58-.23,2.37a7.36,7.36,0,0,0,0,1.7,7,7,0,0,1,0,1.29v.08c0,.39-.05.78-.09,1.2v.81a12.2,12.2,0,0,1,.49,4.34,5.67,5.67,0,0,0,0,.7,3.81,3.81,0,0,1,0,1.32c-.17.63-.33,1.25-.5,1.91l-.35,1.29-.93,1.33a1,1,0,0,1-.05.39,4.45,4.45,0,0,1-.16,1,6.43,6.43,0,0,1-1.58,3.25h0a1.42,1.42,0,0,1-.81.52h-.38l-.06-.13v-.05a.36.36,0,0,1,0-.37c.36-.63.72-1.27,1.08-1.88v-.36a5.78,5.78,0,0,0-.08-3V213a2.7,2.7,0,0,0-.09-.48c-.09-.48-.22-1-.34-1.44v-.12a15,15,0,0,1-.49-1.82,5.32,5.32,0,0,0-.59-1.57,13.14,13.14,0,0,1-1-3c-.09-.39-.21-.78-.33-1.18l-.12-.39a12.12,12.12,0,0,1-2.84-4.08l-.26-.51-.09-.34a13.87,13.87,0,0,1-.53-3.45v-2.4a8.09,8.09,0,0,1,.57-3.79,2.3,2.3,0,0,0,.1-.36v-.17l-.17-.28-.07-.12a12.27,12.27,0,0,1-.68-1.23,11.75,11.75,0,0,1-.47-1.27h0l-.18-.55a1.66,1.66,0,0,0-.06-.57h0a8.3,8.3,0,0,0-.13-1.2,11.52,11.52,0,0,1,.06-2.71v-.43a2.79,2.79,0,0,1,.29-.92h0c.42-.9.85-1.83,1.33-2.73.15-.28.32-.54.51-.84a6.27,6.27,0,0,0,.69-1.23,12.22,12.22,0,0,1,.73-1.53v-.09l.3-.57c.21-.42.41-.87.59-1.3l.31-.7a2.68,2.68,0,0,1,1.11-1.24,12.83,12.83,0,0,1,1.2-.62l1.9-.83,1-.42a4.71,4.71,0,0,1,2.28.37c1.2.48,2.43.94,3.49,1.34l1,.37.6.24a5.49,5.49,0,0,0,2.24,1.13Zm-14.38-13.67h.06a1.41,1.41,0,0,1,1,.35h0c.31.23.61.47.87.68l.18.15a1.28,1.28,0,0,0,.91,0l.26-.06h.27a.59.59,0,0,1,.25.09l.69.49.29.21a23.29,23.29,0,0,1,3.7,3l.06.06c3,3.21,3,3.21,3.68,4.53l.14.27-.3.08a1.84,1.84,0,0,1-1.74-.55h0a3.58,3.58,0,0,0-.59-.41l-.67-.22h0c-.55-.18-1.12-.38-1.7-.52s-1.16-.25-1.78-.36l-.76-.14a2.6,2.6,0,0,0-.94.51h-.06l-.18.13c-.21.14-.42.3-.63.46l-.46.35H236a5.33,5.33,0,0,0-3.18,1.57l-.56,1.14-1.4,2.88-.1.22a3.31,3.31,0,0,1-.46.79,10.42,10.42,0,0,0-1.91,3.59,1.8,1.8,0,0,1-.32.52l-.07.09a.44.44,0,0,1-.29.15h-.13a.44.44,0,0,1-.35-.26,4.75,4.75,0,0,1-.26-1.47,4.39,4.39,0,0,0-.23-1.32,14.2,14.2,0,0,1-.65-2.53l-.1-.51h0l.93-8.05a7.46,7.46,0,0,1,1.39-2.38,14.87,14.87,0,0,0,.94-1.35v-.06h.06Zm-33.91-10.84h0l.06-.15.05-.16h.17l1.08-.08H201a15.64,15.64,0,0,1,4.38.07c.44.09.88.15,1.31.21h.11l.57.08h.14l.53,1.29a1.93,1.93,0,0,0,1.17.57,1.54,1.54,0,0,1,1.07.69,5.35,5.35,0,0,1,.34.54v.06a6,6,0,0,0,.34.51l.14.19.08.11a4.45,4.45,0,0,0,.86,1,5.82,5.82,0,0,1,1.65,2.28h0l.24.47v.08a4.93,4.93,0,0,0,.34,1.27,4.45,4.45,0,0,1,.37,1.72,6.4,6.4,0,0,1,.15,2.46,7.32,7.32,0,0,0,0,2.34,4.32,4.32,0,0,1,0,1.63,4.7,4.7,0,0,0,.1,2.48,1.57,1.57,0,0,1,.07.54v.19l.18.25.65.9c.24.32.49.62.68.85a14.81,14.81,0,0,1,2.75,4.84c.1.28.18.57.26.8l.09.29.09.88c0,.48.08.9.12,1.33a7,7,0,0,1,0,1.13,12,12,0,0,0,0,1.94,10.5,10.5,0,0,1,0,1.3v.48c0,.47-.07.94-.11,1.4h0a9.63,9.63,0,0,0,0,2.9,2.43,2.43,0,0,1-.08,1v.19a4.66,4.66,0,0,1-.15.53,2.53,2.53,0,0,0-.16.7,10.07,10.07,0,0,1-.08,1.54,13.91,13.91,0,0,0-.09,1.73,9.5,9.5,0,0,0,.1,1.5,7.38,7.38,0,0,1,0,1.05,4.23,4.23,0,0,0,.18,1.52v.05h0l-.1,1.57h.06v.08a.56.56,0,0,1,.2.23.54.54,0,0,1,0,.41h0v.05l-.06.27-.26-.09a.38.38,0,0,1-.25-.14.58.58,0,0,1-.11-.32,2,2,0,0,1,0-.2h0v-.05a.53.53,0,0,1-.24-.25c-.1-.24-.2-.49-.29-.74a11.52,11.52,0,0,0-.44-1.08,20.56,20.56,0,0,1-1.13-3.11l-.2-.66a1.19,1.19,0,0,0-.14-.4v-.09c-.07-.17-.14-.36-.2-.54a13.31,13.31,0,0,1-.33-1.3l-.08-.4a7.72,7.72,0,0,0-1-3h0l-.35-1c-.21-.62-.42-1.26-.62-1.9a38.72,38.72,0,0,0-1.74-4.73l-.76-1.6-.36-.78h0l-.1-2.08-.27-.75v-.14a18.43,18.43,0,0,0-.73-1.89,9.83,9.83,0,0,1-.57-1.72c-.06-.21-.11-.42-.17-.62-.2-.7-.39-1.4-.53-1.92l-.19-.69-.11-.2a1.84,1.84,0,0,0-.14-.24l-.81-1-.06-.07c-.53-.66-1.08-1.35-1.58-2.05s-.94-1.42-1.46-2.26l-.75-1.21h0l-.13-.44c-.21-.69-.47-1.54-.71-2.4a4.93,4.93,0,0,1-.13-.82v-.09c0-.25-.05-.51-.07-.77v-.1a10,10,0,0,0-.14-1.32A14.18,14.18,0,0,0,200.3,147l-.09-.16a7.9,7.9,0,0,1-.45-.82.54.54,0,0,1-.18-.54Zm-34.36,6v-.14c.06-.17.12-.34.17-.51a16.84,16.84,0,0,0,.46-2v-.29a34.34,34.34,0,0,1,1.16-4.28h0a.38.38,0,0,1-.1-.11.37.37,0,0,1,0-.3l.1-.27.25.14a.39.39,0,0,1,.22.2h.21l.3.07h-.11a1,1,0,0,1,.33.36,2.66,2.66,0,0,1,.36.89c.11.84.21,1.74.25,2.65a9.55,9.55,0,0,1,0,1.08h0a6.66,6.66,0,0,0,0,1.49,1,1,0,0,1-.08.57,4.61,4.61,0,0,0-.34,1.22,4.56,4.56,0,0,1-.49,1.54,2,2,0,0,0-.18.75c-.17,1.41-.31,2.7-.44,4a1.38,1.38,0,0,0,.07.55,1.07,1.07,0,0,1,0,.71,1.72,1.72,0,0,0-.08.34,4.55,4.55,0,0,0,.44,1.63,9.81,9.81,0,0,1,.36,1v.87a7.41,7.41,0,0,0,.09,2.35v.32a12.33,12.33,0,0,1-.84,4.82,3,3,0,0,0-.17.52l-.08.29a14.92,14.92,0,0,1,.21,2.57v.08a18.49,18.49,0,0,0,.13,2.07v.27a5.1,5.1,0,0,0,.14.78,11.73,11.73,0,0,1,.57,4.18,4.13,4.13,0,0,0,.12,1.44,17.53,17.53,0,0,1,.72,4.16,3.78,3.78,0,0,0,.4,1.6,7.63,7.63,0,0,1,.63,1.77,10.74,10.74,0,0,0,.36,1.17,1.46,1.46,0,0,1,.1.52,7.89,7.89,0,0,0,.71,2.87l.17.44c.19.49.36,1,.53,1.49v.1l.24.7A22.68,22.68,0,0,0,175,204a.41.41,0,0,1,.07.27h0v.17l-.16.08h0a.52.52,0,0,1-.2.09h0a.26.26,0,0,1-.15,0,23.6,23.6,0,0,1-3.73-2.78c-.21-.18-.42-.38-.62-.57h0a8.84,8.84,0,0,0-1.15-1,10.41,10.41,0,0,1-2.06-1.94l-.07-.08c-.23-.26-.47-.53-.72-.78a3.52,3.52,0,0,1-.6-.91,2.87,2.87,0,0,0-.61-.89,10.36,10.36,0,0,1-1.12-1.22l-.37-.44a4.17,4.17,0,0,1-1-2.31,8,8,0,0,0-.72-2.23,6.15,6.15,0,0,1-.57-2.43,6.92,6.92,0,0,0-.21-1.4,2.77,2.77,0,0,0-.1-.5c0-.16-.1-.48-.16-.72a7.42,7.42,0,0,1-.27-2.39,2.3,2.3,0,0,0-.15-1,16.7,16.7,0,0,1-.51-1.69,12.25,12.25,0,0,0-.78-2.31v-.46h0a4.56,4.56,0,0,1,.08-1,12.14,12.14,0,0,0,.22-1.61v-.43a7.44,7.44,0,0,1,.4-2.12,8.14,8.14,0,0,0,.36-1.3v.07a6.89,6.89,0,0,1,.58-1.83.73.73,0,0,0,.08-.31,11.66,11.66,0,0,1,1-3.85l.17-.45a8.39,8.39,0,0,0,.33-1.17h0a9.22,9.22,0,0,1,.32-1.13l.07-.2a9.32,9.32,0,0,0,.55-1.86,5.77,5.77,0,0,1,.34-1.15l.13-.36a3.17,3.17,0,0,0,.07-1.69v-.07l.24-.6.5-1.23v-.05l.05-.12a2,2,0,0,0,.18-.59,7.33,7.33,0,0,1,.48-2ZM160,206.16c0,.05.07.08.1.14l.06,1.82.88,1.92-.09.11a.73.73,0,0,1-.22.22,7.43,7.43,0,0,0-1.39.89c.22-.72.42-1.44.67-2.13a23.29,23.29,0,0,0,0-2.92Zm.62-3.54a.5.5,0,0,1-.18.21,11.63,11.63,0,0,0,.13-3,3.82,3.82,0,0,1,.22-1.3,4.83,4.83,0,0,0-.23-3.27c-.53-1.19-.94-2.44-1.46-3.64l.68.74.72.78a1.4,1.4,0,0,1,.24.42l.1.21a6.41,6.41,0,0,0,1.57,2,4.59,4.59,0,0,1,.83.81c.12.16.28.32.41.48l-.84.9h0l-.57,1.09a22.72,22.72,0,0,0-1.65,3.62Zm1.49,4.35a27.06,27.06,0,0,0,.56-3.32,15,15,0,0,1,.61-1.45,12,12,0,0,0,.66-1.66,3.55,3.55,0,0,1,.79-1.34,4.83,4.83,0,0,1,.4-.38,13.27,13.27,0,0,1,1.32,1.74A4.91,4.91,0,0,0,168,202c1.09.74,2.12,1.57,3.14,2.39l-.65.09a8.29,8.29,0,0,0-1.1.16,4.3,4.3,0,0,1-1.09.08h-.19a2.66,2.66,0,0,0-1,.22h0l-.93.74-1.39,1.12a5.78,5.78,0,0,0-.65.67,2.92,2.92,0,0,1-1.28,1,1.35,1.35,0,0,1-.73-1.49ZM92.89,100a25.6,25.6,0,0,1,3.83.81l1.46.93c.06.3.21.56.13.72a1.66,1.66,0,0,1-.67.76c-1.08.49-2.2.92-3.14,1.29H92.39a28.44,28.44,0,0,0-.66-4.59c.37,0,.74.1,1.13.12Zm-2.28-17.1c2.31-.62,4-1.82,6.07-2a6.85,6.85,0,0,1,1.79,2.26,2.73,2.73,0,0,1-1.12,2.79c-1.09.9-2.27,1.7-3.33,2.49a5.94,5.94,0,0,1-1.17.22,30.37,30.37,0,0,0-4.76.27L88,88.69A48.15,48.15,0,0,0,85.1,84a6.8,6.8,0,0,0-.43-.6c.53-.07,1-.17,1.58-.22,1.57-.14,3.09-.65,4.33-.23Zm-6.37-6.25a6,6,0,0,1,1,.72,8,8,0,0,0,2.43,1.83,17.71,17.71,0,0,1,1.2,1.31h0a13,13,0,0,1-1.32.19,6.15,6.15,0,0,1-1.19-.7,6.14,6.14,0,0,0-1.26-.56c-1.37-.15-2.63-.34-3.9-.4a9.2,9.2,0,0,1-2.82-.65l-.16-.1-.16-.07a5.41,5.41,0,0,1,1.78-.78,6.2,6.2,0,0,0,2.93-1.53c.47.25,1,.51,1.44.79Zm.11,4.09-1.09.16-1,.15c-.3-.26-.59-.53-.91-.77l2.36.21Zm-49,15.78-2-1.05a21.42,21.42,0,0,1-7.39-2A5.11,5.11,0,0,1,24.51,91a1.16,1.16,0,0,1,.85-1c.45-.16.91-.27,1.47-.43a13.25,13.25,0,0,0,4.55.73,4.61,4.61,0,0,1,1.75.36,14.82,14.82,0,0,0,7.1.67c1-.15,1.91-.21,2.81-.31,1.38-.91,1.39-.91,2-2a8.4,8.4,0,0,0-1.17-3.9,3.83,3.83,0,0,0-1.57-.81c-1.58-.56-3.16-1.16-4.77-1.64a15.1,15.1,0,0,1-6.34-3.82c-.25-.25-.54-.46-.71-.61-1.67-.88-3.56-1-5.09-2.09.22-.43.29-.81.53-1A5.74,5.74,0,0,1,30.32,74a14.35,14.35,0,0,1,1.77.34l3.84.82a17.91,17.91,0,0,0,8.43,4l.58-.3a2.32,2.32,0,0,0,.55-1.94,9.18,9.18,0,0,0-.92-3.32l-.76-1.44L40,68.24a22.44,22.44,0,0,0-8.09-1.58,4.78,4.78,0,0,1-3-1.07,20.7,20.7,0,0,1-1.62-1.36,1.46,1.46,0,0,1-.48-1.59,18.08,18.08,0,0,1,4.63-.23,4.51,4.51,0,0,0,4-1.68c.3-2.69.23-3-1.44-5.23a5.1,5.1,0,0,0-3.33-1,5.11,5.11,0,0,1-3.08-.84A20.84,20.84,0,0,0,24.43,52a6.38,6.38,0,0,1-1.21-.74c-1.34-1-2.88-1.39-4.25-2.28a14.62,14.62,0,0,1-3.15-3.15c.07-1.16.36-1.47,1.08-1.67a13.9,13.9,0,0,1,3-.15,16.92,16.92,0,0,0,3.19,1.35,11.31,11.31,0,0,0,3.58.25,1.82,1.82,0,0,0,1.76-1.48l.12-.54c-.23-.93-.46-2-.78-3.15a3.78,3.78,0,0,0-1.12-1.75c-.87-.79-1.76-1.57-2.63-2.34-1.47-.89-3.22-1-4.44-1.52L7.89,27.53,6.1,27.25a14.28,14.28,0,0,1-3.19-2.74,1.39,1.39,0,0,1,.16-1.88c.56-.42,1.18-.77,1.73-1.1,1.43.08,2.7.6,4,.37a13.68,13.68,0,0,1,2.76.8,12.44,12.44,0,0,0,4,1,2,2,0,0,0,1.76-2A15.84,15.84,0,0,0,17.31,20a64.82,64.82,0,0,0-3.79-5.36,14.16,14.16,0,0,0-2.12-1.36A11.66,11.66,0,0,1,8.3,11,6.21,6.21,0,0,1,6.35,7.74,12.77,12.77,0,0,1,5.86,4.3a3.88,3.88,0,0,1,.77-.69c.85-.43,1.77-.8,2.65-1.22l3.39.36L16.6,5.53c.7.73,1.67,1.76,2.67,2.75a8.71,8.71,0,0,1,2.75,4,9.17,9.17,0,0,0,2.45,1.44l2.07.14a3.34,3.34,0,0,0,1.86-1.65,6,6,0,0,0,.74-2.63C27.31,6.49,27.31,6.49,27,3.5a1.46,1.46,0,0,1,1-.92,1.58,1.58,0,0,1,1.43.06c.61.36,1.17.8,1.79,1.14a15,15,0,0,0,1.59.66c1,1.29,1.68,2.62,2.71,3.77a7.4,7.4,0,0,1,1.66,3.4,14.54,14.54,0,0,0,1.68,4.53,5.4,5.4,0,0,1,.68,1.59,22,22,0,0,0,2.38,5.44,18.15,18.15,0,0,0,2,5.82,2.93,2.93,0,0,0,1.91,1.62,7.57,7.57,0,0,0,.93-.17,1.53,1.53,0,0,0,1-.93,3,3,0,0,0,.29-1,21.7,21.7,0,0,1,1.34-6.21l-.9-3.44c.18-.88.29-1.68.52-2.45a3.45,3.45,0,0,1,.8-1.55c.72-.65,1-1.56,1.66-2.23a1.39,1.39,0,0,1,.38-.17,6.89,6.89,0,0,1,3.13,4,29,29,0,0,1,1.19,6.09c.08,1,.26,2.05.3,3.08a15.18,15.18,0,0,0,1.3,5,1.88,1.88,0,0,0,1.9,1.14L61.31,31l3.05-4.1c.56-.87.36-2.17,1.41-3a2.75,2.75,0,0,1,.37.66A10.67,10.67,0,0,1,66,29a11.42,11.42,0,0,1-.38,1.33,5.9,5.9,0,0,0-.4,3.35,12.28,12.28,0,0,0-2.12,4.49A12,12,0,0,1,61.35,42c-.35,3.14-1.83,6.68-2.45,10.14.09.48.22,1.27.4,2a1.39,1.39,0,0,0,1.08.81,4,4,0,0,0,2.72-.67,12.28,12.28,0,0,0,1.56-1.42c.8-.86,1.37-2.59,2.26-3.66l.73-1.7a4.08,4.08,0,0,1,.41-.56,11.7,11.7,0,0,0,2.63-3.71A35.59,35.59,0,0,1,72.53,40c.69-.41,1.33-.74,2-1.14s.91-.74,1.39-1c.09-.05.44.11.53.24a1,1,0,0,1,.09.67,20.54,20.54,0,0,1-1.59,4.94,16.41,16.41,0,0,1-2.1,3.26c-.63.83-.91,2.76-1.29,3.73s-.84,1.65-1.36,2.66A3.12,3.12,0,0,0,71.61,56c.64.45,1.39.29,2.08.39a1,1,0,0,1,.51,1.18,5.55,5.55,0,0,1-.32.89c-.95.91-2.18,1.16-3.17,1.76L64.6,65.49c-.89,1.26-1.1,3-1.94,4.61l.87,1.4a2.88,2.88,0,0,0,.82.22c1.8-.17,3.6-.31,5.38-.57a10,10,0,0,0,4.37-1.72,15.9,15.9,0,0,1,3.82-1.91,32.32,32.32,0,0,1,5.48-1.67,9.94,9.94,0,0,0,1.43-.48,34.89,34.89,0,0,0,3.51-.12,6.68,6.68,0,0,1,2.86,0c1.34.46,2.89.29,4.06,1.19.06.24.2.47.16.66A9.54,9.54,0,0,1,95,68.26a2.32,2.32,0,0,1-.44.3c-1.6.47-3.17,1.13-4.91.83a4.78,4.78,0,0,0-2.81.43c-.54.24-1.1.45-1.87.77l-4,3.83c-.5.13-1.08.27-1.64.45a10,10,0,0,0-3.53,1.7c-.32.27-.67.49-1,.74a5.67,5.67,0,0,0-1.72.23,23.44,23.44,0,0,1-3,1.73,1.31,1.31,0,0,0-.4.25A14.94,14.94,0,0,1,65.75,82a31.69,31.69,0,0,1-4.31,3.46,14.64,14.64,0,0,0-1.29,1,7.17,7.17,0,0,1-.71.63,25.6,25.6,0,0,0-2.19,1.6A4.56,4.56,0,0,1,57.39,87a4.08,4.08,0,0,0,.09-.59c-.36-1.78-.68-3.47-1.06-5.16a19.18,19.18,0,0,0-.82-3,67.42,67.42,0,0,1-2.35-8,18,18,0,0,0-1.51-3.87c-.65-1.23-1.24-2.5-1.87-3.74s-1.22-2.13-1.77-3.28a36.44,36.44,0,0,1-1.91-4.1A48.38,48.38,0,0,0,43.72,50a25,25,0,0,0-1.63-2.68c-1.53-2.34-3.15-4.62-4.57-7-1.24-2.11-2.37-4.26-3.46-6.43a28.81,28.81,0,0,0-3.08-5,19.25,19.25,0,0,0-2.85-3.51,1.47,1.47,0,0,0-1.37-.11,1.46,1.46,0,0,0,.12.67,58.46,58.46,0,0,1,3.45,5.58A30.07,30.07,0,0,1,32,34.55a66,66,0,0,0,6.21,10.81A38,38,0,0,0,41.31,50a8,8,0,0,1,1.47,2.52,86.38,86.38,0,0,0,5,10.72,41.09,41.09,0,0,1,3.13,7C52,73.63,53.07,77,54,80.47c.5,1.77.82,3.59,1.16,5.4a6.88,6.88,0,0,1,.08,2.06,10,10,0,0,0,.09,2.31l-.31.25a68,68,0,0,1-6,3.85c-1.81,1.1-3.14,2.46-4.83,3.68l-.34.22A7.09,7.09,0,0,0,41.26,98a13.33,13.33,0,0,1-5.89-1.44Zm-12,16.72c.24-.58.54-1.15.82-1.74a6.26,6.26,0,0,1,3.52-1.78,11.23,11.23,0,0,0,5-2.52c.6-.51,1.23-1,1.83-1.51a6.3,6.3,0,0,0,1-1,11,11,0,0,1,4.93-3.53,2.37,2.37,0,0,1,1.84-.07l1,.42c.34.34.8.78,1.23,1.24a.89.89,0,0,1,.18.43,2.65,2.65,0,0,1,0,.51c-.2.08-.44.27-.62.23a22.83,22.83,0,0,0-4.26-.29,26.79,26.79,0,0,0-4.4,2.33l-2.32,2.68c-.48.31-1,.63-1.54,1a14.22,14.22,0,0,0-1.5,1.16,8.78,8.78,0,0,1-3.45,2c-.76.23-1.49.53-2.27.69a5.61,5.61,0,0,0-1,.4,1.69,1.69,0,0,1,0-.61Zm-.18.76V114h0Zm-.9,3.62a.75.75,0,0,1,.1-.21L24,115.51a9.62,9.62,0,0,1,2.29-1,10.49,10.49,0,0,0,4.37-2.3A27.17,27.17,0,0,1,34.1,110l1.32-1.53a9.51,9.51,0,0,1,3.41-2.52c.43-.19.86-.4,1.31-.61a6.87,6.87,0,0,1,2.8,0,15.5,15.5,0,0,0,2.59.24c1.26-.33,2.08-1.45,3.31-1.81,1.06.23,2.23-.06,3.14.77a2,2,0,0,1-.12.45,5.71,5.71,0,0,1-1.25,1.42,20.16,20.16,0,0,1-4.8,3.52,10.17,10.17,0,0,0-1.09.35,5.34,5.34,0,0,1-2.56.34c-.71-.06-1.42-.05-2.07-.07l-2,.73A18.19,18.19,0,0,1,30.76,115l-1.93-.17-1.89.73a6,6,0,0,1-2.71,1.71c-.6.2-1.15.52-1.73.78,0,0-.14,0-.19-.07a.32.32,0,0,1-.07-.36Zm51.19-9.22a8,8,0,0,0-3.35.17,18.27,18.27,0,0,1-3.08.55,32.75,32.75,0,0,1-4.57-1.72,7.15,7.15,0,0,0-1.15-4l-1.21-1c.18-.23.29-.49.48-.57.72-.33,1.47-.58,2.19-.91,1.8-.8,3.58-1.64,5.44-2.32a7.35,7.35,0,0,0,.85-.42l3.15-1.64a.77.77,0,0,1,.21.13,7.12,7.12,0,0,1,1.29,3,9.9,9.9,0,0,1,.11,4.24A3.49,3.49,0,0,0,73.7,105c.07,1.1-.38,2.2-.26,3.38Zm-12.67-1.9-.38.4a11.72,11.72,0,0,0-3.92,1,5.59,5.59,0,0,0-1.32,2.4c-.23.58-.29,1.22-.5,1.83s-.33,1.22-.5,1.88l-1.31,1.72L50.25,118a2.92,2.92,0,0,1-.37.3l-3.44,2.15-6.17.54c-.08,0-.37-.13-.68-.22a9,9,0,0,0-3-.4,8.15,8.15,0,0,1-2.36-.2,2.51,2.51,0,0,1-1.61-.94,5.52,5.52,0,0,0-2-1.64c-.38-.23-.73-.5-1.1-.76.1,0,.17-.11.25-.11a17,17,0,0,0,5.47-1.51,3.85,3.85,0,0,0,.83-.45c.65-.45,1.32-.89,1.93-1.38a4.5,4.5,0,0,1,2.83-1.09c.63,0,1.27-.09,1.9-.11a10.87,10.87,0,0,0,6.14-2.3,19.55,19.55,0,0,0,4-3.68,11.13,11.13,0,0,1,2.38-2.1,4.93,4.93,0,0,1,2.06-.25c.71.06,1.41.22,2.22.35.67.58,1.44,1.14,1.28,2.28ZM21.94,121.13c.06,0,.11-.12.18-.15a8.21,8.21,0,0,0,2.43-1.45,8.4,8.4,0,0,1,1.09-.59l3.24-.28c1.67.53,2.72,1.91,4.17,2.87,1.19.11,2.42.38,3.7.39a12.13,12.13,0,0,1,2.57.41,4.4,4.4,0,0,0,1.41.16l6.55-.65A9.53,9.53,0,0,1,50.73,120l1.22-1.24a5.09,5.09,0,0,0,1-.29,9.69,9.69,0,0,1,3.46-.78,5,5,0,0,1,3.41,1c-1,.87-2.3.75-3.57,1.17-1.21,1-2.79,1.81-3.9,3.2a3.73,3.73,0,0,1-.72.62c-.32.24-.65.45-1,.68a16.13,16.13,0,0,0-1.64.19c-.46.1-.89.34-1.35.46s-1.09.22-1.6.31l-1.57,1a10.59,10.59,0,0,0-1.26.25,13.93,13.93,0,0,0-1.38.59H40c-1.51-.36-2.85-1.12-4.37-1.27a7.5,7.5,0,0,0-.9,0l-2.83,1.55c-.82,0-1.66-.28-2.42-.26a4,4,0,0,1-2-1.48,12.93,12.93,0,0,0-3.23-3.16H22.14a.57.57,0,0,1-.57-.31A1.11,1.11,0,0,1,21.94,121.13Zm7.83,19a4.68,4.68,0,0,1-1.15-1.79,1.77,1.77,0,0,0-1.28-1,4.94,4.94,0,0,0-.69-.16,5.6,5.6,0,0,0-2.36.13,3.69,3.69,0,0,1-2.26,0l-2.64-1.91A8.1,8.1,0,0,1,17,129.84l.73-1.09c.29-.85-.22-1.8.41-2.58l1.56-1.27a11.11,11.11,0,0,1,1.43-.59,8.1,8.1,0,0,1,1.65-.23,2.64,2.64,0,0,1,1.79.53,5.65,5.65,0,0,1,1.66,1.68,5.48,5.48,0,0,0,2.71,2.23A4.6,4.6,0,0,0,31,129h1.25c.75-.37,1.52-.76,2.3-1.13a3.16,3.16,0,0,1,3,0,17,17,0,0,0,2.09.76l2-.09a3.12,3.12,0,0,0,1.59-.41,6.53,6.53,0,0,1,1.91-.52l1.59-.92a7.11,7.11,0,0,0,2.27-.6,2.34,2.34,0,0,1,.92-.19c.39-.05.78-.07,1.14-.1a9.58,9.58,0,0,0,3.18-2.53,10.35,10.35,0,0,1,4.79-2.47,11.13,11.13,0,0,1,1.18-.14h1.11l2.42,1.44a9.7,9.7,0,0,0,.74.75,8.73,8.73,0,0,1,2.4,3.48c.42,1,.92,2,1.39,3-.57.28-1.14.54-1.68.85s-1,.73-1.58,1.06-1.12.59-1.65.94-1,.77-1.45,1.12a8.25,8.25,0,0,1-2.41.29,5.8,5.8,0,0,0-3.43,1l-1,1.16-2.64.94a48.49,48.49,0,0,1-5.07.42,8.16,8.16,0,0,0-2.53.48l-2-.27-2.76-1.25a3.06,3.06,0,0,0-1.63-.23c-2.63.32-2.69.11-5,1.87-1,.77-2,1.51-3,2.21Zm46.78-6c-.54.14-1.09.22-1.65.33-.75.21-1.36.76-2.13,1s-1.41.71-2.14,1a10.18,10.18,0,0,0-3,1.9,4,4,0,0,1-2.09,1.05,10.7,10.7,0,0,0-2.77.63,14.66,14.66,0,0,1-5.2.17,5.73,5.73,0,0,0-2.39.09,14.58,14.58,0,0,1-3.26-1.36c.37-.46.9-.28,1.31-.45a6,6,0,0,1,1.09-.47,2.86,2.86,0,0,0,1.8-1.07,4.34,4.34,0,0,1,4-1.82,22.32,22.32,0,0,0,3-.33,4.35,4.35,0,0,1,2.3-1.67c.14,0,.26-.18.39-.27l2.42-1.62a9.82,9.82,0,0,1,5.56.13c.69.18,1.36.41,2,.59a7.2,7.2,0,0,1,1.69,1.43,1.19,1.19,0,0,1-.92.74Zm3.19,1.22A13.1,13.1,0,0,1,82,136.83c.08.07,0,.28.05.49-1.11.7-2.23,1.45-3.41,2.1A10.2,10.2,0,0,1,76,140.53a14.49,14.49,0,0,0-1.58.52,13.83,13.83,0,0,1-3.22.8,6.48,6.48,0,0,0-1.83.46,5.86,5.86,0,0,1-2.81.34,20,20,0,0,1-2.34-.4c-.21,0-.39-.25-.81-.53a17.46,17.46,0,0,1,2.3-.75,5.7,5.7,0,0,0,3-1.41A24.43,24.43,0,0,1,73,137a10.32,10.32,0,0,1,1.35-.42,13.4,13.4,0,0,0,1.3-.71,21.55,21.55,0,0,1,4.06-.53Zm-39.48,6.16c-.28.9-.56,1.8-.87,2.69a4.63,4.63,0,0,1-.78,1.44c-.35.43-.67.87-1.11,1.46a2.42,2.42,0,0,1-.79-.08,3.35,3.35,0,0,1-1.36-1.25c-.14-.58.18-1.08.16-1.49a7.33,7.33,0,0,1,3.93-3.42.75.75,0,0,1,.86.18,2,2,0,0,1,0,.47Zm.25-2.8a3.65,3.65,0,0,1-.28.39c-.6.39-1.4.16-2,.62-.37.28-.86.39-1.26.65a7.52,7.52,0,0,0-1.3,1c-.55.56-1,1.19-1.45,1.69a11.42,11.42,0,0,0-.62,3.12,1.44,1.44,0,0,1-1.24-.57A4.13,4.13,0,0,1,31,143.39L32,141c.7-.55,1.45-1.13,2.18-1.72a11.08,11.08,0,0,1,2.48-1.54l2.59-.22c.31.12.68.24,1,.4a.55.55,0,0,1,.29.72l-.05.1Zm1.41,9.63a5.54,5.54,0,0,1-1.33-2.2,24.74,24.74,0,0,1,1-3.18c.6-1.27,1.09-2.66,2.46-3.52l2.07-.2a3.47,3.47,0,0,1,.71,0,2.49,2.49,0,0,1,.69.16c1,.46,2.17.43,3.19.9,1.37.63,2.77,1.19,4.17,1.73a6.2,6.2,0,0,0,2.51.65,3.87,3.87,0,0,1,1.38.34,24.2,24.2,0,0,0,4.17,1.11,5.14,5.14,0,0,1,.68.21h2.15a4.91,4.91,0,0,1,.94.12c1,.22,2,.38,3,.61,1.62.38,3.28.59,4.89,1a46.57,46.57,0,0,0,5.17.73c.62.08,1.27-.07,1.9,0a4.77,4.77,0,0,1,1.08.33,8.48,8.48,0,0,1,1.12,3.56,9.53,9.53,0,0,0,3.57,4.64h.82a.44.44,0,0,0,.34-.7,4.94,4.94,0,0,0-.53-.78c-.43-.46-.9-.89-1.42-1.4a16,16,0,0,1-1.55-4.19,7,7,0,0,0-.51-1.33,2.25,2.25,0,0,0-1.17-1.15c-.72-.32-1.48-.56-2-.75l-.5-.05a16.91,16.91,0,0,1-4.26-.33,17.79,17.79,0,0,0-1.87-.32,5.32,5.32,0,0,1-2.21-.79c-.05,0-.07-.12-.12-.23.62-.14,1.25-.24,1.85-.43s1-.43,1.54-.65a3.54,3.54,0,0,1,.67-.24,11.65,11.65,0,0,0,4.88-2.36,3,3,0,0,1,.38-.18l1.27-.19a1.93,1.93,0,0,0,.39-.18c1.54-1.11,3.1-2.21,4.72-3.21a3.22,3.22,0,0,0,.69-.65.83.83,0,0,0,.18-.88,2.39,2.39,0,0,0-.48-.54,10.59,10.59,0,0,0-1.9,1,13,13,0,0,0-1.56,1,13.17,13.17,0,0,1-3.35-1.37,14.22,14.22,0,0,1-2.2-1.42c-1-.78-2-1.51-3.06-2.25-1.53-.45-2.94-1.25-4.56-1.35l-.9-.79-1.11-.26a2.77,2.77,0,0,1-1-1.32,29.87,29.87,0,0,0-1.9-3.71,14,14,0,0,1-1.44-1.42,5.67,5.67,0,0,0-2.2-1.78l-.66-1-.56-.86-2.93-1.76c-.81-.09-1.76-.21-2.7-.3a2.55,2.55,0,0,1-1.33-.45c-.06-.58.37-1,.51-1.53s.32-1.06.47-1.6.28-1.08.45-1.75l.91-1.46a3.73,3.73,0,0,1,2-.92c.46.11,1,.28,1.53.36a15.72,15.72,0,0,1,3.87,1.27c.36.15.69.4,1.07.52s.92.22,1.43.34a17.3,17.3,0,0,1,5.29-.79A13.88,13.88,0,0,1,76,111.69a13.35,13.35,0,0,1,1.36,1A30.84,30.84,0,0,0,82,116.06a4.25,4.25,0,0,1,.82.82l.12,1.35c-.54,1.18-1,2.29-1.54,3.33s-1.17,1.87-1.57,2.73a1.34,1.34,0,0,0,.34,1.26,7,7,0,0,0,2.8,1.76l5.89,2a12.38,12.38,0,0,0,2.76-.19c.24-.18.44-.34.38-.6a.69.69,0,0,0-.41-.54,3.33,3.33,0,0,0-.91-.25,11.68,11.68,0,0,1-4.58-1.25,5.37,5.37,0,0,0-.9-.27,17.65,17.65,0,0,1-3.35-1.33,4.42,4.42,0,0,1,0-.67,1.08,1.08,0,0,1,.17-.44,24.24,24.24,0,0,0,1.63-3.44c.18-.44.43-.85.67-1.32a12.06,12.06,0,0,0,.13-2.33,2.54,2.54,0,0,0-1.2-2c-1.25-.38-2.11-1.39-3.24-2a6.67,6.67,0,0,1-1.33-1,16.86,16.86,0,0,0-3.08-2.23,1.64,1.64,0,0,1-.33-.34,7.7,7.7,0,0,1-.16-2.35,23,23,0,0,1,.31-3.79,14,14,0,0,0-.72-5.39c-.24-.58-.38-1.2-.57-1.83a.77.77,0,0,1,.61-.62,20,20,0,0,0,2.39-1,3.7,3.7,0,0,0,.6-.39.92.92,0,0,0,.17-1.05,1.46,1.46,0,0,0-.43-.16,3.37,3.37,0,0,0-1.39.25c-.88.35-1.8.62-2.67,1A13.58,13.58,0,0,0,71.08,95a35.24,35.24,0,0,1-3.29,1.9c-2.34.75-4.43,2.13-6.81,2.79a4.88,4.88,0,0,0-1.71.81,7.09,7.09,0,0,1-3,1.22c-1,.23-2,.57-3,.88-.81-.1-1.69-.15-2.53-.33a5.45,5.45,0,0,0-3.71.37h-.24c-.61-.21-.58-.9-1-1.28a2.88,2.88,0,0,1-.9-1.12,2.24,2.24,0,0,1,.45-.5c1.72-1,3.11-2.46,4.79-3.53a9.8,9.8,0,0,0,1.35-1.23A16,16,0,0,0,56.15,92a9.5,9.5,0,0,1,1.3-1,10.37,10.37,0,0,0,1.49-1.19,6.73,6.73,0,0,1,1.12-.87,13,13,0,0,0,2-1.55,16.63,16.63,0,0,0,3.53-2.8,8.38,8.38,0,0,1,1.7-1.28,12.57,12.57,0,0,0,3.16-2.1l2.84-1.6c.21-.05.4-.14.61-.18a13.5,13.5,0,0,1,1.42-.22h.52a43.21,43.21,0,0,1,4.67,2.2l.79.75c2.17,1.82,3.55,4.25,5,6.58a2.51,2.51,0,0,1,.26.4,51.08,51.08,0,0,1,2.66,7.12,7.32,7.32,0,0,0,.23.8h-.11c.14.78.33,1.63.55,2.55h.13c.78,2.24.71,4.61,1,6.92a9.28,9.28,0,0,0,.45,1.83,21.07,21.07,0,0,1,1.23,6c0,1.27.22,2.53.33,3.8a7.85,7.85,0,0,1-.42,3.48,3.32,3.32,0,0,1-1.79.61c-1.35.12-2.69.22-4,.37-.79.09-1.57.22-2.35.37a2.08,2.08,0,0,0-.63.32.72.72,0,0,0,0,1.19,2.26,2.26,0,0,0,.48.2c.57-.15,1.18-.34,1.79-.45s1.11-.08,1.66-.13l6.67-.58,2.35.6a17.89,17.89,0,0,0,4.82-.36c1.94-1.12,4.41-1.37,6.39-2.82l2.12-.26c.71-.08,1.27-.07,1.89-.17a4.37,4.37,0,0,1,2.33.25,5.65,5.65,0,0,0,2.23,1.52,13.72,13.72,0,0,0,2.78.5,15.45,15.45,0,0,0,2.45,1.23c.74.3,1.45.66,2.19.93a13.33,13.33,0,0,1,3.33,1.82c.13.09.27.17.39.27a15.42,15.42,0,0,0,6.43,3,7.22,7.22,0,0,1,1.34.46,16.8,16.8,0,0,0,2.8,1.3,2.51,2.51,0,0,1,.63.34c1.3.75,2.58,1.56,3.92,2.25a40,40,0,0,0,6.36,2.62,14.12,14.12,0,0,1,2.41,1,16.28,16.28,0,0,0,3,1.42l-.29.34a7.5,7.5,0,0,0-1.06,1.46,1.64,1.64,0,0,0,.71,1.85,1.13,1.13,0,0,0,1.09-.55,14,14,0,0,1,1.05-1.24c.27-.3.56-.61.81-.94a1,1,0,0,1,.39-.26l.11-.05h.35a6.37,6.37,0,0,1,.64.08,1,1,0,0,1,.33.14l.12.06a1.74,1.74,0,0,1,.55.85v.07l.08.19.07.15a2,2,0,0,1,.22,1.2l-.3.45c-.23.34-.48.72-.71,1.12a7.23,7.23,0,0,1-.92,1.22,7.49,7.49,0,0,0-.82,1.06c-.22.37-.43.77-.63,1.15s-.55,1.05-.88,1.54c-.58.89-1.1,1.83-1.56,2.66l-.14.25c-.23.42-.48.85-.73,1.27a12.44,12.44,0,0,0-1.09,2.34q-.13.4-.25.81a12,12,0,0,1-.61,1.72,5.54,5.54,0,0,0-.35,1.16,6,6,0,0,1-.33,1.14,7.55,7.55,0,0,0-.46,1.83v.14l-.08.44v.42a8.25,8.25,0,0,1,.12.94,4.46,4.46,0,0,1,0,.45,1.57,1.57,0,0,0,.1.84.17.17,0,0,0,.17-.1,2.82,2.82,0,0,0,.24-1.17,5.31,5.31,0,0,1,.14-1l.38-.84c.56-1.21,1.14-2.46,1.83-3.67a6.37,6.37,0,0,0,.68-1.55,12.18,12.18,0,0,1,.88-2.22c.2-.42.4-.84.57-1.27a27.79,27.79,0,0,0,2.22-4l.2-.43c.06-.12.13-.24.21-.38a3.54,3.54,0,0,0,.21-.39A8.87,8.87,0,0,1,159,147l.06-.07a12,12,0,0,0,.71-1,10.15,10.15,0,0,1,1.5-2,3.09,3.09,0,0,0,.24-.93,2.09,2.09,0,0,1,.51-1.29l.07-.07h.1c1.12,0,1.18,0,2.36,1l.08.07v.3a2.67,2.67,0,0,1,0,.64c-.06.33-.1.67-.15,1v.17a16.14,16.14,0,0,1-.73,3.41,7,7,0,0,0-.32,1.57,5.15,5.15,0,0,1-.15,1,7.06,7.06,0,0,1-.37,1.15,5.32,5.32,0,0,0-.39,1.35,3.63,3.63,0,0,1-.27,1.15,9.63,9.63,0,0,0-.67,2.73l-.06.41v.31a3.11,3.11,0,0,1-.16.82,22.05,22.05,0,0,0-.66,2.11,17.91,17.91,0,0,1-.91,2.72,2.38,2.38,0,0,0-.18.57,25.26,25.26,0,0,1-.87,3.68,6.51,6.51,0,0,0-.24,1.68,3.16,3.16,0,0,1-.32,1.1,3.06,3.06,0,0,0-.27.8l-.19,1.4-.09.63c-.16,1.15-.32,2.29-.47,3.44a2.58,2.58,0,0,0,.22,1.38l.16.39c.06.16.11.29.17.42a14.09,14.09,0,0,1,1,3.64c.06.38.12.75.16,1.06a13.13,13.13,0,0,0,.59,2.77,4.36,4.36,0,0,1,.21,1.14v.42a.56.56,0,0,1-.23.39l-.45.17h-.11a1.71,1.71,0,0,1-1.08-.53l-.09-.09c-.77-.73-1.56-1.47-2.28-2.24l-.68-.75-.11-.12a16,16,0,0,0-2.94-2.78,2.29,2.29,0,0,1-.52-.53,14.63,14.63,0,0,0-2.58-2.44c-.42-.34-.87-.7-1.29-1.07-.77-.69-1.62-1.32-2.44-1.92l-.22-.16-.8-.6a4.55,4.55,0,0,1-1.62-2.22l-.06-.18a3,3,0,0,0-.51-1.1l-.63-.23a.55.55,0,0,0-.26.19c-.59-1.42-1.7-2.63-4.66-2.73a21.47,21.47,0,0,0-4-1.06h-.19c-1.18-.14-2.38-.09-3.57-.16a38.18,38.18,0,0,1-7.4-1.38c-2.33-.6-4.66-1.39-7.09-1.33a14.83,14.83,0,0,1-2,0l-1.6-.22c-1-.13-2-.09-3.07-.15-3.11-.19-6.14-1.36-9.26-1.2a12,12,0,0,1-1.55,0,9.17,9.17,0,0,1-1.48-.26,10.39,10.39,0,0,0-2.48-.06,15.79,15.79,0,0,1-2-.08,9.12,9.12,0,0,0-1.77.1,23.11,23.11,0,0,1-4.5-.14,9.66,9.66,0,0,0-2.31-.19,17.25,17.25,0,0,1-1.87-.59,20.82,20.82,0,0,0-5.56-1.24,10.79,10.79,0,0,0-3.54-.26,1,1,0,0,1-.47,0c-1.74-.59-3.46-.15-5.19.06l-.79.07-4.35-.87c-1-.2-2-.37-3-.49a10.27,10.27,0,0,1-4.54-1.57,2.35,2.35,0,0,1-.43-.52c.33-.31.81-.17,1.1-.49a.36.36,0,0,0,.09-.42,1.22,1.22,0,0,0-1-.63,4,4,0,0,0-1.19,0,11.9,11.9,0,0,1-3.17-.23A7.5,7.5,0,0,1,46.22,154c-.74-.31-1.39-.55-2-.83l-.1-.05a6.07,6.07,0,0,1-.38-.9,4.24,4.24,0,0,1,0-3,5.36,5.36,0,0,0,.22-.85L45.43,146c.43-.37.93-.77,1.39-1.21a1.59,1.59,0,0,0,.37-.6.52.52,0,0,0-.07-.43.89.89,0,0,0-.41-.2.37.37,0,0,0-.23,0,5.28,5.28,0,0,0-2.13,1.47,13,13,0,0,0-2.13,3.43c0-.1-.23-.08-.31-.16ZM133,180.13a8.69,8.69,0,0,1,1.16-1.15,34.11,34.11,0,0,0,4.91-4.28,16.93,16.93,0,0,1,1.68-1.44,9.86,9.86,0,0,0,2.73,4,7.67,7.67,0,0,0-3.14-.1l-4.48,2.42a11,11,0,0,1-3.7,3.37A17.42,17.42,0,0,1,133,180.13Zm-2-.87-.53,1.51a6.46,6.46,0,0,0-1.23-1.45,22,22,0,0,1-1.94-2.13c-2.16-1.12-4.18-2.29-6.3-3.24-.42-.19-.82-.41-1.22-.63l.61-.1c.83-.16,1.65-.37,2.46-.59a23.27,23.27,0,0,1,5.75-.88,14.65,14.65,0,0,0,4.28-.73,14.92,14.92,0,0,1,6.18-.48.71.71,0,0,1,.77.53,14.13,14.13,0,0,0-3.36,3,9.54,9.54,0,0,1-2.08,2,18.69,18.69,0,0,0-3.4,3.18Zm-65.35-14.8a2.48,2.48,0,0,1-2.18.07,4,4,0,0,1-.88-.49c-.43-.32-.84-.67-1.24-1a12.92,12.92,0,0,0-1.9-1.4c1.07.18,2.14.39,3.2.66a8.34,8.34,0,0,0,3.07.21h.18l.36.47A1.2,1.2,0,0,1,65.66,164.46Zm-17.11,60A18.44,18.44,0,0,0,47,226c-1.43,1.55-2.71,3.23-4.26,4.68s-3,3-4.41,4.56c-.44.46-.83,1-1.25,1.44-1.46,1.67-2.93,3.33-4.55,4.87a20.12,20.12,0,0,0-4.07,4.84c-.35.64-1,1.12-1.39,1.73-.75,1.15-1.38,2.38-2.16,3.51a27.48,27.48,0,0,0-2.28,3,12.28,12.28,0,0,0-.78,1.38,19.81,19.81,0,0,1-4,6.4c-.08-.06-.21-.11-.21-.17a1.62,1.62,0,0,1,0-.6q1.48-4,3-8a6.65,6.65,0,0,1,.46-1.18c1.72-2.79,3-5.8,4.69-8.63a11,11,0,0,1,.93-1.28l4.16-5.19a22.58,22.58,0,0,1,2.59-2.78,13.37,13.37,0,0,0,2.71-3.5,42.68,42.68,0,0,1,4.68-6.39c.62-.73,1.19-1.5,1.77-2.26a6.39,6.39,0,0,0,.52.46l2.81-.2c.42-.21.79-.41,1.18-.57s1-.36,1.3-.47a14.94,14.94,0,0,0,4.21-7.28,5.77,5.77,0,0,1,.52-.79A10.41,10.41,0,0,0,55.34,210h.08v2.45l-2.13,5A10.67,10.67,0,0,1,53.1,219a2.81,2.81,0,0,1-1.23,2.11,20.31,20.31,0,0,1-3.32,3.32Zm12.55,1.75a14.46,14.46,0,0,1-1.29,2.17,10.63,10.63,0,0,0-1.41,2.82,25.55,25.55,0,0,1-2.07,4.61,28,28,0,0,0-2.23,5.91,22,22,0,0,0-.89,4,26.85,26.85,0,0,1-1.49,5.8,52.13,52.13,0,0,1-2,5.32,14.89,14.89,0,0,0-1.31,4.87c-.14,1.36-.44,2.7-.49,4.08a3.19,3.19,0,0,1-.79,2c-.22-.71-.4-1.42-.66-2.1a7.22,7.22,0,0,1-.37-2.16c-.06-.86.55-1.65.27-2.49a5.93,5.93,0,0,1,0-2.19v-2.54a15.67,15.67,0,0,1,.38-2.47c0-.76-.06-1.5-.08-2.24a12.83,12.83,0,0,1,.43-3.47c.5-2,.94-4.11,1.28-6.19a12.32,12.32,0,0,1,.81-3.05,38.83,38.83,0,0,0,2-7.3,59.3,59.3,0,0,1,2.42-8.84A25.29,25.29,0,0,0,55,217.89a10.6,10.6,0,0,1,1-3,13.71,13.71,0,0,0,1.17-3.25,8.33,8.33,0,0,1,2.06-4.21h0a3.14,3.14,0,0,0-.32,1.67c.09,1.19.16,2.39.24,3.54-1.11,2.28-1.63,4.67-2.75,6.87a4.46,4.46,0,0,0-.55,2.49c.47,1.42,1.91,2,3,2.71a4,4,0,0,0,1.74,0c.44-.06.88-.15,1.33-.23A16.11,16.11,0,0,0,61.1,226.21Zm-5.55-16.35a.5.5,0,0,1,.49-.51h0a.53.53,0,0,1-.53.5Zm.65-.7V209s.1,0,0,.1Zm.69-3.11c.39-1,1.13-1.73,1.58-2.65a3,3,0,0,1,.2-.3,4,4,0,0,0-.28.66,4.89,4.89,0,0,1-1.31,2.12ZM77.26,202a2.57,2.57,0,0,0-.14,1.77,3,3,0,0,1,0,1.72c-.31,1.26-.08,2.59-.68,3.83a2.65,2.65,0,0,0-.08.89q-.11,1.19-.21,2.38a6.06,6.06,0,0,0,.47.91c-.15,1.48-.79,2.87-1.12,4.49a16.38,16.38,0,0,1-.7,5.75c-.53,2.36-1.13,4.71-1.63,7.08a19,19,0,0,0-.13,6.3,5,5,0,0,0,.35,1.21,15,15,0,0,1,1.13,4.91,19.35,19.35,0,0,0,1.08,4.61,31.05,31.05,0,0,1,1.15,4.92,10.9,10.9,0,0,0,1.79,4.81,30.59,30.59,0,0,1,.51,4.16,1,1,0,0,1-.48-.18,12.14,12.14,0,0,1-1.89-2.91c-.38-.75-.68-1.55-1.13-2.26a19.62,19.62,0,0,1-1.69-3.74,11,11,0,0,0-.43-1.19c-.48-.94-1.06-1.83-1.48-2.8s-.55-1.82-.91-2.69a10.26,10.26,0,0,1-1.12-3.6c-.5-1.06-.44-2.28-.95-3.34a4.56,4.56,0,0,1-.32-1.54c-.11-1.26-.19-2.53-.26-3.8a12.07,12.07,0,0,0-.42-3.12A10.47,10.47,0,0,1,67.7,228c-.08-1.37-.13-2.75-.18-4.12,0-1.16,0-2.33-.1-3.49a4.22,4.22,0,0,1,.2-1.46,6.84,6.84,0,0,0,.31-.63c1-2.83,2.16-5.65,2.9-8.57,1.08-1.89,2.69-3.48,3.55-5.49a25.6,25.6,0,0,0,.77-5.38c.4-.95.81-1.89,1.22-2.84a4,4,0,0,1,1.73-1.84,1.23,1.23,0,0,1,1-.15.66.66,0,0,1,.42.71,22.56,22.56,0,0,1-.41,2.87c-.84,1.88-1.37,3.1-1.89,4.33Zm7.49,3a6.57,6.57,0,0,1-.13,1.49,8.76,8.76,0,0,1-.27,1h0a7.76,7.76,0,0,1-.47,1.23c-.28.54-.42,1.13-.69,1.67a8.66,8.66,0,0,1-.81,1.29,1.75,1.75,0,0,1-1.32.73H79.58l-.57-.46v-.37a6.56,6.56,0,0,1,.19-2.86,12.88,12.88,0,0,0,.35-1.72v-.35a19.93,19.93,0,0,0,.1-3.26v-1.71c.7-1.27,1.37-2.45,2-3.55.44-4.06.45-4.68-.12-5.94a2.15,2.15,0,0,0-1.27-.29H78.9a2.65,2.65,0,0,0-1.4,0c-.41.41-.86.89-1.32,1.35s-.95.91-1.43,1.37c-.39,1-.78,1.91-1.15,2.87a7.5,7.5,0,0,0-.61,2.65,16.22,16.22,0,0,1-.85,3.84,5.53,5.53,0,0,1-1.19,2.16,13.27,13.27,0,0,0-1,1.36h0a9.59,9.59,0,0,0-.75,1.4l-.12.27a7.56,7.56,0,0,0-.46,1.59,7.47,7.47,0,0,1-.64,1.71c-.37.84-.65,1.7-.94,2.56a14.84,14.84,0,0,1-1.94,4.17c-.73,1-1.79,1.66-2.59,2.59a5.48,5.48,0,0,1-1.32.9,2.81,2.81,0,0,1-1.69-.24c-.58-.31-.77-.89-1.13-1.37.3-.89.57-1.75.88-2.6a15.21,15.21,0,0,0,.9-2.25,27.21,27.21,0,0,1,1.16-2.71,16.77,16.77,0,0,1,.27-5.42c.39-.58.92-1.37,1.45-2.14a8.49,8.49,0,0,0,.45-5.14c-.18-.25-.39-.59-.65-.89a1.56,1.56,0,0,0-.42-.3,1.63,1.63,0,0,0-1-.25c-.67.06-1.33.18-2,.27a10.32,10.32,0,0,0-2.94,3.14,16.75,16.75,0,0,0-1.67,3c-.36,1.08-1.13,2-1.33,3.14a4,4,0,0,1-.1.39,11,11,0,0,1-.64,1.62c-.15.33-.31.66-.45,1a6.81,6.81,0,0,0-.91,1.15c-.1.15-.2.29-.29.44h0a50.3,50.3,0,0,0-2,4.68c-1.1,1-2.21,2.09-3.87,2.29-.2-.19-.41-.3-.47-.47s0-.09,0-.13a5.78,5.78,0,0,1-.36-2,7.64,7.64,0,0,1,.37-2.35c.24-.78.57-1.55.84-2.25a11.58,11.58,0,0,0-1-2.54c-.06-.17-.26-.3-.43-.42a4.28,4.28,0,0,0-.55-.28,3.18,3.18,0,0,0-2.21.52c-1.14.69-2.25,1.44-3.33,2.2-1.63,1.15-3.37,2.15-5,3.24a11.5,11.5,0,0,1-3.3,1.56,11.84,11.84,0,0,0-1.6.69c-1.26.3-2.13-.51-3.12-1a6.65,6.65,0,0,0-4,1.43c-.63.47-1.29.9-1.89,1.42-.76.67-1.57,1.28-2.36,1.94a51.69,51.69,0,0,1-5.53,2.14c-1.15-.73-1.6-1.76-2.32-2.43a6,6,0,0,1,2.16-4.9c.51-1.17.95-2.18,1.43-3.17S13.51,211.9,14,211a26.36,26.36,0,0,1,6.3-4.51c.48-.6,1-1.24,1.5-1.84a7.5,7.5,0,0,0,1.48-2.95,1.89,1.89,0,0,0-.87-2.37,6,6,0,0,0-.85-.37l-1.35.63a12.36,12.36,0,0,0-4,.17L14,200.86A18,18,0,0,0,8.85,202a.76.76,0,0,1-1-.83,7.07,7.07,0,0,1,1.5-3.38,45.93,45.93,0,0,1,5.27-5.7c3.1-1.91,5.93-2.71,10.69-3.36A31.25,31.25,0,0,1,29,187.3a14.27,14.27,0,0,0,4.61-2.39,4.89,4.89,0,0,0,.53-.5,1.82,1.82,0,0,0,.62-1.47,3.7,3.7,0,0,0-.83-2.21l-.58-.69a4.49,4.49,0,0,0-2.29-.63,17.48,17.48,0,0,0-4.83.57,34.88,34.88,0,0,1-7.42-1,9.08,9.08,0,0,0-2.47-.29c-1.47,0-2.91-.18-4.36-.28a6.25,6.25,0,0,1-1-.22c.77-1.58.78-1.61,3.75-3.78a32.46,32.46,0,0,1,8-2.14l3,.43c1.39-.35,3-.43,4.35-1.35a5.65,5.65,0,0,1,2.71-.79,20.64,20.64,0,0,1,7.89,2.94,27.4,27.4,0,0,0,4.88.39c.57-.2,1.31-.43,2-.72s1.14-.56,1.56-.77a3.23,3.23,0,0,0,1-1.9,3.17,3.17,0,0,0-1.38-2,18.09,18.09,0,0,0-4-1.08,3.34,3.34,0,0,1-1.3-.45c-.8-.4-1.56-.84-2.21-1.18-.66-1.45-.25-3-.63-4.3a3.84,3.84,0,0,0-2.38-1.64c-1.34-.45-2.74-.81-4.16-1.15-1.89-.45-3.82-.83-5.47-1.16a4.62,4.62,0,0,1-2.44-1.89,1.72,1.72,0,0,1,.86-1.14,19.78,19.78,0,0,1,3.87-2,13.55,13.55,0,0,1,5.89,1c1.57.06,3.26.15,5.09.26l1.11.51a7.21,7.21,0,0,0,1.55,1.62c.18.15.4.27.57.43a3.33,3.33,0,0,0,2.15.91,4.41,4.41,0,0,1,2.62,1,11.66,11.66,0,0,0,1,.68L51,159a20.55,20.55,0,0,0,3.7,2.66c3.76,1,3.75,1,5.57,3.64l2.85,1.22a6.27,6.27,0,0,0,5.62-2.13,13.74,13.74,0,0,1,.18-1.5l-.44-.66a6.13,6.13,0,0,1,2,.18,11,11,0,0,0,2.12.19c1.58.12,3.1.67,4.69.77a2.78,2.78,0,0,1,.9.28,17.33,17.33,0,0,0,5.62,1.2,4.15,4.15,0,0,1,.71.06,8.51,8.51,0,0,0,3.08.09,5.7,5.7,0,0,1,2.17,0,12,12,0,0,0,2.39.39c1.61.1,3.22,0,4.82.17a10.7,10.7,0,0,0,1.21.11c.62,0,1.24-.15,1.86-.15,1.35,0,2.62.79,4,.76a7.13,7.13,0,0,1,1.82-.05,5.87,5.87,0,0,1,.77.29,9.69,9.69,0,0,0,3.36.41,38,38,0,0,1,5.44.58c.78.13,1.53.4,2.32.5s1.76.12,2.64.26,2,.49,2.93.73c1.39.34,2.82.32,4.21.59l1.69.32c-1.4.22-3,.35-5.88.59a5,5,0,0,0-1.08.17,20.83,20.83,0,0,1-5.54.85,16.64,16.64,0,0,0-1.89-.93c-.61,0-1.28.1-1.94.06s-1.3-.18-2-.28a23.61,23.61,0,0,0-2.21,1.47H108a18.11,18.11,0,0,1-2.92,0l-1-.06H104a3.34,3.34,0,0,0-1,.09,7.67,7.67,0,0,1-1.21.22c-.49.06-1,.1-1.46.17h0a5.89,5.89,0,0,0-1.29.3c-1,.39-2.09.63-3.22,1-2.12.19-4.3-.07-6.77.05-.45.14-1.16.33-1.83.6a5.94,5.94,0,0,1-1.76.46,9.54,9.54,0,0,0-1.45.22A16.89,16.89,0,0,0,77.81,177a6.39,6.39,0,0,1-1.64.74,11.34,11.34,0,0,0-4.55,2.43,24.66,24.66,0,0,0-2.5,1A34.88,34.88,0,0,1,63,183.34c-2.3.72-4.61,1.41-6.89,2.2a4.7,4.7,0,0,0-1.58.82c-2,1.8-4.42,3.15-6.42,4.92-.52.46-1.06.9-1.58,1.35-.26.23-.46.56-.76.7-1.23.57-1.91,1.67-3,2.38-.89.57-1.71,1.22-2.56,1.83a6.61,6.61,0,0,1-.63.31,20,20,0,0,0-4.1,2.66,9.43,9.43,0,0,1-1.75,1.15A7.12,7.12,0,0,0,31.29,204a.29.29,0,0,0,0,.29.34.34,0,0,0,.28.13,14.84,14.84,0,0,0,3.53-1.51c.88-.56,1.78-1.11,2.63-1.71a27.83,27.83,0,0,1,2.67-1.64,32.84,32.84,0,0,0,4.89-3.33c1.43-1.17,2.79-2.41,4.25-3.55,2-1.57,4.1-3.07,6.21-4.55a11.47,11.47,0,0,1,3.92-1.69,16.1,16.1,0,0,0,3.06-1,12.51,12.51,0,0,1,3.44-1,10.69,10.69,0,0,0,1.75-.39,6.46,6.46,0,0,0,1.62-.73c1.63-1.12,3.86-1.36,5.27-2.84a6.41,6.41,0,0,1,2.77-1.5,29.75,29.75,0,0,0,3.32-1.38,9.67,9.67,0,0,1,4.2-1,19.17,19.17,0,0,0,3.56-.71c.6-.1,1.18-.28,2.15-.5,1,0,1.92.07,2.89.09a17.7,17.7,0,0,0,5.36-.81,19.57,19.57,0,0,1,6.1-.84h.4l-.28.16c-1.94,1-5.3,4.49-6.44,5.73a2.81,2.81,0,0,0-.69,1.12A58.7,58.7,0,0,1,96,186.34,33.91,33.91,0,0,0,94.62,191a8,8,0,0,0-2.77-.87,7.07,7.07,0,0,0-3.09,3.23,12.9,12.9,0,0,0-.17,1.45h0a24.52,24.52,0,0,1-.41,4.2A6.38,6.38,0,0,0,87,200.34h0c-.54,1.34-1.8,2.33-2.25,4.43-.06-.36-.09-.06-.07.24Zm-25,1.7c.44-.64.9-1.27,1.35-1.87l-.11.52a13,13,0,0,1-.9,1,3.88,3.88,0,0,0-.37.38Zm34-9.68a6.51,6.51,0,0,1-.11,1,6.62,6.62,0,0,1-.35,1v.67a6.18,6.18,0,0,1-.32.8,3.22,3.22,0,0,0-.1,2.35v.13c-.27.92-.56,1.82-.82,2.73a50.61,50.61,0,0,1-1.7,5.08,120.46,120.46,0,0,0-3.9,11.68,2.23,2.23,0,0,1-.31.53,2.24,2.24,0,0,1-.41-1.45,69.18,69.18,0,0,1-.14-7.59,5.71,5.71,0,0,0,0-.63c0-1.27.58-2.46.43-3.76v-.26a10.56,10.56,0,0,0,.48-.95c.12-1.28.26-2.57.37-3.67a10.74,10.74,0,0,1,1.73-2.78A15.65,15.65,0,0,0,91,197.59a10.68,10.68,0,0,0-.2-3.72A2.36,2.36,0,0,1,92,192.31a1.29,1.29,0,0,1,1.28.39l.64,2c-.09.74-.16,1.53-.23,2.33ZM116,256.46a3.58,3.58,0,0,1-1,1.73c-.45-2.11-.56-4.23-.83-6.32-.17-1.32-.38-2.64-.57-4a9.42,9.42,0,0,0-1.4-3.71c-1-1.59-1.75-3.37-3.18-4.42l-.8-2.1-5.66-6.47a13.79,13.79,0,0,0-.52-1.61,14.46,14.46,0,0,1-1.34-5.81,15.92,15.92,0,0,0-1.21-4.49,5.42,5.42,0,0,0-1-1.69c-1.49-1.8-2.52-3.91-3.84-5.82a6.22,6.22,0,0,1-.51-1.11c.07-1,.16-2,.28-3a18.54,18.54,0,0,1,.37-2,.51.51,0,0,1,.08-.33,10.33,10.33,0,0,1,.76-2v-.07l.38-5.78a4.26,4.26,0,0,0,.21-1v-2.27h0a5.32,5.32,0,0,1,.14-1,1.09,1.09,0,0,0-.11-.65,2.31,2.31,0,0,1,.09-1.95,51.69,51.69,0,0,0,2-5.29,14.65,14.65,0,0,1,3.86-5.76c1.09-.6,1.59-1.84,2.69-2.46s1.83-1.26,2.77-1.85,1.71-1.16,2.59-1.61a6.36,6.36,0,0,1,.78-.34c.66-.19,1.19.12,1.73.13h.48a9.07,9.07,0,0,1,4.19,1.54c2.62,1.69,5.45,3,8.28,4.49l2.38,2.62,1.13,3.34a21.61,21.61,0,0,0-.21,2.67h0a3,3,0,0,0,.14.68l.06.17a2.43,2.43,0,0,0,.37.65l-.54,2.71a1.22,1.22,0,0,1-1.27-.44l-.24-.3c-.48-.58-.91-1.19-1.32-1.72l-4.25-2.21-.43-.23-2.29-.08h-.14l-2.47-.71h-1.77a6.07,6.07,0,0,1-.82-.06,12.36,12.36,0,0,1-2.23-.69c-1-1-1.74-2.44-3.27-3a1.34,1.34,0,0,0-.2,1.35c.39.91.84,1.8,1.31,2.8a10.48,10.48,0,0,0,4.21,1.26H114a18.58,18.58,0,0,1,2.09.17,11.44,11.44,0,0,1,1.87.35,4.53,4.53,0,0,0,1.56.06h.79a6.78,6.78,0,0,1,1.1.33c.33.13.66.27,1,.43h0c.83.4,1.64.87,2.54,1.24.44.55.9,1.18,1.43,1.74.1.11.22.21.33.31h0c.44.43.91.83,1.32,1.2a2.83,2.83,0,0,1,.2.7h0c-.07.88-.19,1.75-.28,2.63s-.21,2-.28,3-.4,1.71-.42,2.62a17.79,17.79,0,0,1-.59,3c-.33-.31-.65-.48-.79-.74-.39-.79-.7-1.62-.94-2.19l-.41-.45a12.19,12.19,0,0,0-7.29-3.15,5.81,5.81,0,0,1-.71-.11l-1.75.57h-.22l-1.64-.3a9,9,0,0,0-2.43,1.14h0a8.19,8.19,0,0,1-1,.5,11.71,11.71,0,0,1-3.91.13,3.28,3.28,0,0,0-1.3.18.68.68,0,0,0-.36.48.75.75,0,0,0,.19.59,1.94,1.94,0,0,0,.84.49c1.51.32,3,.59,4.56.88l3-2.2,2.59-.3,1.22-.14h.33l1-.11,3.48,1.12,2,1.67a13.69,13.69,0,0,1,1.5,4.28,2.38,2.38,0,0,1-.69,2.43.93.93,0,0,0-.15.29c-.15,2.33-.3,4.65-.46,7a2.32,2.32,0,0,1-.22.63c0,.1-.1.2-.18.36a4,4,0,0,1-.85.36c-1,.19-2,.33-2.77.45a21,21,0,0,0-5.23,3.84,4.89,4.89,0,0,0-1.4,1.85,10.56,10.56,0,0,1-3.61,4.68,2.41,2.41,0,0,0-.38.62l.71.67a10.28,10.28,0,0,0,5.51-5.88,18.48,18.48,0,0,1,5.36-4.21c.67.05,1.44.07,2.19.19.27,0,.5.37.73.55-.11,2.17-.22,4.27-.34,6.37,0,.44-.15.87-.19,1.31-.12,1.64-.88,3.21-.53,4.9-.37,1.85-.72,3.7-1.14,5.53a11,11,0,0,0-.57,2.59,3.05,3.05,0,0,1-.22,1c-1.09,3.26-1.83,6.64-3.19,9.82a13.94,13.94,0,0,0-1.06,2.77Zm1,5.62v-.22a.46.46,0,0,1,.17-.07c0,.2-.12.34-.26.34Zm35.82-35.73a6.78,6.78,0,0,1-1.21,1.48c-.07.06-.11.14-.18.2-.6.5-1.16,1-1.78,1.51a8.5,8.5,0,0,1-1.68,1.06c-1.63.71-3.08,1.76-4.76,2.36a6.32,6.32,0,0,0-2.6,2,12,12,0,0,0-2.16,3.34,33.39,33.39,0,0,0-1.54,4,7.15,7.15,0,0,1-2.29,3.61,12.88,12.88,0,0,1-3.48,2.53,4.65,4.65,0,0,0-2.37,2.26,27.49,27.49,0,0,1-3,4.36,22.63,22.63,0,0,1-4.8,4.58c-.63.45-1.21,1-2,1.59l-1.67.36a3,3,0,0,1-.17-1.46,22.65,22.65,0,0,1,.67-2.57,65.9,65.9,0,0,1,2.19-6.27,10.1,10.1,0,0,0,.66-1.88c.55-2.38,1.6-4.62,2.07-7a2.85,2.85,0,0,1,.39-.92,1,1,0,0,1,.5-.37.38.38,0,0,1,.48.25v.06c.5,2.28,1.06,4.55.35,6.89-.09.29.08.62.51.75.19-.22.51-.43.59-.71.39-1.27.72-2.56,1.12-4-.09-.8-.2-1.79-.32-2.78a2.3,2.3,0,0,0-.22-1,10.68,10.68,0,0,1-1.19-3.78,8,8,0,0,0-.61-1.42c.33-3.21,1.29-15,1.29-18.35a1.37,1.37,0,0,1,1.71-.37,1.69,1.69,0,0,1,.54.38,8,8,0,0,0,2.57,2.16l2.36,3.79,1.07,7.51c.53.76,1.1,1.58,1.68,2.39,0,.07.19.06.29.09s.16-.2.15-.29q-.6-5.46-1.22-10.91a5.68,5.68,0,0,0-.21-.91c-.3-.43-.77-1-1.18-1.7s-.62-1.17-.89-1.67l-4-3.1c-.48-.38-1.58.19-2.22-.63-.38-.77.09-1.51.08-2.27,1.4-2.13,1.89-4.77,4.15-6.9.68-.36,1.92-.45,3-.9a.65.65,0,0,1,.33,0l.28.08,4.67,3.7.81,1.71a9.81,9.81,0,0,0,1.27.79c.7.32,1.45.54,2.09.77a13.28,13.28,0,0,1,4,5l.9.78,1,.83a5,5,0,0,0,2.28.77c.63-.5.66-.56.42-.74a9.94,9.94,0,0,1-2.11-2.16,13.94,13.94,0,0,1-1.77-3.31h0l-.06-.15a1.76,1.76,0,0,0-.22-.32l-2.68-2.79a3.75,3.75,0,0,0-1.64-.46,15.07,15.07,0,0,1-1.54-.5l-1-1.9-2.4-1.46c-.08-.08-.33-.3-.56-.54-.38-.4-.72-.84-1.13-1.2a7.86,7.86,0,0,0-1-.68,16,16,0,0,0-5.65.93c-.13-.16-.38-.33-.36-.47.25-1.64.53-3.27.8-4.86a15.15,15.15,0,0,1,4.09-4.1c.77.08,1.65.23,2.52.25,1.58,0,3,.74,4.54,1a13.78,13.78,0,0,1,4.42,1.42,10.5,10.5,0,0,0,4.2.76,3.5,3.5,0,0,0,.64-.16c.26-.07.63-.55.55-.75s-.15-.46-.31-.54a13,13,0,0,0-2.39-1.16,32.67,32.67,0,0,1-4.62-1.81,22.73,22.73,0,0,1-2.36,0,14.09,14.09,0,0,1-1.93-.49,34.62,34.62,0,0,0-4.91-.65c-1.4.1-1.93,1.17-2.92,1.37-.1-.22-.3-.43-.26-.6a43.79,43.79,0,0,1,1-4.87,10.21,10.21,0,0,1,2.63-4.31,18.24,18.24,0,0,1,4.13-2.57,13.26,13.26,0,0,1,3-.7,10.9,10.9,0,0,1,3.84,1.64,19.48,19.48,0,0,0,2.9,1.64,9.63,9.63,0,0,1,3.64,2.84c.4.53.89,1,1.37,1.52a37.36,37.36,0,0,0,3.41,5.8c.15.6.28,1.37.52,2.1a18.4,18.4,0,0,0,.87,1.87,18.35,18.35,0,0,0-.33,2.6c0,1-.05,1.9-.13,2.85a13.47,13.47,0,0,1-.13,1.45c-.05.45,0,.68-.06,1-.06,1.1-.08,2.2-.15,3.3a9.24,9.24,0,0,1-.3,1.63c-.27,1.08-.54,2.15-.86,3.21a62.52,62.52,0,0,0-1.58,7.89c-.74,1.65-1.4,3.05-2,4.48a7.64,7.64,0,0,1-.54.94Zm16,21c0,.12-.05.17,0,.17s0,0-.07-.08a.2.2,0,0,1,0-.14l.12-.11a.19.19,0,0,0-.11.15Zm.24-9.08v.26c0,.74,0,1.48-.06,2.12v.61l-.13.42a9.16,9.16,0,0,1-1.59,3.41,1.87,1.87,0,0,1-.41.32l-.16.11-2.11-4.17c-.35-.45-.73-.88-1.14-1.33a15.15,15.15,0,0,1-2.71-3.78,3.49,3.49,0,0,1-.11-.49,3.6,3.6,0,0,0-.52-1.5l-.63-.6-1.36-1.23-.3-.29a6.94,6.94,0,0,0-.91-.79,8.15,8.15,0,0,1-2.35-2.52,6.16,6.16,0,0,0-.44-.57l.05-.09c.89-1.91,1.77-3.83,2.67-5.78.4-2.09.79-4.2,1.24-6.26.44-.61.88-1.22,1.34-1.82a4,4,0,0,1,1.81-1.5h.18a3.91,3.91,0,0,1,.53.11,1.31,1.31,0,0,1,.31.17l.22.14.08.2a30.75,30.75,0,0,0,2,4.24v.1a.35.35,0,0,1,0,.12l-.19.18c-.57.55-1.16,1.11-1.76,1.65a4.92,4.92,0,0,1-.87.6,5.43,5.43,0,0,0-2,2.21,7.15,7.15,0,0,0-.69,2.16c-.06.31-.13.63-.21.94a.37.37,0,0,0,0,.24l.05.13h0l.69.49.06-.05.22-.17a.93.93,0,0,0,.4-.42,8.65,8.65,0,0,1,1.24-2.28c.2-.29.41-.59.59-.9l.56-.4c.42-.3.82-.58,1.21-.88.18-.14.36-.3.53-.45a3.73,3.73,0,0,1,1.31-.88h.1a.35.35,0,0,1,.12.07,11,11,0,0,1,1.83,4.12,14.11,14.11,0,0,0,.46,1.54c.14.41.28.83.39,1.26-.1.25-.17.52-.25.78a4.07,4.07,0,0,1-.77,1.68l-.47.37c-.38.3-.77.62-1.16.95-.55.47-1.07,1-1.6,1.45a4.15,4.15,0,0,0-.55.61,2.06,2.06,0,0,0-.44,1.59,9.33,9.33,0,0,0,.46,1.56.56.56,0,0,0,.52.27.65.65,0,0,0,.48-.36c.12-.37.22-.76.31-1.13l.1-.4c.39-.33.75-.68,1.11-1a17.17,17.17,0,0,1,1.62-1.42,1.78,1.78,0,0,1,.61,1.34c0,.44.07.88.1,1.31a18.51,18.51,0,0,0,.31,2.72,3.11,3.11,0,0,1,0,.9Zm12.53-19.75c-.14.41-.31.81-.47,1.2a8.8,8.8,0,0,0-.76,2.48,1.21,1.21,0,0,1-.15.47,12.51,12.51,0,0,0-1.67,5.38,8.8,8.8,0,0,0-.59,3.66V232c0,.82-.08,1.63-.14,2.42a4.91,4.91,0,0,1-.07,1l-2.5,4.56L174,241.23c-1.21,1.25-2.34,2.44-3.47,3.63a3.32,3.32,0,0,0-.41.58l-.2.32-.12.18a5.92,5.92,0,0,1-.51.68h0a.39.39,0,0,1-.17.09v-.07a3.27,3.27,0,0,1,.21-.68c.3-.64.63-1.27.94-1.88l.36-.7v-.65c0-.38.05-.76.08-1.14.07-.86.13-1.76.15-2.64a21.71,21.71,0,0,0-.07-2.45v-1.06h0a7.67,7.67,0,0,1-.36-2.78v-.93a1.46,1.46,0,0,0-.1-.42v-.13a2.27,2.27,0,0,1-.09-1.28l.27-.55.91-1.84h.16l.32.26a10.26,10.26,0,0,1,.83.71c.55.55,1.07,1.13,1.46,1.58a1.9,1.9,0,0,1,.44,1.18,4,4,0,0,1-.22,1.82,1.69,1.69,0,0,0-.2,1.1.42.42,0,0,0,.48.35h0a1.12,1.12,0,0,0,.92-.65c.13-.31.24-.63.34-.94s.18-.56.29-.83a3,3,0,0,0-.13-2.68l-.16-.33-.12-.25h0c-.29-.26-.55-.55-.83-.85a7.42,7.42,0,0,0-2.12-1.77,2.26,2.26,0,0,1-.62-.55l-.14-.16-.86-.95-.59-.66a15.29,15.29,0,0,1-2.54-3.77,21,21,0,0,0-1.83-3.3v-.42a6.6,6.6,0,0,1,.9-.18,4.14,4.14,0,0,0,1.61-.49,4.71,4.71,0,0,1,1.92-.57,8.5,8.5,0,0,0,1.17-.23,3.31,3.31,0,0,1,1.24,0h.57l1.46.72a10.13,10.13,0,0,1,2.27,3.22.45.45,0,0,0,.6.21.73.73,0,0,0,.39-.44,1.64,1.64,0,0,0,0-.84,8.6,8.6,0,0,0-.39-.84c-.1-.2-.21-.41-.3-.62a5.34,5.34,0,0,0-2-2.48,8.39,8.39,0,0,0-5.53-.76l-3.31,1.26h-.53a1.85,1.85,0,0,1-1.52-.4l-.12-.27a4.79,4.79,0,0,1-.6-2.59,10.28,10.28,0,0,1,3-3.6l.65-.59a11.08,11.08,0,0,1,3-.32h1a3.75,3.75,0,0,0,.87-.61,10.31,10.31,0,0,0,3.27,1.89,3.18,3.18,0,0,1,.76.4l.25.15.47.29c.26.16.55.33.85.49l.19.1a13.32,13.32,0,0,1,2.28,1.44,1.93,1.93,0,0,0,.46.23h0a14.47,14.47,0,0,0,.1,1.87,2.05,2.05,0,0,0,.05.55v.48a20.7,20.7,0,0,1,.13,4.64Zm.52-10.19a7,7,0,0,1-1.64-.8,2.88,2.88,0,0,1-1.14-1.22,5.51,5.51,0,0,0-1-1.52,10,10,0,0,1-.74-.92,8.06,8.06,0,0,0-1.9-2.07h0v-.06l-1.83-3.84a1.18,1.18,0,0,1-.15-.44,6.48,6.48,0,0,0-.54-1.92,9.67,9.67,0,0,1-.35-1,24.22,24.22,0,0,1-.85-3.23,13.84,13.84,0,0,0-.79-2.91,11.87,11.87,0,0,1-.42-1.35c-.06-.23-.12-.46-.2-.71v-.1a8.86,8.86,0,0,0-.28-3.27,20.85,20.85,0,0,1-.47-2.85c-.13-1.14-.31-2.27-.5-3.47v-.05q-.13-.78-.25-1.6a3,3,0,0,1,.07-.8,4.9,4.9,0,0,0,0-1.9v-.09l.06-.65v-.24c.05-.57.11-1.17.19-1.75a5.81,5.81,0,0,1,.17-1c.06-.33.15-.75.19-1.15s0-.76.05-1.13a4.68,4.68,0,0,0,0-.84c0-.59.09-1.21.13-1.71v-.5a5.64,5.64,0,0,0-.19-1.65c-.12-.58-.26-1.13-.4-1.69l-.18-.73v0l.2-1.79c.11-1,.23-2,.35-3A7.29,7.29,0,0,1,170,153a12.83,12.83,0,0,0,.61-6c-.08-.6-.12-1.19-.16-1.81v-.07a3.25,3.25,0,0,0-.06-.76v-.2l.2-.05.17-.06h0a1.25,1.25,0,0,1,.52-.11,1.7,1.7,0,0,1,.71.28,4.29,4.29,0,0,1,.47.32,6.25,6.25,0,0,0,.62.4,3.62,3.62,0,0,0,.64.23l.24.07H174a2.52,2.52,0,0,1,.77,1.38c.16.62.32,1.25.48,1.92l.26,1.06h0a15.45,15.45,0,0,0,.31,4.68v.18h0a6.57,6.57,0,0,1-.07.67v.18a6.23,6.23,0,0,1-.14,1.1,20.69,20.69,0,0,0-.19,5h0a7.68,7.68,0,0,0,.4,2.26,13,13,0,0,1,.51,1.67h0a13.37,13.37,0,0,0,.44,1.46,5.85,5.85,0,0,1,.38,2.71,8.91,8.91,0,0,0,.09,2v.41c.09.86.22,1.72.35,2.55.17,1.17.37,2.5.46,3.79a1.41,1.41,0,0,0,.08.33,1.38,1.38,0,0,0,.08.27,94,94,0,0,0,2.62,10,17.65,17.65,0,0,1,.66,3,6.5,6.5,0,0,0,.7,2.22,9.4,9.4,0,0,1,.92,2.54,3.91,3.91,0,0,0,.64,1.52,11.75,11.75,0,0,1,1.63,3.19,6.27,6.27,0,0,0,.35.79l.17.34c.19.24.42.49.65.74a6.85,6.85,0,0,1,1.38,1.95.55.55,0,0,0,.2.21,7.45,7.45,0,0,1,2,2.29l.06.09.25.37a3.81,3.81,0,0,0,.3.36,2,2,0,0,1,.65,1.27v.38h-.78a2.35,2.35,0,0,1-.38,0h-.17a20.86,20.86,0,0,1-4.46-.82c-.52-.18-1.06-.32-1.65-.49s-1.33-.28-2-.5Zm19.29,27.2a47.21,47.21,0,0,0,2.43,6.89,6.93,6.93,0,0,0,.61,1.19A25.57,25.57,0,0,1,207.2,250a3.06,3.06,0,0,1,.28,1.29,4.61,4.61,0,0,0,.62,2.55,14.24,14.24,0,0,1,1.38,5.77v.93l-.42.11c-.32-.69-.63-1.39-1-2.08l-.92-1.74-.24-1.7a23.46,23.46,0,0,1-2.58-3.86,23.84,23.84,0,0,0-1.87-2.75,14.39,14.39,0,0,1-2.51-4.3,24.58,24.58,0,0,0-1.85-3.91c-.62-1.05-.77-2.34-1.64-3.27l-2.65-2.35-1-1.89a17.88,17.88,0,0,0-2.17-3.34,14.34,14.34,0,0,1-3.16-5.77c-2.22-2.71-2.29-2.78-4.5-3.83l.28-.56h0v-2.87a3.69,3.69,0,0,0-.15-1.09,6.41,6.41,0,0,1-.23-2.1v-1.91a3.2,3.2,0,0,1,1.11-.1,8.06,8.06,0,0,1,2,1.83c.08.1.17.18.24.28a1.36,1.36,0,0,1,.07.53l.88.57c1,1.12,2,2.19,3.07,3.28l.38.42.9,1.56a47.85,47.85,0,0,1,4.27,3.74c.13.14.29.23.43.36.23.58.44,1.12.66,1.63a16.9,16.9,0,0,0,1.15,2.4,26.45,26.45,0,0,1,3.29,7.69Zm-2-19.05a11.3,11.3,0,0,1,4.53,3.78,29.13,29.13,0,0,0,2.64,2.95,7.78,7.78,0,0,1,1,1.31,10.42,10.42,0,0,0,2.26,3.24,23,23,0,0,1,1,2.1c.08.24-.15.58-.24.91a11.81,11.81,0,0,1-2.66-2.55,8,8,0,0,0-1.34-1.27c-1.64-.74-3.12-1.48-4.66-2.07a12.59,12.59,0,0,1-4.16-2.68c-.42-.39-.87-.77-1.31-1.15a31.47,31.47,0,0,1-3.6-3.77l-1.44-2.56-1.81-1.34a.61.61,0,0,1,.25-.82l.06,0a.66.66,0,0,0,.25-.1l1.86.2a8.34,8.34,0,0,1,1,.4c2.1,1.1,4.19,2.35,6.36,3.43Zm9.65-6.22H209a.72.72,0,0,1-.31.15h-.07a4.54,4.54,0,0,0-1.08.11,6.92,6.92,0,0,1-.83.12,2.92,2.92,0,0,1-.51,0c-.29,0-.59-.05-.88-.07h-.65a11.57,11.57,0,0,0-2.15,0,26.45,26.45,0,0,1-6.66-.17,3,3,0,0,1-.47-.14h0l-.18-.06h-.06l-.4-.42c-.31-.33-.62-.66-1-1a6.66,6.66,0,0,0-.67-.55H193c-.19-.15-.42-.33-.63-.52l-.14-.12h0a2.93,2.93,0,0,1-.78-.86,10.29,10.29,0,0,0-2.57-3.15l-.05-.07a9.73,9.73,0,0,0-2-3h0a14,14,0,0,1-1.11-2.9v-.11l-.12-.4-1.39-2v-.07l-.11-.48c-.07-.32-.15-.68-.25-1a1.36,1.36,0,0,0-.14-.43h0a4.59,4.59,0,0,1-.26-1.07,2,2,0,0,0-.28-.71,4.57,4.57,0,0,1-.44-1.42l-.11-.58a17.83,17.83,0,0,0-.64-2.71,35,35,0,0,1-1.16-4.27c-.05-.25-.13-.51-.2-.75a6,6,0,0,1-.31-1.66.56.56,0,0,0-.08-.28,3.76,3.76,0,0,1-.53-1.85h0a5.77,5.77,0,0,0-.15-.94,7.52,7.52,0,0,1-.23-2,7.71,7.71,0,0,0-.36-2.31,7.69,7.69,0,0,1-.26-2.13,11.15,11.15,0,0,0-.1-1.4,8.34,8.34,0,0,1-.13-1.58,6.45,6.45,0,0,0-.66-2.86,8,8,0,0,1-.57-2.19,28.31,28.31,0,0,1-.25-3.1v-.26a6.49,6.49,0,0,1,.15-2,8.86,8.86,0,0,0,.24-1.69v-.46a9.24,9.24,0,0,0-.12-2v-.06a6.06,6.06,0,0,0-.09-.73,1.47,1.47,0,0,0-.05-.39h0a3.88,3.88,0,0,1-.07-.93,13,13,0,0,0-.54-4.68V146l.13-.1a1.24,1.24,0,0,1,1.25-.12l.31.08.11.05,1.46,1.25.08.13a6.7,6.7,0,0,1,1.14,2.6,1.39,1.39,0,0,0,.17.43,3.18,3.18,0,0,1,.16.32c.05.11.21.51.32.77h0a8.57,8.57,0,0,1,.89,3.23c.08.25.16.51.23.76.17.57.35,1.15.55,1.71.34,1,.69,1.9,1.06,2.91l.07.19.52,1.4a15.2,15.2,0,0,1,1.71,2.9l.19.41v.37l.44,3.38a.87.87,0,0,0,0,.13,1.08,1.08,0,0,1,0,.36,12.21,12.21,0,0,0,.48,3.63l.12.51c.27,1.17.55,2.38.76,3.59a33.28,33.28,0,0,0,1.74,5.86l.16.42a7.26,7.26,0,0,1,.47,1.5,2.11,2.11,0,0,0,.38.9c.44.58.84,1.22,1.16,1.73a15.65,15.65,0,0,0,1.86,2.56,8.09,8.09,0,0,1,2.2,4.64,18.41,18.41,0,0,0,1.22,4.15l.39,1a7.36,7.36,0,0,0,1,1.67l.1.15a14.23,14.23,0,0,0,2.58,2.61l.48.39.16.13a30.37,30.37,0,0,1,3,2.68,3.77,3.77,0,0,0,1,.64l.27.14a6.25,6.25,0,0,1,2.21,1.89l.19.23Zm4.48-1.09h-.36a2,2,0,0,1-.92-.17c-.74-.32-1.7-.74-2.61-1.21a7.76,7.76,0,0,1-1.08-.72l-.22-.17c-.22-.16-.43-.33-.62-.48h0a10.17,10.17,0,0,0-.91-.67,8,8,0,0,1-2.38-2.2l-1.86-1.24-.06-.07-2.73-3.33v-.06a44.05,44.05,0,0,1-1.32-4.85v-.06c-.2-.87-.43-1.86-.69-2.82l-.61-.81h0a17,17,0,0,1-1.63-2.4,4.69,4.69,0,0,0-.71-1,13.54,13.54,0,0,1-1.8-2.73l-.09-.17-.48-.86a7.15,7.15,0,0,1-.88-2.34,15,15,0,0,0-.84-2.69,10.42,10.42,0,0,1-.85-3.48,14.5,14.5,0,0,0-.27-2.1,3.79,3.79,0,0,0-.12-.7,30,30,0,0,1-.29-3.06v-.18c0-.45-.06-.92-.1-1.37v-.89a5.56,5.56,0,0,0-.9-3,5.49,5.49,0,0,1-.74-1.44,8.35,8.35,0,0,0-1.54-2.68v-.07l-.16-.59a6.25,6.25,0,0,0-.3-1,7.35,7.35,0,0,1-.62-2.42,5.43,5.43,0,0,0-.39-1.64c-.22-.57-.41-1.17-.57-1.71a16,16,0,0,0-.8-2.23,2.66,2.66,0,0,1-.2-.7,3.4,3.4,0,0,0-.57-1.31c-.41-.63-.77-1.29-1.11-1.93a.67.67,0,0,1,0-.44v-.27l.15-.05h.1a1,1,0,0,1,.4-.12h.27a7.89,7.89,0,0,1,2.21.22,4.2,4.2,0,0,0,2,0h.1l.72.5L189,146.8h0a4.16,4.16,0,0,1,.7.58,20.7,20.7,0,0,1,2.87,3.71v.09l.11,1.64c.08,1.27.17,2.58.24,3.87a4.07,4.07,0,0,0,.44,1.81,11.54,11.54,0,0,1,1.17,3.84,7.25,7.25,0,0,0,.79,2.18l.09.17a23.82,23.82,0,0,1,2,4.5c.22.78.49,1.56.75,2.31l.13.37.26.78v1.21c0,1,.06,2,.09,2.92a3.82,3.82,0,0,0,.08.95v.35a1.42,1.42,0,0,0,0,.19h0a1.2,1.2,0,0,1,0,.51,9,9,0,0,0,0,2.29,13.73,13.73,0,0,1,0,1.63,9.32,9.32,0,0,0,.53,3.38,5.51,5.51,0,0,0,1.21,2.2,10.61,10.61,0,0,1,.85,1l.26.34a3.72,3.72,0,0,1,.53.8,10.43,10.43,0,0,0,2.18,2.92c.29.32.6.61.89.9h0l.4.39a10.55,10.55,0,0,1,1,2.14l.17.48a10.54,10.54,0,0,0,.47,1.19,8.86,8.86,0,0,1,1,3.43l.48.85c.51.89,1,1.82,1.56,2.72a2.3,2.3,0,0,0,.82.86,6.37,6.37,0,0,1,2,1.86,1.94,1.94,0,0,0,.33.32l.22.19.35.32Zm8.76.17h0a.86.86,0,0,1-.5.36h-.16a7.27,7.27,0,0,1-1.56-.13h-.18l-.37-.05h-.09l-.44-.28c-.29-.19-.58-.38-.87-.55l-.13-.08a7.83,7.83,0,0,0-1-.53,13,13,0,0,1-4.15-2.6c-.3-.29-.61-.56-.94-.85l-.2-.18-.36-.32v-.05l-.07-.14-.22-.42a28.23,28.23,0,0,1-3-7.35l-.26-.94-.7-.89-.35-.45c-.82-1.05-1.74-2.25-2.67-3.38a18.82,18.82,0,0,1-2.7-4.08,4.73,4.73,0,0,0-.55-.89,3.42,3.42,0,0,1-.67-1.76c-.21-2-.35-3.76-.36-5.51a18.06,18.06,0,0,1,.11-1.83h0c0-.26.05-.53.07-.79a5.48,5.48,0,0,1,.07-.88,6,6,0,0,0-.44-3.12,7,7,0,0,1-.46-1.64h0a7,7,0,0,0-.4-1.5,6.78,6.78,0,0,1-.34-1.11,2.36,2.36,0,0,0-.16-.62v-.12a4.25,4.25,0,0,0-.95-1.93,1.85,1.85,0,0,1-.36-.63l-.09-.22c0-.1-.09-.2-.12-.3v-.12l-.08-.2-.83-2-.55-1.33h0a13.9,13.9,0,0,0-.78-3.23l-.07-.24h0a28.7,28.7,0,0,0-1-6.88l-.76-1-2.1-2.75a.48.48,0,0,1-.08-.29v-.2l.11-.09a3.26,3.26,0,0,1,2-.57,3.07,3.07,0,0,1,1.61.39,7.51,7.51,0,0,0,1.67.59,9.83,9.83,0,0,1,1.43.47l.39.15.27.14,1.65,2,.18.4.05.11a8.78,8.78,0,0,1,.77,2.19.79.79,0,0,0,0,.13.73.73,0,0,1,.08.35,6.72,6.72,0,0,0,.32,2.21c.1.39.2.79.27,1.18a24,24,0,0,0,.64,2.61l.22.78c.11.39.24.79.36,1.17v.11l.2.61a5.35,5.35,0,0,0,.88,1.67,11.47,11.47,0,0,0,1.91,2.1l.05.06,1.62,2.73.31,1c.28.89.56,1.81.87,2.73a1.85,1.85,0,0,0,.22.4,2,2,0,0,1,.3.58l.16.56a11.28,11.28,0,0,1,.38,1.6,12.79,12.79,0,0,0,1.07,3.73c.16.34.29.69.41,1v.06a9.68,9.68,0,0,0,.66,1.52,2.41,2.41,0,0,1,.27.69,29.88,29.88,0,0,0,1.1,3.5v.07c.19.54.39,1.09.57,1.64l.63,1.95.72,2.25c.46,1.38.9,2.91,1.35,4.67a3.82,3.82,0,0,0,.52,1.33,9.14,9.14,0,0,1,1.56,4l1.22,1.84V202l.52,2,.37.46.82,1a3.8,3.8,0,0,1,.93,2.59,1.7,1.7,0,0,0,.13.58h0a1.77,1.77,0,0,0,.12.37.49.49,0,0,1-.08.31Zm9.11,9.18a1.89,1.89,0,0,1-.78-.13h0a12.68,12.68,0,0,1-2-2.79,14.14,14.14,0,0,0-.89-1.28,9.89,9.89,0,0,1-1.25-2c-.19-.45-.37-.91-.54-1.35a19.1,19.1,0,0,0-1-2.24,5.76,5.76,0,0,1-.87-2.47c-.06-.64-.12-1.25-.13-1.87a7.06,7.06,0,0,0-.3-1.66,1,1,0,0,0-.12-.35,2.28,2.28,0,0,1-.18-.79,3.27,3.27,0,0,0-.63-1.93,8.26,8.26,0,0,1-1-2.7v-.14c-.08-.31-.16-.64-.27-1h0a5.15,5.15,0,0,0-.28-1.61h0c-.09-.32-.18-.66-.25-1V189a25.52,25.52,0,0,1,.21-2.9v-.06c0-.41.09-.82.13-1.24v-.2a4.3,4.3,0,0,0,0-1.47,2.89,2.89,0,0,1,0-1V182a26,26,0,0,0,.09-3v-2.47a20.74,20.74,0,0,1-.2-3.06,2.12,2.12,0,0,0-.12-.57,19.88,19.88,0,0,0-2.77-5.89,12.5,12.5,0,0,1-1.56-2.77h0v-.42a21.13,21.13,0,0,1,0-4.49,1.29,1.29,0,0,0,0-.54,5.53,5.53,0,0,1-.09-2.58v-.15a1.16,1.16,0,0,0,0-.25v-.1c-.12-.28-.25-.55-.37-.82a17.83,17.83,0,0,1-.83-2l-.17-.52c-.26-.8-.5-1.56-.8-2.27a8.23,8.23,0,0,0-1.39-1.38,3.45,3.45,0,0,1-1.3-2.2v-.14l.11-.09h0v-.05a.44.44,0,0,1,.36-.2,4.44,4.44,0,0,1,2,.38,5.58,5.58,0,0,0,2,.5,14.83,14.83,0,0,1,4.3,1.2l.87.38h0a20.86,20.86,0,0,0,3.58,1.3,1.37,1.37,0,0,1,.5.19,8.5,8.5,0,0,0,1.76.9h0a10.72,10.72,0,0,1,1.53.73c.66.41,1.37.77,2,1.08.44.22.86.43,1.28.66a1,1,0,0,1,.36.43h0l.07.11.09.13-.08.13a1.68,1.68,0,0,1-1.27.77l-.42.1-3,2.1a20,20,0,0,0-2.4,3,37.8,37.8,0,0,0-.57,4.27l-.06.67c0,.34-.06.68-.09,1v.28a16.42,16.42,0,0,1-.17,1.78,9.22,9.22,0,0,0,0,1.93,10.45,10.45,0,0,1,0,1.6v.8l.18.56h0c.17.52.36,1.1.56,1.67a5.61,5.61,0,0,1,.37,2,7.26,7.26,0,0,0,.53,2.7c.07.19.13.38.2.61l.13.39h0v2.45l.53,1.34h0v2.26a1.58,1.58,0,0,0,.57.82,2,2,0,0,1,.59,2,5,5,0,0,1-.2.6h0a3.93,3.93,0,0,0-.2.62,11.54,11.54,0,0,0-.15,1.16v.46l.29,1.1h0v2a7.73,7.73,0,0,0,.07,1.28v.65a7.42,7.42,0,0,0,.5,1h0l.17,1,.29.42h0a4.41,4.41,0,0,1,.79,1.44,2.15,2.15,0,0,0,.44.69l.11.14c.24.31.51.61.76.91l.15.17.23.27a3.36,3.36,0,0,1,.82,1.68,18.47,18.47,0,0,0,1,3.56,11.06,11.06,0,0,1,.67,2.61,6.17,6.17,0,0,0,.23,1l.06.22a5.29,5.29,0,0,1-1.23,5.14,2.25,2.25,0,0,1-1.37.8Zm2.07,3.29h-.05a.92.92,0,0,1-1-1v-.13a2.21,2.21,0,0,1,1.56-.86l.35-.08v.46a1.2,1.2,0,0,1,0,.51,1.53,1.53,0,0,1-.86,1.11Zm1.89,2.78-.29.13h-.2l-.17-.08a1.41,1.41,0,0,1-.32-.17.75.75,0,0,1-.2-.92l.31-.47,1.41-2.12.13-.13a6.49,6.49,0,0,1,.56-.49,4.71,4.71,0,0,0,1.75-2.78,12.47,12.47,0,0,1,.85-2.31,17.27,17.27,0,0,0,1.27-3.68c.07-.35.15-.7.22-1.05.14-.61.26-1.17.35-1.73a7.9,7.9,0,0,0,0-1.62,8.23,8.23,0,0,1,0-1.68.47.47,0,0,0,0-.27,3.37,3.37,0,0,1-.33-1.52v-.06a5.41,5.41,0,0,0-.06-.65,5.25,5.25,0,0,1,0-1.08,3.2,3.2,0,0,0-.19-1.47v-.06l.07-.94c0-.44.07-.88.09-1.31a3.92,3.92,0,0,1,.64-1.79l-.25-1h0v-.45c0-.36.1-.77.12-1.17.08-1.66.32-3.32.55-4.93l.15-1a10,10,0,0,1,.49-1.79v-.1l.24-.74v-.07l.21-.27.32-.39a2.15,2.15,0,0,1,.36-.34l.61-.44a15,15,0,0,0,1.8-1.42,4.74,4.74,0,0,1,1.19-.77l.52-.28h.06l.58-.11h.11a14,14,0,0,0,1.48-.31c.48-.14,1-.32,1.41-.48l.6-.22h.16l.18.06a1.86,1.86,0,0,1,.33.11,3.2,3.2,0,0,0,2.53.49h.13l.11.07a.47.47,0,0,1,.21.18c.43.73.79,1.5,1.15,2.24s.8,1.67,1.28,2.45l.4,1.09,1,2.69a.45.45,0,0,1,0,.3h0v.11l-.09.05-.09.06a.76.76,0,0,1-.37.17h0a2.53,2.53,0,0,1-1-.14c-.41-.18-.8-.38-1.22-.59l-.14-.07-.42-.22-2.38-.27-.28.08a6.28,6.28,0,0,0-.82.28c-.59.26-1.16.57-1.7.87h0a4.51,4.51,0,0,0-1.88,1.62,12,12,0,0,0-1.83,2.73v.09c-.26.48-.54,1-.84,1.46a11.62,11.62,0,0,0-1.22,3h0c-.13.43-.26.84-.4,1.26a3.42,3.42,0,0,0-.11.95h0a15.85,15.85,0,0,0-.19,2.22v.55a4.2,4.2,0,0,1-.37,2.36.41.41,0,0,0,0,.25,3.06,3.06,0,0,1,0,1.66,8.7,8.7,0,0,0-.22,1h0a6.71,6.71,0,0,1-.42,1.54,39.39,39.39,0,0,0-1.93,5.58,18.17,18.17,0,0,1-1,2.46h0l-.26.59c-.29.66-.59,1.3-.91,2l-.06.13-.46,1a6.24,6.24,0,0,1-3,2.09Zm2.11,6.34h0a1.13,1.13,0,0,1-.39-.37,16.63,16.63,0,0,1-1.35-3.43h0l-.17-.57v-.09a1.68,1.68,0,0,1,1.1-.79,1.64,1.64,0,0,0,.64-.31,10.87,10.87,0,0,1,1-.79l.12-.09.24-.18a13.91,13.91,0,0,0,.66-1.34,11.9,11.9,0,0,1,.83-1.6,3.48,3.48,0,0,0,.41-.94v-.06a4.15,4.15,0,0,1,1-2l.2-.45a9.17,9.17,0,0,0,.76-2.13,16.09,16.09,0,0,1,.65-2.3c.13-.39.25-.74.36-1.1.34-1.16.75-2.42,1.28-4a16.09,16.09,0,0,0,.68-3.17c.16-1.21.31-2.41.46-3.63l.34-2.6,1.07-2.37a9.32,9.32,0,0,1,.61-1.09h0a7.41,7.41,0,0,0,.64-1.18,3.24,3.24,0,0,1,.45-.72l.18-.25a3,3,0,0,1,1.28-1.06l1.71-.75,1-.46h.51a7.57,7.57,0,0,1,3.16.79,9.13,9.13,0,0,1,2.43,1c.3.17.68.37,1.06.56l.07.06,1.06,1.44a3.16,3.16,0,0,0,.1.5v.05a5,5,0,0,0,.43,1.44l.73.53.06.08v.06a1.77,1.77,0,0,1,.15.26l.89,2,.08.18a4.42,4.42,0,0,1,.26.67c.24.89.56,1.77.88,2.63v.07a25.64,25.64,0,0,1,1.23,3.7,2.08,2.08,0,0,0,.22.52l-.07.06h.08a1.87,1.87,0,0,1,.3.94h0v.1a.74.74,0,0,1-.33.32.53.53,0,0,1-.52,0,1.4,1.4,0,0,1-.66-.81,2.23,2.23,0,0,1-.06-.3,1.42,1.42,0,0,0-.07-.32,3.43,3.43,0,0,0-.25-.46h0l-.1-.17a5,5,0,0,0-.9-.27,3.76,3.76,0,0,1-1.32-.5l-1.73-.2-1.13-.92a2.47,2.47,0,0,0-1.41,1,43.58,43.58,0,0,1-2.7,3.49,5.13,5.13,0,0,0-.53.82h0a4.55,4.55,0,0,1-.82,1.16l-1,1.56-2.59,3.9-.1.16a7,7,0,0,0-.83,1.51,4.54,4.54,0,0,1-.89,1.36,21.15,21.15,0,0,0-2.25,3.2,10,10,0,0,1-3.32,3.52l-.17.12-.42.3a2.37,2.37,0,0,1-.33.2,1,1,0,0,0-.34.23,6.85,6.85,0,0,1-1.19,1.17h0a7,7,0,0,0-1,1,5,5,0,0,1-1.93,1.31l-.14.06-.12-.09ZM179,326.69a8.76,8.76,0,0,1-.76.88l-.07.08-.38.4v0h-.07a9.84,9.84,0,0,1-2.65.46,47.68,47.68,0,0,0-7.66,1.06,38.89,38.89,0,0,0-3.84,1.51l-.62.25a7.54,7.54,0,0,0-1.26.73h-.06a29.81,29.81,0,0,1-4.2,2.5l-.24.22-.32.3a14.18,14.18,0,0,1-3.83,3.06l-.13.08a30.37,30.37,0,0,1-2.74,2.15h-.07c-.58.43-1.19.87-1.75,1.34a7.8,7.8,0,0,0-1.17,1.24,41.16,41.16,0,0,1-4.84,5.19L141,349.41l-.07.06c-.71.59-1.51,1.26-2.23,1.95a7.67,7.67,0,0,1-1.16.85l-.49.33-.23.13a.91.91,0,0,0-.26.18,8.83,8.83,0,0,1-2.3,1.92,14.75,14.75,0,0,0-1.36,1l-.54.42-.16.11-2.28.92-5.16,2.07-.47.18a42.31,42.31,0,0,0-4,1.72,12.69,12.69,0,0,0-1.41.88h0l-.93.64a1.92,1.92,0,0,0-.66.7,7.88,7.88,0,0,1-1.33,1.65,12.06,12.06,0,0,0-.83.92,2,2,0,0,1-.62.48,2,2,0,0,0-.45.31,15.36,15.36,0,0,1-3.84,2.62l-.24.13L109,370l-.33.19-.63.36a4.7,4.7,0,0,1-.84.36h-.07a6.92,6.92,0,0,0-2.55,1.21h-.07a11.84,11.84,0,0,0-2.89,1.07A52.81,52.81,0,0,0,96.91,376a33.33,33.33,0,0,0-3.37,2.46l-.35.28c-.5.41-1,.83-1.59,1.22a13.58,13.58,0,0,0-2.32,1.94c-.46.49-1,1-1.4,1.42l-.13.13c-.37.36-.74.74-1.1,1.15a7.6,7.6,0,0,0-1,1.36l-.44.77,0,.08a13.9,13.9,0,0,1-1.39,2.2,2.29,2.29,0,0,0-.3.55l-.07.17-.91,2.37-.38.7-1,5.81-.29-.14h-.1a.55.55,0,0,1-.31-.21,7.33,7.33,0,0,1-.87-2.09c-.15-.59-.3-1.18-.45-1.73l-.2-.74v-.2h0l0-.48c0-.33,0-.67,0-1v-.15a2.67,2.67,0,0,0,0-.66c-.34-1.65-.93-3.09-.69-4.77l0-.59a4,4,0,0,1,.09-.59,2.52,2.52,0,0,0,.09-.69,8.83,8.83,0,0,1,.28-2.56c.08-.37.17-.79.23-1.19a2.47,2.47,0,0,1,.21-.69,25.67,25.67,0,0,0,1.69-4.77,4.9,4.9,0,0,1,.72-1.46,25,25,0,0,1,2.7-3.29h0l.89-.93.36-.4c.28-.31.55-.61.81-.91a16.89,16.89,0,0,0,2.15-3.51,27.35,27.35,0,0,0,1.65-4,15,15,0,0,1,.88-2.27,2.53,2.53,0,0,1,.76-.95l.29-.21A10.83,10.83,0,0,1,94.33,356c1.62-.64,3.19-1.43,4.77-2.12l.68-.32a6.48,6.48,0,0,0,2-1.5c.49-.54,1-1,1.62-1.59l.89-.87c.44-.43.89-.9,1.36-1.43a3.78,3.78,0,0,0,.31-.45h0a2.82,2.82,0,0,1,.6-.78,18.34,18.34,0,0,0,1.62-1.53h0c.44-.45.89-.91,1.38-1.34a10.06,10.06,0,0,1,1.29-.91c1.15-.71,2.33-1.37,3.49-2l.34-.19a12.38,12.38,0,0,1,3.71-1.41h.09a13.12,13.12,0,0,0,1.66-.4c.58-.16,1-.26,1.5-.37a23.42,23.42,0,0,1,3.07-.47,26.78,26.78,0,0,0,3.22-.49l1.54-.28.65-.09h0a13.75,13.75,0,0,1,1.74-.23A6,6,0,0,0,133,337h0a5.56,5.56,0,0,1,1.47-.19,17.58,17.58,0,0,0,2-.07l.44-.06a4.12,4.12,0,0,0,1-.18,5.45,5.45,0,0,1,1.36-.24l.17,0a2.93,2.93,0,0,0,.85-.11,4.55,4.55,0,0,1,1.37-.28h.08a4.67,4.67,0,0,0,1.16-.2,7,7,0,0,1,1.83-.3l.61-.08.19,0a2.43,2.43,0,0,0,.42-.05,18.75,18.75,0,0,1,2.38-.53l.12,0a18.61,18.61,0,0,0,2.23-.51l.13,0a1,1,0,0,1,.38,0,9.08,9.08,0,0,0,2.94-.69h.06c.43-.16.89-.32,1.34-.45.63-.17,1.27-.39,1.94-.61h0l.77-.25.28,0a4.23,4.23,0,0,0,.72-.27,27.57,27.57,0,0,1,2.86-1.25,4,4,0,0,0,.75-.36c.93-.6,1.87-1.12,2.7-1.59,1.35-.7,6.29-2,7.62-2.76a6,6,0,0,1,2.27-.84h.1a4.75,4.75,0,0,0,2.33-.87,5.45,5.45,0,0,1,2.4-1,1.09,1.09,0,0,0,.47-.81,2.43,2.43,0,0,1,.11-.38v-.07l.17-.1a2.47,2.47,0,0,1,1.55-.53h0A.34.34,0,0,1,183,321l.26.09-.12.25a.38.38,0,0,1-.18.25h0v.16h-.09a.63.63,0,0,1-.12.22,52.78,52.78,0,0,0-3.77,4.67Zm16.54-7a.8.8,0,0,1-.23.21,26.29,26.29,0,0,0-2.35,1.9l-.07.06c-.53.46-1.08.94-1.65,1.38a5.55,5.55,0,0,1-.78.47h0l-.34.19c-.35.21-.71.38-1.06.55H189a9.6,9.6,0,0,0-1.54.88,6.8,6.8,0,0,1-2.52,1,24.21,24.21,0,0,0-3.12,1h-.2a.67.67,0,0,1-.64-.46l-.06-.13.26-.35c.16-.22.31-.43.48-.63a2.94,2.94,0,0,1,.27-.28,1.71,1.71,0,0,0,.3-.34,11.94,11.94,0,0,1,2.32-2.73,6.49,6.49,0,0,0,.91-1.07h0c.13-.18.27-.37.42-.55l1.44-1.76.88-1,.49-.27h.07c.46-.26,1-.55,1.49-.87.28-.18.55-.38.81-.58h0a9.66,9.66,0,0,1,1.17-.79,37.41,37.41,0,0,0,4.54-3l1.28-1,.39-.29,1.67-1.26a.54.54,0,0,1,.23-.1h0l.19-.06.1.16a.81.81,0,0,1-.16,1.06.94.94,0,0,0-.18.28v.37a8.87,8.87,0,0,0-.13.88,6.22,6.22,0,0,1-.87,2.59l-.18.31-1,1.86h0c-.28.27-.57.52-.87.77a8.64,8.64,0,0,0-1.7,1.5Zm14-6.32a12,12,0,0,1-1.2.62,13.55,13.55,0,0,0-3.41,2.4l-.27.23a11,11,0,0,0-1.3,1.43,1.69,1.69,0,0,0-.23.46h0l-.11.27v.07h-.06a15.66,15.66,0,0,1-3.59,1.7c-.28.09-.55.2-.86.32s-.67.26-1,.37a1.08,1.08,0,0,1-.55,0h-.09l-.1.13-.4-.24v-.07a.38.38,0,0,1,.14-.21h0l.13-.18h0a6.67,6.67,0,0,1,1.29-1.57,11.44,11.44,0,0,0,2.41-3.53,11.69,11.69,0,0,1,.6-1.11l.05-.09.25-.44.39-2.14a13.47,13.47,0,0,1,2.28-3.45,17,17,0,0,0,1.38-1.66,13.22,13.22,0,0,1,2.29-2.35l.46-1h.06l.33-.21.08,0a9.08,9.08,0,0,0,.86-.58,35.68,35.68,0,0,1,5.18-3.4,5.74,5.74,0,0,0,2.27-2,1,1,0,0,1,.31-.3l.08-.06a.66.66,0,0,1,.2-.09h0l.23-.09.09.23a1.39,1.39,0,0,1-.15,1.13,1.82,1.82,0,0,0-.17.45,4.66,4.66,0,0,1-.37,1.06c-.06.14-.12.27-.18.42s0,.19,0,.29v.06a7.65,7.65,0,0,1,.08,1.1,11.19,11.19,0,0,1-.12,1.23v.57a19.12,19.12,0,0,1-1.44,2.86c-.14.24-.27.49-.4.72a7.62,7.62,0,0,1-1.25,1.87,10.31,10.31,0,0,1-1.5,2.39l-.29.38a7,7,0,0,1-2.24,1.9Zm13.81-6.2h0v0l-.44.37c-.34.28-.65.54-.94.81a9.38,9.38,0,0,0-1,1.07,7.72,7.72,0,0,1-2.09,1.72c-.57.35-1.16.67-1.68,1s-1.3.71-1.95,1.13a10.34,10.34,0,0,1-1.92.89h0l-.69.27a1.38,1.38,0,0,1-.32.08,2.11,2.11,0,0,1-.7,0h-.08l-.08.12-.41-.25v-.07a.42.42,0,0,1,.1-.15l.17-.24h.11a33.5,33.5,0,0,0,5.19-7.28c.12-.23.26-.46.39-.68l.17-.29a7.44,7.44,0,0,0,1.14-3,2.11,2.11,0,0,1,.2-.72,4,4,0,0,0,.24-2.61v-.12l.36-1c.26-.75.53-1.53.78-2.33a13.4,13.4,0,0,1,1.36-2.82,3.37,3.37,0,0,1,.57-.75,23.55,23.55,0,0,0,1.85-2h0c.48-.54,1-1.15,1.58-1.71l.28-.28.07-.07a9.83,9.83,0,0,1,.76-.74l.31-.26a5.92,5.92,0,0,1,1.34-1l.16-.08.12.14a3.13,3.13,0,0,1,.59,1.21,3.07,3.07,0,0,0,.42.94,6.88,6.88,0,0,1,1.06,2.09v0a4.51,4.51,0,0,1-1.21,3.12,6,6,0,0,0-1.19,2.22c-.22.69-.49,1.37-.76,2h0l-.32.81h0v.07a3,3,0,0,0,0,.41,5.11,5.11,0,0,1-1.28,4.29,15.85,15.85,0,0,0-2.27,3.55Zm15.94-16.87h0v.32c-.08.74-.17,1.49-.24,2.14l-.08.71-1.12,2.91-.1.13a2.79,2.79,0,0,1-.43.48,4.07,4.07,0,0,0-1,1.3,5.9,5.9,0,0,1-2.13,2.33,9.8,9.8,0,0,0-2.54,2.28,14.29,14.29,0,0,1-2.79,2.49h0a10.51,10.51,0,0,1-2.86,1.67l-.18.06-.1-.16-.05-.07a.37.37,0,0,1-.12-.34,3.47,3.47,0,0,1,.85-1.4,8.63,8.63,0,0,0,.77-1.08,8.54,8.54,0,0,1,.89-1.23,2.63,2.63,0,0,0,.4-.7l.14-.3a3.28,3.28,0,0,0,0-1.47,3.57,3.57,0,0,1,.37-2.7,12.78,12.78,0,0,1,1.87-3.77,10.25,10.25,0,0,0,1-1.9v-.08l.23-.54a2.55,2.55,0,0,0,.14-1.42,16.08,16.08,0,0,1-2.08-3.9h0a12.39,12.39,0,0,1,.27-3c.07-.4.14-.78.19-1.17v-.11l.8-1.11.2-.54c.14-.39.28-.75.4-1.13s.24-.78.36-1.18l.27-.92.29.24.2.15a1,1,0,0,1,.38.38c.21.46.39.91.57,1.36l.14.36a31.27,31.27,0,0,1,4.55,5.45,8.36,8.36,0,0,1,.53,3v.06a8.06,8.06,0,0,0,.13,1.42,3.7,3.7,0,0,1-.14.93Zm10.79-5.7h0a2.49,2.49,0,0,0,0,.26,3.91,3.91,0,0,1-1.18,2.72c-.56.57-1.1,1.17-1.62,1.75s-.92,1-1.36,1.48l-.09.1a10.65,10.65,0,0,1-1.74,1.57,25.13,25.13,0,0,0-2.57,2,3.72,3.72,0,0,1-.54.37h0l-.21.13-.29.19-.08-.34a1.17,1.17,0,0,0,0-.15.6.6,0,0,1,0-.46,7.56,7.56,0,0,0,.51-2.19v-.29h0v-.19a2,2,0,0,1,.08-.68v-.15a11,11,0,0,0,.13-1.76,27.32,27.32,0,0,0-.29-2.8l-.09-.67a4.44,4.44,0,0,0-.28-1,9.7,9.7,0,0,0-1.35-2.44l-.09-.12a17.52,17.52,0,0,0-2.48-2.82,7.35,7.35,0,0,1-.83-.88l-.09-.1-.21-.24v-.07l-1.28-3.46v-.22a1.38,1.38,0,0,1,.06-.37,2.59,2.59,0,0,1,.79-1.19l.06,0h.2a.62.62,0,0,1,.42,0l.4.22a9.07,9.07,0,0,0,2.14,1l.35.1h.1A3.26,3.26,0,0,0,240,274h0a1.57,1.57,0,0,1,.49,0l.35.08,1.83.45a12.5,12.5,0,0,1,1.27.44,5.08,5.08,0,0,1,.83.42l.4.25c.75.47,1.49.94,2.18,1.44a3.86,3.86,0,0,1,.94,1c.44.68.85,1.37,1.25,2l.16.26.33.55v.94a8.79,8.79,0,0,0,.1,2,2,2,0,0,1-.07.63Zm8.57-12.1c-.06.61-.13,1.36-.21,2.11a4.82,4.82,0,0,1-.42,1.56,5.65,5.65,0,0,0-.36,1.24v.18a5.55,5.55,0,0,1-1.51,2.8l-3.82,3.74-.12-.4-.14-.52v-.14a8.77,8.77,0,0,0-.38-1.19,2.83,2.83,0,0,1-.18-1,3,3,0,0,0-.17-1,11.47,11.47,0,0,1-1.41-2.2h0c-.23-.43-.48-.89-.76-1.36l-2.27-1.6h0l-.4-.11a5.09,5.09,0,0,1-2-.9,3.9,3.9,0,0,0-1.9-.78,32,32,0,0,1-3.37-.74h-.08l-1.64-.41h-.08l-.31-.23c-.28-.21-.55-.43-.82-.65a.86.86,0,0,1-.21-.33h0l-.07-.15v-.2l.21-.6h0a14.13,14.13,0,0,1,.52-1.38,6.1,6.1,0,0,0,.37-2.11c0-.25.06-.51.08-.76V265a1.94,1.94,0,0,1,.07-.63,4,4,0,0,0-.06-1.65,2.65,2.65,0,0,1,.12-1.67.52.52,0,0,1,.3-.31,1.72,1.72,0,0,1,.33-.06h.22l1.61,1.33a6.74,6.74,0,0,0,3.87.18h.16l.22.09h.09a7.12,7.12,0,0,0,.7.27,4.73,4.73,0,0,0,2.28.18,5.8,5.8,0,0,1,3.8.48,3.93,3.93,0,0,0,.78.27h.09l.38.11h.06a13.08,13.08,0,0,1,1,.88h0a9.76,9.76,0,0,0,1.45,1.19,2,2,0,0,1,.5.49h0a2.39,2.39,0,0,0,.27.31,9.13,9.13,0,0,0,.74.57l.44.33a8.67,8.67,0,0,1,2,4.26ZM267,262.34h0c-.13.33-.24.68-.35,1v0a12.39,12.39,0,0,1-.8,2c-.21.39-.41.79-.62,1.19v.06a31.49,31.49,0,0,1-1.69,3l-.11.17a4.29,4.29,0,0,0-.42.73,2.64,2.64,0,0,1-.85,1.15,1.47,1.47,0,0,0-.37.51,3.43,3.43,0,0,1-.19.33l-.09.16a1,1,0,0,1-.61.57h-.17l-.1-.15a1.5,1.5,0,0,1-.2-1v-.19a2.66,2.66,0,0,0-.08-1.23,6.24,6.24,0,0,1-.29-1,3.91,3.91,0,0,0-.49-1.41,5.53,5.53,0,0,1-.53-1.12v-.06l-.12-.31-.58-.51a16.75,16.75,0,0,1-1.25-1.17,7.08,7.08,0,0,0-1.77-1.51,3.63,3.63,0,0,1-1.08-1,7,7,0,0,0-.54-.6l-.73-.16h-.08a5.33,5.33,0,0,1-1.82-.58h-.24a2.88,2.88,0,0,0-1.34,0,5,5,0,0,1-1.35.18H248a6.45,6.45,0,0,0-.75.07H247a7.81,7.81,0,0,0-4.38-.43,2.5,2.5,0,0,1-.82,0h-.37a11.77,11.77,0,0,1-1.24-.69,5.74,5.74,0,0,0-2-.91h-.13l-.06-.07a1.08,1.08,0,0,1-.17-1,.72.72,0,0,0,0-.4,1.4,1.4,0,0,1,.14-1.11c0-.1.09-.2.13-.31a3.55,3.55,0,0,0,.11-.63,1,1,0,0,1,.06-.42,1.85,1.85,0,0,0,.07-.48,3.73,3.73,0,0,1,.33-1.32l.07-.13h.5a2.55,2.55,0,0,1,.76,0l.56.11a17,17,0,0,1,2.68.68,8.22,8.22,0,0,0,2.42.53l3.09-.67.74-.16h0a6,6,0,0,1,2.07.43,4.69,4.69,0,0,0,2.88.27h.67a4.19,4.19,0,0,1,3.13.27l.51.1c.36.07.77.16,1.16.22s.93.12,1.39.17l.5.06a5.65,5.65,0,0,1,2.48,1.63l.53.5a6.74,6.74,0,0,1,2.25,2.68,3.2,3.2,0,0,1-.14,1.86Zm3.24-10a7.44,7.44,0,0,0-.58,2.13v.21l-.06.36c0,.28-.11.59-.17,1l-.1.56-.06.13a2.34,2.34,0,0,1-.79,1.07l-.09.06h-.11a2.2,2.2,0,0,1-1.08-.75,3,3,0,0,0-.52-.47h0l0,0a4.73,4.73,0,0,0-1.51-1.44l-.18-.13c-.52-.37-1-.79-1.46-1.16l-.55-.45a6,6,0,0,0-2.52,0h-.15a8.24,8.24,0,0,0-2.45-.67,4.37,4.37,0,0,0-1.44.08,18.47,18.47,0,0,1-2.64.28,2.94,2.94,0,0,1-1.18-.21,9.41,9.41,0,0,0-2.21-.53l-3.35.86a5.29,5.29,0,0,1-2.15-.17,9.93,9.93,0,0,0-1.14-.25h-.05a8.23,8.23,0,0,1-1.61-.39,2.65,2.65,0,0,0-.95-.1h-.62a3.27,3.27,0,0,1-1.16-1.42l-.23-.42v-.06l.14-1.52c.07-.75.14-1.51.22-2.27a3,3,0,0,1,.09-.46l.06-.25v-.11l.11-.05.11-.06h0a1.49,1.49,0,0,1,.46-.2,1.94,1.94,0,0,1,.69,0,4.51,4.51,0,0,0,2.52-.18,3.12,3.12,0,0,1,1-.2,2.08,2.08,0,0,0,1-.26h.1a28.35,28.35,0,0,0,3.89-1.34,14.55,14.55,0,0,1,3.89-1,5.76,5.76,0,0,0,2-.62l.88-.47.11-.06.57-.3a4.28,4.28,0,0,1,2.69-.59,5.3,5.3,0,0,0,1.19,0h.29a8.7,8.7,0,0,1,2.91.23H264c.42.26.82.53,1.18.76A17.52,17.52,0,0,0,267.8,243a2.57,2.57,0,0,1,.76.6h0l.19.19,0,.07a6.42,6.42,0,0,1,.42,1.46,3.41,3.41,0,0,0,.61,1.63l.06.06v.7a6.35,6.35,0,0,0,.07,1.19,9.66,9.66,0,0,0,.23,1.09l.09.35h0a3.12,3.12,0,0,1-.08,2Zm2.08-9.65c-.07.53-.15,1.05-.22,1.53L272,245l-.12.06a.75.75,0,0,1-.24.08h0a.6.6,0,0,1-.6-.39c-.12-.31-.23-.64-.32-.91a9.89,9.89,0,0,0-.74-1.79l-.27-.22a3.71,3.71,0,0,0-.78-.56c-.74-.36-1.44-.78-2.12-1.19h-.06l-.7-.41a12.75,12.75,0,0,0-1.15-.6,3.3,3.3,0,0,0-2.19-.35,8.47,8.47,0,0,1-3.31,0l-1.48.32-3,1.72-.84.2-2.41.58-.3.08a9.3,9.3,0,0,0-1.55.49,22.31,22.31,0,0,1-2.84,1l-1.15.35a9.34,9.34,0,0,1-5.34.19,4,4,0,0,1-.86-.37,1,1,0,0,1-.29-.27l-.12-.14-.06-.06L239,242c-.06-.53-.12-1.09-.17-1.64a2.86,2.86,0,0,1,0-.5v-.2a1.09,1.09,0,0,1,.52-.94h.08l.66-.09a13.36,13.36,0,0,1,1.54-.15,8.69,8.69,0,0,0,3.1-.74,28.59,28.59,0,0,0,3.73-1.79,12.31,12.31,0,0,0,4.67-4.39c.27-.48.57-.95.84-1.36s.45-.7.67-1.08a8.19,8.19,0,0,1,1.69-2.12,1.18,1.18,0,0,0,.35-.4,3.07,3.07,0,0,1,1-1.33l.79-.65.07-.05c.44-.37.9-.75,1.36-1.11a1.48,1.48,0,0,1,1.21-.33l1.22.34h.17l.88.26h.26a2.27,2.27,0,0,1,1.65.17,2.13,2.13,0,0,1,.69.86,3.82,3.82,0,0,0,.54.8l2.34,1.09.89,1.56,1.36,1.33a6.65,6.65,0,0,1,1,2.18h0v.66a4.14,4.14,0,0,1-.08,1,13.82,13.82,0,0,0,.09,3.88,9.49,9.49,0,0,1,.09,2.25v.32a5.52,5.52,0,0,0,.09,1.8,2.56,2.56,0,0,1,0,1Z"/>
</svg>