<svg class="animate hangingfern layer3" xmlns="http://www.w3.org/2000/svg" viewBox="0 0 166.57 100.57">
	<title>animate_hangingfern-3</title>
	<path class="hangingfern hf-cls1 layer3" d="M5,55.62a14.6,14.6,0,0,0,3.6-2A16.38,16.38,0,0,1,11.44,52a4,4,0,0,0,2.92.25.27.27,0,0,1,.23.12c0,.17.13.42,0,.53a3.63,3.63,0,0,1-.79.86c-1,.75-2.15,1.41-3.15,2.21S8.77,57.73,7.83,58.6l-1.89,5,.38,1.78c.38.16.75.29,1.09.48s.64.48,1,.65a7,7,0,0,0,1.07.33l3-1.07c.42-.34.87-.71,1.34-1,.28-.21.41-.19,1.13.08a8.23,8.23,0,0,1,0,3.77c-.31,1.55-.59,3.1-1,4.62A15.21,15.21,0,0,0,13.46,79a20.89,20.89,0,0,1,1.44,3.7,14.47,14.47,0,0,0,2.43,4.71,2,2,0,0,0,2,0,7.09,7.09,0,0,0,4-4.55l.09-2.08a8.46,8.46,0,0,0,.9-4.25c.24-.92,0-1.91.48-2.8.18.19.43.36.48.59a19.55,19.55,0,0,0,1.85,4l2,.82L31.18,79l1.57-1.7c.56-1.4,1.13-2.77,1.64-4.15a2.19,2.19,0,0,0-.31-2.24,4.66,4.66,0,0,1-.34-.64l0-1.64a5.15,5.15,0,0,0-.74-2.82c-.55-.84-.41-1.91-.78-2.83,0-1.68-.15-3.36-.18-5a1.83,1.83,0,0,1,.34-.79h.29a3.49,3.49,0,0,1,.65,1.61A68.71,68.71,0,0,0,35,66.84a7.35,7.35,0,0,0,1.06,2.53,4.44,4.44,0,0,1,2.3,2.07,3.81,3.81,0,0,0,.88,1.18c1.68,1.51,3.14,3.29,5.1,4.57l1.87.24A4.24,4.24,0,0,0,48,75.83a3.39,3.39,0,0,0,.23-.66c.1-1,.17-2,.26-2.95-.31-1.06-.63-2.1-.93-3.14a16,16,0,0,0-1.27-2.4,6.18,6.18,0,0,0-1.4-1.87A10,10,0,0,1,44,63.68c-.12-.15-.47-.13-.62-.2-1.39-.66-1.94-2.2-3.05-3l-1.49-3.27A4.77,4.77,0,0,1,39,54.48c0-1-.58-1.57-.47-2.3,0-.29.07-.58.1-1a3.49,3.49,0,0,1,.73.55,8.5,8.5,0,0,1,.57,1l2.78,4.94.75.53c.67.74.54,1.81,1,2.89L51,67.32l2.27,1.08a1.07,1.07,0,0,0,.33,0L55,68c1.59-1.75,1.59-1.75,2-3.66-.33-2-2-3.38-2.53-5.11a16.85,16.85,0,0,1-1.33-1.38,7.64,7.64,0,0,1-.6-1.27l-2.24-2.08-1.85-.31-1.54-1.43c-.57-.93-.63-1.85-1.06-2.64A20,20,0,0,1,45,47.58c-.31-.82-.74-1.61-1.06-2.44A4.06,4.06,0,0,1,43.66,44a.63.63,0,0,1,.24-.49.58.58,0,0,1,.52,0,5.28,5.28,0,0,1,1.9,1.82,8.84,8.84,0,0,0,1.61,2.1,5.09,5.09,0,0,1,.86,1.2,5.15,5.15,0,0,0,1,1.42,5.85,5.85,0,0,1,1.65,2.06,2.62,2.62,0,0,0,.76.89,5.87,5.87,0,0,1,1.56,2c1.82,1.19,3.83,1.91,5.29,3.5,1.52.12,3,.87,4.6-.1l.83-1.49c.4-.72,0-1.7-.14-2.44a10,10,0,0,0-.29-1.49c-.08-.29-.17-.58-.28-.86a3.29,3.29,0,0,0-.19-.42c-.08-.13-.15-.19,0-.29.54-.43,1-1,1.5-1.45l2.85-5.63a32.15,32.15,0,0,1,2.49-3,4,4,0,0,0,.73-1.14q1-2,2-4c.53-.42,1-.94,1.86-.68.09.17.28.37.27.56A9.94,9.94,0,0,1,73.93,41c-.44.67-.82,1.38-1.24,2.07a24.84,24.84,0,0,0-2.47,5.24,4.25,4.25,0,0,0-.15,1,16.53,16.53,0,0,0,1.27,8.42,8.48,8.48,0,0,1,.29.88c-.16,2.44.89,4.66,1,7.3a8.94,8.94,0,0,0,1.76,3.31,17.76,17.76,0,0,1,1.49,2.22,2.67,2.67,0,0,0,1.77.77,5.23,5.23,0,0,0,2.46-2.55,12.57,12.57,0,0,0,1.18-3.22,16.77,16.77,0,0,0,.35-4.78,8.47,8.47,0,0,1-.46-2.33,19.21,19.21,0,0,0,0-6.52,20.48,20.48,0,0,1,0-4.47,1,1,0,0,1,.8-1,8,8,0,0,1,2.85,1.06l1,2.07a2.76,2.76,0,0,1-.11.76c-.58,1.13-.32,2.13-.5,3.38a8.6,8.6,0,0,1-.65,2.31,17.49,17.49,0,0,0-1.24,5.7,8.79,8.79,0,0,0,1.11,5.73l1.7,1.06a2.89,2.89,0,0,1,.42.53,8.17,8.17,0,0,1,.66,1.59c.28,1.23.51,2.47.7,3.7.14.91.17,1.83.25,2.72a31.68,31.68,0,0,0,3.57,7.48c1.06,1.47,1.9,3.2,4.31,4.47,1.23.44,1.23.44,3.19-.42l1.14-2.4.26-3.59a10.64,10.64,0,0,0-.54-2.25,15.93,15.93,0,0,1-.86-4.37,7.93,7.93,0,0,0-.15-1.37,4,4,0,0,1-.09-2.36A2.44,2.44,0,0,0,99,71.47c-.49-1-.1-2-.05-3.31-.37-1.19-.82-2.61-1.26-4a12.37,12.37,0,0,1-.8-4.38c.22,0,.5-.08.65,0,.64.47,1.24,1,1.88,1.53.51,1.9.37,3.88,1.12,5.74s1.13,3.42,1.64,5.31l.75,4.87c.67,1.1,1.64,1.58,2.32,2.35a8.4,8.4,0,0,1,1.48,3.8c.12,1.12.45,2.17.55,3.34a4,4,0,0,0,.46,1.32c.3.62.62,1.23.93,1.85A13.21,13.21,0,0,0,112,94.64c.55.58,1.09,1.18,1.6,1.8a8,8,0,0,0,2.21,1.9c1.34.08,2.81.18,4-1,.13-3,.65-6,.23-9.14l-1.62-3.63a7.72,7.72,0,0,1-.49-1.92c-.3-1.87-1.36-3.4-2.05-5-.31-1.44-.63-2.77-.87-4.13a2.73,2.73,0,0,1,.21-1,2.84,2.84,0,0,1,2,1.3,73.58,73.58,0,0,1,6.55,11.32c1,2.07,2,4.13,3.09,6.17a21,21,0,0,0,1.59,2c.13.19.36.32.46.51a29.5,29.5,0,0,0,3.59,4.76l3.12,1.32a26.87,26.87,0,0,1,3.07.12,24,24,0,0,1,2.65.55A1.87,1.87,0,0,0,143,98.72c.07-.57,0-1.15.05-1.81a31.27,31.27,0,0,0-2.25-4.3c-.35-.51,0-1.11.71-1.23a2.45,2.45,0,0,1,1.35.1,9,9,0,0,1,.92.46,25,25,0,0,0,2.13,1.33,5.56,5.56,0,0,1,2.26,1.53c1.36,1.67,3.39,2.33,5.05,3.54a1.33,1.33,0,0,0,.63.27,12.55,12.55,0,0,1,3.38,1.25c1.43.12,2.69.25,3.95.33a13.09,13.09,0,0,0,1.72,0,3,3,0,0,0,2.35-1.25c.27-.37.6-.7.85-1.09a2.49,2.49,0,0,0,.42-1.64c-.12-1-.29-2-.51-3.06a6.62,6.62,0,0,0-1.42-2.75c-1.44-1.79-2.87-3.59-4.41-5.29a12.9,12.9,0,0,1-2.41-4.59c-.07-.17.08-.43.13-.66a7.16,7.16,0,0,1,2.6-.67,8.67,8.67,0,0,0,1.35-.22,2.87,2.87,0,0,0,1.9-1.87,3.88,3.88,0,0,0-.64-3.9,17.32,17.32,0,0,0-3-2.85,32.34,32.34,0,0,0-2.83-2,9.26,9.26,0,0,0-2.21-.93c-1.33-.37-2.63-.88-4.12-1.24a7.79,7.79,0,0,0-3.41-2,13.39,13.39,0,0,1-3.13-1.41,11.25,11.25,0,0,0-2.22-.91l-2.58-1c-.39-.15-.53-.59-.35-1.17a1.45,1.45,0,0,1,.22-.32,4.67,4.67,0,0,1,3.63-.21c1.65.53,3.36.79,5,1.15a21,21,0,0,0,7.53.45,26.09,26.09,0,0,1,2.84.17l3.26-1.65a2.78,2.78,0,0,0,.39-3.25,6.84,6.84,0,0,0-1.31-2,24.54,24.54,0,0,0-4.63-4c-3.36-1-6.72-1.74-9.76-3.57-1.23,0-2.48.1-3.74.08s-2.52-.11-3.78-.21-2.52-.25-3.81-.39c-2.66.56-5.35,1.3-8.32.13-1.72-1.09-3.89-2-5.25-4a3.47,3.47,0,0,1,.07-.65,1.12,1.12,0,0,1,1-.86,23.43,23.43,0,0,1,2.4-.06c2.71,0,3.5-.15,6.17,1.29.75.11,1.78,0,2.58.06a3.58,3.58,0,0,0,1.37,0,18.7,18.7,0,0,1,4.78-.29,28.2,28.2,0,0,0,3.4-.46,3.4,3.4,0,0,0,1-.33q1.85-.93,3.67-1.91a2.49,2.49,0,0,0,.83-.6c.87-1.15,2.24-1.59,3.33-2.38a7.86,7.86,0,0,0,1.49-3.79,6.94,6.94,0,0,0-2.7-2.82,42.34,42.34,0,0,0-8.63-.67,22.07,22.07,0,0,0-8.08-.64c-1.41.29-2.8,1.59-3.92,2.07l-7.4,2.19-3.56-.13V29.18l.93.08a12,12,0,0,0,3.79-1.08,25.06,25.06,0,0,1,2.48-.68,10.16,10.16,0,0,0,4.22-2.26,6.9,6.9,0,0,1,1.76-1.14c2.76-1.43,5.5-2.89,8.14-4.29a5,5,0,0,0,2-3.67c-.16-1.71-1.48-2.73-2.52-3.94a6.31,6.31,0,0,0-2.94-.89,40.08,40.08,0,0,0-5.85.22,13.93,13.93,0,0,0-2.66.75c-1.71,1.29-1.91,1.19-4.9,1.9l-1.56-.56c-.56-.21-1.06-.45-1.07-.45a7.33,7.33,0,0,0-4.26.83c-.45.23-.92.44-1.38.66-.57-.76-1.16-1.51-1.74-2.26s-1-1.22-1.49-1.85l-1.26-.71a7.74,7.74,0,0,0,1.48-1.31,7.78,7.78,0,0,1,1.6-1.16,7.06,7.06,0,0,0,1.19-3.07c-.15-.31-.32-.73-.54-1.13-.34-.6-.72-1.17-1.06-1.73A21.09,21.09,0,0,0,109.93,0a32.46,32.46,0,0,0-6.9.87,16.23,16.23,0,0,0-4.6,1.37A15.63,15.63,0,0,0,93,4.39c-2.13,1.12-4.28,2.2-6.43,3.28l-.4-.08L81.93,8.82c-2-.52-4-.77-6-1.18a8.63,8.63,0,0,1-1-.15,13.51,13.51,0,0,0-6.8-.43,1.27,1.27,0,0,1-.34,0,16.71,16.71,0,0,0-3.63-1.47l-1.91.31a3.75,3.75,0,0,1-.65-.11A23.61,23.61,0,0,1,56.77,4a2.91,2.91,0,0,0-2-.28,1.62,1.62,0,0,0-.59,2.21l.05.09a4.09,4.09,0,0,0,.55.46,15.65,15.65,0,0,0,4.54,1.61,56.93,56.93,0,0,1,5.85,2.06,25.65,25.65,0,0,1,3.44,1.76c.44.76.91,1.55,1.34,2.35a5.77,5.77,0,0,1,.52,4.35,41.34,41.34,0,0,1-2.54,7.85,5.35,5.35,0,0,1-1.48,2.27c-.81,1.34-1.77,2.6-2.53,4A20.36,20.36,0,0,0,63.28,29a5.19,5.19,0,0,1,0-1.77,5.5,5.5,0,0,0-.69-3.15,8.91,8.91,0,0,1-1-4.55,4.12,4.12,0,0,0,0-.56l1-3.47a5.78,5.78,0,0,1,2.88-2.42,1,1,0,0,0,.2-1.4l-.11-.12a11.41,11.41,0,0,0-1.09-.71,1.38,1.38,0,0,0-1.25.35c-.7.7-1.38,1.41-2,2.08a17.07,17.07,0,0,0-3,1.35l-3.71.56-4.53-.78-2.49-1.2a11.24,11.24,0,0,0-2.15-.95c-2-.46-4-1.15-6.12-.53a3.34,3.34,0,0,1-.53,0A29.8,29.8,0,0,0,33.93,11a7.34,7.34,0,0,1-2.27-.63c-1.19-.47-2.61-1-4-1.64a15.06,15.06,0,0,1-3.52-.49,1.52,1.52,0,0,0-1.43.23A25.59,25.59,0,0,1,20.47,10a1.48,1.48,0,0,0-.49,1.5L21.67,14c1.35,1,2.14,1.85,3.82,2a15.62,15.62,0,0,1,3.15.83c2.52.86,5.3,1.67,7.85,2.53.08.15.25.3.25.47,0,.52-.2.85-.55.9l-1.2.15-1.12.16-2.11-1.5A15.83,15.83,0,0,1,28.68,19a6.74,6.74,0,0,0-1.49-.22c-.39,0-.79,0-1.14,0a11,11,0,0,0-7.48-1.13c-1.93.36-4,.75-6.13,1.11a34.09,34.09,0,0,0-5,3,1.86,1.86,0,0,0-.37,1.67l1.38,1.83a4.59,4.59,0,0,0,1,.39c1.16.18,2.35.33,3.52.46a13.85,13.85,0,0,0,3.9-.31l6,.41c.55.2,1.2.45,1.86.66s1.14.31,1.71.44a3,3,0,0,1,1.89,1.38c-.09.27-.1.68-.29.78-.77.44-1.59.78-2.37,1.14-1.91-.23-3.81.09-5.59-.65a19.42,19.42,0,0,1-5.77.28A5.43,5.43,0,0,0,10,31.51l-4.11,1-1,1c-.34,1.15-.83,2.28,0,3.53l2.9,1.22c1.7.26,3.05-.27,4.41-.2s2.88-.3,4.27-.06a9.63,9.63,0,0,1,3.76,1.74l-.07.77a4.24,4.24,0,0,1-2.28.72l-3.26.07a9.13,9.13,0,0,0-1.28.23,5,5,0,0,0-2.09,2.88,4.7,4.7,0,0,1-1,.39,14.23,14.23,0,0,0-6.09,2.88c-.76.68-1.52,1.31-2.28,1.94L.3,52.09C.22,52.64.08,53.42,0,54.2a1.87,1.87,0,0,0,.47,1.43A5.31,5.31,0,0,0,5,55.62Zm19.71,18a.51.51,0,0,1-.09-.16l.1-.17C24.87,73.37,24.85,73.48,24.73,73.62Zm34.6-30.53a2.43,2.43,0,0,0-.19-.69l-2.86-1.61a16.64,16.64,0,0,0-1-1.66c-.42-.55-1-1-1.42-1.51a4.87,4.87,0,0,1-.93-1.14c-.38-.84-1.15-1.36-1.63-2.21a3.73,3.73,0,0,1-.19-.77c-.08-1.63.06-1.79,1.72-2.14.94.13,1.44,1,2.31,1.34a11.59,11.59,0,0,1,.63,1,20.87,20.87,0,0,0,3.66,4.63,17.41,17.41,0,0,0,1.5,1.46,3.61,3.61,0,0,1-.41.87A9.17,9.17,0,0,0,59.33,43.09ZM121,34.45a8.88,8.88,0,0,0,3.74-.27c2-.45,4.13-1.74,6.2-2a8.38,8.38,0,0,0,1.8-1l2-1,3.64,0c1.2.39,2.07.69,3,.94a2.69,2.69,0,0,0,1.35.2c1.26-.37,2.52,0,3.78-.1a10,10,0,0,1,3.44.3l.92.85a1.4,1.4,0,0,1-.12.78,9.82,9.82,0,0,1-1.87,2,40.23,40.23,0,0,1-5.36,3.49c-.92.09-1.73.11-2.52.25s-1.55.39-2.37.6a12.76,12.76,0,0,0-3-.24,10.36,10.36,0,0,1-3.63,0c-1.91-.42-4.06-.56-6-1a13.89,13.89,0,0,0-5.3.52,5,5,0,0,0-1.54,2.6l-.71-2.76a15.46,15.46,0,0,1,.71-4.16,6,6,0,0,1,1.88,0Zm-.3-19,1.45.88a2.38,2.38,0,0,0,1.68.33,24.6,24.6,0,0,1,3.65-1.36c1.35-.34,2.6-.92,4-1.39,2.27-.11,4.66-.72,7,.12.91.84,1.66,1.68,1.24,3.08a11.27,11.27,0,0,1-1.09.75c-1.72.92-3.56,1.63-5,3.08a3.53,3.53,0,0,1-.89.52l-4.25,2.3a25.41,25.41,0,0,1-7.87,2.9,6.33,6.33,0,0,1-.67.1l-.61-.06c0-.73,0-1.46-.07-2.19a11.74,11.74,0,0,0-.78-3.71c-.5-1.3-1-2.6-1.62-3.84A13.9,13.9,0,0,1,120.7,15.4Zm-6.83.11h0l1.25,1.59.5.63c.41,1.2.77,2.31,1.17,3.4a15.53,15.53,0,0,1,.83,6.91,13.83,13.83,0,0,0-.08,2.33,9.54,9.54,0,0,1,0,1.69h0a3,3,0,0,1-.08.52,8.4,8.4,0,0,1-.37,1.54,3,3,0,0,0-.11.43h0c-.11.42-.18.85-.27,1.28-.17.86-.33,1.72-.53,2.76a6.64,6.64,0,0,0,.7,2.11c.51,2.75-.09,5-.17,7l.79,5.11a4.36,4.36,0,0,1-.91,0,11.4,11.4,0,0,1-4-2.31l-.83-1.1h0l-1-1.28a5.07,5.07,0,0,1-.66-1,38.48,38.48,0,0,0-2.17-3.81,3.13,3.13,0,0,1-.32-.73,1.64,1.64,0,0,1,0-1c1.35,0,2.6.52,4,.63.45.38.87.77,1.34,1.11a.61.61,0,0,0,.54,0,.54.54,0,0,0,.24-.45,9.83,9.83,0,0,0-.57-1.65,2.16,2.16,0,0,0-1.3-1A4.53,4.53,0,0,0,111,40c-.77-.1-1.46-.4-2.24-.47s-1.56-.1-2.27-.14a7.94,7.94,0,0,1-2.55-1.6c-.39-1-.6-2-1-3a12.12,12.12,0,0,1-1-4.83c0-.09.08-.17.15-.32a6.85,6.85,0,0,1,2.53,0H107c.35.15.71.28,1.07.42h0a9.52,9.52,0,0,1,2.59,1.25c.19.15.55.08.87.11l.26-.76c-.05-.16-.05-.29-.12-.34a13.46,13.46,0,0,0-2.74-2.2c-.31-.14-.62-.27-.93-.38h0a5.86,5.86,0,0,0-1-.25h0a4.26,4.26,0,0,0-1.19-.06,5.51,5.51,0,0,1-1.17,0c-1-.1-1.92-.24-2.88-.38-.08,0-.15-.1-.29-.2a35.07,35.07,0,0,0-1-5.26,3.63,3.63,0,0,1,.3-.66,7,7,0,0,1,.57-.6,3.39,3.39,0,0,1,1.54-.08,8.27,8.27,0,0,1,1.09.26c1.12.33,2.23.72,3.34,1.1a10,10,0,0,0,3.16.53,2.18,2.18,0,0,0,2-1c.08-.13,0-.36,0-.53a.3.3,0,0,0-.2-.17,1.83,1.83,0,0,0-.57-.07,5,5,0,0,1-2.59-.46h0a.29.29,0,0,1-.25-.09,7.18,7.18,0,0,0-1.07-.49l-.31-.1c-.3-.1-.61-.2-.92-.28h0L105,18.52a9.72,9.72,0,0,0-4.62-.43A1.79,1.79,0,0,1,99.8,18l-.22-1.14h0l-.22-1.14-.9-1.34h0L98.24,14a4.09,4.09,0,0,1,.43-2.59l3.84-.7,2,.06,2.56.08a6.94,6.94,0,0,1,2,.33h0a4.84,4.84,0,0,1,1.78,1,10.64,10.64,0,0,0,1,.73Zm.66,39.57a7.82,7.82,0,0,0-1.09-.41l-.54-.1-6.62-1.25-5.12-2.47c-.75-.91-1.58-1.87-2.34-2.88a10.27,10.27,0,0,0-3-3.12,13.4,13.4,0,0,0-4.89-3.7,1.42,1.42,0,0,1-.46-.35,18.66,18.66,0,0,0-3.39-2.46,24.76,24.76,0,0,1-3.24-4.74,22.21,22.21,0,0,0-1.38-2.23,11.37,11.37,0,0,1-1.88-3.28A11.68,11.68,0,0,0,79.32,26a55.94,55.94,0,0,1-1-6.18.67.67,0,0,0-.05-.31,3.29,3.29,0,0,1,0-1.17c.11-.66.24-1.31.37-2,.09-.5.17-1,.28-1.49a4.3,4.3,0,0,1,1.17-2,7.81,7.81,0,0,1,2.15-1.58,13.56,13.56,0,0,1,2.69-1,5.23,5.23,0,0,1,1.32-.16h.42a25.26,25.26,0,0,1,3.18.48,4,4,0,0,1,1.59.71c.93.73,2,1.19,3.08,1.95a30.3,30.3,0,0,0,2.6,2.58,1.58,1.58,0,0,1,.43,1.9,2.07,2.07,0,0,1-.69.11H96.7a11.4,11.4,0,0,1-1.52-.27,4,4,0,0,0-.48-.08c-.88-.06-1.41,0-2.88-.1a3,3,0,0,0-1,.45,5.72,5.72,0,0,1-1.21.76c-.72.29-1.36.78-2.07,1.08s-1.31.36-1.94.58c-.12,0-.17.32-.21.5a.31.31,0,0,0,.13.25,1.48,1.48,0,0,0,.5.27,6.19,6.19,0,0,0,2.39.21,18.3,18.3,0,0,1,3.84-2.26,27.66,27.66,0,0,1,3.29.45,10.07,10.07,0,0,1,1.09.32,6.52,6.52,0,0,1,1.2.57,3.72,3.72,0,0,1,.61,1l.1.24a6.51,6.51,0,0,1,.29.92c.07.32.14.63.2.94-.14.91-.93,1.21-1.61,1.74L94,26.34a8.51,8.51,0,0,0-2.9,2.12,10.86,10.86,0,0,0-1.45,2,5.67,5.67,0,0,0-.15,3.35c.12.57.17,1.16.32,1.73a1.66,1.66,0,0,0,.48.71.7.7,0,0,0,.53.11.38.38,0,0,0,.31-.44,11,11,0,0,1,0-4.33l.81-1.66.3-.25a4.45,4.45,0,0,1,1.34-.94c1.1-.38,1.72-1.11,3-1.18a11.15,11.15,0,0,0,2.68-1c.18.19.41.32.41.45a22.74,22.74,0,0,0,.47,4.06,16.62,16.62,0,0,1,.14,5v.1c-.09.74-.16,1.49-.25,2.23v.14a2.77,2.77,0,0,1-.22,1c-.72,1.34-.62,2.51-.91,3.82.05.31.09.5.12.69a3.22,3.22,0,0,0,1.53,2.38c.57.36,1.09.81,1.68,1.16a1.11,1.11,0,0,0,1.12,0,.36.36,0,0,0,.2-.34.6.6,0,0,0-.31-.39.47.47,0,0,1-.14-.12l-.13-.18a.85.85,0,0,0-.29-.25,4.38,4.38,0,0,1-1.38-1.49,2.16,2.16,0,0,1-.37-1.39,19.12,19.12,0,0,1,.25-2c.1-.57.29-1.13.43-1.66.16,0,.25-.06.31,0L104.35,41a2.55,2.55,0,0,1,.78,1.24,2.35,2.35,0,0,0,.2.55c.38.58.8,1.14,1.18,1.72a6.23,6.23,0,0,1,.84,1.82c.7,1.06,1.35,2.15,2.1,3.17s1.72,2.13,2.58,3.19l.42.51c.89.46,1.85.94,2.79,1.46a5.44,5.44,0,0,1,.82.65.88.88,0,0,1-.43.09A10.87,10.87,0,0,1,114.53,55.08Zm1.94.57-.09-.1-.11-.12h0a2.1,2.1,0,0,1,.39,0,.29.29,0,0,1,.18.21c0,.26-.11.29-.33.07l-.08-.09ZM95.68,5.37a7.29,7.29,0,0,1,1.89-.82c1.93-.34,3.65-1.42,5.64-1.51a16.19,16.19,0,0,1,6.11-.8,7.23,7.23,0,0,1,.76.11l2.34,1.13c.4.84.45,1.35.16,1.65a23.49,23.49,0,0,1-4.06,3.65,5.2,5.2,0,0,0-1.59-.13,34.83,34.83,0,0,1-4.57-.15,22.55,22.55,0,0,1-4.13.84A1.65,1.65,0,0,0,97,9.79l-.71,1.49a1.57,1.57,0,0,1-.82-.09,36.53,36.53,0,0,0-4.82-2.7l-.76-.16Q92.79,6.83,95.68,5.37ZM70.61,9.57l-.26-.19.3.07.11.12a12.46,12.46,0,0,1,3.61.32c1.34.32,2.7.53,4.06.76l.71.12a9.12,9.12,0,0,1-1.75,1.78c-.11.79-.21,1.54-.34,2.25-.11-.11-.23-.22-.33-.34a11.34,11.34,0,0,0-3.47-2.79,7,7,0,0,1-2.49-2.1Zm-3,21.74a10.46,10.46,0,0,0,2.63-4.39c.51-1.53,1-3,1.49-4.6A18.46,18.46,0,0,0,72.18,20c.27-1.7.51-3.4.78-5.2,1.74.59,2.54,2,3.35,3.15a5,5,0,0,0,0,1.45c.35,1.92.65,3.85,1,5.77a6.39,6.39,0,0,0,.92,2.45,15.34,15.34,0,0,1,2.12,3.83,3.78,3.78,0,0,0,.63,1c.52.71,1,1.41,1.58,2.11a7,7,0,0,1,1.14,2,3.88,3.88,0,0,0,.54,1c.57.79,1.17,1.56,1.84,2.44a13.08,13.08,0,0,1,3.11,2c.94.84,2.16,1.32,3.11,2.17a19.78,19.78,0,0,1,1.52,1.37,10.27,10.27,0,0,0,1.53,1.36,5.66,5.66,0,0,1,1,1c1.17,1.44,2.32,2.89,3.48,4.34l5.3,2.69a21.46,21.46,0,0,1,3.92.87,6.75,6.75,0,0,0,2,.39,12.16,12.16,0,0,1,4.25,1l.13,0a10.93,10.93,0,0,0,1.1,2.32c.63.83,1.09,1.76,1.66,2.61s1.51,1.41,2,2.38a1.92,1.92,0,0,0,.72.72c1.94,1.21,3.39,3.1,5.57,4a1.9,1.9,0,0,1,.58.37c1.33,1.25,2.89,2.27,4.12,3.63a15.31,15.31,0,0,0,2.75,2.6,5.7,5.7,0,0,1,1,1,8,8,0,0,0,3.31,2.4,3.24,3.24,0,0,1,1.4,1A6.6,6.6,0,0,0,142.1,82a.51.51,0,0,0,.69-.48,6.63,6.63,0,0,0-.2-1.2l-1.44-1.91c-1-.74-1.75-1.42-2.61-2A39.22,39.22,0,0,1,133.22,72c-.82-.8-1.66-1.59-2.54-2.32s-1.82-1.41-2.75-2.08c-1.21-.87-2.44-1.72-3.67-2.57a12.58,12.58,0,0,1-2.74-2.58,41.44,41.44,0,0,1-2.59-3.56c-.21-.34-.46-.65-.7-1,.6.07,1.18.13,1.74.24.76.15,1.49.42,2.15.61.62-.17.95-.47,1-1l-.72-1.59-1.2-.91-1-1.48a15.82,15.82,0,0,1-1.32-6.19,20.77,20.77,0,0,1,.46-4.67,2.94,2.94,0,0,0,.69.92A19,19,0,0,1,121.85,46l2.27.88,2.56,1.93a16.93,16.93,0,0,0,7.28-.26,7,7,0,0,1,3.07-.1,20.77,20.77,0,0,0,4.46.3h3.44a3.75,3.75,0,0,1,2.28.68,6.51,6.51,0,0,0,3.18,1.23,35.74,35.74,0,0,1,5.1,1.36c.86.8,1.83,1.61,2.67,2.54a10.08,10.08,0,0,1,1.25,2c.09.16,0,.43-.06.66a5,5,0,0,1-2.55,1.17c-2.29-.13-4.7,0-7.1-.21a15.06,15.06,0,0,1-4.05-.75c-1-.36-2-.67-2.94-1a6.74,6.74,0,0,0-.68-.15l-2,.12a12.5,12.5,0,0,0-3.1,1.6,3.27,3.27,0,0,0-.79,2.26,1.83,1.83,0,0,0,.45,1.27c.54.59,1.16,1.11,1.81,1.72,1.35.44,2.8.84,4.18,1.39s2.45,1.28,3.74,1.75a29.07,29.07,0,0,1,4,2.23l4.62,1.24c1.3.84,2.66,1.7,4,2.59a8.89,8.89,0,0,1,2.46,2.37,2.08,2.08,0,0,1,.18.65,1.25,1.25,0,0,1-.83,1,11.83,11.83,0,0,1-2,.51,8.74,8.74,0,0,0-2.61.84,2.12,2.12,0,0,0-.8.63,2.63,2.63,0,0,0-.53,2.28,13.58,13.58,0,0,0,1.65,3.81c.9.59,1.25,1.64,2,2.36a61.59,61.59,0,0,1,5.07,6.15c.05.36.1.82.19,1.27s.24,1.12.34,1.56a2.22,2.22,0,0,1-2,1.82,11.44,11.44,0,0,1-3.77-.13c-2.55-.44-4.71-1.78-6.95-2.94a3.8,3.8,0,0,1-1.46-1.44,9,9,0,0,0-.69-.86,25.79,25.79,0,0,1-4.44-2.71,5.71,5.71,0,0,0-4-1,6,6,0,0,0-3,1.79l-.34,2a9.08,9.08,0,0,1,2.87,3.94.94.94,0,0,1-.38,1.19,13.7,13.7,0,0,1-4.41-.47,7.52,7.52,0,0,1-3.08-1.76c-1.23-1.5-2.25-3.47-3.66-5-1.21-2.6-2.82-5-3.44-7.76a12.18,12.18,0,0,1-1-1.13,16,16,0,0,1-1-1.79,46.45,46.45,0,0,0-5.38-8.5c-1.08-.81-2.21-1.85-4-1.46a4,4,0,0,0-.68.68,7.9,7.9,0,0,0-.78,1.53,9.36,9.36,0,0,0-.26,1.58c1.18,1.21.54,2.94.79,4.1,1.32,2.87,2.18,5.38,3.3,7.91a17.54,17.54,0,0,1,1.16,2.83,16.3,16.3,0,0,1,.21,3.43,11.94,11.94,0,0,1-.5,3.73,1.1,1.1,0,0,1-1.54-.11,24.31,24.31,0,0,1-4.39-5.26,17.57,17.57,0,0,1-2.48-5.29c-.38-1.44-.34-2.93-.59-4-.51-1-.85-1.73-1.24-2.43a8.14,8.14,0,0,0-1.84-2.48,2.43,2.43,0,0,1-.76-1.87,15.85,15.85,0,0,0-1.21-5c-.65-1.84-1-3.38-1.54-5.25a11.27,11.27,0,0,0-.82-3.61,9.7,9.7,0,0,0-2.7-2.71,4.07,4.07,0,0,0-2-.63,1.32,1.32,0,0,0-1.15.62,5.17,5.17,0,0,0-.46,1.29,9.28,9.28,0,0,0,.82,5.38,15,15,0,0,1,1.15,4.66c.12.9.25,1.81.38,2.76l-.46,2.13c.22,1.44.45,2.68.59,3.93a13.83,13.83,0,0,0,.57,3,13.38,13.38,0,0,1,.64,3,4.26,4.26,0,0,1-.94,3.56c-.22,0-.49.09-.66,0a5.65,5.65,0,0,1-1.42-.94C92.83,83.8,90,78.48,90,74.77a16.23,16.23,0,0,0-.58-3.38c-.12-.55-.34-1.09-.52-1.64s-.39-1.32-.6-2a2.39,2.39,0,0,0-.38-.54l-2.1-1a3.21,3.21,0,0,1-.34-.73,17.73,17.73,0,0,1,.61-7.15c.24-.88.63-1.74.82-2.63.31-1.54.17-2.87.82-4.3-.06-.69.1-1.27-.35-1.76a2,2,0,0,1-.47-.9,5.08,5.08,0,0,0-2.16-3A18.23,18.23,0,0,0,82,44.52a1.76,1.76,0,0,0-1.93.3,3.09,3.09,0,0,0-1.26,2.33c-.12,1.6-.15,3.21-.22,4.76a10.91,10.91,0,0,1,.27,5.82,7,7,0,0,0,0,2.4c.15.43.65,1,.63,1.51a38.89,38.89,0,0,0-.41,4.73c-.3.69-.7,1.64-1.19,2.56-.07.14-.38.15-.76.29-.46-.71-1.12-1.34-1.58-2.12a4.55,4.55,0,0,1-.92-2.91c-.5-2.82-1.43-5.42-1.81-8.26a27.8,27.8,0,0,1-.4-8,32.31,32.31,0,0,1,1.78-3.55,25.9,25.9,0,0,0,3-5.35,8.92,8.92,0,0,1,.7-1.25c-.15-1.24-.25-2.5-.47-3.74a2.35,2.35,0,0,0-2.68-2l-.13,0a9.92,9.92,0,0,0-1.3.29c-2.46,2-2.87,2.54-4.77,7.2-.25.25-.58.57-.89.91a13.35,13.35,0,0,0-3,5,10.6,10.6,0,0,1-2.44,3.72,1.16,1.16,0,0,1-1.26.35,8.48,8.48,0,0,1-.17-4.06,37.67,37.67,0,0,0,2.43-6,4.82,4.82,0,0,1,.68-1.59A8.81,8.81,0,0,0,65.1,35.4a9.54,9.54,0,0,1,2.48-4.09ZM2.18,52.88a18.2,18.2,0,0,1,.74-1.7C3.42,50.8,4,50.42,4.51,50S5.49,49,6,48.55a15.72,15.72,0,0,1,4.73-1.72,3.15,3.15,0,0,0,2.44-2,2.82,2.82,0,0,1,1.1-1.47,27.44,27.44,0,0,1,3.43-.25,6.39,6.39,0,0,0,3.58-1.24l.65-.48a11.19,11.19,0,0,0,.64-2.59c-.13-.21-.2-.46-.35-.52A21.78,21.78,0,0,0,16.52,36c-1.32-.28-2.67.23-4,.16s-2.72.53-4.21.32l-1.66-.88a1.72,1.72,0,0,1,.26-1.26l3.89-1.09,1.38-.92c2.29-.36,4.65.16,6.61-.48l5.46.5a6,6,0,0,0,2.35-.18,7.65,7.65,0,0,0,4.17-3.64l-.23-1.07a7.13,7.13,0,0,0-2-1.72,24.27,24.27,0,0,0-3.63-1.23,8.46,8.46,0,0,0-2-.31,36,36,0,0,0-9-.12,9.4,9.4,0,0,1-3.81-.41.89.89,0,0,1-.64-1.19l1.2-.75A10.19,10.19,0,0,1,15.62,20a17.55,17.55,0,0,0,1.76-.24c1.28-.15,2.64-.39,3.92-.48a5.84,5.84,0,0,1,1.76.17c.76.19,1.48.56,2.25.73s1.75.24,2.61.41c1.07.22,2.11.49,3.19.75A6.14,6.14,0,0,0,34,22.75a10.5,10.5,0,0,0,3.37-.4,4.33,4.33,0,0,0,.51-.47A7.08,7.08,0,0,0,39,19.55a6.56,6.56,0,0,0-.09-.68c-.06-.29-.16-.57-.24-.83a71.41,71.41,0,0,0-7.8-2.57c-.57-.16-.3-.44-.85-.64l-2-.69a19.41,19.41,0,0,0-3.39-.59c-2-1.61-2-1.61-2.38-2.59a2.88,2.88,0,0,1,3-.78,15.3,15.3,0,0,1,3.89,1.39,10.7,10.7,0,0,0,4.75,1.24H35.6a5.38,5.38,0,0,0,3.54.7,10.42,10.42,0,0,1,5,.49,10.36,10.36,0,0,0,1.58.3c3.4,1.92,3.35,2.42,9.72,2.66a3.63,3.63,0,0,1-.18.83,7.67,7.67,0,0,1-2.76,3,22.09,22.09,0,0,0-4.7,3.54,5,5,0,0,1-1,.69c-.48.34-1,.64-1.45,1-1.42,1.26-3.66,1.91-4.91,3.37-.12.14-.35.19-.5.3a5,5,0,0,0-1,.69c-1.78,2-3.74,3.77-5.12,6.12a23.78,23.78,0,0,0-3.31,7.22l-2.17,2.37c-1,1-1.87,2-2.79,3.06a7,7,0,0,0-.88,1.18A16.06,16.06,0,0,0,23.36,53c-.35,1-.79,2-1.21,3A9.31,9.31,0,0,0,21.83,57c.69.75.69.75,1.77.16.38-.91.74-1.82,1.13-2.72s.79-1.81,1.24-2.68a7.19,7.19,0,0,1,1-1.46c1.76-2,3.57-4,5.46-6,.08-.45.16-1,.29-1.62a3.66,3.66,0,0,1,.48-1.39c1-1.19,1.24-2.69,2.12-4.17a21.27,21.27,0,0,1,2.28-2.37,13.4,13.4,0,0,0,2.38-2.55,5.53,5.53,0,0,1,1.24-1.26,38.71,38.71,0,0,1,4.73-3,58.91,58.91,0,0,1,6.68-4.88,5.65,5.65,0,0,0,2.34-2.23,1.67,1.67,0,0,1,.66-.57A3.33,3.33,0,0,0,56.76,19,6.78,6.78,0,0,1,59,16.68a2.37,2.37,0,0,1,.81-.19c.09.11.18.18.18.25a5.44,5.44,0,0,1,0,1.18,11,11,0,0,0,.79,6.66A8.68,8.68,0,0,1,61.5,28a6.42,6.42,0,0,0,.11,1.77,17.59,17.59,0,0,1,.77,5.35A3.1,3.1,0,0,1,62,36.83a.68.68,0,0,1-.6.36.83.83,0,0,1-.48-.19c-1-.93-1.52-2.07-2.49-3a8.9,8.9,0,0,1-1.19-1.68,6,6,0,0,0-3.59-2.86c-.81,0-1.6.08-2.38,0a2,2,0,0,0-1.14.18,3.1,3.1,0,0,0-1.21,2.57l.69,2.66a18.5,18.5,0,0,0,3.87,5,5.72,5.72,0,0,1,1.24,1.64,4.15,4.15,0,0,0,1.63,1.68c.41.26.92.38,1.19,1l.65,3.39a4.32,4.32,0,0,0,.25.74,9.88,9.88,0,0,0,.35,3.42l1,.86,1.89-.15c.93,1.08.9,2.11,1,3.46,0,.15-.17.31-.27.48a3.49,3.49,0,0,1-2.12,0c-.69-.42-1.46-.87-2.19-1.36a9,9,0,0,0-2.26-1.39,2.36,2.36,0,0,1-1.32-1.24,9.36,9.36,0,0,0-1.64-2.07,15.74,15.74,0,0,1-2.46-2.95A9.73,9.73,0,0,0,49.06,46l-.57-.62c-.43-.83-.65-1.71-.79-1.89a5.31,5.31,0,0,0-2.85-2.14,2.14,2.14,0,0,0-1.64.18l-1.75,1.76a5.51,5.51,0,0,0,0,1.18c.11.37.44.68.52,1,.41,1.74,1.42,3.25,1.91,5a7.92,7.92,0,0,0,.66,1.65c.71,1.28,1.23,2.71,2.66,3.57l1.93.44c.52.49,1,.93,1.52,1.44a12.53,12.53,0,0,1,.8,1.23,6.88,6.88,0,0,0,.75.91A17.57,17.57,0,0,1,55,64.18a1.51,1.51,0,0,1,.09.58,1.39,1.39,0,0,1-1.43,1.34l-.18,0c-.66-.22-1.28-.49-1.76-.68a10.17,10.17,0,0,1-2.12-2.32,4.16,4.16,0,0,0-1.26-1.21A23,23,0,0,1,46,59.45L45,57.1a8.87,8.87,0,0,1-1-1.14c-.81-1.35-1.59-2.71-2.32-4.11a5.16,5.16,0,0,0-1-1.43,5.31,5.31,0,0,1-1-1.44,2.92,2.92,0,0,0-.63-.62,4.78,4.78,0,0,0-2.85.86,6.66,6.66,0,0,0,0,1.15,9.32,9.32,0,0,1,.38,1.72c-.07,1.59.58,3.11.36,4.7A3,3,0,0,0,37.19,58c.16.57.4,1.12.57,1.69a5.85,5.85,0,0,0,1.73,2.71c1,1,2,1.86,3.06,2.83a9.12,9.12,0,0,1,2.37,2.95,4,4,0,0,0,.67,1c.36,1.24.67,2.19.88,3.15A3.23,3.23,0,0,1,46,75.06a1.2,1.2,0,0,1-.37,0l-2.5-1.43a4,4,0,0,0-1-1.51,19.07,19.07,0,0,1-3.5-3.92c-.56-.36-1.17-.51-1.59-1.28-.4-1.6-.94-3.41-1.26-5.25-.25-1.46-.6-2.9-.89-4.34a7.75,7.75,0,0,0-1.31-2.8c-.72-.34-1.27-.38-1.76.14l-1.34,1.48-.59,3.18a6.8,6.8,0,0,1,.34,3.81,12,12,0,0,1,.63,2.39c0,1,.87,1.54,1.06,2.69L32,71.37a6.57,6.57,0,0,1,.43.63c.12.27.19.54.28.75-.39,1-.74,1.92-1.11,2.83a3.69,3.69,0,0,1-.43.77,1.49,1.49,0,0,1-2.06.44l0,0a3.41,3.41,0,0,1-1.35-1.53,8.14,8.14,0,0,1-.57-1.68A10.36,10.36,0,0,0,26,70.85c-.13-.24-.45-.36-.66-.52a1.67,1.67,0,0,0-.62.12,5.17,5.17,0,0,0-1.81,2l-.26,5.93A9.08,9.08,0,0,0,21.7,82a2.89,2.89,0,0,1-.47,1.39A5,5,0,0,1,19.4,85.3a2.65,2.65,0,0,1-.86.16,10.25,10.25,0,0,1-2.31-4.74,9.33,9.33,0,0,0-.7-2,6.32,6.32,0,0,1-.43-3.23A11.7,11.7,0,0,0,15.9,73a23.24,23.24,0,0,1,.78-3.73c0-1.61.05-2.89.07-4.17a3,3,0,0,0-.36-1.58c-.5-.53-1-1.27-2.15-1-.48.09-.8.5-1.21.76s-1,.64-1.52.91a2.61,2.61,0,0,1-1.68.45l-1.61-.85c-.36-1.59.64-2.81,1.14-4.1A21,21,0,0,1,13,56.59a20.17,20.17,0,0,0,2.66-2.06,8.28,8.28,0,0,0,1.11-3.22,1.72,1.72,0,0,0-.36-1.44c-1.15-.7-1.91.79-3,.6a4.39,4.39,0,0,1-.85-.22,1.88,1.88,0,0,0-2,.18,27.1,27.1,0,0,1-2.82,1.44,6.71,6.71,0,0,1-3.28,2.07,2.15,2.15,0,0,1-2.26-.26A2.05,2.05,0,0,1,2.18,52.88Z"/>
</svg>