<svg xmlns="http://www.w3.org/2000/svg" viewBox="0 0 41.24 25.05">
	<defs>
		<style>.cls-1{isolation:isolate;}.bttn-cls-2{fill: #000;}</style>
	</defs>
	<title>bttn_left</title>
	<path class="bttn-cls-2" d="M0,10.27c.23.58.25.91.44,1,3.2,2.19,6.67,2.14,10,3.83a50.52,50.52,0,0,0,12.6,4.77c2.08.42,4.19.62,6.25,1.14A27,27,0,0,1,34.39,23c1.47.71,2.63,1.72,4.28,2a1.17,1.17,0,0,0,.89-.08,1.15,1.15,0,0,0,.39-.74c.25-1.2.16-2.46.42-3.66.19-.86.55-1.68.71-2.54.33-1.79-.26-3.59-.17-5.38q.22-4.38.33-8.76c0-1.08-.14-2.45-1.17-2.79-.56-.18-1.18,0-1.74-.13s-1-.66-1.54-.83A2.83,2.83,0,0,0,35,.32C31.44,1.67,28,3.49,24.31,4.18c-1.75.32-3.56.39-5.33.61a16.58,16.58,0,0,0-3.67.8C14,6.05,13,7,11.72,7.36a24.2,24.2,0,0,1-5.27.47c-1.78.1-3.56.86-5.79,1.44Zm12.18-.06c2.67-.49,5-2.08,7.68-2.68C22.07,7,23.58,7.09,25.58,6s4.49-.28,6.57-1.13c.77-.31,1.6-.5,2.36-.82A7.12,7.12,0,0,1,37,3.37a1,1,0,0,1,.55.09.9.9,0,0,1,.35.63,10.56,10.56,0,0,1,0,2.44,22.27,22.27,0,0,0,.18,3.1A36.69,36.69,0,0,1,37.31,21a.41.41,0,0,1-.17.3.39.39,0,0,1-.26,0,27.29,27.29,0,0,1-3.66-1.55,28.3,28.3,0,0,0-4.16-1.1,60.94,60.94,0,0,1-8.47-1.88c-3-1-5.68-2.8-8.74-3.5a8.05,8.05,0,0,1-2.28-.69,6.77,6.77,0,0,0-1.71-1,2.36,2.36,0,0,1-.6-.15A.41.41,0,0,1,7,10.88a.56.56,0,0,1,.44-.23c1.42-.23,2.88-.17,4.31-.38Z"/>
</svg>