<svg xmlns="http://www.w3.org/2000/svg" viewBox="0 0 41.24 24.85">
	<defs>
		<style>.cls-1{isolation:isolate;}.bttn-cls-2{fill: #000}</style>
	</defs>
	<title>bttn_right</title>
	<path class="bttn-cls-2" d="M40.58,9.27c-2.23-.57-4-1.33-5.79-1.44a24.2,24.2,0,0,1-5.27-.47C28.25,7,27.24,6.05,25.94,5.58a16.58,16.58,0,0,0-3.67-.8c-1.78-.21-3.59-.29-5.33-.61C13.21,3.49,9.81,1.67,6.27.32A2.83,2.83,0,0,0,4.45.07c-.56.18-1,.68-1.54.83S1.72.85,1.17,1C.14,1.38,0,2.74,0,3.82q.11,4.38.33,8.76.11,2.28.25,4.57A9.37,9.37,0,0,1,.47,21a1.94,1.94,0,0,0-.18,1.22,1.58,1.58,0,0,0,.53.64,4.21,4.21,0,0,1,1.26,1.4,1.14,1.14,0,0,0,.25.43c1,.83,3.67-1.28,4.54-1.7a27,27,0,0,1,5.06-1.9c2.05-.52,4.17-.72,6.25-1.14a50.52,50.52,0,0,0,12.6-4.77c3.36-1.69,6.83-1.64,10-3.83.19-.13.21-.46.44-1Zm-11.12,1c1.43.21,2.88.15,4.31.38a.56.56,0,0,1,.44.23.41.41,0,0,1-.22.51,2.36,2.36,0,0,1-.6.15,6.77,6.77,0,0,0-1.71,1,8.05,8.05,0,0,1-2.28.69c-3.06.7-5.77,2.46-8.74,3.5a60.94,60.94,0,0,1-8.47,1.88A28.3,28.3,0,0,0,8,19.71a27.29,27.29,0,0,1-3.66,1.55.39.39,0,0,1-.26,0,.41.41,0,0,1-.17-.3A36.69,36.69,0,0,1,3.19,9.62a22.27,22.27,0,0,0,.18-3.1,10.56,10.56,0,0,1,0-2.44.9.9,0,0,1,.35-.63,1,1,0,0,1,.55-.09A7.12,7.12,0,0,1,6.73,4c.76.32,1.59.51,2.36.82A34.3,34.3,0,0,0,14,6.72c2.42.58,5,.26,7.4.81,2.65.6,5,2.18,7.68,2.68Z"/>
</svg>