<svg xmlns="http://www.w3.org/2000/svg" viewBox="0 0 228.59 97.99"><defs><style>.cls-1{isolation:isolate;}.cls-2{fill:#4a8363;mix-blend-mode:multiply;}</style></defs><title>svg-stars-last</title><g class="cls-1"><g id="Layer_2" data-name="Layer 2"><g id="Plane_3" data-name="Plane 3"><path class="cls-2" d="M206.19,44.46c3.5.8,4.47-1.6,6-3.15l-.13-2.36c-.59-.17-1.06-.49-1.41-.38a9.08,9.08,0,0,0-5.41,3.59Z"/><path class="cls-2" d="M163,20.3a2.43,2.43,0,0,0,2.85,1.42c2.35-.44,3.64-2,4.43-4.25a4.09,4.09,0,0,0-.5-1.18,5.34,5.34,0,0,0-1.3-.78c-1.69,1.25-3.39,2.49-5.06,3.78C163.22,19.43,163.19,19.81,163,20.3Z"/><path class="cls-2" d="M221.75,58.31c-.8,1.24-.57,1.93-.1,2.58A3,3,0,0,0,224,62.1a4.36,4.36,0,0,0,3.69-1.41,2.52,2.52,0,0,0,.67-3l-1.22-.64c-.5.26-1,.52-1.55.81s-.76.49-1.07.68Z"/><path class="cls-2" d="M193.5,19.37a9.71,9.71,0,0,0,2.21,3.91,7.29,7.29,0,0,0,4.14-3.4l-.9-1.64C197,17.78,195.08,17.35,193.5,19.37Z"/><path class="cls-2" d="M152.18,41c.18,1.78.61,2.85,2.36,3,1.39-.79,2.18-2.27,3.08-3.53-.33-1.48-.33-1.48-1.37-2.21C154.36,38.3,153.4,39.74,152.18,41Z"/><path class="cls-2" d="M99.55.28a19.35,19.35,0,0,0-.2,4.2c.07.82,0,1.65,0,2.48a1.47,1.47,0,0,0,.1.48.37.37,0,0,0,.41.31c.22-.27.49-.58.74-.9s.68-.84,1-1.27a6,6,0,0,1,1.07-1A7.21,7.21,0,0,1,104,3.67a.3.3,0,0,1,.43.11c0,.08,0,.18,0,.24a10,10,0,0,0-.6,2.78,5.52,5.52,0,0,1-.49,1.78,9.69,9.69,0,0,1-1,2,1.26,1.26,0,0,0-.23,1.17,7.11,7.11,0,0,1,1.35,1.75l2.62,1.79c.23.46.36.89,0,1.31l-.7.08-.4-.38a9.8,9.8,0,0,0-2.88-.36,3.36,3.36,0,0,1-1.66,0c-.67-.19-1.15-.79-1.9-.65a25,25,0,0,1-1.57,2.06,3.66,3.66,0,0,0-.83,1.54A4.89,4.89,0,0,0,95.15,20a3.08,3.08,0,0,1-1.35,1.4c-.06,0-.15,0-.34,0l-.21-.26a8.09,8.09,0,0,1,.2-1.59,17.88,17.88,0,0,0,.82-3.36c.11-.78.18-1.56.35-2.32a4.8,4.8,0,0,0-.28-3.05c-1,0-1.7-.81-2.35-.91a5,5,0,0,1-2.19-2.64l.07-.61.82-.51,1.62.07a4.31,4.31,0,0,1,2.45-.89l1,.56.74-.62c.23-.89.88-1.59,1.06-2.5s.88-1.58,1.11-2.49L99.42,0C99.49.13,99.56.21,99.55.28ZM94.07,9.46a4.56,4.56,0,0,0,2.78.39.73.73,0,0,1,.24,0,.55.55,0,0,1,.2.8c-.47.2-1.14.1-1.51.66-.22,1-.16,2.12-.44,3.14a31,31,0,0,0-.54,3.06,3,3,0,0,0,0,.74,1.42,1.42,0,0,0,.2.43c.77-.32.85-1.27,1.48-1.4.37-.66.61-1.19.94-1.66A3.82,3.82,0,0,0,98,14.48a2.52,2.52,0,0,1,.48-.69h.78l1.14,1,1.7.37.79-.3c0-.12-.06-.25-.13-.32s-.47-.27-.56-.47c-.36-.78-1.23-1.12-1.62-2v-.49a6.55,6.55,0,0,1,1.62-2.13c.2-.7.39-1.34.55-2a8.27,8.27,0,0,0,.17-1.23.52.52,0,0,0-.32-.54c-.25.35-.48.71-.75,1s-.58.58-.83.9a4.87,4.87,0,0,1-.6.62,3.92,3.92,0,0,0-.73.83,2.38,2.38,0,0,1-1.13,1l-.41-.39a7.29,7.29,0,0,0,.19-1.62c-.05-.5.06-1,0-1.49a8.88,8.88,0,0,1,.07-2.23,2.48,2.48,0,0,0-.05-.49,10.68,10.68,0,0,0-2.15,3.21c-.3.23-.58.58-1.19.41l-.62-.93-.77-.24c-.34.17-.66.35-1,.51s-.68.28-1.09.45l-.12.41L92.86,9C93.3,9.16,93.7,9.29,94.07,9.46Z"/><path class="cls-2" d="M122.27,41.17c.25-.5.8-.56,1.21-.82a.4.4,0,0,1,.57.14l-.13,1.16c-.28.72-.47,1.31-.74,1.87s-.26,1-.53,1.52c-.49.9-.91,1.84-1.42,2.89l0,.68a13.89,13.89,0,0,0,2.28,2.86l.75.32c.22.09.51-.16.74.23v.54c-.3.1-.57.18-.83.29s-.51.26-.71.37a5.26,5.26,0,0,1-2.4-.69c-.5-.29-1-.55-1.53-.83a1,1,0,0,0-1-.06,9.07,9.07,0,0,1-.92,1.53,18.49,18.49,0,0,0-1,1.69,8,8,0,0,0-.72,1.64l-1.13.57a1.91,1.91,0,0,1-.27-.15l-.41-.37a14.12,14.12,0,0,0,.1-2,15.82,15.82,0,0,1,.13-2.73,14.74,14.74,0,0,0,.2-3c0-.14.12-.3.19-.46l-.47-.66a7.07,7.07,0,0,1-2.76-.94,1.6,1.6,0,0,0-1.31-.2,1.45,1.45,0,0,1-.49,0c-.07,0-.14-.08-.22-.12-.15-.35,0-.63.27-.93a2.33,2.33,0,0,0,1.27-1,8.58,8.58,0,0,1,3-.49l.75-.52a3.13,3.13,0,0,0,.36-.74,3.5,3.5,0,0,1,.66-1.32,4,4,0,0,0,.6-1.21,7.67,7.67,0,0,1,.85-1.5c.14-.27.44-.36.83-.19a5.83,5.83,0,0,1,.4,1.48c0,.59.37,1.11.35,1.68a3.55,3.55,0,0,0,.67,2A37.32,37.32,0,0,1,122.27,41.17Zm-9.08,5.21,1.75.2.53.5a3.32,3.32,0,0,1,.05.4,6.7,6.7,0,0,0,0,1.73,1.53,1.53,0,0,1-.1.73,10.6,10.6,0,0,0-.19,5.62l.28.09a9.14,9.14,0,0,0,1.61-3.47c.65-.41.82-1.25,1.29-1.82a2.43,2.43,0,0,1,2.21.67,1.13,1.13,0,0,0,.3.21c.16.06.32.06.4-.13s0-.11,0-.13l-1.08-1.19a3.07,3.07,0,0,1,.29-2.41c.28-.51.49-1.05.76-1.56a2.86,2.86,0,0,1,.46-.5c0-.86.59-1.65.58-2.64l-.48-.15a20.18,20.18,0,0,0-1.83,2,8.4,8.4,0,0,1-1.4,1.4l-.49-.21a16.24,16.24,0,0,1-.39-1.94,8.17,8.17,0,0,0-.64-2.5.47.47,0,0,0-.52.27,11.44,11.44,0,0,0-.55,1.23c-.27.73-.49,1.48-.76,2.21a2.17,2.17,0,0,1-.36.49,3.61,3.61,0,0,0-1.86-.27,2.59,2.59,0,0,0-.86.45Z"/><path class="cls-2" d="M0,66.3a2.43,2.43,0,0,0,2.85,1.42c2.35-.44,3.64-2,4.43-4.25a4.09,4.09,0,0,0-.5-1.18,5.34,5.34,0,0,0-1.3-.78C3.79,62.75,2.09,64,.42,65.28.22,65.43.19,65.81,0,66.3Z"/><path class="cls-2" d="M46.64,94.17c-.51,1.44-.94,2.72.69,3.82a7.35,7.35,0,0,0,5.19-3.87c.42-.86.49-1.78-1-2.34A21.19,21.19,0,0,0,46.64,94.17Z"/><path class="cls-2" d="M30.5,65.37a9.71,9.71,0,0,0,2.21,3.91,7.29,7.29,0,0,0,4.14-3.4l-.9-1.64C34,63.78,32.08,63.35,30.5,65.37Z"/><path class="cls-2" d="M71.15,43.42c.38-.24.73-.52,1.08-.78l2,0a1.17,1.17,0,0,1,1,.46,2.55,2.55,0,0,1,.15.72,6.75,6.75,0,0,0,0,1.21,1,1,0,0,1,0,.37,6.1,6.1,0,0,1-1.93,3.07,1.79,1.79,0,0,0-.9,1c0,.1-.19.15-.26.24a7.64,7.64,0,0,0-1.13,1.44c-.32.63-1,1-1.3,1.63l-1.4,1-.45-.1c-.08-.24-.19-.51-.25-.78a4.29,4.29,0,0,0-.21-1.09,8.65,8.65,0,0,1-.87-2.55c-.06-.3-.22-.61-.28-.94a4.18,4.18,0,0,0-.39-1.16,3.5,3.5,0,0,1-.3-2.32l.43-.48a4.7,4.7,0,0,1,.67-1.91c.25-.16.61-.35.94-.59a1.59,1.59,0,0,1,1.64-.22c.62.57.37,1.24.47,1.88A1.06,1.06,0,0,0,71.15,43.42Zm-2.93-.3a.63.63,0,0,0,.06-.22c-.12-.17-.13-.17-.69.41l.24.26C68,43.42,68.11,43.28,68.22,43.13Z"/></g></g></g></svg>