<svg xmlns="http://www.w3.org/2000/svg" viewBox="0 0 191.89 88.34"><defs><style>.cls-1{isolation:isolate;}.cls-2{fill:#4a8363;mix-blend-mode:multiply;}</style></defs><title>svg-stars-final-last</title><g class="cls-1"><g id="Layer_2" data-name="Layer 2"><g id="Plane_3" data-name="Plane 3"><path class="cls-2" d="M95.07,70.68c-3.5.8-4.47-1.6-6-3.15l.13-2.36c.59-.17,1.06-.49,1.41-.38A9.08,9.08,0,0,1,96,68.37Z"/><path class="cls-2" d="M91.62,2.39c.51,1.44.94,2.72-.69,3.82a7.35,7.35,0,0,1-5.19-3.87c-.42-.86-.49-1.78,1-2.34A21.19,21.19,0,0,1,91.62,2.39Z"/><path class="cls-2" d="M153.84,5.94V3.66c.48-.22.93-.63,1.27-.55,2.58.57,3.17,1,5.13,3.35-.81,1.62-1.44,2.09-2.58,1.82A6.07,6.07,0,0,1,153.84,5.94Z"/><path class="cls-2" d="M79.51,84.53c.8,1.24.57,1.93.1,2.58a3,3,0,0,1-2.34,1.22,4.36,4.36,0,0,1-3.69-1.41,2.52,2.52,0,0,1-.67-3l1.22-.64c.5.26,1,.52,1.55.81s.76.49,1.07.68Z"/><path class="cls-2" d="M43.86,62l1.34,1.47-1.42,2a6.91,6.91,0,0,1-5.1.16,2.15,2.15,0,0,1-1.46-3.05c.43-.13,1-.5,1.53-.41C40.53,62.51,42.3,62.87,43.86,62Z"/><path class="cls-2" d="M149.08,67.21c-.18,1.78-.61,2.85-2.36,3-1.39-.79-2.18-2.27-3.08-3.53.33-1.48.33-1.48,1.37-2.21C146.9,64.52,147.86,66,149.08,67.21Z"/><path class="cls-2" d="M181.88,70a3.55,3.55,0,0,0,.67-2c0-.57.34-1.09.35-1.68a5.83,5.83,0,0,1,.4-1.48c.39-.17.69-.08.83.19a7.67,7.67,0,0,1,.85,1.5,4,4,0,0,0,.6,1.21,3.5,3.5,0,0,1,.66,1.32,3.13,3.13,0,0,0,.36.74l.75.52a8.58,8.58,0,0,1,3,.49,2.33,2.33,0,0,0,1.27,1c.25.3.41.58.27.93-.08,0-.15.12-.22.12a1.45,1.45,0,0,1-.49,0,1.6,1.6,0,0,0-1.31.2,7.07,7.07,0,0,1-2.76.94l-.47.66c.07.16.2.32.19.46a14.74,14.74,0,0,0,.2,3,15.82,15.82,0,0,1,.13,2.73,14.12,14.12,0,0,0,.1,2l-.41.37a1.91,1.91,0,0,1-.27.15l-1.13-.57a8,8,0,0,0-.72-1.64,18.49,18.49,0,0,0-1-1.69,9.07,9.07,0,0,1-.92-1.53,1,1,0,0,0-1,.06c-.51.28-1,.54-1.53.83a5.26,5.26,0,0,1-2.4.69c-.2-.11-.45-.25-.71-.37s-.54-.19-.83-.29v-.54c.24-.38.52-.13.74-.23l.75-.32A13.89,13.89,0,0,0,180,74.85l0-.68c-.51-1.05-.92-2-1.42-2.89-.27-.49-.29-1-.53-1.52s-.46-1.15-.74-1.87l-.13-1.16a.4.4,0,0,1,.57-.14c.41.26,1,.32,1.21.82A37.32,37.32,0,0,1,181.88,70Zm7.18,1.88a2.59,2.59,0,0,0-.86-.45,3.61,3.61,0,0,0-1.86.27,2.17,2.17,0,0,1-.36-.49c-.27-.73-.49-1.48-.76-2.21a11.44,11.44,0,0,0-.55-1.23.47.47,0,0,0-.52-.27,8.17,8.17,0,0,0-.64,2.5,16.24,16.24,0,0,1-.39,1.94l-.49.21a8.4,8.4,0,0,1-1.4-1.4,20.18,20.18,0,0,0-1.83-2l-.48.15c0,1,.59,1.78.58,2.64a2.86,2.86,0,0,1,.46.5c.27.51.48,1.06.76,1.56A3.07,3.07,0,0,1,181,76l-1.08,1.19s0,.08,0,.13.24.18.4.13a1.13,1.13,0,0,0,.3-.21,2.43,2.43,0,0,1,2.21-.67c.47.57.65,1.41,1.29,1.82a9.14,9.14,0,0,0,1.61,3.47l.28-.09a10.6,10.6,0,0,0-.19-5.62,1.53,1.53,0,0,1-.1-.73,6.7,6.7,0,0,0,0-1.73,3.32,3.32,0,0,1,.05-.4l.53-.5,1.75-.2Z"/><path class="cls-2" d="M0,48.82C.57,50.67,1.91,51,3.23,51.38a4.91,4.91,0,0,0,3.91-3.11l-.71-1.49c-.46-.17-.62-.29-.74-.26C4,47,2.29,47.43.6,47.95.38,48,.26,48.42,0,48.82Z"/><path class="cls-2" d="M21.83,11,20.5,12.48l1.42,2a6.91,6.91,0,0,0,5.1.16,2.15,2.15,0,0,0,1.46-3.05c-.43-.13-1-.5-1.53-.41C25.16,11.51,23.39,11.87,21.83,11Z"/></g></g></g></svg>