<svg xmlns="http://www.w3.org/2000/svg" viewBox="0 0 174.45 230.51"><defs><style>.cls-1{fill:#d9a959;}</style></defs><title>svg_stars-behind-pic</title><g id="Layer_2" data-name="Layer 2"><g id="Base"><path class="cls-1" d="M58,198.82c-3.5.8-4.47-1.6-6-3.15l.13-2.36c.59-.17,1.06-.49,1.41-.38A9.08,9.08,0,0,1,59,196.51Z"/><path class="cls-1" d="M101.23,102.66a2.43,2.43,0,0,1-2.85,1.42c-2.35-.44-3.64-2-4.43-4.25a4.09,4.09,0,0,1,.5-1.18,5.34,5.34,0,0,1,1.3-.78c1.69,1.25,3.39,2.49,5.06,3.78C101,101.79,101,102.17,101.23,102.66Z"/><path class="cls-1" d="M54.59,130.53c.51,1.44.94,2.72-.69,3.82a7.35,7.35,0,0,1-5.19-3.87c-.42-.86-.49-1.78,1-2.34A21.19,21.19,0,0,1,54.59,130.53Z"/><path class="cls-1" d="M116.82,134.08V131.8c.48-.22.93-.63,1.27-.55,2.58.57,3.17,1,5.13,3.35-.81,1.62-1.44,2.09-2.58,1.82A6.07,6.07,0,0,1,116.82,134.08Z"/><path class="cls-1" d="M42.48,212.67c.8,1.24.57,1.93.1,2.58a3,3,0,0,1-2.34,1.22,4.36,4.36,0,0,1-3.69-1.41,2.52,2.52,0,0,1-.67-3l1.22-.64c.5.26,1,.52,1.55.81s.76.49,1.07.68Z"/><path class="cls-1" d="M70.73,101.73a9.71,9.71,0,0,1-2.21,3.91,7.29,7.29,0,0,1-4.14-3.4l.9-1.64C67.26,100.14,69.16,99.71,70.73,101.73Z"/><path class="cls-1" d="M28.66,228c-.57,1.86-1.91,2.18-3.23,2.56a4.91,4.91,0,0,1-3.91-3.11l.71-1.49c.46-.17.62-.29.74-.26,1.71.46,3.41.92,5.1,1.44C28.28,227.16,28.4,227.56,28.66,228Z"/><path class="cls-1" d="M6.83,190.15l1.34,1.47-1.42,2a6.91,6.91,0,0,1-5.1.16,2.15,2.15,0,0,1-1.46-3.05c.43-.13,1-.5,1.53-.41C3.5,190.65,5.27,191,6.83,190.15Z"/><path class="cls-1" d="M10.93,4.85,7.54,4.53,5.39,1.42C6,.9,6.31.31,6.8.16c1.53-.45,3,.15,4.25.3C12.63,1.93,12,3.16,10.93,4.85Z"/><path class="cls-1" d="M112.05,195.35c-.18,1.78-.61,2.85-2.36,3-1.39-.79-2.18-2.27-3.08-3.53.33-1.48.33-1.48,1.37-2.21C109.87,192.66,110.84,194.1,112.05,195.35Z"/><path class="cls-1" d="M164.81,154.36l.81.26c.23.9.93,1.58,1.11,2.49s.83,1.62,1.06,2.5l.74.62,1-.56a4.31,4.31,0,0,1,2.45.89l1.62-.07.82.51.07.61a5,5,0,0,1-2.19,2.64c-.65.1-1.33.91-2.35.91a4.8,4.8,0,0,0-.28,3.05c.18.76.24,1.55.35,2.32a17.88,17.88,0,0,0,.82,3.36,8.09,8.09,0,0,1,.2,1.59l-.21.26c-.19,0-.29,0-.34,0a3.08,3.08,0,0,1-1.35-1.4,4.89,4.89,0,0,0-.94-1.09,3.66,3.66,0,0,0-.83-1.54,25,25,0,0,1-1.57-2.06c-.75-.13-1.22.46-1.9.65a3.36,3.36,0,0,1-1.66,0,9.8,9.8,0,0,0-2.88.36l-.4.38-.7-.08c-.4-.42-.28-.85,0-1.31l2.62-1.79a7.11,7.11,0,0,1,1.35-1.75,1.26,1.26,0,0,0-.23-1.17,9.69,9.69,0,0,1-1-2,5.52,5.52,0,0,1-.49-1.78,10,10,0,0,0-.6-2.78c0-.07,0-.16,0-.24a.3.3,0,0,1,.43-.11,7.21,7.21,0,0,1,1.31.91,6,6,0,0,1,1.07,1c.31.44.66.85,1,1.27s.52.63.74.9a.37.37,0,0,0,.41-.31,1.47,1.47,0,0,0,.1-.48c0-.83-.09-1.66,0-2.48a19.35,19.35,0,0,0-.2-4.2C164.67,154.57,164.75,154.49,164.81,154.36Zm6.57,9,1.47-1.27-.12-.41c-.41-.17-.76-.29-1.09-.45s-.66-.33-1-.51l-.77.24-.62.93c-.61.17-.89-.18-1.19-.41a10.68,10.68,0,0,0-2.15-3.21,2.48,2.48,0,0,0-.05.49,8.88,8.88,0,0,1,.07,2.23c-.07.49,0,1,0,1.49a7.29,7.29,0,0,0,.19,1.62l-.41.39a2.38,2.38,0,0,1-1.13-1,3.92,3.92,0,0,0-.73-.83,4.87,4.87,0,0,1-.6-.62c-.26-.32-.57-.58-.83-.9s-.5-.7-.75-1a.52.52,0,0,0-.32.54,8.27,8.27,0,0,0,.17,1.23c.15.64.35,1.28.55,2a6.55,6.55,0,0,1,1.62,2.13v.49c-.39.85-1.26,1.19-1.62,2-.09.2-.39.3-.56.47s-.09.2-.13.32l.79.3,1.7-.37,1.14-1h.78a2.52,2.52,0,0,1,.48.69,3.82,3.82,0,0,0,.63,1.19c.33.47.57,1,.94,1.66.63.13.72,1.08,1.48,1.4a1.42,1.42,0,0,0,.2-.43,3,3,0,0,0,0-.74,31,31,0,0,0-.54-3.06c-.28-1-.21-2.12-.44-3.14-.38-.56-1-.46-1.51-.66a.55.55,0,0,1,.2-.8.73.73,0,0,1,.24,0,4.56,4.56,0,0,0,2.78-.39C170.54,163.65,170.93,163.52,171.37,163.35Z"/><path class="cls-1" d="M31.43,79.89c.1-.63-.15-1.31.47-1.88a1.59,1.59,0,0,1,1.64.22c.33.24.69.43.94.59a4.7,4.7,0,0,1,.67,1.91l.43.48a3.5,3.5,0,0,1-.3,2.32,4.18,4.18,0,0,0-.39,1.16c-.06.32-.22.63-.28.94a8.65,8.65,0,0,1-.87,2.55,4.29,4.29,0,0,0-.21,1.09c-.06.28-.17.54-.25.78l-.45.1-1.4-1c-.3-.65-1-1-1.3-1.63A7.64,7.64,0,0,0,29,86.1c-.08-.09-.24-.14-.26-.24a1.79,1.79,0,0,0-.9-1,6.1,6.1,0,0,1-1.93-3.07,1,1,0,0,1,0-.37,6.75,6.75,0,0,0,0-1.21,2.55,2.55,0,0,1,.15-.72,1.17,1.17,0,0,1,1-.46l2,0c.35.25.7.54,1.08.78A1.06,1.06,0,0,0,31.43,79.89Zm2,.06.24-.26c-.56-.58-.57-.58-.69-.41a.63.63,0,0,0,.06.22C33.13,79.64,33.26,79.78,33.4,79.95Z"/><path class="cls-1" d="M144.85,198.12a3.55,3.55,0,0,0,.67-2c0-.57.34-1.09.35-1.68a5.83,5.83,0,0,1,.4-1.48c.39-.17.69-.08.83.19a7.67,7.67,0,0,1,.85,1.5,4,4,0,0,0,.6,1.21,3.5,3.5,0,0,1,.66,1.32,3.13,3.13,0,0,0,.36.74l.75.52a8.58,8.58,0,0,1,3,.49,2.33,2.33,0,0,0,1.27,1c.25.3.41.58.27.93-.08,0-.15.12-.22.12a1.45,1.45,0,0,1-.49,0,1.6,1.6,0,0,0-1.31.2,7.07,7.07,0,0,1-2.76.94l-.47.66c.07.16.2.32.19.46a14.74,14.74,0,0,0,.2,3,15.82,15.82,0,0,1,.13,2.73,14.12,14.12,0,0,0,.1,2l-.41.37a1.91,1.91,0,0,1-.27.15l-1.13-.57a8,8,0,0,0-.72-1.64,18.49,18.49,0,0,0-1-1.69,9.07,9.07,0,0,1-.92-1.53,1,1,0,0,0-1,.06c-.51.28-1,.54-1.53.83a5.26,5.26,0,0,1-2.4.69c-.2-.11-.45-.25-.71-.37s-.54-.19-.83-.29v-.54c.24-.38.52-.13.74-.23l.75-.32A13.89,13.89,0,0,0,143,203l0-.68c-.51-1.05-.92-2-1.42-2.89-.27-.49-.29-1-.53-1.52s-.46-1.15-.74-1.87l-.13-1.16a.4.4,0,0,1,.57-.14c.41.26,1,.32,1.21.82A37.32,37.32,0,0,1,144.85,198.12ZM152,200a2.59,2.59,0,0,0-.86-.45,3.61,3.61,0,0,0-1.86.27,2.17,2.17,0,0,1-.36-.49c-.27-.73-.49-1.48-.76-2.21a11.44,11.44,0,0,0-.55-1.23.47.47,0,0,0-.52-.27,8.17,8.17,0,0,0-.64,2.5,16.24,16.24,0,0,1-.39,1.94l-.49.21a8.4,8.4,0,0,1-1.4-1.4,20.18,20.18,0,0,0-1.83-2l-.48.15c0,1,.59,1.78.58,2.64a2.86,2.86,0,0,1,.46.5c.27.51.48,1.06.76,1.56a3.07,3.07,0,0,1,.29,2.41l-1.08,1.19s0,.08,0,.13.24.18.4.13a1.13,1.13,0,0,0,.3-.21,2.43,2.43,0,0,1,2.21-.67c.47.57.65,1.41,1.29,1.82a9.14,9.14,0,0,0,1.61,3.47l.28-.09a10.6,10.6,0,0,0-.19-5.62,1.53,1.53,0,0,1-.1-.73,6.7,6.7,0,0,0,0-1.73,3.32,3.32,0,0,1,.05-.4l.53-.5,1.75-.2Z"/></g></g></svg>