<svg xmlns="http://www.w3.org/2000/svg" viewBox="0 0 193.28 8.23"><title>svg_underline</title><g id="Layer_2" data-name="Layer 2"><g id="Plane_4" data-name="Plane 4"><path d="M0,.2A99.36,99.36,0,0,1,12.58.2C17.34.54,22.21.56,27,.65l15.82.3c.88,0,1.77.06,2.64.06,3.47,0,7-.14,10.4,0s6.82.48,10.28.67,7,.3,10.5.44c2.19.09,4.48.1,6.55.27,9,.74,18.29.9,27.47,1.24,7.44.27,15,.36,22.18,1,11.39.51,22.82.78,34.26,1,1.29,0,2.65,0,3.85-.08,2.54-.16,5.14-.11,7.78,0l14.5.36-3,2.36c-2.08.08-17.06-.72-19.24-.78q-13.85-.36-27.69-.76c-3.52-.1-7-.26-10.41-.54-2.5-.21-5.18-.31-7.79-.41-7.45-.28-14.9-.54-22.35-.82-1.75-.06-3.54-.12-5.21-.25-6.43-.52-13-.71-19.6-.9-4.84-.14-9.67-.29-14.23-.81-.79-.09-1.7-.17-2.56-.18-8.33-.14-16.67-.57-25-.48-2.6,0-5.22.14-7.8.06-8-.24-15.69.06-23.6-.09Z"/></g></g></svg>