<svg xmlns="http://www.w3.org/2000/svg" viewBox="0 0 520.26 287.76"><defs><style>.cls-1{isolation:isolate;}.cls-2,.cls-3{fill:#f5e99f;}.cls-2,.cls-4{mix-blend-mode:multiply;}</style></defs><title>svg_stars-belowcopy</title><g class="cls-1"><g id="Layer_2" data-name="Layer 2"><g id="Plane_3" data-name="Plane 3"><path class="cls-2" d="M132,207.67c-.8,1.24-.57,1.93-.1,2.58a3,3,0,0,0,2.34,1.22,4.36,4.36,0,0,0,3.69-1.41,2.52,2.52,0,0,0,.67-3l-1.22-.64c-.5.26-1,.52-1.55.81s-.76.49-1.07.68Z"/><path class="cls-3" d="M145.78,223c.57,1.86,1.91,2.18,3.23,2.56a4.91,4.91,0,0,0,3.91-3.11l-.71-1.49c-.46-.17-.62-.29-.74-.26-1.71.46-3.41.92-5.1,1.44C146.16,222.16,146,222.56,145.78,223Z"/><path class="cls-4" d="M510.62,266.36l.81.26c.23.9.93,1.58,1.11,2.49s.83,1.62,1.06,2.5l.74.62,1-.56a4.31,4.31,0,0,1,2.45.89l1.62-.07.82.51.07.61a5,5,0,0,1-2.19,2.64c-.65.1-1.33.91-2.35.91a4.8,4.8,0,0,0-.28,3.05c.18.76.24,1.55.35,2.32a17.88,17.88,0,0,0,.82,3.36,8.09,8.09,0,0,1,.2,1.59l-.21.26c-.19,0-.29,0-.34,0a3.08,3.08,0,0,1-1.35-1.4,4.89,4.89,0,0,0-.94-1.09,3.66,3.66,0,0,0-.83-1.54,25,25,0,0,1-1.57-2.06c-.75-.13-1.22.46-1.9.65a3.36,3.36,0,0,1-1.66,0,9.8,9.8,0,0,0-2.88.36l-.4.38-.7-.08c-.4-.42-.28-.85,0-1.31l2.62-1.79a7.11,7.11,0,0,1,1.35-1.75,1.26,1.26,0,0,0-.23-1.17,9.69,9.69,0,0,1-1-2,5.52,5.52,0,0,1-.49-1.78,10,10,0,0,0-.6-2.78c0-.07,0-.16,0-.24a.3.3,0,0,1,.43-.11,7.21,7.21,0,0,1,1.31.91,6,6,0,0,1,1.07,1c.31.44.66.85,1,1.27s.52.63.74.9a.37.37,0,0,0,.41-.31,1.47,1.47,0,0,0,.1-.48c0-.83-.09-1.66,0-2.48a19.35,19.35,0,0,0-.2-4.2C510.49,266.57,510.56,266.49,510.62,266.36Zm6.57,9,1.47-1.27-.12-.41c-.41-.17-.76-.29-1.09-.45s-.66-.33-1-.51l-.77.24-.62.93c-.61.17-.89-.18-1.19-.41a10.68,10.68,0,0,0-2.15-3.21,2.48,2.48,0,0,0-.05.49,8.88,8.88,0,0,1,.07,2.23c-.07.49,0,1,0,1.49a7.29,7.29,0,0,0,.19,1.62l-.41.39a2.38,2.38,0,0,1-1.13-1,3.92,3.92,0,0,0-.73-.83,4.87,4.87,0,0,1-.6-.62c-.26-.32-.57-.58-.83-.9s-.5-.7-.75-1a.52.52,0,0,0-.32.54,8.27,8.27,0,0,0,.17,1.23c.15.64.35,1.28.55,2a6.55,6.55,0,0,1,1.62,2.13v.49c-.39.85-1.26,1.19-1.62,2-.09.2-.39.3-.56.47s-.09.2-.13.32l.79.3,1.7-.37,1.14-1h.78a2.52,2.52,0,0,1,.48.69,3.82,3.82,0,0,0,.63,1.19c.33.47.57,1,.94,1.66.63.13.72,1.08,1.48,1.4a1.42,1.42,0,0,0,.2-.43,3,3,0,0,0,0-.74,31,31,0,0,0-.54-3.06c-.28-1-.21-2.12-.44-3.14-.38-.56-1-.46-1.51-.66a.55.55,0,0,1,.2-.8.73.73,0,0,1,.24,0,4.56,4.56,0,0,0,2.78-.39C516.35,275.65,516.75,275.52,517.19,275.35Z"/><path class="cls-2" d="M403.86,126.82c-3.5.8-4.47-1.6-6-3.15l.13-2.36c.59-.17,1.06-.49,1.41-.38a9.08,9.08,0,0,1,5.41,3.59Z"/><path class="cls-2" d="M447,30.66a2.43,2.43,0,0,1-2.85,1.42c-2.35-.44-3.64-2-4.43-4.25a4.09,4.09,0,0,1,.5-1.18,5.34,5.34,0,0,1,1.3-.78c1.69,1.25,3.39,2.49,5.06,3.78C446.83,29.79,446.86,30.17,447,30.66Z"/><path class="cls-2" d="M400.41,58.53c.51,1.44.94,2.72-.69,3.82a7.35,7.35,0,0,1-5.19-3.87c-.42-.86-.49-1.78,1-2.34A21.19,21.19,0,0,1,400.41,58.53Z"/><path class="cls-2" d="M462.63,62.08V59.8c.48-.22.93-.63,1.27-.55,2.58.57,3.17,1,5.13,3.35-.81,1.62-1.44,2.09-2.58,1.82A6.07,6.07,0,0,1,462.63,62.08Z"/><path class="cls-2" d="M388.29,140.67c.8,1.24.57,1.93.1,2.58a3,3,0,0,1-2.34,1.22,4.36,4.36,0,0,1-3.69-1.41,2.52,2.52,0,0,1-.67-3l1.22-.64c.5.26,1,.52,1.55.81s.76.49,1.07.68Z"/><path class="cls-2" d="M416.55,29.73a9.71,9.71,0,0,1-2.21,3.91,7.29,7.29,0,0,1-4.14-3.4l.9-1.64C413.08,28.14,415,27.71,416.55,29.73Z"/><path class="cls-3" d="M374.47,156c-.57,1.86-1.91,2.18-3.23,2.56a4.91,4.91,0,0,1-3.91-3.11l.71-1.49c.46-.17.62-.29.74-.26,1.71.46,3.41.92,5.1,1.44C374.1,155.16,374.21,155.56,374.47,156Z"/><path class="cls-2" d="M352.64,118.15l1.34,1.47-1.42,2a6.91,6.91,0,0,1-5.1.16,2.15,2.15,0,0,1-1.46-3.05c.43-.13,1-.5,1.53-.41C349.32,118.65,351.09,119,352.64,118.15Z"/><path class="cls-3" d="M356.75,4.85l-3.39-.31-2.15-3.11c.56-.52.92-1.12,1.4-1.26,1.53-.45,3,.15,4.25.3C358.44,1.93,357.82,3.16,356.75,4.85Z"/><path class="cls-2" d="M457.86,123.35c-.18,1.78-.61,2.85-2.36,3-1.39-.79-2.18-2.27-3.08-3.53.33-1.48.33-1.48,1.37-2.21C455.69,120.66,456.65,122.1,457.86,123.35Z"/><path class="cls-2" d="M377.25,7.89c.1-.63-.15-1.31.47-1.88a1.59,1.59,0,0,1,1.64.22c.33.24.69.43.94.59A4.7,4.7,0,0,1,381,8.73l.43.48a3.5,3.5,0,0,1-.3,2.32,4.18,4.18,0,0,0-.39,1.16c-.06.32-.22.63-.28.94a8.65,8.65,0,0,1-.87,2.55,4.29,4.29,0,0,0-.21,1.09c-.06.28-.17.54-.25.78l-.45.1-1.4-1c-.3-.65-1-1-1.3-1.63a7.64,7.64,0,0,0-1.13-1.44c-.08-.09-.24-.14-.26-.24a1.79,1.79,0,0,0-.9-1,6.1,6.1,0,0,1-1.93-3.07,1,1,0,0,1,0-.37,6.75,6.75,0,0,0,0-1.21,2.55,2.55,0,0,1,.15-.72,1.17,1.17,0,0,1,1-.46l2,0c.35.25.7.54,1.08.78A1.06,1.06,0,0,0,377.25,7.89Zm2,.06.24-.26c-.56-.58-.57-.58-.69-.41a.63.63,0,0,0,.06.22C378.94,7.64,379.07,7.78,379.21,7.95Z"/><path class="cls-2" d="M490.66,126.12a3.55,3.55,0,0,0,.67-2c0-.57.34-1.09.35-1.68a5.83,5.83,0,0,1,.4-1.48c.39-.17.69-.08.83.19a7.67,7.67,0,0,1,.85,1.5,4,4,0,0,0,.6,1.21,3.5,3.5,0,0,1,.66,1.32,3.13,3.13,0,0,0,.36.74l.75.52a8.58,8.58,0,0,1,3,.49,2.33,2.33,0,0,0,1.27,1c.25.3.41.58.27.93-.08,0-.15.12-.22.12a1.45,1.45,0,0,1-.49,0,1.6,1.6,0,0,0-1.31.2,7.07,7.07,0,0,1-2.76.94l-.47.66c.07.16.2.32.19.46a14.74,14.74,0,0,0,.2,3,15.82,15.82,0,0,1,.13,2.73,14.12,14.12,0,0,0,.1,2l-.41.37a1.91,1.91,0,0,1-.27.15l-1.13-.57a8,8,0,0,0-.72-1.64,18.49,18.49,0,0,0-1-1.69,9.07,9.07,0,0,1-.92-1.53,1,1,0,0,0-1,.06c-.51.28-1,.54-1.53.83a5.26,5.26,0,0,1-2.4.69c-.2-.11-.45-.25-.71-.37s-.54-.19-.83-.29v-.54c.24-.38.52-.13.74-.23l.75-.32a13.89,13.89,0,0,0,2.28-2.86l0-.68c-.51-1.05-.92-2-1.42-2.89-.27-.49-.29-1-.53-1.52s-.46-1.15-.74-1.87l-.13-1.16a.4.4,0,0,1,.57-.14c.41.26,1,.32,1.21.82A37.32,37.32,0,0,1,490.66,126.12Zm7.18,1.88a2.59,2.59,0,0,0-.86-.45,3.61,3.61,0,0,0-1.86.27,2.17,2.17,0,0,1-.36-.49c-.27-.73-.49-1.48-.76-2.21a11.44,11.44,0,0,0-.55-1.23.47.47,0,0,0-.52-.27,8.17,8.17,0,0,0-.64,2.5,16.24,16.24,0,0,1-.39,1.94l-.49.21a8.4,8.4,0,0,1-1.4-1.4,20.18,20.18,0,0,0-1.83-2l-.48.15c0,1,.59,1.78.58,2.64a2.86,2.86,0,0,1,.46.5c.27.51.48,1.06.76,1.56a3.07,3.07,0,0,1,.29,2.41l-1.08,1.19s0,.08,0,.13.24.18.4.13a1.13,1.13,0,0,0,.3-.21,2.43,2.43,0,0,1,2.21-.67c.47.57.65,1.41,1.29,1.82a9.14,9.14,0,0,0,1.61,3.47l.28-.09a10.6,10.6,0,0,0-.19-5.62,1.53,1.53,0,0,1-.1-.73,6.7,6.7,0,0,0,0-1.73,3.32,3.32,0,0,1,.05-.4l.53-.5,1.75-.2Z"/><path class="cls-2" d="M279.4,75.82c3.5.8,4.47-1.6,6-3.15l-.13-2.36c-.59-.17-1.06-.49-1.41-.38a9.08,9.08,0,0,0-5.41,3.59Z"/><path class="cls-2" d="M236.21,51.66a2.43,2.43,0,0,0,2.85,1.42c2.35-.44,3.64-2,4.43-4.25a4.09,4.09,0,0,0-.5-1.18,5.34,5.34,0,0,0-1.3-.78c-1.69,1.25-3.39,2.49-5.06,3.78C236.43,50.79,236.4,51.17,236.21,51.66Z"/><path class="cls-2" d="M282.85,7.53c-.51,1.44-.94,2.72.69,3.82a7.35,7.35,0,0,0,5.19-3.87c.42-.86.49-1.78-1-2.34A21.19,21.19,0,0,0,282.85,7.53Z"/><path class="cls-2" d="M220.63,11.08V8.8c-.48-.22-.93-.63-1.27-.55-2.58.57-3.17,1-5.13,3.35.81,1.62,1.44,2.09,2.58,1.82A6.07,6.07,0,0,0,220.63,11.08Z"/><path class="cls-2" d="M295,89.67c-.8,1.24-.57,1.93-.1,2.58a3,3,0,0,0,2.34,1.22,4.36,4.36,0,0,0,3.69-1.41,2.52,2.52,0,0,0,.67-3l-1.22-.64c-.5.26-1,.52-1.55.81s-.76.49-1.07.68Z"/><path class="cls-2" d="M266.71,50.73a9.71,9.71,0,0,0,2.21,3.91,7.29,7.29,0,0,0,4.14-3.4l-.9-1.64C270.18,49.14,268.29,48.71,266.71,50.73Z"/><path class="cls-3" d="M308.78,105c.57,1.86,1.91,2.18,3.23,2.56a4.91,4.91,0,0,0,3.91-3.11l-.71-1.49c-.46-.17-.62-.29-.74-.26-1.71.46-3.41.92-5.1,1.44C309.16,104.16,309,104.56,308.78,105Z"/><path class="cls-2" d="M330.62,67.15l-1.34,1.47,1.42,2a6.91,6.91,0,0,0,5.1.16,2.15,2.15,0,0,0,1.46-3.05c-.43-.13-1-.5-1.53-.41C333.94,67.65,332.17,68,330.62,67.15Z"/><path class="cls-2" d="M225.4,72.35c.18,1.78.61,2.85,2.36,3,1.39-.79,2.18-2.27,3.08-3.53-.33-1.48-.33-1.48-1.37-2.21C227.57,69.66,226.61,71.1,225.4,72.35Z"/><path class="cls-2" d="M172.76,31.64a19.35,19.35,0,0,0-.2,4.2c.07.82,0,1.65,0,2.48a1.47,1.47,0,0,0,.1.48.37.37,0,0,0,.41.31c.22-.27.49-.58.74-.9s.68-.84,1-1.27a6,6,0,0,1,1.07-1,7.21,7.21,0,0,1,1.31-.91.3.3,0,0,1,.43.11c0,.08,0,.18,0,.24a10,10,0,0,0-.6,2.78,5.52,5.52,0,0,1-.49,1.78,9.69,9.69,0,0,1-1,2,1.26,1.26,0,0,0-.23,1.17,7.11,7.11,0,0,1,1.35,1.75l2.62,1.79c.23.46.36.89,0,1.31l-.7.08-.4-.38a9.8,9.8,0,0,0-2.88-.36,3.36,3.36,0,0,1-1.66,0c-.67-.19-1.15-.79-1.9-.65a25,25,0,0,1-1.57,2.06,3.66,3.66,0,0,0-.83,1.54,4.89,4.89,0,0,0-.94,1.09,3.08,3.08,0,0,1-1.35,1.4c-.06,0-.15,0-.34,0l-.21-.26a8.09,8.09,0,0,1,.2-1.59,17.88,17.88,0,0,0,.82-3.36c.11-.78.18-1.56.35-2.32a4.8,4.8,0,0,0-.28-3.05c-1,0-1.7-.81-2.35-.91A5,5,0,0,1,163,38.61l.07-.61.82-.51,1.62.07a4.31,4.31,0,0,1,2.45-.89l1,.56.74-.62c.23-.89.88-1.59,1.06-2.5s.88-1.58,1.11-2.49l.81-.26C172.7,31.49,172.77,31.57,172.76,31.64Zm-5.48,9.18a4.56,4.56,0,0,0,2.78.39.73.73,0,0,1,.24,0,.55.55,0,0,1,.2.8c-.47.2-1.14.1-1.51.66-.22,1-.16,2.12-.44,3.14a31,31,0,0,0-.54,3.06,3,3,0,0,0,0,.74,1.42,1.42,0,0,0,.2.43c.77-.32.85-1.27,1.48-1.4.37-.66.61-1.19.94-1.66a3.82,3.82,0,0,0,.63-1.19,2.52,2.52,0,0,1,.48-.69h.78l1.14,1,1.7.37.79-.3c0-.12-.06-.25-.13-.32s-.47-.27-.56-.47c-.36-.78-1.23-1.12-1.62-2V43a6.55,6.55,0,0,1,1.62-2.13c.2-.7.39-1.34.55-2a8.27,8.27,0,0,0,.17-1.23.52.52,0,0,0-.32-.54c-.25.35-.48.71-.75,1s-.58.58-.83.9a4.87,4.87,0,0,1-.6.62,3.92,3.92,0,0,0-.73.83,2.38,2.38,0,0,1-1.13,1l-.41-.39a7.29,7.29,0,0,0,.19-1.62c-.05-.5.06-1,0-1.49a8.88,8.88,0,0,1,.07-2.23,2.48,2.48,0,0,0-.05-.49,10.68,10.68,0,0,0-2.15,3.21c-.3.23-.58.58-1.19.41l-.62-.93-.77-.24c-.34.17-.66.35-1,.51s-.68.28-1.09.45l-.12.41,1.47,1.27C166.51,40.52,166.91,40.65,167.28,40.82Z"/><path class="cls-2" d="M307.36,28.78c.38-.24.73-.52,1.08-.78l2,0a1.17,1.17,0,0,1,1,.46,2.55,2.55,0,0,1,.15.72,6.75,6.75,0,0,0,0,1.21,1,1,0,0,1,0,.37,6.1,6.1,0,0,1-1.93,3.07,1.79,1.79,0,0,0-.9,1c0,.1-.19.15-.26.24a7.64,7.64,0,0,0-1.13,1.44c-.32.63-1,1-1.3,1.63l-1.4,1-.45-.1c-.08-.24-.19-.51-.25-.78a4.29,4.29,0,0,0-.21-1.09,8.65,8.65,0,0,1-.87-2.55c-.06-.3-.22-.61-.28-.94a4.18,4.18,0,0,0-.39-1.16,3.5,3.5,0,0,1-.3-2.32l.43-.48a4.7,4.7,0,0,1,.67-1.91c.25-.16.61-.35.94-.59a1.59,1.59,0,0,1,1.64-.22c.62.57.37,1.24.47,1.88A1.06,1.06,0,0,0,307.36,28.78Zm-2.93-.3a.63.63,0,0,0,.06-.22c-.12-.17-.13-.17-.69.41l.24.26C304.19,28.78,304.32,28.64,304.43,28.49Z"/><path class="cls-2" d="M195.48,72.53c.25-.5.8-.56,1.21-.82a.4.4,0,0,1,.57.14L197.14,73c-.28.72-.47,1.31-.74,1.87s-.26,1-.53,1.52c-.49.9-.91,1.84-1.42,2.89l0,.68a13.89,13.89,0,0,0,2.28,2.86l.75.32c.22.09.51-.16.74.23v.54c-.3.1-.57.18-.83.29s-.51.26-.71.37a5.26,5.26,0,0,1-2.4-.69c-.5-.29-1-.55-1.53-.83a1,1,0,0,0-1-.06,9.07,9.07,0,0,1-.92,1.53,18.49,18.49,0,0,0-1,1.69,8,8,0,0,0-.72,1.64l-1.13.57a1.91,1.91,0,0,1-.27-.15l-.41-.37a14.12,14.12,0,0,0,.1-2,15.82,15.82,0,0,1,.13-2.73,14.74,14.74,0,0,0,.2-3c0-.14.12-.3.19-.46l-.47-.66a7.07,7.07,0,0,1-2.76-.94,1.6,1.6,0,0,0-1.31-.2,1.45,1.45,0,0,1-.49,0c-.07,0-.14-.08-.22-.12-.15-.35,0-.63.27-.93a2.33,2.33,0,0,0,1.27-1,8.58,8.58,0,0,1,3-.49l.75-.52a3.13,3.13,0,0,0,.36-.74,3.5,3.5,0,0,1,.66-1.32,4,4,0,0,0,.6-1.21,7.67,7.67,0,0,1,.85-1.5c.14-.27.44-.36.83-.19a5.83,5.83,0,0,1,.4,1.48c0,.59.37,1.11.35,1.68a3.55,3.55,0,0,0,.67,2A37.32,37.32,0,0,1,195.48,72.53Zm-9.08,5.21,1.75.2.53.5a3.32,3.32,0,0,1,.05.4,6.7,6.7,0,0,0,0,1.73,1.53,1.53,0,0,1-.1.73,10.6,10.6,0,0,0-.19,5.62l.28.09a9.14,9.14,0,0,0,1.61-3.47c.65-.41.82-1.25,1.29-1.82a2.43,2.43,0,0,1,2.21.67,1.13,1.13,0,0,0,.3.21c.16.06.32.06.4-.13s0-.11,0-.13l-1.08-1.19a3.07,3.07,0,0,1,.29-2.41c.28-.51.49-1.05.76-1.56a2.86,2.86,0,0,1,.46-.5c0-.86.59-1.65.58-2.64l-.48-.15a20.18,20.18,0,0,0-1.83,2,8.4,8.4,0,0,1-1.4,1.4l-.49-.21a16.24,16.24,0,0,1-.39-1.94,8.17,8.17,0,0,0-.64-2.5.47.47,0,0,0-.52.27,11.44,11.44,0,0,0-.55,1.23c-.27.73-.49,1.48-.76,2.21a2.17,2.17,0,0,1-.36.49,3.61,3.61,0,0,0-1.86-.27,2.59,2.59,0,0,0-.86.45Z"/><path class="cls-2" d="M116.4,193.82c3.5.8,4.47-1.6,6-3.15l-.13-2.36c-.59-.17-1.06-.49-1.41-.38a9.08,9.08,0,0,0-5.41,3.59Z"/><path class="cls-2" d="M73.21,97.66a2.43,2.43,0,0,0,2.85,1.42c2.35-.44,3.64-2,4.43-4.25a4.09,4.09,0,0,0-.5-1.18,5.34,5.34,0,0,0-1.3-.78c-1.69,1.25-3.39,2.49-5.06,3.78C73.43,96.79,73.4,97.17,73.21,97.66Z"/><path class="cls-2" d="M119.85,125.53c-.51,1.44-.94,2.72.69,3.82a7.35,7.35,0,0,0,5.19-3.87c.42-.86.49-1.78-1-2.34A21.19,21.19,0,0,0,119.85,125.53Z"/><path class="cls-2" d="M57.63,129.08V126.8c-.48-.22-.93-.63-1.27-.55-2.58.57-3.17,1-5.13,3.35.81,1.62,1.44,2.09,2.58,1.82A6.07,6.07,0,0,0,57.63,129.08Z"/><path class="cls-2" d="M103.71,96.73a9.71,9.71,0,0,0,2.21,3.91,7.29,7.29,0,0,0,4.14-3.4l-.9-1.64C107.18,95.14,105.29,94.71,103.71,96.73Z"/><path class="cls-2" d="M167.62,185.15l-1.34,1.47,1.42,2a6.91,6.91,0,0,0,5.1.16,2.15,2.15,0,0,0,1.46-3.05c-.43-.13-1-.5-1.53-.41C170.94,185.65,169.17,186,167.62,185.15Z"/><path class="cls-2" d="M62.4,190.35c.18,1.78.61,2.85,2.36,3,1.39-.79,2.18-2.27,3.08-3.53-.33-1.48-.33-1.48-1.37-2.21C64.57,187.66,63.61,189.1,62.4,190.35Z"/><path class="cls-2" d="M9.76,149.64a19.35,19.35,0,0,0-.2,4.2c.07.82,0,1.65,0,2.48a1.47,1.47,0,0,0,.1.48.37.37,0,0,0,.41.31c.22-.27.49-.58.74-.9s.68-.84,1-1.27a6,6,0,0,1,1.07-1,7.21,7.21,0,0,1,1.31-.91.3.3,0,0,1,.43.11c0,.08,0,.18,0,.24a10,10,0,0,0-.6,2.78,5.52,5.52,0,0,1-.49,1.78,9.69,9.69,0,0,1-1,2,1.26,1.26,0,0,0-.23,1.17,7.11,7.11,0,0,1,1.35,1.75l2.62,1.79c.23.46.36.89,0,1.31l-.7.08-.4-.38a9.8,9.8,0,0,0-2.88-.36,3.36,3.36,0,0,1-1.66,0c-.67-.19-1.15-.79-1.9-.65a25,25,0,0,1-1.57,2.06,3.66,3.66,0,0,0-.83,1.54,4.89,4.89,0,0,0-.94,1.09A3.08,3.08,0,0,1,4,170.74c-.06,0-.15,0-.34,0l-.21-.26a8.09,8.09,0,0,1,.2-1.59,17.88,17.88,0,0,0,.82-3.36c.11-.78.18-1.56.35-2.32a4.8,4.8,0,0,0-.28-3.05c-1,0-1.7-.81-2.35-.91A5,5,0,0,1,0,156.61L.07,156l.82-.51,1.62.07A4.31,4.31,0,0,1,5,154.67l1,.56.74-.62c.23-.89.88-1.59,1.06-2.5s.88-1.58,1.11-2.49l.81-.26C9.7,149.49,9.77,149.57,9.76,149.64Zm-5.48,9.18a4.56,4.56,0,0,0,2.78.39.73.73,0,0,1,.24,0,.55.55,0,0,1,.2.8c-.47.2-1.14.1-1.51.66-.22,1-.16,2.12-.44,3.14A31,31,0,0,0,5,166.92a3,3,0,0,0,0,.74,1.42,1.42,0,0,0,.2.43c.77-.32.85-1.27,1.48-1.4.37-.66.61-1.19.94-1.66a3.82,3.82,0,0,0,.63-1.19,2.52,2.52,0,0,1,.48-.69h.78l1.14,1,1.7.37.79-.3c0-.12-.06-.25-.13-.32s-.47-.27-.56-.47c-.36-.78-1.23-1.12-1.62-2V161a6.55,6.55,0,0,1,1.62-2.13c.2-.7.39-1.34.55-2a8.27,8.27,0,0,0,.17-1.23.52.52,0,0,0-.32-.54c-.25.35-.48.71-.75,1s-.58.58-.83.9a4.87,4.87,0,0,1-.6.62,3.92,3.92,0,0,0-.73.83,2.38,2.38,0,0,1-1.13,1l-.41-.39a7.29,7.29,0,0,0,.19-1.62c-.05-.5.06-1,0-1.49a8.88,8.88,0,0,1,.07-2.23,2.48,2.48,0,0,0-.05-.49,10.68,10.68,0,0,0-2.15,3.21c-.3.23-.58.58-1.19.41L4.58,156l-.77-.24c-.34.17-.66.35-1,.51s-.68.28-1.09.45l-.12.41,1.47,1.27C3.51,158.52,3.91,158.65,4.28,158.82Z"/><path class="cls-2" d="M144.36,74.78c.38-.24.73-.52,1.08-.78l2,0a1.17,1.17,0,0,1,1,.46,2.55,2.55,0,0,1,.15.72,6.75,6.75,0,0,0,0,1.21,1,1,0,0,1,0,.37,6.1,6.1,0,0,1-1.93,3.07,1.79,1.79,0,0,0-.9,1c0,.1-.19.15-.26.24a7.64,7.64,0,0,0-1.13,1.44c-.32.63-1,1-1.3,1.63l-1.4,1-.45-.1c-.08-.24-.19-.51-.25-.78a4.29,4.29,0,0,0-.21-1.09,8.65,8.65,0,0,1-.87-2.55c-.06-.3-.22-.61-.28-.94a4.18,4.18,0,0,0-.39-1.16,3.5,3.5,0,0,1-.3-2.32l.43-.48a4.7,4.7,0,0,1,.67-1.91c.25-.16.61-.35.94-.59a1.59,1.59,0,0,1,1.64-.22c.62.57.37,1.24.47,1.88A1.06,1.06,0,0,0,144.36,74.78Zm-2.93-.3a.63.63,0,0,0,.06-.22c-.12-.17-.13-.17-.69.41l.24.26C141.19,74.78,141.32,74.64,141.43,74.49Z"/></g></g></g></svg>