<svg xmlns="http://www.w3.org/2000/svg" viewBox="0 0 52.56 323.56"><title>svg_orange-vine</title><g id="Layer_2" data-name="Layer 2"><g id="Plane_4" data-name="Plane 4"><path d="M24.46,133.33a5.3,5.3,0,0,1,.31,3.09,5.53,5.53,0,0,0,.17,2.55,10.77,10.77,0,0,1,.31,4.54,23.64,23.64,0,0,0,.07,5.44,4.43,4.43,0,0,0,.31,1.09,5,5,0,0,1,.18,2.54c-.13.85-.25,1.7-.46,2.53a7.26,7.26,0,0,0-.23,2.27,6.15,6.15,0,0,1-.24,2,3.91,3.91,0,0,0,.25,2.79,11.93,11.93,0,0,1,.43,1.36,3.72,3.72,0,0,0,.45,1,14,14,0,0,1,1.85,3.72c.58,1.91-.25,3.33-.31,4.84l1.22.23,3.2,2.32a15.93,15.93,0,0,1,3.91,4.15c.79,1.19,1.65,2.34,2.41,3.55a32.77,32.77,0,0,1,3.84,9.2c.23.82.44,1.66.65,2.46,0,.59,0,1.17.11,1.74a17,17,0,0,1-.12,5.42,59,59,0,0,1-.71,6.26,18.07,18.07,0,0,1-1.8,5.71,10.26,10.26,0,0,1-2.19,3,49.45,49.45,0,0,1-5.88,5.19l-2.81,1.18a7.09,7.09,0,0,0-2.22,2.93,14.82,14.82,0,0,1-2.22,3,9.65,9.65,0,0,1-2.7,2.52c-.07,0-.11.16-.16.24a25.25,25.25,0,0,0-.21,5.71,2.77,2.77,0,0,1-.07,1.14c-.68,2-.29,4.18-.61,6.25a6.81,6.81,0,0,0,.2,2.56,38,38,0,0,1,1,6.51,10.73,10.73,0,0,0,.27,1.69,23.73,23.73,0,0,1,.64,5.12,10.41,10.41,0,0,0,.58,3.37c.37,1.08.63,2.2,1,3.5a7.21,7.21,0,0,1,1.91,3.25,35.94,35.94,0,0,0,2.57,4.13,24.87,24.87,0,0,1,1.5,2.15l-.07,2L29.25,281c-.65,1.33-1.36,2.79-2.07,4.25a1.81,1.81,0,0,0-.17.54,21.62,21.62,0,0,1-1.93,5.36,10,10,0,0,0,0,3.69A2.36,2.36,0,0,1,25,296a8,8,0,0,0-.18,2.85,57.16,57.16,0,0,0,.41,6,4.11,4.11,0,0,1,0,1.14c0,.47-.14.94-.22,1.45.13.61.3,1.25.39,1.9s.08,1.14.1,1.55A16.36,16.36,0,0,0,28,315.32l.71,2.36L27.06,321l-1.7,1.9-1.93.61a1.49,1.49,0,0,1-.34-.05,7.13,7.13,0,0,1-2.74-2.45,3.69,3.69,0,0,1-.68-1.87c-.07-.86-.1-1.72-.15-2.48.74-2.22,1.67-4.18,3.44-5.43a6.15,6.15,0,0,0,.69-2.91,40.47,40.47,0,0,0-.25-4.29c-.25-2-.28-4-.39-6-.09-1.72-.17-3.43-.25-5.19a31.56,31.56,0,0,1-3.34-6l-1.47-1.33a5.3,5.3,0,0,1-.84-.78,25.28,25.28,0,0,0-3.46-3.65,2.3,2.3,0,0,1-.23-1.57L14.58,278c.4-.54.81-1.06,1.19-1.61a37.63,37.63,0,0,0,5.11-9.24,10.23,10.23,0,0,0,.61-5.33,9.64,9.64,0,0,0-.49-2.52.82.82,0,0,1-.06-.56,4.45,4.45,0,0,0-.14-2.26,7.23,7.23,0,0,1,0-1.14,2.56,2.56,0,0,0,0-.57c-.47-1.86-.42-3.8-.9-5.65a13,13,0,0,1-.28-5.12,35,35,0,0,1,.58-4.54c0-2,.47-4,.15-6-.09-.56-.08-1.14-.11-1.77a24.72,24.72,0,0,1-3-3.75,38,38,0,0,1-2-3.78,3,3,0,0,0-1.48-.88,39.18,39.18,0,0,1-5.11-2L7.4,220.16a5.92,5.92,0,0,1-1.62-1.61c-.53-1-1.49-1.75-1.82-2.9a3.78,3.78,0,0,0-.64-1.27A22.05,22.05,0,0,1,.7,209.63l-.57-1.31a9.46,9.46,0,0,1,0-3.14,7.24,7.24,0,0,0,.09-1.71,36,36,0,0,1,.24-5.72c.14-1,.26-2.08.4-3.12a1.76,1.76,0,0,1,.14-.55,54.38,54.38,0,0,0,2.11-6.24,14.78,14.78,0,0,1,1.16-2.61,29.36,29.36,0,0,1,3.47-4.9c.58-.64,1.13-1.3,1.7-1.95a10.36,10.36,0,0,1,1-1c.94-.8,1.91-1.57,2.93-2.4l3.32-.85,1.65.16a2.43,2.43,0,0,0,.27-.83,6.48,6.48,0,0,1,1.23-4c.7-1.14,1.49-2.22,2.26-3.31a6.55,6.55,0,0,0,1.12-2.25c.09-.77-.44-1.29-.56-2s-.3-1.1-.47-1.65l.63-.88-.28-1.43a28.36,28.36,0,0,0,1.16-3.23,22.26,22.26,0,0,0,.31-3.13l.06-.72a25.25,25.25,0,0,1-.78-7,2.76,2.76,0,0,1,0-.86,8.13,8.13,0,0,0-.36-4.84,6.6,6.6,0,0,0-.21-4.31c.08-1.09.19-2,.22-3s0-1.72,0-2.58.21-1.51.23-2.27a7.4,7.4,0,0,0-.42-3.39,2.45,2.45,0,0,1-.08-1.69,3.06,3.06,0,0,0-.11-1.68,6.34,6.34,0,0,1-.26-2,40.56,40.56,0,0,1,.59-6.56,28.74,28.74,0,0,0,.75-5.15,4.87,4.87,0,0,1-.51-2.7A13.28,13.28,0,0,0,23,99.73c-.12-1.14-.23-2.28-.35-3.42a5.57,5.57,0,0,0,0-.57,14.47,14.47,0,0,1-.46-2.23,22,22,0,0,1,.25-2.27c0-.76,0-1.53,0-2.29a7.83,7.83,0,0,1,0-1.43,29.45,29.45,0,0,0,.11-6,19.66,19.66,0,0,1,.11-4.86,62.23,62.23,0,0,0-.41-7.45,2.43,2.43,0,0,0-.24-.82,4.24,4.24,0,0,1-.36-1.67c-.07-1-.16-2.1-.24-3.15A11.49,11.49,0,0,0,17.84,56a2.86,2.86,0,0,1-.32-.47,1.64,1.64,0,0,1,.25-1.87c1.14-1.29,2.16-2.67,3.18-4.05a12,12,0,0,0,2.62-4.7,12.54,12.54,0,0,0-.07-3.74c-.1-1.26.53-2.44.2-3.91-.5-.78-1-1.79-1.55-2.81-.85-1.7-1.68-3.44-3-4.4a2,2,0,0,1-.07-1.71c.66-1.48,1.23-3,2-4.43a39.33,39.33,0,0,0,2-5,28.34,28.34,0,0,0,.5-4.26c-.06-1.53-.07-3.06-.1-4.59a3,3,0,0,1,0-.86A15.18,15.18,0,0,0,23.6,4a12.88,12.88,0,0,1,0-2.86,1.43,1.43,0,0,1,.56-1,.55.55,0,0,1,.77,0c.25.28.47.59.59.75a3.4,3.4,0,0,1,.2,2.15,16.62,16.62,0,0,0-.16,3.42c-.06,1.72.05,3.43-.15,5.15a29.15,29.15,0,0,0,.06,4.3c0,.86.1,1.72.13,2.37a41.57,41.57,0,0,0,2,4.65,35,35,0,0,0,2.43,4.12,12.8,12.8,0,0,1-1.71,3.67,29.38,29.38,0,0,0-2.66,5.69,24.33,24.33,0,0,1-.22,6,5,5,0,0,1,.4,1.09,11.75,11.75,0,0,0,1.63,4.24c.68,1.26,1.27,2.56,2,3.95l0,2a2.59,2.59,0,0,1-.2.47c-1.49,1.75-2.56,3.79-3.9,5.64a3.06,3.06,0,0,0-.53,1A11.11,11.11,0,0,1,24,62.63a5.33,5.33,0,0,0-.38,4.17,5,5,0,0,1,.26,1.4c.14,2,.26,4,.37,6a9.2,9.2,0,0,1-.11,2.28,8.58,8.58,0,0,0-.09,1.71c0,1.62.07,3.25.1,4.87a6,6,0,0,1,0,1.14A18.38,18.38,0,0,0,24,88.52a8.39,8.39,0,0,1-.22,3.13,1.41,1.41,0,0,0-.08.57,42,42,0,0,0,.54,5.41,9.2,9.2,0,0,1,.38,1.67c.08,1.73.7,3.36.87,5.08a4.46,4.46,0,0,0,1.08,2.18,14.49,14.49,0,0,0,1.39.7c2.94,1.14,6,1.9,9,2.85l1.87.57,1.37,1.14,1.12,1,.37,2.37a3.32,3.32,0,0,0,1.39,1.21,6.73,6.73,0,0,1,2.28,1.7,12.63,12.63,0,0,0,2.43,2l2.27,1.62c1.16,1.32,1.28,2.72,1.87,3.73.2,2.74.41,5.32.57,7.89a14,14,0,0,1-.19,3.13c-.27,1.69-.48,3.39-.92,5.06a5.07,5.07,0,0,0-.08,1.43c0,.86.09,1.72.13,2.29-.09.92-.65,1.22-1,1.69s-.61,1-.88,1.37c-.69.16-1-.2-1.2-.66-.17-.68.2-1.29.29-1.95s.26-1.31.34-2a3.47,3.47,0,0,0-.94-2.93,14.16,14.16,0,0,0-4.25-1.57,26.67,26.67,0,0,1-4.82-1.81,7.87,7.87,0,0,1-1.25-.7,12,12,0,0,1-1-.91l-1.43-3.06L35,130.81c-.86-1.66-1.89-3.24-4-3.71a2.87,2.87,0,0,1-1.79-1.34c-.47-.72-.91-1.46-1.33-2.12a14.45,14.45,0,0,1-.27-4.64c.56-1.89.26-3.79.12-5.8a12.18,12.18,0,0,0-2.31-3.14.46.46,0,0,0-.26-.08,1.35,1.35,0,0,0-.3.06c-.13.72-.28,1.47-.39,2.22s-.14,1.33-.2,2a5.61,5.61,0,0,1-.06.86,8,8,0,0,0,.2,4.52c.27,2.56.88,5.09.35,7.69a6.11,6.11,0,0,0,0,1.71A13.28,13.28,0,0,1,24.46,133.33ZM34.56,112c0-.18,0-.55-.35-.25l.42.17c.12.51.59.72.9,1.07a4.12,4.12,0,0,1,.84,1.13c.44,1.17,1.28,2.14,1.7,3.29s1.34,2.29,1.9,3.49a4.28,4.28,0,0,0,1.94,2,10.93,10.93,0,0,1,3.42,3c.54.67,1.11,1.3,1.63,1.9a31.72,31.72,0,0,1,2.39,5.56c.21.73.37,1.47.62,2.18.08.21.39.34.64.55a5.17,5.17,0,0,0,.26-2.56c0-.76,0-1.53-.09-2.29s-.18-1.71-.27-2.56a8,8,0,0,0-.44-2.23,15.52,15.52,0,0,1-.58-2.33c-1.2-1.65-3-2.29-4.51-3.43a6.83,6.83,0,0,0-2.66-2.35,7.77,7.77,0,0,1-1-.63,2.81,2.81,0,0,1-1.4-2.35c0-.37-.06-.75-.08-1.07a6.42,6.42,0,0,0-2-1.71c-.72-.21-1.44-.46-2.18-.62A4.75,4.75,0,0,0,34.56,112ZM27.11,222.73a6.45,6.45,0,0,1,2.09-1.52,7,7,0,0,0,2.75-1.48,30.84,30.84,0,0,0,2.41-2,11,11,0,0,1,1.27-1.15c.36-.32.74-.61,1.07-1a14.7,14.7,0,0,0,3.61-7.35c.21-.93.18-1.93.47-2.82.37-1.12.12-2.3.47-3.4s0-2.28.08-3.42c0-.67-.1-1.34-.1-2a13.49,13.49,0,0,0-.77-4.5,8.79,8.79,0,0,0-.51-1.33,10,10,0,0,1-.86-2.11,11.9,11.9,0,0,0-1.48-3.4c-1-1.52-2.23-2.87-3.15-4.44a4,4,0,0,0-.59-.62c-.52-.56-1-1.13-1.56-1.68a7.61,7.61,0,0,0-.82-.78c-.83-.64-1.67-1.26-2.5-1.88-.49-.11-1-.19-1.41-.34a3.37,3.37,0,0,0-1.71-.29,21.64,21.64,0,0,1-8.16.61c-.56.14-1.12.29-1.68.4s-1.31.22-1.79.3A23.71,23.71,0,0,0,9,181.27a29.23,29.23,0,0,0-2,2.47A13.85,13.85,0,0,0,5,187.8c-.63,2-1.42,3.95-2.1,5.94a9.51,9.51,0,0,0-.74,3.34c.07,1.92-.4,3.81-.27,5.72a3.91,3.91,0,0,1-.09,1.14,9.16,9.16,0,0,0,0,3.13l.93,2.72c.84,1,1.11,2.43,2.07,3.42a3.39,3.39,0,0,1,.67,1.25,5.37,5.37,0,0,0,.82,1.5c.46.61.88,1.25,1.32,1.87,1.34.91,2.52,2.07,4.19,2.41l1.87.08,2.53,1.28a14.22,14.22,0,0,1,4,.75c.15.66.15.66-.32,1.26-.65.48-1.53.22-2.16.75a10.18,10.18,0,0,0,1.21,2.57,7.6,7.6,0,0,0,.75,1.22,3.44,3.44,0,0,0,1.3,1.1,3.39,3.39,0,0,0,.62.17l1.23-.64A42.36,42.36,0,0,0,27.11,222.73Zm8-107.23a30.76,30.76,0,0,0-6-4.65c-.06.1-.17.2-.15.27a8.45,8.45,0,0,1,.4,1.35,21.26,21.26,0,0,1,.12,6.28,15.9,15.9,0,0,0-.17,2.57,3.09,3.09,0,0,0,.52,1.91c.32.47.66.92.91,1.27a18,18,0,0,1,3.37,1.72l2,2.61c0,1.9,1.1,3.42,1.68,5l2.5,1.91,7.56,2.19c.06,0,.15-.05.23-.08s.15-.14.17-.23a2,2,0,0,0,0-.57,17.47,17.47,0,0,0-2.07-6.5,10.15,10.15,0,0,0-2-2.76c-.69-.65-1.3-1.4-2-2.17a9.66,9.66,0,0,1-3.23-2.49A73.43,73.43,0,0,1,35.09,115.5ZM23.38,289.7c.33-.29.52-.39.61-.55a11.8,11.8,0,0,0,1.07-2.64,35,35,0,0,1,1.82-4.81A8.56,8.56,0,0,1,28.5,279a2.18,2.18,0,0,0,.32-.72,1.32,1.32,0,0,0-.09-.33,40.23,40.23,0,0,1-3.65-6.43,5.28,5.28,0,0,0-.61-1,15.57,15.57,0,0,1-1-1.38,14,14,0,0,1-.66-1.67c-.23.21-.49.35-.58.55-2,4.41-1.75,4.37-4.36,8a5.84,5.84,0,0,0-.61,1,14.05,14.05,0,0,1-1.34,2.19,2.61,2.61,0,0,0-.22.84,21.37,21.37,0,0,0,2.48,2.76c.94.8,1.86,1.63,2.66,2.35A33.45,33.45,0,0,0,23.38,289.7ZM20.2,54.33a8.56,8.56,0,0,0,1.31,3,6.09,6.09,0,0,1,1,2.64c.23-.08.46-.09.53-.2.83-1.27,1.63-2.55,2.46-3.82.57-.87,1.17-1.72,1.73-2.6a5.83,5.83,0,0,0,.4-.92c-.4-2-1.69-3.3-2.56-4.86-.07-.12-.25-.17-.38-.25-.11.17-.23.32-.32.48A16.31,16.31,0,0,1,21.5,52,6,6,0,0,0,20.2,54.33Zm7.27-26a9.51,9.51,0,0,0-1.19-3.35,17.45,17.45,0,0,1-1.09-2.62,2.66,2.66,0,0,0-.88-1.47c-.77,2.68-2.27,5-3.21,7.67,1,1.71,2.09,3.42,3.14,5.12a2.29,2.29,0,0,0,.37.37,2.26,2.26,0,0,0,.31-.47A13.76,13.76,0,0,1,26.68,30,8.81,8.81,0,0,0,27.47,28.29Zm-3.3,284.56a6.17,6.17,0,0,0-2.28,2.24c-.14.46-.29.91-.43,1.37a4.22,4.22,0,0,0,0,2.27,3,3,0,0,0,2.19,2.45l1-.46c.49-1,1.4-1.81,1.75-3.05l0-1.63c-.34-.47-.68-.92-1-1.39S25,313.37,24.17,312.85ZM26.46,169.9l-.93-3c-.39-.5-.62-1.05-1.21-1.25a36.79,36.79,0,0,0-4,6.83l.1.78.49.35a16.48,16.48,0,0,0,4.4-1c.16,0,.28-.24.49-.44Z"/></g></g></svg>