<svg xmlns="http://www.w3.org/2000/svg" viewBox="0 0 166.93 100.57"><title>svg_hanging-fern</title><g id="Layer_2" data-name="Layer 2"><g id="Plane_4" data-name="Plane 4"><path d="M5,55a14.6,14.6,0,0,0,3.64-1.93,16.38,16.38,0,0,1,2.86-1.51,4,4,0,0,0,2.91.32.27.27,0,0,1,.23.13c0,.17.12.42,0,.53a3.63,3.63,0,0,1-.81.84c-1.06.73-2.18,1.36-3.2,2.14s-1.93,1.68-2.89,2.53l-2,5,.34,1.79c.38.17.74.31,1.08.5s.63.49,1,.67a7,7,0,0,0,1.06.35l3-1c.43-.33.89-.69,1.36-1,.28-.2.41-.18,1.13.11a8.23,8.23,0,0,1-.09,3.77c-.34,1.54-.66,3.09-1.11,4.6a15.21,15.21,0,0,0-.6,5.72,20.89,20.89,0,0,1,1.36,3.73,14.47,14.47,0,0,0,2.32,4.76,2,2,0,0,0,2,.08,7.09,7.09,0,0,0,4.07-4.46l.14-2.08a8.46,8.46,0,0,0,1-4.23c.26-.91.09-1.91.54-2.79.18.19.42.37.47.6a19.55,19.55,0,0,0,1.76,4.07l1.94.86,2.11-.17,1.61-1.66c.59-1.39,1.19-2.74,1.73-4.11a2.19,2.19,0,0,0-.26-2.25,4.66,4.66,0,0,1-.33-.65c0-.46,0-1.05,0-1.64a5.15,5.15,0,0,0-.68-2.84c-.53-.85-.37-1.92-.72-2.85,0-1.68-.07-3.36-.07-5a1.83,1.83,0,0,1,.36-.78s.19,0,.29,0a3.49,3.49,0,0,1,.61,1.62,68.71,68.71,0,0,0,1.57,8.13,7.35,7.35,0,0,0,1,2.55,4.44,4.44,0,0,1,2.25,2.12,3.81,3.81,0,0,0,.85,1.2c1.65,1.55,3.06,3.36,5,4.68l1.86.28a4.24,4.24,0,0,0,1.82-1.55,3.39,3.39,0,0,0,.24-.65c.12-1,.22-2,.33-2.94-.29-1.07-.58-2.11-.86-3.16A16,16,0,0,0,46,67a6.18,6.18,0,0,0-1.36-1.9,10,10,0,0,1-.9-1.16c-.12-.15-.19-.39-.34-.46-1.39-.66-2.17-2-3.26-2.84l-1.42-3.3A4.77,4.77,0,0,1,39,54.63c0-1-.54-1.58-.42-2.31,0-.29.08-.58.12-1a3.49,3.49,0,0,1,.72.57,8.5,8.5,0,0,1,.55,1l2.67,5,.74.55c.65.75.5,1.82.92,2.91l6.45,6.39L53,68.87a1.07,1.07,0,0,0,.33,0l1.31-.4c1.63-1.71,1.63-1.71,2.07-3.61-.28-2-1.89-3.42-2.41-5.17A16.85,16.85,0,0,1,53,58.28,7.64,7.64,0,0,1,52.43,57l-2.19-2.13-1.84-.35-1.51-1.46c-.55-.94-.59-1.86-1-2.66a20,20,0,0,1-.78-2.53c-.29-.83-.7-1.63-1-2.46a4.06,4.06,0,0,1-.22-1.15.63.63,0,0,1,.25-.48.58.58,0,0,1,.52,0,5.28,5.28,0,0,1,1.86,1.86,8.84,8.84,0,0,0,1.56,2.14A5.09,5.09,0,0,1,48.91,49a5.15,5.15,0,0,0,1,1.44,5.85,5.85,0,0,1,1.6,2.1,2.62,2.62,0,0,0,.74.91,5.87,5.87,0,0,1,1.52,2c1.79,1.23,3.79,2,5.21,3.62,1.52.15,3,.94,4.6,0l.86-1.47c.42-.71,0-1.7-.08-2.44a8.59,8.59,0,0,0-.73-2.83,3.43,3.43,0,0,0-.38-.61l.15-.1c.61-.52,1.16-1.11,1.75-1.68L68,44.31a32.15,32.15,0,0,1,2.49-3,4,4,0,0,0,.73-1.14c.69-1.32,1.36-2.65,2-4,.53-.42,1-.94,1.86-.68.09.17.28.37.27.56A9.94,9.94,0,0,1,74,41c-.44.67-.82,1.38-1.24,2.07a22.45,22.45,0,0,0-2.11,5.09,4.25,4.25,0,0,0-.15,1,16.53,16.53,0,0,0,1.27,8.42,8.48,8.48,0,0,1,.29.88c-.16,2.44.65,5,1,7.62a8.94,8.94,0,0,0,2,3.17,17.76,17.76,0,0,1,1.65,2.11,2.67,2.67,0,0,0,1.82.64,5.23,5.23,0,0,0,2.27-2.72,12.57,12.57,0,0,0,.94-3.3,16.77,16.77,0,0,0,0-4.79,4.91,4.91,0,0,1-.08-2,19.21,19.21,0,0,0,0-6.52,20.48,20.48,0,0,1,0-4.47,1,1,0,0,1,.8-1c1,.07,1.63.78,2.49,1.21l1,2.07a2.76,2.76,0,0,1-.11.76,10.44,10.44,0,0,0-1.08,3.62,8.6,8.6,0,0,1-.57,2.33,17.49,17.49,0,0,0-1.05,5.74,8.79,8.79,0,0,0,1.3,5.69l1.73,1a2.89,2.89,0,0,1,.44.52,8.17,8.17,0,0,1,.71,1.57c.32,1.22.59,2.45.82,3.68.17.9.23,1.82.34,2.71a31.68,31.68,0,0,0,3.81,7.36c1.11,1.43,2,3.14,4.45,4.33,1.24.4,1.24.4,3.17-.52l1.06-2.44.14-3.6A10.64,10.64,0,0,0,100.5,81a15.93,15.93,0,0,1-1-4.34,7.93,7.93,0,0,0-.19-1.36,4,4,0,0,1-.17-2.36A2.44,2.44,0,0,0,99,71.25c-.52-1-.17-2-.16-3.31-.41-1.18-.91-2.58-1.39-4a12.37,12.37,0,0,1-.94-4.35c.22,0,.5-.1.65,0,.66.45,1.27,1,1.93,1.47.57,1.88.5,3.87,1.31,5.7a55.42,55.42,0,0,1,1.82,5.58l.75,4.87c.67,1.1,1.64,1.58,2.32,2.35a8.4,8.4,0,0,1,1.48,3.8c.12,1.12.77,2.15.87,3.32A4,4,0,0,0,108.1,88c.3.62.62,1.23.93,1.85a13.21,13.21,0,0,0,3.31,4.77c.55.58,1.09,1.18,1.6,1.8a8,8,0,0,0,2.21,1.9c1.34.08,2.81.18,4-1,.13-3,.65-6,.23-9.14l-1.62-3.63a8.31,8.31,0,0,1-.81-1.9c-.3-1.87-1.36-3.4-2.05-5-.31-1.44-.63-2.77-.87-4.13a2.73,2.73,0,0,1,.21-1,2.84,2.84,0,0,1,2,1.3,73.58,73.58,0,0,1,6.55,11.32c1,2.07,2,4.13,3.09,6.17a18.6,18.6,0,0,0,1.34,2c.13.19.36.32.46.51a29.5,29.5,0,0,0,3.59,4.76l3.12,1.32c1,0,2,0,3.07.12s1.79.37,2.65.55a1.87,1.87,0,0,0,1.75-1.85c.07-.57,0-1.15.05-1.81a29.84,29.84,0,0,0-2-4.3c-.35-.51,0-1.11.71-1.23a2.45,2.45,0,0,1,1.35.1,9,9,0,0,1,.92.46c.81.43,1.59.93,2.43,1.28a5.56,5.56,0,0,1,2.26,1.53c1.36,1.67,3.39,2.33,5.05,3.54a1.33,1.33,0,0,0,.63.27,12.55,12.55,0,0,1,3.38,1.25c1.43.12,2.69.25,3.95.33a13.09,13.09,0,0,0,1.72,0,3,3,0,0,0,2.35-1.25c.27-.37.6-.7.85-1.09a2.49,2.49,0,0,0,.42-1.64c-.12-1-.29-2-.51-3.06A6.62,6.62,0,0,0,165,90.35c-1.44-1.79-2.87-3.59-4.41-5.29a14.37,14.37,0,0,1-2.66-4.78c-.07-.17.08-.43.13-.66a7.16,7.16,0,0,1,2.6-.67,8.67,8.67,0,0,0,1.35-.22,2.87,2.87,0,0,0,1.9-1.87,3.88,3.88,0,0,0-.64-3.9,17.32,17.32,0,0,0-3-2.85,32.34,32.34,0,0,0-2.83-2,9.26,9.26,0,0,0-2.21-.93c-1.33-.37-2.68-.64-4.17-1a7.79,7.79,0,0,0-3.41-2,13.39,13.39,0,0,1-3.13-1.41,11.25,11.25,0,0,0-2.22-.91l-2.58-1c-.39-.15-.53-.59-.35-1.17a1.45,1.45,0,0,1,.22-.32,4.67,4.67,0,0,1,3.63-.21c1.65.53,3.36.79,5,1.15a21,21,0,0,0,7.53.45,26.09,26.09,0,0,1,2.84.17l3.26-1.65a2.78,2.78,0,0,0,.39-3.25,6.84,6.84,0,0,0-1.31-2,24.54,24.54,0,0,0-4.63-4c-3.36-1-6.72-1.74-9.76-3.57-1.23,0-2.48.1-3.74.08s-2.52-.11-3.78-.21-2.52-.25-3.81-.39c-2.66.56-5.35,1.3-8.32.13-1.72-1.09-3.89-2-5.25-4a3.47,3.47,0,0,1,.07-.65,1.12,1.12,0,0,1,1-.86,23.43,23.43,0,0,1,2.4-.06c2.71,0,3.25.16,5.92,1.6.75.11,1.55.25,2.35.34a3.58,3.58,0,0,0,1.37,0,18.7,18.7,0,0,1,4.78-.29,28.2,28.2,0,0,0,3.4-.46,3.4,3.4,0,0,0,1-.33q1.85-.93,3.67-1.91a2.49,2.49,0,0,0,.83-.6c.87-1.15,2.24-1.59,3.33-2.38a7.86,7.86,0,0,0,1.49-3.79,6.94,6.94,0,0,0-2.7-2.82,42.34,42.34,0,0,0-8.63-.67,22.07,22.07,0,0,0-8.08-.64c-1.41.29-2.57,1.31-3.69,1.79L123,32.22l-3.56-.13c0-.51,0-1,0-1.47s0-1,0-1.44l.93.08a12,12,0,0,0,3.79-1.08,21.92,21.92,0,0,1,2.28-.78,10.16,10.16,0,0,0,4.22-2.26A6.9,6.9,0,0,1,132.42,24c2.76-1.43,5.5-2.89,8.14-4.29a5,5,0,0,0,2-3.67c-.16-1.71-1.48-2.73-2.52-3.94a6.31,6.31,0,0,0-2.94-.89,40.08,40.08,0,0,0-5.85.22,13.93,13.93,0,0,0-2.66.75c-1.71,1.29-1.71,1.29-4.7,2-.48-.17-1-.35-1.56-.56s-1.06-.45-1.07-.45A7.33,7.33,0,0,0,117,14c-.45.23-.92.44-1.38.66-.57-.76-1.16-1.51-1.74-2.26s-1-1.22-1.49-1.85l-1.26-.71a7.74,7.74,0,0,0,1.48-1.31,7.78,7.78,0,0,1,1.6-1.16,7.06,7.06,0,0,0,1.19-3.07c-.15-.31-.32-.73-.54-1.13-.34-.6-.72-1.17-1.06-1.73A21.09,21.09,0,0,0,110,0a32.46,32.46,0,0,0-6.9.87,16.23,16.23,0,0,0-4.6,1.37,15.63,15.63,0,0,0-5.42,2.15c-2.13,1.12-4.28,2.2-6.43,3.28l-.4-.08L82,8.82C80,8.3,78,8.05,76,7.64a8.63,8.63,0,0,1-1-.15,13.51,13.51,0,0,0-6.8-.43,1.27,1.27,0,0,1-.34,0,16.71,16.71,0,0,0-3.63-1.47l-1.91.31a3.75,3.75,0,0,1-.65-.11,23.61,23.61,0,0,1-4.83-1.81,2.91,2.91,0,0,0-2-.28A1.62,1.62,0,0,0,54.3,6a4.09,4.09,0,0,0,.55.46,15.65,15.65,0,0,0,4.54,1.61,56.93,56.93,0,0,1,5.85,2.06,25.65,25.65,0,0,1,3.44,1.76c.44.76.91,1.55,1.34,2.35a5.77,5.77,0,0,1,.52,4.35A41.34,41.34,0,0,1,68,26.44a5.35,5.35,0,0,1-1.48,2.27c-.81,1.34-1.77,2.6-2.53,4A20.36,20.36,0,0,0,63.35,29a5.19,5.19,0,0,1,0-1.77,5.5,5.5,0,0,0-.69-3.15,8.91,8.91,0,0,1-1-4.55,4.12,4.12,0,0,0-.05-.56l1-3.47a5.78,5.78,0,0,1,2.88-2.42,1,1,0,0,0,.09-1.52,11.41,11.41,0,0,0-1.09-.71,1.38,1.38,0,0,0-1.25.35c-.7.7-1.38,1.41-2,2.08a17.07,17.07,0,0,0-3,1.35l-3.71.56L50,14.41l-2.49-1.2a11.24,11.24,0,0,0-2.15-.95c-2-.46-4-1.15-6.12-.53a3.34,3.34,0,0,1-.53,0A29.8,29.8,0,0,0,34,11a7.34,7.34,0,0,1-2.27-.63c-1.19-.47-2.35-1-3.78-1.66a15.06,15.06,0,0,1-3.52-.49A1.52,1.52,0,0,0,23,8.45,25.59,25.59,0,0,1,20.8,9.93a1.48,1.48,0,0,0-.49,1.5L22,14a9.78,9.78,0,0,0,4.62,1.89,15.62,15.62,0,0,1,3.13.9c2.5.92,5,1.81,7.53,2.72.08.15.24.31.24.48,0,.52-.22.85-.57.89L35.75,21l-1.12.13-2.08-1.55a15.83,15.83,0,0,1-3.07-.68A6.74,6.74,0,0,0,28,18.65c-.39-.05-.79,0-1.14-.06a11,11,0,0,0-7.45-1.3c-1.94.32-3.89.58-6.05.89a34.09,34.09,0,0,0-5.09,2.92,1.86,1.86,0,0,0-.41,1.66l1.34,1.86a4.59,4.59,0,0,0,1,.41c1.16.21,2.34.38,3.51.54a13.85,13.85,0,0,0,3.91-.22l5.89.62c.55.21,1.19.48,1.84.7s1.13.34,1.7.48a3,3,0,0,1,1.86,1.42c-.1.27-.12.68-.31.77-.78.42-1.61.74-2.4,1.09-1.9-.27-3.81,0-5.57-.78A18.52,18.52,0,0,1,15,30a5.43,5.43,0,0,0-4.35,1.21l-4.13.95-1,1c-.37,1.14-.88,2.26-.1,3.53l2.87,1.29c1.69.3,3.06-.2,4.41-.1s2.74-.44,4.13-.17a9.63,9.63,0,0,1,3.72,1.82l-.09.77a4.24,4.24,0,0,1-2.3.67c-1.09,0-2.18,0-3.26,0a9.13,9.13,0,0,0-1.28.2,5,5,0,0,0-2.15,2.83,4.7,4.7,0,0,1-1,.37,14.23,14.23,0,0,0-6.15,2.74C3.54,47.77,2.77,48.39,2,49L.36,51.37c-.09.55-.25,1.32-.34,2.1a1.87,1.87,0,0,0,.44,1.44A5.31,5.31,0,0,0,5,55ZM24.3,73.44a.51.51,0,0,1-.09-.16s.06-.11.1-.17C24.44,73.2,24.42,73.31,24.3,73.44ZM59.4,43.09a2.43,2.43,0,0,0-.19-.69l-2.86-1.61a16.64,16.64,0,0,0-1-1.66c-.42-.55-1-1-1.42-1.51A4.87,4.87,0,0,1,53,36.48c-.38-.84-1.15-1.36-1.63-2.21a3.73,3.73,0,0,1-.19-.77c-.08-1.63.06-1.79,1.72-2.14.94.13,1.44,1,2.31,1.34a11.59,11.59,0,0,1,.63,1,20.87,20.87,0,0,0,3.66,4.63A17.41,17.41,0,0,0,61,39.79a3.61,3.61,0,0,1-.41.87A9.17,9.17,0,0,0,59.4,43.09Zm61.67-8.64a8.88,8.88,0,0,0,3.74-.27c2-.45,3.88-1.43,5.95-1.73a5.89,5.89,0,0,0,1.57-.7c.62-.3,1.23-.62,2-1l3.64.05c1.2.39,2.07.69,3,.94a2.69,2.69,0,0,0,1.35.2c1.26-.37,2.52,0,3.78-.1a10,10,0,0,1,3.44.3l.92.85c0,.34,0,.63-.12.78a9.82,9.82,0,0,1-1.87,2c-1.81,1.18-3.45,2.65-5.36,3.49-.92.09-1.73.11-2.52.25s-1.55.39-2.37.6a12.76,12.76,0,0,0-3-.24,9.11,9.11,0,0,1-3.4-.25c-1.91-.42-3.81-.87-5.8-1.32-1.73,0-3.57-.17-5.3.52a5,5,0,0,0-1.54,2.6l-.71-2.76a15.46,15.46,0,0,1,.71-4.16A6,6,0,0,1,121.06,34.45Zm-.3-19.05c.48.29,1,.61,1.45.88a2.38,2.38,0,0,0,1.68.33,22.71,22.71,0,0,1,3.45-1.46c1.35-.34,2.6-.92,4-1.39,2.27-.11,4.66-.72,7,.12.91.84,1.66,1.68,1.24,3.08a11.27,11.27,0,0,1-1.09.75c-1.72.92-3.56,1.63-5,3.08a3.53,3.53,0,0,1-.89.52l-4.25,2.3a24.49,24.49,0,0,1-7.67,3,6.33,6.33,0,0,1-.67.1l-.61-.06c0-.73,0-1.46-.07-2.19a11.74,11.74,0,0,0-.78-3.71c-.5-1.3-1-2.6-1.62-3.84A13.9,13.9,0,0,1,120.77,15.4Zm-6.83.11h0l1.25,1.59.5.63c.41,1.2.77,2.31,1.17,3.4a15.53,15.53,0,0,1,.83,6.91,13.83,13.83,0,0,0-.08,2.33,9.54,9.54,0,0,1,0,1.69h0c0,.18-.05.35-.08.52a8.4,8.4,0,0,1-.37,1.54c-.05.14-.08.28-.11.43h0c-.11.42-.18.85-.27,1.28-.17.86-.33,1.72-.53,2.76a6.64,6.64,0,0,0,.7,2.11c.51,2.75-.09,5-.17,7l.79,5.11a4.36,4.36,0,0,1-.91,0,11.4,11.4,0,0,1-4-2.31l-.83-1.1h0l-1-1.28a5.07,5.07,0,0,1-.66-1A38.48,38.48,0,0,0,108,43.31a3.13,3.13,0,0,1-.32-.73,1.64,1.64,0,0,1,0-1c1.35,0,2.69.32,4.07.43.45.38.87.77,1.34,1.11a.61.61,0,0,0,.54,0,.54.54,0,0,0,.24-.45,9.83,9.83,0,0,0-.57-1.65A2.16,2.16,0,0,0,112,40a4.53,4.53,0,0,0-.85-.19c-.77-.1-1.55-.2-2.33-.27s-1.56-.1-2.27-.14A7.94,7.94,0,0,1,104,37.8c-.39-1-.6-2-1-3a12.12,12.12,0,0,1-1-4.83c0-.09.08-.17.15-.32a6.85,6.85,0,0,1,2.53,0h2.39c.35.15.71.28,1.07.42h0a9.52,9.52,0,0,1,2.59,1.25c.19.15.55.08.87.11l.26-.76c-.05-.16-.05-.29-.12-.34A13.46,13.46,0,0,0,109,28.13c-.31-.14-.62-.27-.93-.38h0a5.86,5.86,0,0,0-1-.25h0a4.26,4.26,0,0,0-1.19-.06,5.51,5.51,0,0,1-1.17,0c-1-.1-1.92-.24-2.88-.38-.08,0-.15-.1-.29-.2a35.07,35.07,0,0,0-1-5.26,3.63,3.63,0,0,1,.3-.66,7,7,0,0,1,.57-.6,3.39,3.39,0,0,1,1.54-.08,8.27,8.27,0,0,1,1.09.26c1.12.33,2.23.72,3.34,1.1a10,10,0,0,0,3.16.53,2.18,2.18,0,0,0,2-1c.08-.13,0-.36,0-.53a.3.3,0,0,0-.2-.17,1.83,1.83,0,0,0-.57-.07,5,5,0,0,1-2.59-.46h0c-.08,0-.17,0-.25-.09a7.18,7.18,0,0,0-1.07-.49l-.31-.1c-.3-.1-.61-.2-.92-.28h0c-.52-.14-1-.28-1.56-.44a9.72,9.72,0,0,0-4.62-.43,1.79,1.79,0,0,1-.58-.11l-.22-1.14h0l-.22-1.14-.9-1.34h0l-.22-.32a4.09,4.09,0,0,1,.43-2.59l3.84-.7,2,.06,2.56.08a6.94,6.94,0,0,1,2,.33h0a4.84,4.84,0,0,1,1.78,1,10.64,10.64,0,0,0,1,.73Zm.66,39.57a7.82,7.82,0,0,0-1.09-.41l-.54-.1h0c-2.12-.41-4.26-.81-6.62-1.25l-5.12-2.47c-.75-.91-1.58-1.87-2.34-2.88a10.27,10.27,0,0,0-3-3.12A13.4,13.4,0,0,0,91,41.15a1.42,1.42,0,0,1-.46-.35,18.66,18.66,0,0,0-3.39-2.46,24.76,24.76,0,0,1-3.24-4.74,22.21,22.21,0,0,0-1.38-2.23,11.37,11.37,0,0,1-1.88-3.28A11.68,11.68,0,0,0,79.39,26a55.94,55.94,0,0,1-1-6.18h0c0-.1,0-.21-.05-.31a3.29,3.29,0,0,1,0-1.17c.11-.66.24-1.31.37-2h0c.09-.5.17-1,.28-1.49a4.3,4.3,0,0,1,1.17-2,7.81,7.81,0,0,1,2.15-1.58h0a13.56,13.56,0,0,1,2.69-1,5.23,5.23,0,0,1,1.32-.16h0c.14,0,.28,0,.42,0a25.26,25.26,0,0,1,3.18.48,4,4,0,0,1,1.59.71c.93.73,2,1.19,3.08,1.95a30.3,30.3,0,0,0,2.6,2.58,1.58,1.58,0,0,1,.43,1.9,2.07,2.07,0,0,1-.69.11h-.16a11.4,11.4,0,0,1-1.52-.27h0a4,4,0,0,0-.48-.08c-.88-.06-1.76-.1-3.23-.18a3,3,0,0,0-1,.45,5.72,5.72,0,0,1-1.21.76c-.72.29-1.36.78-2.07,1.08s-1.31.36-1.94.58c-.12,0-.17.32-.21.5a.31.31,0,0,0,.13.25,1.48,1.48,0,0,0,.5.27,6.19,6.19,0,0,0,2.39.21,18.3,18.3,0,0,1,3.84-2.26,34,34,0,0,1,3.64.53h0a10.07,10.07,0,0,1,1.09.32,6.52,6.52,0,0,1,1.2.57,3.72,3.72,0,0,1,.61,1l.1.24a6.51,6.51,0,0,1,.29.92c.07.32.14.63.2.94-.14.91-.93,1.21-1.61,1.74l-3.74,1a8.51,8.51,0,0,0-2.9,2.12h0a10.86,10.86,0,0,0-1.45,2,5.67,5.67,0,0,0-.15,3.35c.12.57.17,1.16.32,1.73a1.66,1.66,0,0,0,.48.71.7.7,0,0,0,.53.11.38.38,0,0,0,.31-.44,11,11,0,0,1,0-4.33L91.7,30l.3-.25h0a4.45,4.45,0,0,1,1.34-.94c1.1-.38,2-1.18,3.26-1.25a11.15,11.15,0,0,0,2.68-1c.18.19.41.32.41.45a22.74,22.74,0,0,0,.47,4.06,16.62,16.62,0,0,1,.14,5v.1h0c-.09.74-.16,1.49-.25,2.23l0,.14h0a2.77,2.77,0,0,1-.22,1c-.72,1.34-.66,2.84-.95,4.15.05.31.09.5.12.69a3.22,3.22,0,0,0,1.53,2.38c.57.36,1.09.81,1.68,1.16a1.11,1.11,0,0,0,1.12,0,.35.35,0,0,0,.16-.48,1.74,1.74,0,0,0-.82-.8,4.38,4.38,0,0,1-1.38-1.49,2.16,2.16,0,0,1-.37-1.39c.07-.78.15-1.56.29-2.33.1-.57.29-1.13.43-1.66.16,0,.25-.06.31,0L104.42,41a2.55,2.55,0,0,1,.78,1.24,2.35,2.35,0,0,0,.2.55c.38.58.8,1.14,1.18,1.72a6.23,6.23,0,0,1,.84,1.82c.7,1.06,1.35,2.15,2.1,3.17s1.72,2.13,2.58,3.19l.42.51c.89.46,1.85.94,2.79,1.46a5.44,5.44,0,0,1,.82.65h0a.88.88,0,0,1-.43.09A8.82,8.82,0,0,1,114.6,55.07Zm1.94.57-.09-.1-.11-.12h0a2.1,2.1,0,0,1,.39,0,.29.29,0,0,1,.18.21c0,.26-.11.29-.33.07l-.08-.09ZM95.75,5.37a7.29,7.29,0,0,1,1.89-.82c1.93-.34,3.65-1.42,5.64-1.51a16.19,16.19,0,0,1,6.11-.8,7.23,7.23,0,0,1,.76.11l2.34,1.13c.4.84.45,1.35.16,1.65a23.49,23.49,0,0,1-4.06,3.65A5.2,5.2,0,0,0,107,8.65a34.83,34.83,0,0,1-4.57-.15,22.55,22.55,0,0,1-4.13.84,1.65,1.65,0,0,0-1.19.45l-.71,1.49c-.27,0-.62.05-.82-.09a36.53,36.53,0,0,0-4.82-2.7L90,8.33Q92.86,6.83,95.75,5.37ZM70.68,9.57l-.26-.19.3.07.11.12a12.46,12.46,0,0,1,3.61.32c1.34.32,2.7.53,4.06.76l.71.12a9.12,9.12,0,0,1-1.75,1.78c-.11.79-.21,1.54-.34,2.25-.11-.11-.23-.22-.33-.34a11.34,11.34,0,0,0-3.47-2.79,7,7,0,0,1-2.49-2.1Zm-3,21.74a10.46,10.46,0,0,0,2.63-4.39c.51-1.53,1-3.05,1.49-4.6A18.46,18.46,0,0,0,72.25,20c.27-1.7.51-3.4.78-5.2,1.74.59,2.54,2,3.35,3.15a5,5,0,0,0,0,1.45c.35,1.92.65,3.85,1,5.77a6.39,6.39,0,0,0,.92,2.45,15.34,15.34,0,0,1,2.12,3.83,3.78,3.78,0,0,0,.63,1c.52.71,1,1.41,1.58,2.11a7,7,0,0,1,1.14,2,3.88,3.88,0,0,0,.54,1c.57.79,1.17,1.56,1.84,2.44a13.08,13.08,0,0,1,3.11,2c.94.84,2.16,1.32,3.11,2.17.51.45,1.06.87,1.52,1.37a10.27,10.27,0,0,0,1.53,1.36,5.66,5.66,0,0,1,1,1c1.17,1.44,2.32,2.89,3.48,4.34l5.3,2.69a21.46,21.46,0,0,1,3.92.87,6.75,6.75,0,0,0,2,.39,12.16,12.16,0,0,1,4.25,1l.13.05a10.93,10.93,0,0,0,1.1,2.32c.63.83,1.09,1.76,1.66,2.61s1.51,1.41,2,2.38a1.92,1.92,0,0,0,.72.72c1.94,1.21,3.39,3.1,5.57,4a1.9,1.9,0,0,1,.58.37c1.33,1.25,2.89,2.27,4.12,3.63A15.31,15.31,0,0,0,134,75.87a5.7,5.7,0,0,1,1,1,8,8,0,0,0,3.31,2.4,3.24,3.24,0,0,1,1.4,1A6.6,6.6,0,0,0,142.17,82a.51.51,0,0,0,.69-.48c0-.45-.15-.9-.2-1.2l-1.44-1.91c-1-.74-1.75-1.42-2.61-2a39.22,39.22,0,0,1-5.32-4.36c-.82-.8-1.66-1.59-2.54-2.32s-1.82-1.41-2.75-2.08c-1.21-.87-2.44-1.72-3.67-2.57a12.58,12.58,0,0,1-2.74-2.58A41.44,41.44,0,0,1,119,58.94c-.21-.34-.46-.65-.7-1,.6.07,1.18.13,1.74.24.76.15,1.49.42,2.15.61.62-.17.95-.47,1-1l-.72-1.59-1.2-.91-1-1.48a15.82,15.82,0,0,1-1.32-6.19,20.77,20.77,0,0,1,.46-4.67,2.94,2.94,0,0,0,.69.92A19,19,0,0,1,121.92,46l2.27.88,2.56,1.93a16.93,16.93,0,0,0,7.28-.26,7,7,0,0,1,3.07-.1,20.77,20.77,0,0,0,4.46.3c1.15,0,2.3,0,3.44,0a3.75,3.75,0,0,1,2.28.68,6.51,6.51,0,0,0,3.18,1.23,35.74,35.74,0,0,1,5.1,1.36c.86.8,1.83,1.61,2.67,2.54a10.08,10.08,0,0,1,1.25,2c.09.16,0,.43-.06.66a5,5,0,0,1-2.55,1.17c-2.29-.13-4.7,0-7.1-.21a15.06,15.06,0,0,1-4.05-.75c-1-.36-2-.67-2.94-1a6.74,6.74,0,0,0-.68-.15l-2,.12A12.5,12.5,0,0,0,137,58a3.27,3.27,0,0,0-.79,2.26,1.83,1.83,0,0,0,.45,1.27c.54.59,1.16,1.11,1.81,1.72,1.35.44,2.8.84,4.18,1.39s2.45,1.28,3.74,1.75a29.07,29.07,0,0,1,4,2.23l4.67,1c1.3.84,2.66,1.7,4,2.59a8.89,8.89,0,0,1,2.46,2.37,2.08,2.08,0,0,1,.18.65,1.25,1.25,0,0,1-.83,1,11.83,11.83,0,0,1-2,.51,8.74,8.74,0,0,0-2.61.84,2.12,2.12,0,0,0-.8.63,2.63,2.63,0,0,0-.53,2.28,15.46,15.46,0,0,0,1.9,4c.9.59,1.25,1.64,2,2.36A61.59,61.59,0,0,1,163.9,93c.05.36.1.82.19,1.27s.24,1.12.34,1.56a2.22,2.22,0,0,1-2,1.82,11.44,11.44,0,0,1-3.77-.13c-2.55-.44-4.71-1.78-6.95-2.94a3.8,3.8,0,0,1-1.46-1.44,9,9,0,0,0-.69-.86,28.17,28.17,0,0,1-4.74-2.66,5.71,5.71,0,0,0-4-1,6,6,0,0,0-3,1.79l-.34,2a8.56,8.56,0,0,1,2.62,3.94.94.94,0,0,1-.38,1.19,13.7,13.7,0,0,1-4.41-.47,7.52,7.52,0,0,1-3.08-1.76c-1.23-1.5-2-3.47-3.41-5-1.21-2.6-2.82-5-3.44-7.76a12.18,12.18,0,0,1-1-1.13,16,16,0,0,1-1-1.79A46.45,46.45,0,0,0,118,71.13c-1.08-.81-2.21-1.85-4-1.46a4,4,0,0,0-.68.68,7.9,7.9,0,0,0-.78,1.53,9.36,9.36,0,0,0-.26,1.58c1.18,1.21.54,2.94.79,4.1,1.32,2.87,2.5,5.36,3.62,7.89a17.54,17.54,0,0,1,1.16,2.83,16.3,16.3,0,0,1,.21,3.43,11.94,11.94,0,0,1-.5,3.73,1.1,1.1,0,0,1-1.54-.11,24.31,24.31,0,0,1-4.39-5.26,17.57,17.57,0,0,1-2.48-5.29c-.38-1.44-.66-2.91-.91-4-.51-1-.85-1.73-1.24-2.43a8.14,8.14,0,0,0-1.84-2.48A2.43,2.43,0,0,1,104.4,74a15.85,15.85,0,0,0-1.21-5c-.65-1.84-1.22-3.7-1.83-5.56a11.27,11.27,0,0,0-.94-3.58,9.7,9.7,0,0,0-2.79-2.62,4.07,4.07,0,0,0-2-.56,1.32,1.32,0,0,0-1.13.66,5.17,5.17,0,0,0-.42,1.3,9.28,9.28,0,0,0,1,5.35,15,15,0,0,1,1.3,4.62c.15.9.31,1.8.47,2.75l-.39,2.14c.27,1.43.54,2.66.72,3.91a13.83,13.83,0,0,0,.67,3,13.38,13.38,0,0,1,.74,3A4.26,4.26,0,0,1,97.77,87c-.22,0-.49.11-.66,0a5.65,5.65,0,0,1-1.45-.89c-2.39-2.34-5.4-7.56-5.49-11.27a16.23,16.23,0,0,0-.69-3.36c-.14-.55-.38-1.08-.57-1.62s-.43-1.31-.67-2a2.39,2.39,0,0,0-.4-.53l-2.13-.91a3.21,3.21,0,0,1-.36-.72,17.73,17.73,0,0,1,.37-7.17c.21-.89.57-1.76.73-2.66a17.63,17.63,0,0,1,1.37-4.48c-.06-.69.1-1.27-.35-1.76a2,2,0,0,1-.47-.9,5.08,5.08,0,0,0-2.16-3,15.22,15.22,0,0,0-2.39-1.36,1.76,1.76,0,0,0-1.93.3A3.09,3.09,0,0,0,79.26,47c-.12,1.6-.15,3.21-.22,4.76a10.91,10.91,0,0,1,.27,5.82,7,7,0,0,0,0,2.4,4.34,4.34,0,0,1,.25,1.34c-.25,1.49,0,3-.06,4.75-.25.71-.58,1.69-1,2.64-.06.14-.37.18-.74.35-.51-.67-1.21-1.25-1.73-2a4.55,4.55,0,0,1-1.13-2.83,76.34,76.34,0,0,1-1.63-8.44,27.8,27.8,0,0,1-.4-8,32.31,32.31,0,0,1,1.78-3.55,23.4,23.4,0,0,0,2.65-5.2A8.92,8.92,0,0,1,78,37.79c-.15-1.24-.25-2.5-.47-3.74a2.35,2.35,0,0,0-2.81-1.94,9.92,9.92,0,0,0-1.3.29c-2.46,2-2.87,2.54-4.77,7.2-.25.25-.58.57-.89.91a13.35,13.35,0,0,0-3,4.95,10.6,10.6,0,0,1-2.44,3.72,1.16,1.16,0,0,1-1.26.35,8.48,8.48,0,0,1-.17-4.06,37.67,37.67,0,0,0,2.43-6A4.82,4.82,0,0,1,64,37.88a8.81,8.81,0,0,0,1.17-2.48A9.54,9.54,0,0,1,67.65,31.31ZM2.22,52.2A18.2,18.2,0,0,1,3,50.52c.51-.37,1.09-.74,1.62-1.18s1-.92,1.52-1.38a15.72,15.72,0,0,1,4.77-1.61,3.15,3.15,0,0,0,2.48-1.91A2.82,2.82,0,0,1,14.52,43a27.44,27.44,0,0,1,3.43-.17,6.39,6.39,0,0,0,3.61-1.16l.66-.47a11.19,11.19,0,0,0,.7-2.57c-.13-.21-.19-.46-.34-.53a21.78,21.78,0,0,0-5.64-2.49c-1.31-.31-2.53.37-3.84.27s-2.73.47-4.22.22l-1.64-.92a1.72,1.72,0,0,1,.29-1.25l3.91-1,1.4-.89c2.3-.31,4.5.06,6.48-.53,1.92.22,3.69.41,5.45.62A6.05,6.05,0,0,0,27.12,32a7.65,7.65,0,0,0,4.25-3.54l-.21-1.08a7.13,7.13,0,0,0-2-1.77,24.27,24.27,0,0,0-3.6-1.31,8.46,8.46,0,0,0-2-.36,35.27,35.27,0,0,0-8.85-.4,9.4,9.4,0,0,1-3.8-.5.89.89,0,0,1-.61-1.2l1.22-.72A10.19,10.19,0,0,1,16.5,19.6c.59,0,1.17-.14,1.76-.2,1.28-.12,2.55-.25,3.83-.31a5.84,5.84,0,0,1,1.76.21c.76.21,1.47.59,2.23.78s1.74.28,2.6.47c1.06.24,2.1.54,3.17.82a6.14,6.14,0,0,0,2.9,1.43,10.5,10.5,0,0,0,3.38-.32,4.33,4.33,0,0,0,.52-.46,7.08,7.08,0,0,0,1.12-2.31,6.56,6.56,0,0,0-.07-.68c-.05-.29-.15-.57-.22-.84A67.28,67.28,0,0,0,32,15.43c-.57-.17-1.11-.42-1.66-.62l-1.95-.69A19.41,19.41,0,0,0,25,13.53C23,11.92,23,11.92,22.62,10.94a2.88,2.88,0,0,1,3-.78,15.3,15.3,0,0,1,3.89,1.39A9.66,9.66,0,0,0,34,12.81c.59,0,1.18,0,1.67,0a5.38,5.38,0,0,0,3.54.7,10.42,10.42,0,0,1,5,.49,10.36,10.36,0,0,0,1.58.3c3.4,1.92,3.35,2.42,9.72,2.66a3.63,3.63,0,0,1-.18.83,7.67,7.67,0,0,1-2.76,3,22.09,22.09,0,0,0-4.7,3.54,5,5,0,0,1-1,.69c-.48.34-1,.64-1.45,1C44,27.28,42.29,28.15,41,29.58c-.12.14-.35.18-.51.29a5,5,0,0,0-1,.67c-1.82,1.94-3.82,3.68-5.26,6a23.78,23.78,0,0,0-3.47,7.14L28.54,46c-1,1-1.92,2-2.86,3a7.05,7.05,0,0,0-.91,1.16,16.06,16.06,0,0,0-1.38,2.59c-.37,1-.84,2-1.28,3a9.31,9.31,0,0,0-.34,1.05c.67.77.67.77,1.77.2.4-.9.78-1.8,1.19-2.69s.83-1.79,1.3-2.65a7.19,7.19,0,0,1,1-1.44c1.81-2,3.66-3.87,5.59-5.91.09-.45.18-1,.33-1.61a3.66,3.66,0,0,1,.51-1.38c1-1.17,1.3-2.66,2.21-4.12A21.27,21.27,0,0,1,38,34.88a13.4,13.4,0,0,0,2.44-2.5,5.53,5.53,0,0,1,1.27-1.23c1.5-1,2.66-2.37,4.27-3.17a58.91,58.91,0,0,1,6.68-4.88A5.65,5.65,0,0,0,55,20.87a1.67,1.67,0,0,1,.66-.57A3.33,3.33,0,0,0,56.83,19a6.78,6.78,0,0,1,2.25-2.32,2.37,2.37,0,0,1,.81-.19c.09.11.18.18.18.25a5.44,5.44,0,0,1,0,1.18,11,11,0,0,0,.79,6.66A8.68,8.68,0,0,1,61.57,28a6.42,6.42,0,0,0,.11,1.77,17.59,17.59,0,0,1,.77,5.35,3.1,3.1,0,0,1-.37,1.71.68.68,0,0,1-.6.36A.83.83,0,0,1,61,37c-1-.93-1.52-2.07-2.49-3a8.9,8.9,0,0,1-1.19-1.68,6,6,0,0,0-3.59-2.86c-.81,0-1.6.08-2.38.05a2,2,0,0,0-1.14.18A3.1,3.1,0,0,0,49,32.26l.69,2.66a18.5,18.5,0,0,0,3.87,5,5.72,5.72,0,0,1,1.24,1.64,4.15,4.15,0,0,0,1.63,1.68c.41.26.92.38,1.19,1l.65,3.39a4.32,4.32,0,0,0,.25.74,9.88,9.88,0,0,0,.35,3.42l1,.86,1.89-.15c.93,1.08.82,2.79.91,4.15,0,.15-.18.31-.28.47a3.49,3.49,0,0,1-2.12,0c-.68-.44-1.44-.9-2.16-1.41a9,9,0,0,0-2.23-1.44A2.36,2.36,0,0,1,54.59,53,9.36,9.36,0,0,0,53,50.89a15.74,15.74,0,0,1-2.39-3,9.73,9.73,0,0,0-1.37-1.55l-.56-.63c-.41-.84-.61-1.72-.75-1.91a5.31,5.31,0,0,0-2.8-2.2,2.14,2.14,0,0,0-1.64.14l-1.79,1.72a5.51,5.51,0,0,0,0,1.18c.1.37.42.69.5,1.06.37,1.75,1.35,3.28,1.8,5a7.92,7.92,0,0,0,.62,1.66c.68,1.3,1.17,2.74,2.58,3.63l1.92.48c.51.5,1,.95,1.49,1.47a12.53,12.53,0,0,1,.77,1.25,6.88,6.88,0,0,0,.73.93,17.57,17.57,0,0,1,2.64,4.57,1.51,1.51,0,0,1,.08.58,1.39,1.39,0,0,1-1.64,1.29c-.65-.23-1.27-.52-1.74-.72a10.17,10.17,0,0,1-2.07-2.37,4.16,4.16,0,0,0-1.23-1.24,23,23,0,0,1-2.31-2.47l-.86-2.37a8.87,8.87,0,0,1-.93-1.16c-.78-1.37-1.53-2.75-2.23-4.16a5.16,5.16,0,0,0-1-1.45,5.31,5.31,0,0,1-1-1.46,2.92,2.92,0,0,0-.62-.63,4.78,4.78,0,0,0-2.87.8,6.66,6.66,0,0,0,0,1.15,9.32,9.32,0,0,1,.34,1.73c-.11,1.59.51,3.12.25,4.71a3,3,0,0,0,.19,1.16c.15.57.37,1.13.53,1.7a5.85,5.85,0,0,0,1.67,2.75c1,1,2,1.91,3,2.9a9.12,9.12,0,0,1,2.3,3,4,4,0,0,0,.65,1c.33,1.25.62,2.2.81,3.17a3.23,3.23,0,0,1-.54,2.76,1.2,1.2,0,0,1-.37,0l-2.47-1.49a4,4,0,0,0-1-1.53,19.07,19.07,0,0,1-3.41-4c-.55-.37-1.16-.54-1.56-1.32-.36-1.61-.86-3.43-1.14-5.28-.22-1.47-.53-2.91-.79-4.36a7.75,7.75,0,0,0-1.25-2.83c-.71-.36-1.26-.41-1.76.1L30.41,56.1l-.66,3.17A6.8,6.8,0,0,1,30,63.09a12,12,0,0,1,.58,2.4c0,1,.84,1.56,1,2.71l0,3.16A6.57,6.57,0,0,1,32,72c.11.27.18.54.26.76-.41,1-.78,1.9-1.17,2.8a3.69,3.69,0,0,1-.45.76,1.49,1.49,0,0,1-2.1.37,3.41,3.41,0,0,1-1.32-1.56,8.14,8.14,0,0,1-.53-1.69,10.36,10.36,0,0,0-1.1-2.74c-.12-.24-.44-.37-.65-.53a1.67,1.67,0,0,0-.62.11,5.17,5.17,0,0,0-1.85,1.92l-.39,5.92a9.08,9.08,0,0,0-1,3.63,2.89,2.89,0,0,1-.5,1.38A5,5,0,0,1,18.7,85a2.65,2.65,0,0,1-.86.14,10.25,10.25,0,0,1-2.2-4.79,9.33,9.33,0,0,0-.66-2,6.32,6.32,0,0,1-.36-3.24,11.7,11.7,0,0,0,.86-2.47,23.24,23.24,0,0,1,.86-3.71c.06-1.61.12-2.89.16-4.17a3,3,0,0,0-.32-1.59c-.49-.54-1-1.29-2.13-1.08-.48.08-.81.48-1.23.73s-1,.62-1.54.88a2.61,2.61,0,0,1-1.69.41L8,63.22c-.32-1.6.7-2.79,1.23-4.07a21,21,0,0,1,3.74-3,20.17,20.17,0,0,0,2.71-2,8.28,8.28,0,0,0,1.18-3.19,1.72,1.72,0,0,0-.33-1.45c-1.13-.73-1.93.75-3,.53a4.39,4.39,0,0,1-.84-.24,1.88,1.88,0,0,0-2,.13,27.1,27.1,0,0,1-2.85,1.38,6.71,6.71,0,0,1-3.33,2A2.15,2.15,0,0,1,2.26,53,2.05,2.05,0,0,1,2.22,52.2Z"/></g></g></svg>