<svg xmlns="http://www.w3.org/2000/svg" viewBox="0 0 321.24 241.57">
	<defs>
		<style>.cls-1{isolation:isolate;}.burst-cls-2,.burst-cls-4{fill:#d9a959;}.burst-cls-2,.burst-cls-3{}</style>
	</defs>
	<title>svg_sun-burst</title>
	<path class="burst-noncls-1" d="M26.65,81.7l-2-.87C25,78.18,25,78.18,29.31,77a.9.9,0,0,1,.24,1.49C28.7,79.48,27.77,80.45,26.65,81.7Z"/>
	<path class="burst-noncls-1" d="M21.7,124.7l.79,1.42a3.86,3.86,0,0,1-3.81,2.5l-1.09-1.45C18.45,125.38,19.74,124.8,21.7,124.7Z"/>
	<path class="burst-noncls-1" d="M25,240.22c.37-2.16-.07-4.54,2.08-6l1.12.54a9.89,9.89,0,0,1-.75,6.83,8.28,8.28,0,0,1-1.54-.3C25.7,241.16,25.55,240.83,25,240.22Z"/>
	<path class="burst-noncls-1" d="M10.1,241.16c-1.16-1.71-.4-2.64.79-3.54l1.39.54C12.29,239.54,12.25,240.79,10.1,241.16Z"/>
	<path class="burst-noncls-1" d="M11.8,121.65l-1.47,1.55-1.57-1.61.83-1.23C10.71,120,11.42,120.3,11.8,121.65Z"/>
	<path class="burst-noncls-1" d="M22.49,67.32V68.8l-2.25.39-.39-2A1.65,1.65,0,0,1,22.49,67.32Z"/>
	<path class="burst-noncls-1" d="M280.68,110.85c0-.33.65-.93,1.05-1.48.64.2,1.18.21,1.47.48,1.51,1.49,3,3,4.38,4.61a14.34,14.34,0,0,1,1.46,3L288,119.31a12.55,12.55,0,0,1-1.49-.32c-.27-.1-.66-.29-.72-.51C285,115.41,281.17,114.43,280.68,110.85Z"/>
	<path class="burst-noncls-1" d="M254.41,145.56c.3,1.88-.69,2.87-2.45,3.54-2.86-.7-3.61-3.17-4.58-5.82l2.23-1.44Z"/>
	<path class="burst-noncls-1" d="M133.07,112.33l.75-2.49c2.82-.14,5.46-.79,8.23.14-.49,3.53-3.38,3.23-5.56,4.07-.74-.25-1.48-.44-2.17-.74A7.34,7.34,0,0,1,133.07,112.33Z"/>
	<path class="burst-noncls-1" d="M260.05,130.1c2,.37,2.26,1.89,3.07,2.93a17.32,17.32,0,0,0,2.57,2.28,2.14,2.14,0,0,1-.82,2.8,3.27,3.27,0,0,1-4-1.6,9.73,9.73,0,0,1-1.56-5.13C259.33,131,259.74,130.64,260.05,130.1Z"/>
	<path class="burst-noncls-1" d="M88.45,163.56c-.31,3.22-1.41,5.44-4,6.78-.95.49-1.83,1.21-2.9.32a2.55,2.55,0,0,1,0-2.83c1.76-1.51,4.47-2.29,5.21-5.16Z"/>
	<path class="burst-noncls-1" d="M177.21,45.62,177,43.28c2.29-1.35,4.79-.75,6.83-1.32,1.6.62,2.14,1.53,1.62,3.15A9.5,9.5,0,0,1,177.21,45.62Z"/>
	<path class="burst-noncls-1" d="M296.66,198.49c-.66,1-1.32,1.11-2.12.73a3.43,3.43,0,0,1-.59-.67,10.25,10.25,0,0,1,0-8.89l1.38-.61c.38.69,1,1.32,1,2C296.55,193.58,296.58,196.15,296.66,198.49Z"/>
	<path class="burst-noncls-1" d="M292,145.72c2,2.29,1.89,5.15,3.55,7.34l-1.71,1.72a6.14,6.14,0,0,1-3.53-3.68,8.2,8.2,0,0,1-.51-3.12C289.73,147,290.12,146.7,292,145.72Z"/>
	<path class="burst-noncls-1" d="M181.23,79.65c-2.22.2-4.19.4-6.34-.5l-1-2.57C175.37,75,177,75,179.06,75.09l3,2.56Z"/>
	<path class="burst-noncls-1" d="M139.41,100.92c-2.56,1.17-2.56,1.17-5.64,1.18-1.46-.85-3.07-1.7-2.39-3.94.46-.19.74-.43,1-.41,2.4.25,4.8.54,7.09.81C140.28,99.39,139.62,100,139.41,100.92Z"/>
	<path class="burst-noncls-1" d="M243,158.41c.57,2-.76,2.33-2.06,2.89l-3-1.25c-2.2-3.93-2.2-3.93-.88-5.75,1.5,0,1.83,1.41,2.74,2.13A32.87,32.87,0,0,0,243,158.41Z"/>
	<path class="burst-noncls-1" d="M91.85,148.59l-1-.84c0-3.07,2.55-4,4.5-5.55.78.26,1.36.4,1.9.64a7.64,7.64,0,0,1,1.09.72C97.29,147.22,94.47,147.82,91.85,148.59Z"/>
	<path class="burst-noncls-1" d="M158.28,116.42c-2.32,1.38-4.85,1.37-7.39,1-1.31-1.12-1-2.14.09-3.29a20,20,0,0,1,7-.22C158.71,115.1,158.71,115.1,158.28,116.42Z"/>
	<path class="burst-noncls-1" d="M112.43,151.46a6.29,6.29,0,0,1-.79-1.45,8,8,0,0,1,0-1.61c1.3-1.8,3.1-1.43,4.71-1.57,1.12-.09,1.27,0,3.24,1.7l-.58,1.52Z"/>
	<path class="burst-noncls-1" d="M130.31,85.77V83.27c3-1.36,5.67-.72,8.36.85l-.25,1.79C135,86.75,134.8,86.74,130.31,85.77Z"/>
	<path class="burst-noncls-1" d="M189.09,31.23a4.26,4.26,0,0,1-4.25,2.23c-1.63-.06-3.45.38-4.56-1.2a1.88,1.88,0,0,1,.47-2.5A14.28,14.28,0,0,1,189.09,31.23Z"/>
	<path class="burst-noncls-1" d="M191.07,6.58c-2.14,2-4.37,2-6.68,1.67a2.81,2.81,0,0,1-1.21-.59,3,3,0,0,1-.85-1,6.64,6.64,0,0,1-.27-1.52,6.21,6.21,0,0,1,2.11-.6c1.95.2,4-.27,5.82.73C190.34,5.43,190.54,5.91,191.07,6.58Z"/>
	<path class="burst-noncls-1" d="M264.6,197c.27,2.44,1.85,4.92-.3,7.21a2,2,0,0,1-2.35-1.35,7.89,7.89,0,0,1-.24-5.86C262.4,196.12,263.21,196,264.6,197Z"/>
	<path class="burst-noncls-1" d="M142.61,128.79l-1.2,1.64c-3.45.68-3.45.68-6.43,0l-.84-1.36,1.14-1.82C137.72,127.59,140.23,126.43,142.61,128.79Z"/>
	<path class="burst-noncls-1" d="M136,141.9l.83-1.42a10.71,10.71,0,0,1,5.77-.17A1.84,1.84,0,0,1,144,142c-.69,1.89-2.45,2-4.09,2S136.86,143.94,136,141.9Z"/>
	<path class="burst-noncls-1" d="M183.57,60.26l-.93,1.57a15.81,15.81,0,0,1-6.68-.18l-.76-2.59a8.12,8.12,0,0,1,1.89-.62C179.37,58.35,181.7,58.13,183.57,60.26Z"/>
	<path class="burst-noncls-1" d="M57.14,158.13l-1.74-1.76c1.05-2.7,3.42-3.87,5.15-5.94L62.62,152C61.64,154.92,59.34,156.3,57.14,158.13Z"/>
	<path class="burst-noncls-1" d="M103.73,126.34H100l-.7-1.31c.08-.43.06-.61.14-.72a6.86,6.86,0,0,1,5.73-3.22c.21,0,.43.38.76.7A11.07,11.07,0,0,1,103.73,126.34Z"/>
	<path class="burst-cls-2" d="M76.13,131.88c-.23-.33-.62-.67-.7-1.07a8.4,8.4,0,0,1,.06-1.85c2.15-1.48,4.18-3,7.11-1.82-.23,2.32-2.39,2.72-3.51,4C78.4,131.92,78.27,131.8,76.13,131.88Z"/>
	<path class="burst-noncls-1" d="M303.52,101.94l-2.31-.22c-.35-.28-.52-.35-.59-.47-.79-1.47-1.56-2.95-2.34-4.41a4.9,4.9,0,0,1,.56-1.32,5.07,5.07,0,0,1,1.27-.75C302.25,96.51,304.38,98.14,303.52,101.94Z"/>
	<path class="burst-noncls-1" d="M169.83,109.86l-.26-2.47c.51-.31.88-.7,1.26-.72,1.5-.07,3,0,4.34,0,1.15.87,1.28,1.84.76,3.21L173.65,111Z"/>
	<path class="burst-noncls-1" d="M184.74,103.41l1.1-1,5.61.7.6,1.25c-.5,1.52-1.71,2.16-3,2.79C187.08,106.89,185.71,105.88,184.74,103.41Z"/>
	<path class="burst-noncls-1" d="M297.23,103.17c.11,1.87-.42,2.83-1.9,3.3-.31-.13-.83-.2-1.09-.49a6.38,6.38,0,0,1-1.39-6.15l1.87-.58Z"/>
	<path class="burst-noncls-1" d="M39.64,98.29l-1.83-.82a2.18,2.18,0,0,1,.85-3c1.76-1.2,3.53-2.57,5.81-1.52a1.21,1.21,0,0,1-.2,1.74C42.84,95.87,41.36,97,39.64,98.29Z"/>
	<path class="burst-noncls-1" d="M249.41,210.46l-2.3.41c-2-1.89-1.48-4.16-2-6.33l1.91-1.08C249.37,205.23,249.14,207.61,249.41,210.46Z"/>
	<path class="burst-noncls-1" d="M36.76,136c-1.45,1.48-2.54,3.21-4.3,4.11-1.37-.11-1.55-1-1.53-2,0-1.89,1.14-3.12,2.86-4.21l2.59.16Z"/>
	<path class="burst-noncls-1" d="M203.32,62l1.44-1.66c2,1.08,4.43,1.3,6,3.51l-1.46,1.73C206.8,65.38,204.6,64.95,203.32,62Z"/>
	<path class="burst-noncls-1" d="M172,91.13c2.49-.25,4.76-.84,6.71,1.32l-.54,1.69a30.45,30.45,0,0,1-3.15.51,16.9,16.9,0,0,1-2.49-.17C171.48,93.51,171.4,92.57,172,91.13Z"/>
	<path class="burst-noncls-1" d="M207.4,45.43,214.11,48a1.74,1.74,0,0,1-1.28,2.15,5.45,5.45,0,0,1-4.77-.59,3.06,3.06,0,0,1-1.21-1.8A6.65,6.65,0,0,1,207.4,45.43Z"/>
	<path class="burst-noncls-1" d="M152.92,39.11l4.44-.26c1.29.73,1.29,1.64.74,2.46a15.22,15.22,0,0,1-2,2l-3.67-1C151.29,40.94,151.65,40.08,152.92,39.11Z"/>
	<path class="burst-noncls-1" d="M133.73,49c-2.1-.13-4.48,1-6.09-1.24a2,2,0,0,1,1.45-1.88c1.89-.51,3.08-.15,5.43,1.46,0,.15.12.35.06.45C134.35,48.18,134.07,48.54,133.73,49Z"/>
	<path class="burst-noncls-1" d="M130.22,70.92l.93-2c2.4-.27,4.76-.73,6.5,1.35a2,2,0,0,1-1.89,1.9A7.28,7.28,0,0,1,130.22,70.92Z"/>
	<path class="burst-noncls-1" d="M114.74,136.67l.61,2.62a5.49,5.49,0,0,1-6,2l-.68-2A11.66,11.66,0,0,1,114.74,136.67Z"/>
	<path class="burst-noncls-1" d="M315.81,137.27c-.65,1.45-1.28,2-2.66,1.49-1.21-1.52-1.64-3.58-2.44-5.65l1.9-1.42C315,133,314.63,135.54,315.81,137.27Z"/>
	<path class="burst-noncls-1" d="M167.58,140.06l.83,1.3c-1.43,2.75-3.69,2.86-6.08,2.2a1.79,1.79,0,0,1-.38-2.69C163.63,139.53,165.63,140,167.58,140.06Z"/>
	<path class="burst-noncls-1" d="M300,142.21c.6-2.25.6-2.25,2.25-2.94,1.79,1.67,3.12,3.48,2,6.28h-2Z"/>
	<path class="burst-noncls-1" d="M267.55,172.73c-.63,1.56-1.55,2-3.06,1.32-1.34-1.5-1.54-3.37-1.26-5.66l2-.52Z"/>
	<path class="burst-noncls-1" d="M195.94,93.13l-.14,1.94c-1.47,1.5-3.2,1.28-4.65,1.58-1.5-.85-2.2-1.83-1.32-3.6C191.65,92.47,193.53,92.79,195.94,93.13Z"/>
	<path class="burst-noncls-1" d="M93.87,94.78l-4.94,1.9-1.52-1.56A5.34,5.34,0,0,1,91.28,92C92.61,91.74,93.41,92.48,93.87,94.78Z"/>
	<path class="burst-noncls-1" d="M94.77,109.81v-2.35a8,8,0,0,1,4.57-2.34l1.62,1.21c-.08.53,0,.91-.18,1.1C99.31,109.16,97.34,109.62,94.77,109.81Z"/>
	<path class="burst-noncls-1" d="M88.08,78.19l1.12,1.26C87.9,82,87.9,82,83.87,83.44l-1-1.24C83.67,79.62,86,79.38,88.08,78.19Z"/>
	<path class="burst-noncls-1" d="M218.68,30.11c2.74,1,2.71,1,4.16,3.07,0,1.11-.7,1.58-1.62,1.89-2.5-.7-2.48-.72-4-2.54A1.92,1.92,0,0,1,218.68,30.11Z"/>
	<path class="burst-noncls-1" d="M250.12,177.33l1.56-.77,2.91,3.14c.16,1.6.43,3-1.5,3.65A7.28,7.28,0,0,1,250.12,177.33Z"/>
	<path class="burst-noncls-1" d="M187.31,16.15c-.52,2-1.35,2.82-3.33,3a3,3,0,0,1-1.73-.36,10.57,10.57,0,0,1-1.67-1.71l1.77-2A10.8,10.8,0,0,1,187.31,16.15Z"/>
	<path class="burst-noncls-1" d="M280.48,201.63l-1.48,1-1.23-.77a17.76,17.76,0,0,1-.71-6.59l2-.81C280.31,196.82,279.95,199.17,280.48,201.63Z"/>
	<path class="burst-noncls-1" d="M72.82,166.36c-1.55-.36-1.55-.36-2.36-1.45a6.1,6.1,0,0,1,3.62-4c1.24,0,1.95.38,2,1.75Z"/>
	<path class="burst-noncls-1" d="M203.31,71.95c1,1.39.4,2.1-.33,2.92-1.81.72-3.66,1.19-5.15-1.18l.45-1.63A11.61,11.61,0,0,1,203.31,71.95Z"/>
	<path class="burst-noncls-1" d="M152,79.85a11.28,11.28,0,0,1,6.92.26c-.12,2-1.76,2.24-3.34,2.86l-2.6-.75Z"/>
	<path class="burst-noncls-1" d="M196.93,81.67,201.36,83l1,1.61L200.16,86a5.55,5.55,0,0,1-3.61-1.18C195.57,84,195.67,83,196.93,81.67Z"/>
	<path class="burst-noncls-1" d="M151.68,92.81a5.88,5.88,0,0,1,4.57,1.05,1.91,1.91,0,0,1-.74,2.53,3.23,3.23,0,0,1-1.68.5,3,3,0,0,1-2.55-1.66A1.81,1.81,0,0,1,151.68,92.81Z"/>
	<path class="burst-noncls-1" d="M157.13,27c.06,1.69-.53,2.23-1.26,2.37-1.85.36-3.76,1.34-5.46,0a1.62,1.62,0,0,1,.3-2.39C152.66,26.35,154.82,26.84,157.13,27Z"/>
	<path class="burst-cls-4" d="M253,108.22c-1.9-1.1-3.7-2.25-5.59-3.2-1.74-.88-3.92-.87-5.45-2.88l.13-1.71c.52-.29.78-.56,1-.56a5.51,5.51,0,0,1,2.24.2c1.49.69,3,.31,4.71.2l1.53,2.56-.29.22,1.71,1.48,1.59,1.36C254.78,107,254.22,107.5,253,108.22Z"/>
	<path class="burst-cls-4" d="M267,85.15l-1,1.58a3.46,3.46,0,0,1-4-.63c-1.56-1.45-3.14-2.93-3.88-5.32L259.71,79C262.78,80.38,262.78,80.38,267,85.15Z"/>
	<path class="burst-cls-4" d="M257.82,97a9.56,9.56,0,0,1-4.38-3.56,2.83,2.83,0,0,1,.34-3.24c1.81-.54,2.57.8,3.57,1.68s2.05,1.74,3,2.57C260.54,96.24,259.26,96.49,257.82,97Z"/>
	<path class="burst-cls-4" d="M237.27,113.66l1.41-1.26c2.93.72,3.86,3.49,6.06,5l-.84,1.66C240,119.36,239.09,118.61,237.27,113.66Z"/>
	<path class="burst-cls-4" d="M207.86,150.41l1.89-1.54,7.09,3.7-.68,1.5a5.21,5.21,0,0,1-4.07.48C209,152.55,209,152.55,207.86,150.41Z"/>
	<path class="burst-cls-4" d="M269.46,68.75a4.83,4.83,0,0,1,1.48-.12,10.12,10.12,0,0,1,1.72.81l2.87,4.73-1.47,1.6a4.11,4.11,0,0,1-3.58-2C269.61,72.35,268.52,71,269.46,68.75Z"/>
	<path class="burst-cls-4" d="M234.61,128.41l-.15,1.59a4.7,4.7,0,0,1-4.76,0,5.46,5.46,0,0,1-3.18-3.94c.32-1.18,1.06-1.25,1.88-1.22Z"/>
	<path class="burst-cls-4" d="M200.38,161l.64-1.7a8.15,8.15,0,0,1,2.3,0,7.77,7.77,0,0,1,4.53,3.49c-.19.49-.28,1.39-.76,1.73a2.66,2.66,0,0,1-2.14.27A7.2,7.2,0,0,1,200.38,161Z"/>
	<path class="burst-cls-4" d="M217.87,139.86c-.11-1.31-.2-2.24.79-2.7,1.07-.2,1.44,0,5.47,2.42a2.92,2.92,0,0,1-2.35,2.84A5.5,5.5,0,0,1,217.87,139.86Z"/>
	<path class="burst-cls-4" d="M278.1,56.47A6,6,0,0,1,282,62.32l-1.45.79c-1.75-.64-2.34-2.11-3.12-3.38C276.87,58.75,276.79,57.71,278.1,56.47Z"/>
	<path class="burst-noncls-1" d="M237.13,185.31l1.59-1,3.16,2.72.33,2.42-1.79.74C238.18,189.28,237.4,187.59,237.13,185.31Z"/>
	<path class="burst-noncls-1" d="M130.7,3.47c-1.75,1.17-3.67.27-5.3.46-.94-.81-.93-1.63-.5-2.23A3.53,3.53,0,0,1,126.64.45a3.24,3.24,0,0,1,3,.62A2.14,2.14,0,0,1,130.7,3.47Z"/>
	<path class="burst-noncls-1" d="M133,33.12c-.37,1.42-1.06,2-2,2.12a5,5,0,0,1-4.28-1.48l.18-1.74C129.16,31.64,131.17,31.42,133,33.12Z"/>
	<path class="burst-noncls-1" d="M132.07,20.52c-2.15,2.39-3,2.46-6.26.6l-.07-1.56c.37-.26.62-.57.87-.58C129,19,129,19,132.07,20.52Z"/>
	<path class="burst-noncls-1" d="M99.28,157.62l-.85-2.69c3.07-2.87,3.66-2.91,5.59-.6a1.89,1.89,0,0,1-1.19,1.79C101.86,156.58,100.87,157,99.28,157.62Z"/>
	<path class="burst-noncls-1" d="M82.88,135.8l3.78-2.69,1.57,1.17c-.85,2.17-1.83,3.92-4,4.4C82.94,138.2,82.62,137.43,82.88,135.8Z"/>
	<path class="burst-noncls-1" d="M78,74.37l.29-2.56c2.07-.59,3.69-2.39,6-1.46a1.69,1.69,0,0,1-.75,2.11C82.05,73.57,80.64,74.82,78,74.37Z"/>
	<path class="burst-noncls-1" d="M169.07,126.81c-1.09-.78-1.53-1.64-1-2.82,3.32-1.09,3.78-1,5.89,1.47l-.55,1.19A6.24,6.24,0,0,1,169.07,126.81Z"/>
	<path class="burst-noncls-1" d="M63.51,110.78c-2.21-.17-3.32,2.29-5.33,1.88-1-1-.78-1.84,0-2.93a7,7,0,0,1,5.78-1.45Z"/>
	<path class="burst-noncls-1" d="M231.1,167.81l-1.71,1.71c-1.88-.09-2.92-1.21-4-2.12-.53-1.12-.75-2.1.55-3C227.84,164.76,229.26,166.06,231.1,167.81Z"/>
	<path class="burst-noncls-1" d="M273.62,164.79a5.78,5.78,0,0,1-1.1-4.26c.58-1.09,1.43-1,2.7-.47l1.3,3.42C276.11,165.11,275.8,165.23,273.62,164.79Z"/>
	<path class="burst-noncls-1" d="M223.1,96.47c-3.5.8-4.47-1.6-6-3.15L217.2,91c.59-.17,1.06-.49,1.41-.38A9.08,9.08,0,0,1,224,94.17Z"/>
	<path class="burst-noncls-1" d="M237.29,67.31a2.43,2.43,0,0,1-2.85,1.42c-2.35-.44-3.64-2-4.43-4.25a4.09,4.09,0,0,1,.5-1.18,5.34,5.34,0,0,1,1.3-.78c1.69,1.25,3.39,2.49,5.06,3.78C237.07,66.45,237.1,66.83,237.29,67.31Z"/>
	<path class="burst-noncls-1" d="M240.65,51.19c.51,1.44.94,2.72-.69,3.82a7.35,7.35,0,0,1-5.19-3.87c-.42-.86-.49-1.78,1-2.34A21.19,21.19,0,0,1,240.65,51.19Z"/>
	<path class="burst-noncls-1" d="M243.87,37.74V35.46c.48-.22.93-.63,1.27-.55,2.58.57,3.17,1,5.13,3.35-.81,1.62-1.44,2.09-2.58,1.82A6.07,6.07,0,0,1,243.87,37.74Z"/>
	<path class="burst-noncls-1" d="M214.54,104.33c.8,1.24.57,1.93.1,2.58a3,3,0,0,1-2.34,1.22,4.36,4.36,0,0,1-3.69-1.41,2.52,2.52,0,0,1-.67-3l1.22-.64c.5.26,1,.52,1.55.81s.76.49,1.07.68Z"/>
	<path class="burst-noncls-1" d="M256.79,22.39a9.71,9.71,0,0,1-2.21,3.91,7.29,7.29,0,0,1-4.14-3.4l.9-1.64C253.32,20.8,255.21,20.37,256.79,22.39Z"/>
	<path class="burst-noncls-1" d="M205.72,121.61c-.57,1.86-1.91,2.18-3.23,2.56a4.91,4.91,0,0,1-3.91-3.11l.71-1.49c.46-.17.62-.29.74-.26,1.71.46,3.41.92,5.1,1.44C205.34,120.81,205.46,121.22,205.72,121.61Z"/>
	<path class="burst-noncls-1" d="M196.88,132.81l1.34,1.47-1.42,2a6.91,6.91,0,0,1-5.1.16,2.15,2.15,0,0,1-1.46-3.05c.43-.13,1-.5,1.53-.41C193.56,133.31,195.33,133.66,196.88,132.81Z"/>
	<path class="burst-noncls-1" d="M188,151.51l-3.39-.31-2.15-3.11c.56-.52.92-1.12,1.4-1.26,1.53-.45,3,.15,4.25.3C189.69,148.59,189.06,149.81,188,151.51Z"/>
	<path class="burst-noncls-1" d="M227.11,79c-.18,1.78-.61,2.85-2.36,3-1.39-.79-2.18-2.27-3.08-3.53C222,77,222,77,223,76.24,224.93,76.32,225.89,77.76,227.11,79Z"/>
	<path class="burst-noncls-1" d="M155.65,66.71a2.28,2.28,0,0,1,0,3.37c-1.69.5-3.35.53-4.72-1.41l1.06-2Z"/>
	<path class="burst-noncls-1" d="M125.37,11c-1-1.12-.73-1.89.15-2.73a7.39,7.39,0,0,1,4.18-.14c.73,1.59.49,2.54-.65,2.94A5.57,5.57,0,0,1,125.37,11Z"/>
	<path class="burst-noncls-1" d="M117.3,113.82c1.32-1.65,3-1.78,4.48-2.56l1.17,1.32-1.79,3.08h-3.48Z"/>
	<path class="burst-noncls-1" d="M93.54,33.86A2.39,2.39,0,0,1,96,31.68c1.35-.13,2.8-.31,3.51,1.39-.34,1.46-1.59,1.73-2.76,2A2.71,2.71,0,0,1,93.54,33.86Z"/>
	<path class="burst-noncls-1" d="M63.29,38.5c-1.25,2.06-3,2.07-5.18,1.56l-.37-1.63a2.75,2.75,0,0,1,3.08-1.75A2.48,2.48,0,0,1,63.29,38.5Z"/>
	<path class="burst-noncls-1" d="M46.73,100.91c1.65-1.33,2.6-3.32,5.19-2.66l.45,1.47c-.43,1.12-.43,1.12-3.51,3C47.57,102.42,47.57,102.42,46.73,100.91Z"/>
	<path class="burst-noncls-1" d="M50,143.4l1.4,1.24a3.79,3.79,0,0,1-.29,1.08,6.2,6.2,0,0,1-3.87,2.2L45.9,147a6.84,6.84,0,0,1,.72-2A4.93,4.93,0,0,1,50,143.4Z"/>
	<path class="burst-noncls-1" d="M273.06,120.74c2-.56,3.09.45,3.9,1.94,0,1.39-.54,2.2-1.78,2.44C272.34,123.75,272.09,123.24,273.06,120.74Z"/>
	<path class="burst-noncls-1" d="M187,115.13c.39,3.12-.31,3.69-3.74,3.41a12.41,12.41,0,0,1-.62-1.08,5.71,5.71,0,0,1-.25-1,3.91,3.91,0,0,1,.79-1,2.8,2.8,0,0,1,1.29-.37C185.23,115.09,186,115.13,187,115.13Z"/>
	<path class="burst-noncls-1" d="M157.46,12.62a4.86,4.86,0,0,1-4.8,1.76c-1.16-.88-1-1.79.07-3l3.22-.44Z"/>
	<path class="burst-noncls-1" d="M130.33,61c2.35-1.15,4-.78,5.45.94-.08.38,0,.76-.22.93-.52.51-1.11.93-1.63,1.34C132.18,63.73,130.94,63.05,130.33,61Z"/>
	<path class="burst-noncls-1" d="M282.79,157.46c-.33-2-1.19-3.76,1.08-5,1.76,1.08,2.09,2.66,2.18,4.31C284.76,157.79,284.76,157.79,282.79,157.46Z"/>
	<path class="burst-noncls-1" d="M111.57,92.19a3,3,0,0,1-.65-2.84l4.37-1.14L116.36,90C115.08,92,113.2,91.83,111.57,92.19Z"/>
	<path class="burst-noncls-1" d="M106.53,67c-1.8,2.81-2.35,3-5.64,2.09a1.37,1.37,0,0,1,.66-1.92A28,28,0,0,1,105,65.9Z"/>
	<path class="burst-noncls-1" d="M68.09,55.48,66.3,54c.74-2,2.23-2.78,4.11-3.37l1.21,1c-.08.49,0,.9-.19,1C70.46,53.55,69.42,54.38,68.09,55.48Z"/>
	<path class="burst-noncls-1" d="M310.38,89.31c2.57.39,2.72.67,2.27,4.05l-1.87.49A3.19,3.19,0,0,1,310.38,89.31Z"/>
	<path class="burst-noncls-1" d="M69.74,116.82l1,1.49a6.06,6.06,0,0,1-1,1.35,2.19,2.19,0,0,1-3.36-.27l.41-2.19Z"/>
	<path class="burst-noncls-1" d="M107,82.63l.19-1.35a4.15,4.15,0,0,1,1.2-.56,2.52,2.52,0,0,1,3,1.84l-.73,1.29C109.07,84.37,107.83,84.24,107,82.63Z"/>
	<path class="burst-noncls-1" d="M53.17,33.24V31.8c1.22-.88,2.39-1.79,4-1.19a2.26,2.26,0,0,1-1.1,2.85A2.08,2.08,0,0,1,53.17,33.24Z"/>
	<path class="burst-noncls-1" d="M102.39,52.88c-2.49,2.1-2.58,2.1-4.45.25a1.58,1.58,0,0,1,1.42-1.93A2.37,2.37,0,0,1,102.39,52.88Z"/>
	<path class="burst-noncls-1" d="M152.63,55.21,152,53.64c.22-.32.35-.73.55-.76,2.76-.47,2.89-.42,4.75,1.25a1.28,1.28,0,0,1-1.38,1.4A25.73,25.73,0,0,1,152.63,55.21Z"/>
	<path class="burst-noncls-1" d="M113.79,105.41c-.66-2-.21-2.93,1.32-3.26a3.05,3.05,0,0,1,2.79,2.05C116.92,106.09,115.41,105.58,113.79,105.41Z"/>
	<path class="burst-noncls-1" d="M119.09,123.63c2.32-1.82,2.46-1.82,4.13-.06a3,3,0,0,1-2.84,2.41C119.16,125.73,118.94,124.93,119.09,123.63Z"/>
	<path class="burst-noncls-1" d="M63,48.81l-1.31-1.65c1.06-1.92,2.39-2.78,4.3-2.14A1.32,1.32,0,0,1,66,46.85a3.32,3.32,0,0,1-1,.93C64.51,48.1,64,48.33,63,48.81Z"/>
	<path class="burst-noncls-1" d="M124.51,134.91c-1.54.5-2.39.2-2.66-1.17.22-1.35.9-1.85,3-2.2C125.95,132.69,125.42,133.74,124.51,134.91Z"/>
	<path class="burst-noncls-1" d="M312.65,189.93c-1.5-.45-2.07-1.2-1.8-2.48a1.62,1.62,0,0,1,2.28-.77C314.4,188.51,314.39,188.51,312.65,189.93Z"/>
	<path class="burst-noncls-1" d="M155.07,0l1.5.16a1.71,1.71,0,0,1,.1,2.52c-.71.91-1.13.93-2.9,0Z"/>
	<path class="burst-noncls-1" d="M73.92,64.54l-1.25-1.47c.91-1.67,2.09-2.53,3.85-2,.61.85.39,1.46-.08,1.85A27.73,27.73,0,0,1,73.92,64.54Z"/>
	<path class="burst-noncls-1" d="M34.47,89.55l1.31-2.26c1.47-.31,2.1.24,2.47,1.21C38.23,90.2,37,90.69,34.47,89.55Z"/>
	<path class="burst-noncls-1" d="M151.18,132.76c-.12-2.14-.12-2.14,2.05-2.93l1.22,2.58C153.28,133.71,152.25,133.8,151.18,132.76Z"/>
	<path class="burst-noncls-1" d="M38.21,190.85l1,.62c.64,2.08-1,3.48-1.16,5-1,1-1.76,1.08-2.63.55C34.56,194,35.28,192.35,38.21,190.85Z"/>
	<path class="burst-noncls-1" d="M18,193.89c1.11-1.89,1.53-4.28,4.06-4.91l.86.9a9.89,9.89,0,0,1-3.1,6.13,8.28,8.28,0,0,1-1.33-.82C18.32,195,18.3,194.65,18,193.89Z"/>
	<path class="burst-noncls-1" d="M51,196.54l1,.84c.15,1.75-1.29,2.72-1.72,4.23l-1.83.16C47.28,198.9,47.68,198.1,51,196.54Z"/>
	<path class="burst-noncls-1" d="M69,199.62c.4,2.31-.38,3.2-1.91,3.57-2-1.23-2-1.64.1-4.14Z"/>
	<path class="burst-noncls-1" d="M3.72,189.52c-.48-2,.56-2.61,2-3l1.11,1C6.34,188.78,5.86,189.94,3.72,189.52Z"/>
	<path class="burst-noncls-1" d="M34.85,215l1.15.4c1.05,1.91-.23,3.6-.11,5.1-.74,1.15-1.5,1.42-2.46,1.08C31.92,218.87,32.3,217.12,34.85,215Z"/>
	<path class="burst-noncls-1" d="M15.74,222.19c.69-2.08.61-4.5,3-5.64l1,.7A9.89,9.89,0,0,1,18,223.89a8.28,8.28,0,0,1-1.48-.53C16.25,223.22,16.16,222.88,15.74,222.19Z"/>
	<path class="burst-noncls-1" d="M48.5,218l1.18.61c.51,1.68-.7,2.93-.81,4.49l-1.75.53C45.39,221,45.61,220.19,48.5,218Z"/>
	<path class="burst-noncls-1" d="M66.8,217.27c.87,2.18.29,3.21-1.13,3.89-2.25-.78-2.34-1.18-.75-4.07Z"/>
	<path class="burst-noncls-1" d="M.83,220.88c-.89-1.86,0-2.67,1.31-3.39l1.29.74C3.24,219.61,3,220.84.83,220.88Z"/>
	<path class="burst-noncls-1" d="M42.86,230.29l1.2.22c1.33,1.73.31,3.6.66,5.06-.55,1.24-1.27,1.63-2.27,1.44C40.54,234.5,40.64,232.72,42.86,230.29Z"/>
	<path class="burst-noncls-1" d="M56.8,231.13l1.26.42c.76,1.58-.25,3-.12,4.56l-1.65.79C54.18,234.64,54.27,233.75,56.8,231.13Z"/>
	<path class="burst-noncls-1" d="M278.77,212.72l-1.12.48c-.91,2,.5,3.58.49,5.08.82,1.09,1.6,1.31,2.54.89C282,216.31,281.47,214.6,278.77,212.72Z"/>
	<path class="burst-noncls-1" d="M298.36,218.41c-.85-2-.95-4.44-3.37-5.4l-1,.78a9.89,9.89,0,0,0,2.26,6.49,8.28,8.28,0,0,0,1.43-.64C297.93,219.48,298,219.13,298.36,218.41Z"/>
	<path class="burst-noncls-1" d="M265.37,216.66l-1.14.7c-.38,1.71.92,2.87,1.14,4.42l1.79.4C268.71,219.49,268.42,218.65,265.37,216.66Z"/>
	<path class="burst-noncls-1" d="M247.07,217.32c-.7,2.24,0,3.23,1.42,3.79,2.18-.95,2.24-1.35.45-4.11Z"/>
	<path class="burst-noncls-1" d="M313.13,216c.75-1.92-.2-2.66-1.56-3.28l-1.23.83C310.64,214.9,311,216.11,313.13,216Z"/>
	<path class="burst-noncls-1" d="M256.66,231l-1.12.27c-.94,1.46.42,2.84.37,4a2.28,2.28,0,0,0,2.5.93C259.76,234.06,259.3,232.68,256.66,231Z"/>
	<path class="burst-noncls-1" d="M276,237.24c-.8-1.66-.84-3.56-3.23-4.54l-1,.52a7.26,7.26,0,0,0,2.1,5.29,8.92,8.92,0,0,0,1.43-.37C275.52,238,275.6,237.77,276,237.24Z"/>
	<path class="burst-noncls-1" d="M243.29,232.78l-1.14.44c-.42,1.3.85,2.33,1,3.56l1.77.48C246.53,235.31,246.27,234.62,243.29,232.78Z"/>
	<path class="burst-noncls-1" d="M290.68,236.73c.78-1.43-.15-2.1-1.48-2.71l-1.24.54C288.23,235.65,288.52,236.63,290.68,236.73Z"/>
	<path class="burst-cls-4" d="M45.17,167l-3.61,6.69-1.66.2a6.48,6.48,0,0,1-.26-2.28c.74-2.48,1.58-5,3.84-6.44A1.59,1.59,0,0,1,45.17,167Z"/>
	<path class="burst-cls-4" d="M77.1,190l-1.47-2.37c.65-2,1.94-3,3.42-4.16l2,1.84A12.07,12.07,0,0,1,77.1,190Z"/>
	<path class="burst-cls-4" d="M52.56,171.75l1.83.88c.16,2-1,3.34-1.93,4.84H50.25a10.71,10.71,0,0,1-.31-1.46,1.5,1.5,0,0,1,.21-.88C50.83,174.12,51.56,173.14,52.56,171.75Z"/>
	<path class="burst-cls-4" d="M64.42,184.24l-1.63-1.72a8.28,8.28,0,0,1,3.2-3.68c1.13.07,1.57.64,1.37,1.5A5.5,5.5,0,0,1,64.42,184.24Z"/>
	<path class="burst-cls-4" d="M27.28,159.61c-.22,2.35-.62,4-2.35,4.87a1.38,1.38,0,0,1-1.33-1.63C23.75,161,24.3,160.51,27.28,159.61Z"/>
	<path class="burst-cls-4" d="M34.7,166.54c2.48-2.89,2.48-2.89,4.33-2.35,0,1.6-.86,2.81-1.9,4.14l-1.81.2Z"/>
	<path class="burst-cls-4" d="M1.77,149.17a8.42,8.42,0,0,1,1.29.64c.22.16.31.49.46.75,0,1.13-.95,1.38-2,1.91l-1.48-.92C-.23,150.07.54,149.66,1.77,149.17Z"/>
	<path class="burst-cls-4" d="M11,154.89c-.17-1.51.18-2.24,1.17-2.6,1.91,1.28,1.94,1.51.4,3.18-.14,0-.32.11-.42.06C11.74,155.34,11.38,155.11,11,154.89Z"/>
	<path class="burst-noncls-1" d="M317.65,128.46c2.34-1.42,2.34-1.42,3.59.6l-1.32,1.25Z"/>
	<path class="burst-noncls-1" d="M197.47,175.36l.85-.18c.15.19.37.33.39.51a15.7,15.7,0,0,0,1.1,2.69,10.75,10.75,0,0,1,.85,2.83,14.05,14.05,0,0,0,.45,2.08l1.95.82a4.55,4.55,0,0,1,2.26-.11,1.37,1.37,0,0,1,.83.65c0,.06.07.12.06.16-.07.3-.15.6-.24.93-.6.55-.85,1.44-1.69,1.78l-1.33,3.09c-.17,1.23.21,2.6-.59,3.68l-.46,3.42a3.52,3.52,0,0,0-.62,2.11l-.5.81c-.15.68,0,1.33-.28,2h-.88a6.76,6.76,0,0,1-1.16-3.09,1,1,0,0,0-.17-.59,2.62,2.62,0,0,1-.5-1.3,4.47,4.47,0,0,0-.5-.94,9.87,9.87,0,0,0-.9-3.55l-.91-.81a3.22,3.22,0,0,0-1.71.05c-.68.25-1.35.54-1.92.77h-2.6c-.34-.23-.64-.44-.95-.62s-.55-.29-.84-.44v-.8a15.75,15.75,0,0,0,3.23-2.14.28.28,0,0,1,.13-.08c1.16-.25,1.68-1.17,2.26-2.16a4.12,4.12,0,0,0-.27-1,8.21,8.21,0,0,1-1.06-3.09c-.07-.66-.51-1.24-.59-1.94a14.91,14.91,0,0,0-.42-1.81l-.37-.51a9.53,9.53,0,0,0-.24-1.38c-.13-.41-.31-.78,0-1.19.44-.27.78.29,1.15.09l.83.75c.19,1.17,1.6,1.7,1.81,3a24.68,24.68,0,0,1,2.3,3c.05-.71.11-1.21.12-1.72a4.94,4.94,0,0,1,.22-2.17C196.44,177.69,197.08,176.64,197.47,175.36Zm.85,3.09a1.5,1.5,0,0,0-.7,1.65,2.87,2.87,0,0,1,0,.91,3.41,3.41,0,0,0,0,1.39,13.57,13.57,0,0,1,.17,3.12c0,.12-.15.23-.23.36-1.48-1.37-2.25-2.1-2.62-3.14-.51-.65-.88-1.15-1.28-1.63a13.38,13.38,0,0,0-.94-1c-.09-.09-.29-.08-.47-.12a2.65,2.65,0,0,0,0,1.39l.44.66c0,.16,0,.32,0,.47a3,3,0,0,0,.75,2.17,1.47,1.47,0,0,1,.25.56c.21.59.4,1.19.61,1.79l-.09,1.24c-.09.14-.18.27-.26.4a3.48,3.48,0,0,1-1.61,1.65,1.52,1.52,0,0,0-.81,1,4.79,4.79,0,0,0,1.74-.78l2.92.54,1.5,2.17a13.44,13.44,0,0,0,1.76,5.87s.11,0,.14,0,.26-.2.31-.33c.23-.58.44-1.17.71-1.91a7.4,7.4,0,0,1,.52-2.82l-.37-1.62a6.31,6.31,0,0,0,.46-2.71,4.72,4.72,0,0,0,1.1-1.72c.15-.68.71-1.25.89-1.91a2.08,2.08,0,0,0-1.06-.79,4.66,4.66,0,0,0-.92,0,7.21,7.21,0,0,0-1,.37l-.72-.52a3.29,3.29,0,0,1-.15-1.59c0-.79.07-1.57,0-2.36a4.3,4.3,0,0,0-.32-1.36A12.53,12.53,0,0,0,198.32,178.44Z"/>
	<path class="burst-noncls-1" d="M102.07,163.06l1,.44c.16,1.17.94,2.11,1,3.28s.81,2.15,1,3.29l.84.89,1.28-.57a5.44,5.44,0,0,1,3,1.47l2,.14,1,.76v.77a6.32,6.32,0,0,1-3.13,3c-.82,0-1.8.95-3.08.81a6.07,6.07,0,0,0-.79,3.79c.11,1,.08,2,.11,3a22.58,22.58,0,0,0,.55,4.34,10.22,10.22,0,0,1,0,2l-.3.3c-.24,0-.36,0-.43-.07a3.9,3.9,0,0,1-1.5-1.95,6.17,6.17,0,0,0-1-1.5,4.63,4.63,0,0,0-.82-2.05,31.63,31.63,0,0,1-1.68-2.81c-.92-.27-1.6.4-2.48.55a4.24,4.24,0,0,1-2.08-.27c-1.19,0-2.38-.36-3.67,0l-.56.42-.87-.2c-.44-.59-.23-1.11.13-1.65l3.54-1.87a9,9,0,0,1,1.94-2,1.59,1.59,0,0,0-.12-1.5,12.25,12.25,0,0,1-.93-2.6,7,7,0,0,1-.36-2.3,12.63,12.63,0,0,0-.36-3.58c0-.09,0-.2,0-.3a.38.38,0,0,1,.56-.07,9.1,9.1,0,0,1,1.51,1.33,7.58,7.58,0,0,1,1.2,1.41c.33.6.7,1.17,1.06,1.74s.56.86.8,1.23a.47.47,0,0,0,.56-.33,1.86,1.86,0,0,0,.19-.59c.12-1,.13-2.09.33-3.11a24.44,24.44,0,0,0,.36-5.3C101.87,163.31,102,163.22,102.07,163.06ZM109,175.28l2-1.38-.09-.53c-.49-.27-.91-.48-1.3-.72s-.78-.51-1.18-.78l-1,.19-.91,1.08c-.79.12-1.09-.36-1.44-.69-1-2.61-1.64-3.76-2.24-4.34a3.13,3.13,0,0,0-.14.61,11.21,11.21,0,0,1-.23,2.81c-.16.6-.09,1.24-.23,1.86a9.2,9.2,0,0,0,0,2.06l-.57.43a3,3,0,0,1-1.28-1.41,5,5,0,0,0-.8-1.15,6.16,6.16,0,0,1-.67-.86c-.28-.43-.64-.81-.92-1.24s-.53-1-.79-1.42a.66.66,0,0,0-.48.63,10.44,10.44,0,0,0,0,1.57c.1.83.26,1.65.4,2.56a8.28,8.28,0,0,1,1.73,2.9l-.08.61c-.62,1-1.75,1.32-2.32,2.24-.15.24-.53.32-.78.51s-.14.24-.21.39l1,.49,2.19-.22,1.57-1.08,1,.1a3.18,3.18,0,0,1,.5.94,4.83,4.83,0,0,0,.62,1.59c.34.64.58,1.34.94,2.22.77.26.74,1.46,1.66,2a1.79,1.79,0,0,0,.31-.51,3.83,3.83,0,0,0,0-.94,39.21,39.21,0,0,0-.24-3.91c-.2-1.32,0-2.69-.1-4-.39-.76-1.24-.72-1.81-1a.69.69,0,0,1,.37-1,.92.92,0,0,1,.31,0,5.76,5.76,0,0,0,3.54-.1C107.92,175.54,108.44,175.43,109,175.28Z"/>
	<path class="burst-cls-2" d="M141.62,179c.22,1,.6,2.22-.46,3.31a7,7,0,0,1-1.94-2.65,6.92,6.92,0,0,0-.82-1.68,2,2,0,0,1-.25-.72c-.09-.37-.09-.37-.57-.9a2.33,2.33,0,0,0-.92,0c-.76.36-1.63.33-2.39.75a5.8,5.8,0,0,1-1.66.32,3.13,3.13,0,0,1-1.67-.08,5.89,5.89,0,0,0-1.42-.1l-.76-.65c0-.23-.07-.48-.08-.74a4.56,4.56,0,0,1,.07-.62,18.06,18.06,0,0,1,2.27-2.36,4.78,4.78,0,0,0,1.39-1.54,3.06,3.06,0,0,0-.26-1.95,29.44,29.44,0,0,1-1.41-4.3c-.13-.45-.28-.89-.43-1.36l.16-.74-.46-.38a34.48,34.48,0,0,1-.74-3.93.43.43,0,0,1,.71-.13,5.58,5.58,0,0,1,2.26,2.48c.73,1.19,1.49,2.37,2.28,3.63.18-.22.38-.36.41-.53a18,18,0,0,0,.48-2.94,10.8,10.8,0,0,1,.21-1.82c.17-.87.26-1.76.37-2.61l.86-.9a1.62,1.62,0,0,1,.34,0,.93.93,0,0,1,.28.14c1.46.95,1.46.95,1.88,2.65a6.6,6.6,0,0,0,.18.92,6.47,6.47,0,0,1,.47,3.23l.59.77.09,1.78a.83.83,0,0,0,.77.27,6,6,0,0,1,2.07.25c.72-.45,1.79.06,2.38-.94l1.44.82a.92.92,0,0,1,0,1.16,36.7,36.7,0,0,0-2.41,3.45,6.08,6.08,0,0,0-1.7,2.41,1.93,1.93,0,0,1-.6.71,1.57,1.57,0,0,0-.69,1.34c0,.73,0,1.47-.09,2.2C141.8,177.57,141.72,178.13,141.62,179Zm-7.08-12.53c-.19-.39-.26-.77-.48-.94-.71-.52-.9-1.36-1.36-2-.29-.43-.52-.9-.75-1.31l-.67-.29-.39.54a5,5,0,0,1,.66,2.08,1.26,1.26,0,0,0,.18.59c.46.83.42,1.83.94,2.64a13.93,13.93,0,0,0,1.38,3.64,1.53,1.53,0,0,1,0,1.64c-.78,0-.94,1-1.7,1.33-.4.64-1.26.94-1.42,1.86a3.18,3.18,0,0,0,1.87-.26,9.53,9.53,0,0,0,3.17-1.17,6.07,6.07,0,0,1,2,.08l1.31,2.21.14,2.25.79,1.13.47-.28c0-.26,0-.52,0-.78a16.58,16.58,0,0,1,.24-4.54c-.14-.86.34-1.63.35-2.46a6.28,6.28,0,0,1,.71-2.55c.08-.17.27-.29.4-.43l.79.26c.8-.32,1-1.12,1.55-1.65l-.2-.46-1.35-.29-1.41.3c-.36.09-.47.61-1,.51l-.72-.4a8.25,8.25,0,0,1-.62-3.1,54.55,54.55,0,0,0-1.13-5.76c-.63-.2-.63-.2-1.12.32l-.1,2.38-.47.88c-.11.92-.21,1.64-.29,2.37s-.15,1.55-.22,2.27C135.34,167.42,135.11,166.56,134.54,166.45Z"/>
	<path class="burst-noncls-1" d="M182.25,193.48l.62.4v.58a10.1,10.1,0,0,1-2.23,1.38,2.6,2.6,0,0,0-.73.54c-.7.76-1.41,1.52-2.1,2.29a3.11,3.11,0,0,0-.35.51,4.68,4.68,0,0,1-.39.68,3.64,3.64,0,0,1-.59.47,6.07,6.07,0,0,1-.08,2.35,2.53,2.53,0,0,0,0,1.7,1.62,1.62,0,0,1,.1.77,7.45,7.45,0,0,0-.35,1.49,3.48,3.48,0,0,1-.35,1.49c0,.09-.15.14-.23.21-.58-.14-.86-.71-1.42-1a7.53,7.53,0,0,1-.93-1.93c-.17-1-.72-1.73-.87-2.68l-.8-.33-1.87,1a31,31,0,0,1-4.24,0l-2.32-.76-.18-.85c.14-.33.32-.65.43-1a1.89,1.89,0,0,1,1.41-1.35c.93-.18,1.7-.8,2.66-.82l.46-.86-.6-3.13a3.2,3.2,0,0,1-.37-.78c-.38-1.61-1.16-3.13-1.38-4.77-.17-1.23-.86-2.38-.57-3.81l.66-.69a4,4,0,0,1,1.53,1.63,7.94,7.94,0,0,1,.86,1.83c.1.46.58.56.65,1a4.43,4.43,0,0,0,.49,1.1,2.33,2.33,0,0,0,.52.07,2.09,2.09,0,0,0,.47-.17c.1-.61.21-1.22.28-1.84s0-1.16.17-1.71-.52-1.2,0-1.82c.77-.11,1.1.48,1.55,1a5.16,5.16,0,0,0,.77,2.3,1.51,1.51,0,0,1,.19.58c.23.85.44,1.72.71,2.56a7.41,7.41,0,0,0,.45.81,6.75,6.75,0,0,1,.25.79l1.11.3.73-.45Zm-7.46,1.13a3.33,3.33,0,0,1-1.55-2.22,8.28,8.28,0,0,0-.42-1.32c-.21-.47-.32-1-.5-1.48,0-.08-.15-.13-.3-.26-.13.21-.35.4-.38.62a19.33,19.33,0,0,0-.11,2,4,4,0,0,1-.13,1.58c-.17,0-.35,0-.45-.11-.54-.5-1.06-1-1.57-1.54-.22-.22-.51-.46-.56-.73a5,5,0,0,0-.93-1.61,6.36,6.36,0,0,1-.48-1.13c0-.09-.13-.16-.25-.31l-.56-.18a.63.63,0,0,0-.26.89c.35,1,.7,2,1.05,3a2.57,2.57,0,0,0,.17.59,7.21,7.21,0,0,1,.7,1.91,30.52,30.52,0,0,1,1.07,4.1l-.43,1.33c-1.16.59-2.54.66-3.55,1.59l.23.42c2,.54,2.06.54,4.35,0a7.52,7.52,0,0,1,2-1.42c.54.44,1.11.82,1.17,1.48a3,3,0,0,0,.68,1.5l.14,1.9.77,1.08.61-.12a6,6,0,0,0,.25-1.72,8.2,8.2,0,0,1,0-2.48c-.4-.45.26-.88,0-1.35a4.44,4.44,0,0,1-.21-1.86,2.38,2.38,0,0,1,.79-2,1.31,1.31,0,0,1,.27-.15l.61.11.85-.36c.49-.7,1.25-1.14,1.61-1.93-.15-.14-.25-.3-.38-.34a4.24,4.24,0,0,0-2.32-.08C176.14,194.22,175.5,194.42,174.79,194.62Z"/>
	<path class="burst-noncls-1" d="M143.07,191.86l.87.83c.38,1.22.41,2.51.9,3.65a30.88,30.88,0,0,1,1,3.48,1.69,1.69,0,0,0,.38.2,8.28,8.28,0,0,1,1.65.4,15.26,15.26,0,0,0,1.6.58,9.39,9.39,0,0,1,1.9,1.07,14.9,14.9,0,0,1,1.19,1,1.5,1.5,0,0,1,.09.86c-.37.31-.69.08-.94.17l-.84-.52a5.77,5.77,0,0,0-1.24.2c-.92.36-1.81.79-2.7,1.22-.17.08-.29.29-.48.48l1,3-1.11-.1c-.07.09-.19.18-.19.26,0,1,.11,2.08.17,3.12a7,7,0,0,0,.23,2,4.94,4.94,0,0,1,0,1.49l-.51.5-.94-.4-1.41-2.08L142,208.41a7.17,7.17,0,0,0-3.42-.62,9.12,9.12,0,0,0-3.46.5l-.69-.45-.09-1.14c.13-.14.18-.25.26-.29a13.18,13.18,0,0,0,2-.92,5.21,5.21,0,0,0,1.88-2.3,3,3,0,0,0-.28-2c-.38-.8-.63-1.65-1-2.45-.28-.61-.46-1.27-.75-1.85a17.63,17.63,0,0,1-.72-3.25c.19-.5.46-.69.95-.57a6.58,6.58,0,0,1,1.08,1.46c.23.59.84.94.83,1.62.45.38,1,.59,1.29,1.14a13.21,13.21,0,0,0,.95,1.39l.43-.1a4.81,4.81,0,0,0,.13-1,6.59,6.59,0,0,1,.32-2.16q.32-1.29.6-2.58A1.26,1.26,0,0,1,143.07,191.86Zm-5,5.32a.71.71,0,0,0-.08,1c.47.49.47,1.15.76,1.7a20.18,20.18,0,0,1,.88,1.82,4,4,0,0,1,.37,2.46l-.83,1.72a2,2,0,0,0,.49.39c.44.15.91.23,1.36.37a3,3,0,0,1,2,1.81l.46,1.32a1.71,1.71,0,0,0,.21.58c.41.46.37,1.07.54,1.55.27.21.41.54.83.42a17.46,17.46,0,0,0-.12-3.12,5.27,5.27,0,0,1,0-.77c0-.63.1-1.25.12-1.88,0-.83,0-1.66.05-2.52,1.11-.68,2.46-.67,3.48-1.54l-.11-.56a5.63,5.63,0,0,0-2.64.05l-.57-.77a9.5,9.5,0,0,0-.71-2.38,6.92,6.92,0,0,1-.73-2.15,2.91,2.91,0,0,0-.49-1.31,2.19,2.19,0,0,0-.5,1.59,13,13,0,0,0-.11,1.69,17.39,17.39,0,0,1-.19,1.85c0,.15-.24.29-.38.46l-1.2-.55A15.71,15.71,0,0,0,138,197.19Z"/>
	<path class="burst-noncls-1" d="M124.7,200.31l-.89-.38a41.57,41.57,0,0,0-2.75-4.62l-2.25-1.58a4.51,4.51,0,0,1-.81-3.29,3.31,3.31,0,0,0,.9-2c.46-.6.48-1.48,1.13-1.91a12.85,12.85,0,0,1,1.29,0,1.84,1.84,0,0,1,1.4.59c.22.27.6.41.85.67a6,6,0,0,1,.59.87c.76-.11,1-.85,1.6-1.19h1.45a7.57,7.57,0,0,1,2.2,1.77l.51,1.86a11.76,11.76,0,0,1-1.17,2.8c-.09.12-.11.31-.22.41a4.75,4.75,0,0,0-1.21,1.6,7.08,7.08,0,0,1-1.16,1.44,1.07,1.07,0,0,0-.25.4,2.42,2.42,0,0,1-.54,1.27A5.16,5.16,0,0,0,124.7,200.31Z"/>
	<path class="burst-noncls-1" d="M180.58,169.33l.35.84-.29.36a4.15,4.15,0,0,0-2-.07,5.3,5.3,0,0,0-1.84,1.32l-2.44.93c-.36.35-.29.81-.19,1.28q.27,1.3.47,2.61a3.48,3.48,0,0,1,0,.94,8,8,0,0,0,.06,2.63l-.5.55c-.17,0-.3,0-.36-.09a9,9,0,0,1-1.52-2.52c-.33-.64-.55-1.34-.89-2-.13-.26-.43-.43-.76-.73l-1.18-1.87-.81,0a8.07,8.07,0,0,1-7,1.75l-.51-1a4.25,4.25,0,0,1,2-3.1,1.69,1.69,0,0,0,.55-.56,6.69,6.69,0,0,1,1.68-1.76,2.1,2.1,0,0,0-.24-1.71c-.33-.71-.73-1.38-1.06-2.09s-.46-1.15-.81-2c-.69-.79-.95-2.16-1.58-3.43l.47-.6c1.53.78,2.5,2.13,3.79,3.09l.22.6.59.19,1.36,1.52.54-.22c.05-.17.13-.27.11-.36a14.65,14.65,0,0,1-.18-3.13c0-.63.41-1.17.33-1.84a13.27,13.27,0,0,1,0-1.91l.55-.38c.75.13.48.9.88,1.11s.37.86.72,1.16.21.9.41,1.33a8.06,8.06,0,0,1,.46,1.17,11.33,11.33,0,0,1,.31,1.37c.08.46.11.94.17,1.45l1,1.68.74.44,1.47.06c.66.32,1.38.65,2.07,1a2.45,2.45,0,0,1,.87.64A4,4,0,0,0,180.58,169.33Zm-11.21-3c-.49-.43-1-.6-1.38-1.14s-.77-.67-1-1.16a6,6,0,0,1-2-2,4.57,4.57,0,0,0-.71-.61l-.62.18c.46,1.32.89,2.6,1.35,3.87a2,2,0,0,0,.4.66,5.08,5.08,0,0,1,1.42,2.69,1.9,1.9,0,0,0,.22.49,3.69,3.69,0,0,1-1.28,1.84c-.36.29-.74.56-1.09.86a5.88,5.88,0,0,0-1.67,1.88,1.55,1.55,0,0,0,1.29.13,9.28,9.28,0,0,1,1.19-.57,11.53,11.53,0,0,0,2.71-1.15,1.6,1.6,0,0,1,.42-.12,2.14,2.14,0,0,1,1.06.65c.3.41.78.65,1,1.14s.68.9,1,1.39c.38.68.69,1.4,1.06,2.17l.55.33c.14-.14.27-.21.27-.28a3.29,3.29,0,0,0-.05-1.5,4.72,4.72,0,0,1-.36-2.14,5.09,5.09,0,0,0-.23-1.86,2,2,0,0,1-.08-.62.76.76,0,0,1,.59-.84c.7.36,1.42.63,2.08-.16.08-.1.29-.09.44-.15a3.93,3.93,0,0,0,1.84-1.41c.05-.07,0-.2,0-.35l-1-.85c-.56.13-1.1-.17-1.68,0a7.19,7.19,0,0,1-1.83.11l-.75-.71-.19-1.45c-.29-.8-.57-1.53-.83-2.27s-.51-1.58-.79-2.36a1.75,1.75,0,0,0-.36-.45l-.42.16a10.28,10.28,0,0,0-.07,3.45,5.1,5.1,0,0,1,0,1.85Z"/>
	<path class="burst-noncls-1" d="M114.06,232.26c-.53.6-.88,1.42-1.53,2.07a5.07,5.07,0,0,0-1,1.94,13.64,13.64,0,0,1-1.14,2.23c-.1.18-.42.23-.61.32a1.32,1.32,0,0,1-.52-1.18,11.14,11.14,0,0,0,.11-2.17c-.14-.73,0-1.45-.15-2.16a1.7,1.7,0,0,0,0-1.37,2.11,2.11,0,0,1,0-1.38c.23-.91.46-1.81.71-2.76l-1-1.25-2.45-1.1a6.28,6.28,0,0,1-3.34-.92,3.12,3.12,0,0,0-1.59-.63,2.57,2.57,0,0,1-1-.4c-.41-.23-.79-.51-1.2-.78L99,222a.89.89,0,0,1,.82-.74,24.16,24.16,0,0,0,5.34-1.18l.88.18,1.53-.73.69-1.09c0-.46,0-.88-.06-1.29-.11-1.09.37-2.16.08-3.25a3.75,3.75,0,0,0,.26-1.37c.33-2.17.39-4.37.67-6.65a6.53,6.53,0,0,1,.91-1.69c1-.13,1.23.64,1.55,1,.27,1.33.51,2.45.72,3.58a5,5,0,0,1,.15,1.24,28.33,28.33,0,0,0,.75,6c0,.08.14.14.22.21a1.33,1.33,0,0,0,.94-.74c.62-1,1.25-2.07,1.78-3.15a6.92,6.92,0,0,1,.85-1.46,12,12,0,0,0,.9-1.48c.35-.58.72-1.15,1-1.64a.85.85,0,0,1,1,.35c0,.47,0,1,0,1.51a3.07,3.07,0,0,0,0,1.09,3.81,3.81,0,0,1,0,2.17,14.18,14.18,0,0,1-1.11,4,2.15,2.15,0,0,0-.15.44l-.64,2.46c.07.22.33.3.61.45.82-.24,1.65.21,2.53.11s1.77-.09,2.83-.14l1.47.42c.35.83.35.83.1,1.45-.28.3-.59,0-.87.05a6.68,6.68,0,0,0-2.42,1.45,26.12,26.12,0,0,0-1.9,2,2.66,2.66,0,0,1-1.14,2.13c-.24.2-.5.38-.75.56a6.55,6.55,0,0,0-2.2,2.38Zm2.76-11.87a8.2,8.2,0,0,1,.55-1.61,8.12,8.12,0,0,0,.92-3.13,24.16,24.16,0,0,1,.78-3.25l-.34-.8-.59.22c-.46.61-.87,1.15-1.27,1.7a3.56,3.56,0,0,0-.3.53l-1,2.12a10.21,10.21,0,0,0-.81,1.86,3.1,3.1,0,0,1-1.61,2,2.32,2.32,0,0,1-.86-1.69,12,12,0,0,1-.22-1.85c0-.57-.3-1.15-.24-1.7s-.15-1.22-.11-1.84a32.73,32.73,0,0,0-.4-3.71,9.18,9.18,0,0,0-.57-2.12c0-.11-.17-.18-.37-.38-.08.87-.58,1.5-.34,2.28a.42.42,0,0,1-.07.3,3.34,3.34,0,0,0-.28,1.68c-.06.73-.18,1.45-.24,2.18a22.32,22.32,0,0,0-.18,2.34,14.17,14.17,0,0,1-.1,2.66,14.27,14.27,0,0,0,0,2.29l-.48.84-1.49,1a9.92,9.92,0,0,0-3.07.46c-.12,0-.2.19-.28.28a1,1,0,0,0,.75.58c.19.06.43,0,.61,0a34.55,34.55,0,0,0,4.3,1.4,3.12,3.12,0,0,1,.68.38l.75,3.23a4.46,4.46,0,0,0-.26,1,4.63,4.63,0,0,1-.67,2.2,7,7,0,0,1-.08,1.43,2.55,2.55,0,0,0,.41,2.15,2.4,2.4,0,0,0,1.09-1.09,7.62,7.62,0,0,1,1.15-1.87,11.85,11.85,0,0,0,1.27-1.61c1.19-.47,1.78-1.55,2.49-2.49a9.55,9.55,0,0,0,1-.78c.25-.25.48-.57.38-.88-.22-.65-1.06-.72-1-1.48.31-.15.64-.45,1-.45a6.36,6.36,0,0,0,2.48-.9c.26-.4.53-.78.78-1.18,0-.07,0-.2,0-.34l-.75-.42a8.64,8.64,0,0,0-2,.31,1.25,1.25,0,0,1-.43,0l-.64-.72.42-.12Z"/>
	<path class="burst-noncls-1" d="M219.07,202.09a18.3,18.3,0,0,0,4-5.53,9.81,9.81,0,0,0,.58-1.77,3.1,3.1,0,0,1,1-1.78l.66.79c0,.1.05.15.06.2a8.56,8.56,0,0,1-.37,5.05,6.06,6.06,0,0,0-.16,1.41c-.73,1-.46,2.36-.84,3.6a3.84,3.84,0,0,0,.06,1.26l1.65,1.1c.29.27.3.77.65,1.15a9.08,9.08,0,0,1,1.16,1.66c.49.83,1.07,1.7,2.2,1.7a1.26,1.26,0,0,1,.2,1.23c-.92.48-.92.48-2.36.07-1.16.42-2.55-.3-3.67.8l-.53,1.08a8.68,8.68,0,0,0-.82.35,6.91,6.91,0,0,0-.7.5c-.16,1.31-1.14,2.27-1.7,3.48a22.94,22.94,0,0,1-2.18,1.48,2,2,0,0,0-.8.74,3.38,3.38,0,0,1-1.29,1c-.41.54-.59,1.18-1.2,1.59l-.57-.41c-.18-.84-.07-1.62-.31-2.39a4.77,4.77,0,0,1,.14-1.59l-.2-1.14.26-.84c-.65-.85-.08-1.92-.45-2.91a3.21,3.21,0,0,0-2.1-.85c-.68,0-1.16-.44-1.78-.57-.86-.18-1.7-.5-2.68-.8l-.8.12-.58-.33-.21-.74a3.45,3.45,0,0,1,.28-.63,4,4,0,0,1,2.24-1.58,12.66,12.66,0,0,1,2.13-.44,10.27,10.27,0,0,0,1.16-.19l.7.25c.53-.2,1.05-.67,1.7-.32.61-.6,1.35-1,1.54-1.93-.09-.3-.22-.7-.33-1.1a2,2,0,0,1-.11-.6c0-.78-.1-1.55-.09-2.31a36.93,36.93,0,0,1,.32-4.2.6.6,0,0,1,0-.15,22.8,22.8,0,0,0,1-2.45,11.22,11.22,0,0,1,1.23-2.24l.52-.08c.53.29.52.82.73,1.27a10,10,0,0,0,.12,3.86,2,2,0,0,1-.18,1.13,5.79,5.79,0,0,1,.24,2.56C218.66,201.88,218.83,202,219.07,202.09Zm8.11,8.63c-.39-.72-.67-1.33-1-1.89a5.85,5.85,0,0,0-2.22-2.14c-.37-.19-.71-.42-1-.61a6.92,6.92,0,0,1-.09-3,12.74,12.74,0,0,1,.71-3,4.5,4.5,0,0,0,.19-.92l-.56.07c-.36.63-.7,1.27-1.08,1.9-.81,1.34-1.47,2.79-2.85,3.69-.32.55-.9.68-1.48.91l-.4-1.24a42.73,42.73,0,0,0,.26-6.52,5,5,0,0,0-.39-1.34s-.09,0-.22-.06l-.26.08a3.17,3.17,0,0,1-.18.58,7.85,7.85,0,0,0-.88,3.6c0,.35.18.77.05,1.05a2.87,2.87,0,0,0,.15,2.29,4.27,4.27,0,0,1,.28,2.59,1.22,1.22,0,0,0,.07.51,3.21,3.21,0,0,1-2.09,2.12,9.82,9.82,0,0,1-2,.47c-.87.15-1.75.25-2.62.39-.33.06-.58.24-.49.63a6.41,6.41,0,0,0,2.58.65,6.26,6.26,0,0,0,1.41.62,2,2,0,0,1,1.26.59,3,3,0,0,1,.3,2,5.92,5.92,0,0,0,0,1.72,13.26,13.26,0,0,1,0,3.57,1.23,1.23,0,0,0,.33,1.15c.11,0,.24,0,.31-.05a3.18,3.18,0,0,0,.65-.65,3.56,3.56,0,0,1,1.5-1.32,8.6,8.6,0,0,0,3.1-3.22A9.25,9.25,0,0,1,222,213a4.65,4.65,0,0,1,2.06-2,2.66,2.66,0,0,1,1.13-.14A4.45,4.45,0,0,0,227.18,210.72Z"/>
	<path class="burst-cls-2" d="M175.59,230.7l.39-3.12-.49-.78a6,6,0,0,1-2.16-1.88,2.92,2.92,0,0,1-1.85-1.2l-.59-.1-2.41-1.7.22-.63,1.59-.61a21.27,21.27,0,0,0,4.91-.12l.56-.77v-1c.31-1.16.61-2.21.88-3.27a2.69,2.69,0,0,0,.09-1.39,1.22,1.22,0,0,1,0-.61,32.79,32.79,0,0,0,.58-5.24c.47-.29.81-.1,1.12.3a1.39,1.39,0,0,1,.06.43,6.73,6.73,0,0,0,.22,2.48c.34,1.58.6,3.18,1,4.75a4.82,4.82,0,0,1,0,1.17c.88.41.27,1.69,1.17,2.18.1,0,.23,0,.29,0,1.43-1.36,3.1-2.47,4.28-4.1A1.53,1.53,0,0,1,186,215a4.29,4.29,0,0,0,1.22-1.2,4.63,4.63,0,0,1,.77-.63l.73.68a3.51,3.51,0,0,1-.6,2.35,3.76,3.76,0,0,0-.6,1.59,9.73,9.73,0,0,1-1.52,3.76c-.25.39-.47.81-.73,1.28.53,1.3.77,2.76,1.74,3.9a3.89,3.89,0,0,1,.41.84,5.87,5.87,0,0,0,.35.69,7.67,7.67,0,0,1,.92,1.45c.1.27.41.46.74.8l.31,1.4c-.23.41-.23.41-.64.55a1,1,0,0,1-.28-.13,12.83,12.83,0,0,0-1.79-1.75,3.45,3.45,0,0,1-.79-1,4,4,0,0,0-3.14-.93c-.43.3-.15.73-.36,1.14a4.12,4.12,0,0,0-1.57,2.67c-.42.66-.56,1.44-1,2.09a6.46,6.46,0,0,0-1.06,2.09,7.71,7.71,0,0,1-.87,1.59l-1.22.09a18,18,0,0,1-1.18-5.86,7.15,7.15,0,0,0-.1-1.09C175.64,231.12,175.6,230.8,175.59,230.7Zm.05-8.35a4,4,0,0,1-.77-.07,3.75,3.75,0,0,0-2.3.21.33.33,0,0,0-.23.51c.27.1.66.12.83.32.56.65,1.39.93,2,1.52l.36.69a2.88,2.88,0,0,1,1.79.93l.27.82-1,2.87a3.16,3.16,0,0,1,.05.63c0,.26-.19.51-.17.76.1,1.29.22,2.58.38,3.87a.89.89,0,0,0,.61.8l.72-.3a3.39,3.39,0,0,1,1.2-2.12c.33-1,.56-2,1-2.86s1-1.74,1.44-2.57c.32-.31.61-.6.92-.87a2.39,2.39,0,0,1,.37-.23l1.38,0c.5.1.87.46,1.37.42a1.32,1.32,0,0,0-.27-1.36c-.72-1.14-1.17-2.41-1.86-3.63a3.92,3.92,0,0,1,.55-.93,7.45,7.45,0,0,0,2-4l-.28-.2a14.46,14.46,0,0,0-1.73,1.55,31.31,31.31,0,0,0-2.47,2.83c-.12.18-.42.25-.69.4a20.77,20.77,0,0,1-2.7-7l-.55-.31a7,7,0,0,0-.17,2,3.38,3.38,0,0,0-.29,1.93c-.22.36-.47.6-.49,1a7.22,7.22,0,0,1-.33,1.52A1.24,1.24,0,0,1,175.64,222.35Z"/>
	<path class="burst-cls-2" d="M95.36,205.13c0,.91.7,1.43,1,2.13a9.18,9.18,0,0,0,1.51,2c.51.59,1.07,1.12,1.63,1.7v.86c-.21.11-.43.31-.66.33a7.17,7.17,0,0,1-1.87,0,5.49,5.49,0,0,0-2.6,0l-.92-.36-1.19.27-.33-.64.79-.76.42-.09a6.79,6.79,0,0,1,3.23.14c.17.06.4,0,.62-.08l.19-.67a7.2,7.2,0,0,1-.88-.86c-.24-.33-.34-.77-.58-1.1-.49-.67-1-1.3-1.66-2,.08-.86.36-1.8.51-2.77s.87-1.69.67-2.69c-.7.09-.82.89-1.38,1.15a1.32,1.32,0,0,1-1-1.07,10.86,10.86,0,0,1-.68-2.89,9.22,9.22,0,0,0-.64-2.24c0-.08-.16-.11-.28-.19-.46.31-.59.84-.85,1.27a6.19,6.19,0,0,1-.38,2,3.06,3.06,0,0,0-.15.76c-.1.46-.23.91-.31,1.37a5.57,5.57,0,0,0-.19,2.78,3.3,3.3,0,0,1,0,1.08,1.3,1.3,0,0,1-.7,1.15l-.54.33a4.59,4.59,0,0,1-1.7,0,2.07,2.07,0,0,0-1.23.08,6.66,6.66,0,0,1-1.66.19l-.22.34a6.17,6.17,0,0,0,1.57,1l1.68,1a1.81,1.81,0,0,1,.59,1.37c-.1.87.52,1.73,0,2.52.51,1.48.22,2.94.18,4.49a2,2,0,0,0,.42-.3,9.86,9.86,0,0,0,1.09-2.76,11.79,11.79,0,0,1,2.57-4.45l.32-.34A2.84,2.84,0,0,1,92,209a3.83,3.83,0,0,1,.39,0l.26.44a1.23,1.23,0,0,1-.11.34c-.29.37-.62.7-.87,1.1-.61,1-1.2,2-1.78,3a13.74,13.74,0,0,0-1.07,2.94c-.08.25-.15.5-.24.74-.27.68-.54,1.36-.83,2-.15.33-.3.68-.84.7l-.51-.72-.09-1.65c.51-.7.18-1.62.32-2.48a17.28,17.28,0,0,0,0-2.72l-.4-1.93-.89-1.55a3.53,3.53,0,0,0-1.21-.52,1.73,1.73,0,0,1-1.07-.54c-.69-.55-1.56-.88-2-1.69a3.66,3.66,0,0,1-.21-.53,2,2,0,0,1,1.22-1.39,12.58,12.58,0,0,1,1.4-.15,20.68,20.68,0,0,1,2.34-.05,10.57,10.57,0,0,0,1.88,0,2,2,0,0,0,.57-.23c0-.72,0-1.4,0-2.06a43.47,43.47,0,0,1,1-4.73,9.09,9.09,0,0,0,.59-2.58c.46-1.11.65-2.31,1.07-3.43a5.84,5.84,0,0,1,.44-.8h.55a5.7,5.7,0,0,1,.86,3.12c.07,1.41.4,2.78.54,4.18,0,.4.13.8.19,1.18a.61.61,0,0,0,.73-.27,1.64,1.64,0,0,0,.21-.58A2,2,0,0,1,95,197a6.17,6.17,0,0,0,1-1.4A8.75,8.75,0,0,1,98,193c.6.15.61.14,1,.84a2.79,2.79,0,0,1-.21,1.53,26.51,26.51,0,0,1-1,2.95,27.62,27.62,0,0,1-1.3,2.84,1.08,1.08,0,0,0-.23.58A13.75,13.75,0,0,1,95.36,205.13Z"/>
	<path class="burst-noncls-1" d="M88.68,226.39l1.66.94A4.85,4.85,0,0,1,90.4,231a11,11,0,0,1-3.18,2.5,9.15,9.15,0,0,0-.92.59,10.25,10.25,0,0,1-3.57,2.27l-.67,1-.77,0a4,4,0,0,1-.31-.77,39.22,39.22,0,0,0-1.51-5.23,13,13,0,0,1-.72-2.85c-.08-.94,0-1.89-.14-2.81a4.48,4.48,0,0,1,.77-3.1,11.2,11.2,0,0,1,1.26-1.45,3.17,3.17,0,0,1,.73.13c.53.23,1,.49,1.56.76s.91.51,1.38.78l1.45,4.06c.51-.12,1-.26,1.51-.34S88.22,226.43,88.68,226.39Z"/>
	<path class="burst-noncls-1" d="M220.93,227.55l1.08,2.84.72.32,1.24-.56a3.92,3.92,0,0,1,2.1,1.23l.28.64-.24,2.42c-.18.86-1,1.34-1.59,2.13-.91.21-1.71.92-2.72,1.19-.13,0-.21.22-.34.37h-1.18l-1.16.74-1,.24-.67,1c-.3.17-.5,0-.7-.18a1.08,1.08,0,0,1-.19-.25c-.22-.58-.4-1.18-.64-1.76a13.7,13.7,0,0,1-1.14-4.06c-.44-.87-.09-1.84-.37-2.74a1.5,1.5,0,0,1,.12-.92,10.36,10.36,0,0,1,2.39-3.46,2.59,2.59,0,0,1,.57-.32h1Zm-1.44,1.24-.52,0a1.24,1.24,0,0,0-.08.45,6.39,6.39,0,0,0,.88,1.53,1,1,0,0,0,.55-.93Z"/>
	<path class="burst-noncls-1" d="M156,223.79l1.08,2.84.72.32,1.24-.56a3.92,3.92,0,0,1,2.1,1.23l.28.64-.24,2.42c-.18.86-1,1.34-1.59,2.13-.91.21-1.71.92-2.72,1.19-.13,0-.21.22-.34.37h-1.18l-1.16.74-1,.24-.67,1c-.3.17-.5,0-.7-.18a1.08,1.08,0,0,1-.19-.25c-.22-.58-.4-1.18-.64-1.76a13.7,13.7,0,0,1-1.14-4.06c-.44-.87-.09-1.84-.37-2.74a1.5,1.5,0,0,1,.12-.92A10.36,10.36,0,0,1,152,223a2.59,2.59,0,0,1,.57-.32h1ZM154.57,225l-.52,0a1.24,1.24,0,0,0-.08.45,6.39,6.39,0,0,0,.88,1.53,1,1,0,0,0,.55-.93Z"/>
	<path class="burst-noncls-1" d="M206.66,225.66l-.29.93-2.46,2-1-.45.25-.44a2.19,2.19,0,0,1-.87-1.59,1.65,1.65,0,0,0-.17-.76,4.1,4.1,0,0,1-.49-2.4,8.42,8.42,0,0,0-.36-1.71c.19-.62-.15-1.41,0-2.25a12.22,12.22,0,0,0,.36-2.26c-.07-.9.45-1.58.58-2.38l.78-.54a1.09,1.09,0,0,1,.33.05c.42.22.82.46,1.24.7l.89,1,1.16,2.95c.21.19.46.12.71,0l.88-.36c1.37-.12,2.21.71,3,1.7l-.13,1.84a4,4,0,0,1-1.3,1.75A28.31,28.31,0,0,1,206.66,225.66Z"/>
</svg>