<svg xmlns="http://www.w3.org/2000/svg" viewBox="0 0 338.54 266.9">
	<defs>
		<style>.bathtub-cls-1{isolation:isolate;}.bathtub-cls-2{fill:#f5e99f;}</style>
	</defs>
	<title>svg_stars-behind-bathtub</title>
	<path class="bathtub-cls-2" d="M183.2,178.27c-3.5.8-4.47-1.6-6-3.15l.13-2.36c.59-.17,1.06-.49,1.41-.38a9.08,9.08,0,0,1,5.41,3.59Z"/>
	<path class="bathtub-cls-2" d="M226.39,82.11a2.43,2.43,0,0,1-2.85,1.42c-2.35-.44-3.64-2-4.43-4.25a4.09,4.09,0,0,1,.5-1.18,5.34,5.34,0,0,1,1.3-.78c1.69,1.25,3.39,2.49,5.06,3.78C226.17,81.24,226.2,81.62,226.39,82.11Z"/>
	<path class="bathtub-cls-2" d="M179.75,110c.51,1.44.94,2.72-.69,3.82a7.35,7.35,0,0,1-5.19-3.87c-.42-.86-.49-1.78,1-2.34A21.19,21.19,0,0,1,179.75,110Z"/>
	<path class="bathtub-cls-2" d="M242,113.53v-2.29c.48-.22.93-.63,1.27-.55,2.58.57,3.17,1,5.13,3.35-.81,1.62-1.44,2.09-2.58,1.82A6.07,6.07,0,0,1,242,113.53Z"/>
	<path class="bathtub-cls-2" d="M167.64,192.12c.8,1.24.57,1.93.1,2.58a3,3,0,0,1-2.34,1.22,4.36,4.36,0,0,1-3.69-1.41,2.52,2.52,0,0,1-.67-3l1.22-.64c.5.26,1,.52,1.55.81s.76.49,1.07.68Z"/>
	<path class="bathtub-cls-2" d="M195.89,81.18a9.71,9.71,0,0,1-2.21,3.91,7.29,7.29,0,0,1-4.14-3.4l.9-1.64C192.42,79.59,194.31,79.16,195.89,81.18Z"/>
	<path class="bathtub-cls-2" d="M153.82,207.41c-.57,1.86-1.91,2.18-3.23,2.56a4.91,4.91,0,0,1-3.91-3.11l.71-1.49c.46-.17.62-.29.74-.26,1.71.46,3.41.92,5.1,1.44C153.44,206.61,153.56,207,153.82,207.41Z"/>
	<path class="bathtub-cls-2" d="M132,169.6l1.34,1.47-1.42,2a6.91,6.91,0,0,1-5.1.16,2.15,2.15,0,0,1-1.46-3.05c.43-.13,1-.5,1.53-.41C128.66,170.1,130.43,170.46,132,169.6Z"/>
	<path class="bathtub-cls-2" d="M237.21,174.8c-.18,1.78-.61,2.85-2.36,3-1.39-.79-2.18-2.27-3.08-3.53.33-1.48.33-1.48,1.37-2.21C235,172.11,236,173.55,237.21,174.8Z"/>
	<path class="bathtub-cls-2" d="M36.84,36.65c1.91-3,4.29-2,6.49-2l1.58,1.76c-.29.54-.4,1.1-.72,1.27a9.08,9.08,0,0,1-6.36,1.29Z"/>
	<path class="bathtub-cls-2" d="M74.29,135.18a2.43,2.43,0,0,1,1-3c2-1.35,4-1.13,6.14-.13a4.09,4.09,0,0,1,.48,1.19,5.34,5.34,0,0,1-.36,1.47c-2.08.31-4.16.63-6.25.9C75.06,135.64,74.77,135.39,74.29,135.18Z"/>
	<path class="bathtub-cls-2" d="M87.56,82.49c-1.38-.66-2.59-1.26-2.21-3.19a7.35,7.35,0,0,1,6.41-.94c.9.31,1.6.91,1,2.34A21.19,21.19,0,0,1,87.56,82.49Z"/>
	<path class="bathtub-cls-2" d="M41.05,124l1.62,1.62c-.18.5-.21,1.1-.51,1.29-2.22,1.42-2.95,1.54-6,1.26-.57-1.72-.46-2.5.54-3.11A6.07,6.07,0,0,1,41.05,124Z"/>
	<path class="bathtub-cls-2" d="M38,15.85c-1.45-.31-1.77-1-1.89-1.75a3,3,0,0,1,.8-2.52A4.36,4.36,0,0,1,40.56,10a2.52,2.52,0,0,1,2.57,1.62l-.41,1.32c-.54.17-1.1.36-1.67.52s-.88.2-1.24.27Z"/>
	<path class="bathtub-cls-2" d="M96.52,114.27a9.71,9.71,0,0,1-1.21-4.33,7.29,7.29,0,0,1,5.33-.53l.53,1.8C100.09,112.94,99.06,114.58,96.52,114.27Z"/>
	<path class="bathtub-cls-2" d="M79.18,6.56l-2-.1L76.78,4A6.91,6.91,0,0,1,80.27.32a2.15,2.15,0,0,1,3.19,1.13c-.22.4-.37,1.08-.79,1.37C81.18,3.86,79.68,4.85,79.18,6.56Z"/>
	<path class="bathtub-cls-2" d="M1.1,77.29C0,75.9-.48,74.84.67,73.51c1.54-.42,3.14.06,4.67.32.81,1.28.81,1.28.6,2.53C4.54,77.65,2.84,77.31,1.1,77.29Z"/>
	<path class="bathtub-cls-2" d="M335.83,251c.25-.5.8-.56,1.21-.82a.4.4,0,0,1,.57.14l-.13,1.16c-.28.72-.47,1.31-.74,1.87s-.26,1-.53,1.52c-.49.9-.91,1.84-1.42,2.89l0,.68A13.89,13.89,0,0,0,337,261.3l.75.32c.22.09.51-.16.74.23v.54c-.3.1-.57.18-.83.29s-.51.26-.71.37a5.26,5.26,0,0,1-2.4-.69c-.5-.29-1-.55-1.53-.83a1,1,0,0,0-1-.06,9.07,9.07,0,0,1-.92,1.53,18.49,18.49,0,0,0-1,1.69,8,8,0,0,0-.72,1.64l-1.13.57a1.91,1.91,0,0,1-.27-.15l-.41-.37a14.12,14.12,0,0,0,.1-2,15.82,15.82,0,0,1,.13-2.73,14.74,14.74,0,0,0,.2-3c0-.14.12-.3.19-.46l-.47-.66a7.07,7.07,0,0,1-2.76-.94,1.6,1.6,0,0,0-1.31-.2,1.45,1.45,0,0,1-.49,0c-.07,0-.14-.08-.22-.12-.15-.35,0-.63.27-.93a2.33,2.33,0,0,0,1.27-1,8.58,8.58,0,0,1,3-.49l.75-.52a3.13,3.13,0,0,0,.36-.74,3.5,3.5,0,0,1,.66-1.32,4,4,0,0,0,.6-1.21,7.67,7.67,0,0,1,.85-1.5c.14-.27.44-.36.83-.19a5.83,5.83,0,0,1,.4,1.48c0,.59.37,1.11.35,1.68a3.55,3.55,0,0,0,.67,2A37.32,37.32,0,0,1,335.83,251Zm-9.08,5.21,1.75.2.53.5a3.32,3.32,0,0,1,.05.4,6.7,6.7,0,0,0,0,1.73,1.53,1.53,0,0,1-.1.73,10.6,10.6,0,0,0-.19,5.62l.28.09a9.14,9.14,0,0,0,1.61-3.47c.65-.41.82-1.25,1.29-1.82a2.43,2.43,0,0,1,2.21.67,1.13,1.13,0,0,0,.3.21c.16.06.32.06.4-.13s0-.11,0-.13l-1.08-1.19a3.07,3.07,0,0,1,.29-2.41c.28-.51.49-1.05.76-1.56a2.86,2.86,0,0,1,.46-.5c0-.86.59-1.65.58-2.64l-.48-.15a20.18,20.18,0,0,0-1.83,2,8.4,8.4,0,0,1-1.4,1.4l-.49-.21a16.24,16.24,0,0,1-.39-1.94,8.17,8.17,0,0,0-.64-2.5.47.47,0,0,0-.52.27,11.44,11.44,0,0,0-.55,1.23c-.27.73-.49,1.48-.76,2.21a2.17,2.17,0,0,1-.36.49,3.61,3.61,0,0,0-1.86-.27,2.59,2.59,0,0,0-.86.45Z"/>
</svg>