<svg xmlns="http://www.w3.org/2000/svg" viewBox="0 0 148.63 382.95">
	<defs>
		<style>.middle-cls-1{fill:#d9a959;}.middle-cls-2{fill:#f5e99f;}</style>
    </defs>
<title>svg-stars-middle</title>
	<path class="middle-cls-1" d="M90.59,31.7c3.5-.8,4.47,1.6,6,3.15l-.13,2.36c-.59.17-1.06.49-1.41.38A9.08,9.08,0,0,1,89.67,34Z"/>
	<path class="middle-cls-1" d="M47.4,127.86a2.43,2.43,0,0,1,2.85-1.42c2.35.44,3.64,2,4.43,4.25a4.09,4.09,0,0,1-.5,1.18,5.34,5.34,0,0,1-1.3.78c-1.69-1.25-3.39-2.49-5.06-3.78C47.62,128.72,47.59,128.34,47.4,127.86Z"/>
	<path class="middle-cls-1" d="M94,100c-.51-1.44-.94-2.72.69-3.82A7.35,7.35,0,0,1,99.92,100c.42.86.49,1.78-1,2.34A21.19,21.19,0,0,1,94,100Z"/>
	<path class="middle-cls-1" d="M31.82,96.43v2.29c-.48.22-.93.63-1.27.55-2.58-.57-3.17-1-5.13-3.35.81-1.62,1.44-2.09,2.58-1.82A6.07,6.07,0,0,1,31.82,96.43Z"/>
	<path class="middle-cls-1" d="M106.15,17.85c-.8-1.24-.57-1.93-.1-2.58a3,3,0,0,1,2.34-1.22,4.36,4.36,0,0,1,3.69,1.41,2.52,2.52,0,0,1,.67,3l-1.22.64c-.5-.26-1-.52-1.55-.81s-.76-.49-1.07-.68Z"/>
	<path class="middle-cls-1" d="M77.9,128.79a9.71,9.71,0,0,1,2.21-3.91,7.29,7.29,0,0,1,4.14,3.4l-.9,1.64C81.37,130.37,79.48,130.81,77.9,128.79Z"/>
	<path class="middle-cls-1" d="M120,2.56C120.54.7,121.88.37,123.21,0a4.91,4.91,0,0,1,3.91,3.11l-.71,1.49c-.46.17-.62.29-.74.26-1.71-.46-3.41-.92-5.1-1.44C120.35,3.36,120.23,3,120,2.56Z"/>
	<path class="middle-cls-1" d="M141.8,40.37l-1.34-1.47,1.42-2a6.91,6.91,0,0,1,5.1-.16,2.15,2.15,0,0,1,1.46,3.05c-.43.13-1,.5-1.53.41C145.13,39.86,143.36,39.51,141.8,40.37Z"/>
	<path class="middle-cls-1" d="M137.7,225.67l3.39.31,2.15,3.11c-.56.52-.92,1.12-1.4,1.26-1.53.45-3-.15-4.25-.3C136,228.58,136.62,227.36,137.7,225.67Z"/>
	<path class="middle-cls-1" d="M36.58,35.17c.18-1.78.61-2.85,2.36-3,1.39.79,2.18,2.27,3.08,3.53-.33,1.48-.33,1.48-1.37,2.21C38.76,37.86,37.8,36.42,36.58,35.17Z"/>
	<path class="middle-cls-1" d="M137.54,160.22a13.65,13.65,0,0,1,1.48,2.23,10.47,10.47,0,0,1-.28,1.85,5.77,5.77,0,0,0-.29,2A3.18,3.18,0,0,1,138,168a7.42,7.42,0,0,0-.62,1.33,2.64,2.64,0,0,0-.24,1.06,17.29,17.29,0,0,1-.72,2.19,5.94,5.94,0,0,0-.21.7l.63.64.51.48c0,.51,0,.51-.84.52-.45-.38-1-.8-1.46-1.23s-.91-.83-1.36-1.24-1-.86-1.46-1.31a15.08,15.08,0,0,1-1.3-1.32c-.41-.5-1.09-.76-1.3-1.41-1.45-.87-2.61-2.31-3.93-4.84a5.76,5.76,0,0,1,0-2.35,1.26,1.26,0,0,1,1.45-.64c.4.07.82.1,1.35.16a1.42,1.42,0,0,0,1.18.27,5.2,5.2,0,0,0,1.11,1.16,8.35,8.35,0,0,1,1.19,1.06c.41.33.78.72,1.16,1.08a1.32,1.32,0,0,0,.88-1.25,9.37,9.37,0,0,1,.65-2.29c.11-.08.24-.22.38-.26A8.53,8.53,0,0,1,137.54,160.22Zm-9.5,2.69a7.86,7.86,0,0,0,1.71-.2,2.06,2.06,0,0,0-1.13-.85l-.79.39A.49.49,0,0,0,128,162.92Z"/>
	<path class="middle-cls-2" d="M129.54,368.55c.15,0,.27.18.38.26a9.37,9.37,0,0,1,.65,2.29,1.32,1.32,0,0,0,.88,1.25c.38-.36.75-.75,1.16-1.08a8.35,8.35,0,0,1,1.19-1.06,5.2,5.2,0,0,0,1.11-1.16,1.42,1.42,0,0,0,1.18-.27c.53-.06.95-.09,1.35-.16a1.26,1.26,0,0,1,1.45.64,5.76,5.76,0,0,1,0,2.35c-1.32,2.54-2.49,4-3.93,4.84-.22.64-.89.9-1.3,1.41a15.08,15.08,0,0,1-1.3,1.32c-.48.45-1,.87-1.46,1.31s-.9.84-1.36,1.24-1,.85-1.46,1.23c-.79,0-.79,0-.84-.52l.51-.48.63-.64a5.94,5.94,0,0,0-.21-.7,17.29,17.29,0,0,1-.72-2.19,2.64,2.64,0,0,0-.24-1.06,7.42,7.42,0,0,0-.62-1.33,3.18,3.18,0,0,1-.42-1.79,5.77,5.77,0,0,0-.29-2,10.47,10.47,0,0,1-.28-1.85,13.65,13.65,0,0,1,1.48-2.23A8.53,8.53,0,0,1,129.54,368.55Zm7.24,1.71-.79-.39a2.06,2.06,0,0,0-1.13.85,7.86,7.86,0,0,0,1.71.2A.49.49,0,0,0,136.78,370.25Z"/>
	<path class="middle-cls-1" d="M58,331.82c-3.5.8-4.47-1.6-6-3.15l.13-2.36c.59-.17,1.06-.49,1.41-.38A9.08,9.08,0,0,1,59,329.51Z"/>
	<path class="middle-cls-1" d="M101.23,235.66a2.43,2.43,0,0,1-2.85,1.42c-2.35-.44-3.64-2-4.43-4.25a4.09,4.09,0,0,1,.5-1.18,5.34,5.34,0,0,1,1.3-.78c1.69,1.25,3.39,2.49,5.06,3.78C101,234.79,101,235.17,101.23,235.66Z"/>
	<path class="middle-cls-1" d="M54.59,263.53c.51,1.44.94,2.72-.69,3.82a7.35,7.35,0,0,1-5.19-3.87c-.42-.86-.49-1.78,1-2.34A21.19,21.19,0,0,1,54.59,263.53Z"/>
	<path class="middle-cls-1" d="M116.82,267.08V264.8c.48-.22.93-.63,1.27-.55,2.58.57,3.17,1,5.13,3.35-.81,1.62-1.44,2.09-2.58,1.82A6.07,6.07,0,0,1,116.82,267.08Z"/>
	<path class="middle-cls-1" d="M42.48,345.67c.8,1.24.57,1.93.1,2.58a3,3,0,0,1-2.34,1.22,4.36,4.36,0,0,1-3.69-1.41,2.52,2.52,0,0,1-.67-3l1.22-.64c.5.26,1,.52,1.55.81s.76.49,1.07.68Z"/>
	<path class="middle-cls-1" d="M70.73,234.73a9.71,9.71,0,0,1-2.21,3.91,7.29,7.29,0,0,1-4.14-3.4l.9-1.64C67.26,233.14,69.16,232.71,70.73,234.73Z"/>
	<path class="middle-cls-1" d="M28.66,361c-.57,1.86-1.91,2.18-3.23,2.56a4.91,4.91,0,0,1-3.91-3.11l.71-1.49c.46-.17.62-.29.74-.26,1.71.46,3.41.92,5.1,1.44C28.28,360.16,28.4,360.56,28.66,361Z"/>
	<path class="middle-cls-1" d="M6.83,323.15l1.34,1.47-1.42,2a6.91,6.91,0,0,1-5.1.16,2.15,2.15,0,0,1-1.46-3.05c.43-.13,1-.5,1.53-.41C3.5,323.65,5.27,324,6.83,323.15Z"/>
	<path class="middle-cls-1" d="M112.05,328.35c-.18,1.78-.61,2.85-2.36,3-1.39-.79-2.18-2.27-3.08-3.53.33-1.48.33-1.48,1.37-2.21C109.87,325.66,110.84,327.1,112.05,328.35Z"/>
</svg>