<svg xmlns="http://www.w3.org/2000/svg" viewBox="0 0 228.86 141.09"><title>svg_sun</title><g id="Layer_2" data-name="Layer 2"><g id="Plane_4" data-name="Plane 4"><path d="M224.35,86.24a10.56,10.56,0,0,0,4.51-1.75,2.9,2.9,0,0,0-.62-.56,5.33,5.33,0,0,0-2.47.08l-.41.13a11,11,0,0,1-3.51.73,2.07,2.07,0,0,0-1.24.39,5.48,5.48,0,0,1-2.81,1,6.09,6.09,0,0,0-1.37.28,7.58,7.58,0,0,0-1.59,1,7.66,7.66,0,0,1-2.29,1.29A12.12,12.12,0,0,0,209,90.66l-.28.19-.33,0a16.4,16.4,0,0,0-2.08-.21,8.16,8.16,0,0,0-2.73.66l-2.09.7a38.14,38.14,0,0,1-9.41,2.3,16.2,16.2,0,0,0-6.92,2.41,42.4,42.4,0,0,1-4.2,2l-.73.32-1.35.57a17.9,17.9,0,0,0-5,2.73,7.49,7.49,0,0,1-4.93,1.87c-.51,0-1,0-1.55.07s-1.16.08-1.73.08a26.43,26.43,0,0,0-9.38,1.53,6.5,6.5,0,0,1-3.58.41l-.48-.09-.16-.47a3.59,3.59,0,0,1,1.28-4.23c.79-.67,1.58-1.36,2.34-2,1.11-1,2.21-1.93,3.32-2.86a10.23,10.23,0,0,1,4.34-2.14,22.54,22.54,0,0,0,13.15-8.2A6.81,6.81,0,0,1,181,83.48a22,22,0,0,1,3-.26h.15a8.2,8.2,0,0,0,4.78-1.46,40.08,40.08,0,0,1,5.62-3,70.66,70.66,0,0,0,14.85-9,46,46,0,0,1,6.76-4.64,17,17,0,0,0,3.37-2.7l.37-.35a.81.81,0,0,0,.16-.19,2.33,2.33,0,0,0-.26-.35l-.34.22c-.78.51-1.53,1-2.33,1.43s-1.36.67-2,.94-1.22.54-1.81.85c-2.11,1.12-4.26,2.35-6.15,3.43-.68.39-1.29.75-1.88,1.11l-.17.1a35.31,35.31,0,0,1-6.59,3.34,5.41,5.41,0,0,0-1.16.66,9.54,9.54,0,0,1-1,.64l-2.2,1.14-.24.13a66,66,0,0,1-6.75,3.24c-1.17.46-2.37.84-3.52,1.21a47.49,47.49,0,0,0-4.52,1.63,24.85,24.85,0,0,0-8.48,6.3,13.83,13.83,0,0,1-3.11,2.67,21.57,21.57,0,0,1-4.84,2.1,18.57,18.57,0,0,0-8.72,5.21,4.4,4.4,0,0,1-3.58,1.75l-.42,0-.24-.35a13.34,13.34,0,0,0-1.21-1.47A7.87,7.87,0,0,1,146,93.1l0-.48.39-.28c.47-.34.91-.71,1.34-1.07a12,12,0,0,1,3.79-2.43,10.82,10.82,0,0,0,4-2.87A23.7,23.7,0,0,0,157,84.07a21.79,21.79,0,0,1,2.08-2.42,12.82,12.82,0,0,0,3.31-5.12,6.6,6.6,0,0,1,.56-1.12,5.78,5.78,0,0,0,.4-.77,5.53,5.53,0,0,1,2.31-2.52c1.84-1.26,3.68-2.59,5.46-3.88l1.81-1.3a6.3,6.3,0,0,0,1.91-2.77,11.3,11.3,0,0,1,3-4.49,41.69,41.69,0,0,1,7.58-4.5l.48-.22A24,24,0,0,0,189,53.32l1.47-1a49.14,49.14,0,0,1,10.86-6,6.07,6.07,0,0,0,3-2.84.76.76,0,0,0,0-1c-.28-.37-.5-.3-.93-.16a43.78,43.78,0,0,0-8.18,3.83c-3.21,1.85-6.38,3.8-9.45,5.7L183,53.57l-1.05.63a27.91,27.91,0,0,0-3.35,2.22l-1.05.86c-3.66,3-7.44,6.06-11,9.3a33.69,33.69,0,0,0-8.07,10.59c-1.84,4-4.93,6.71-8.48,9.62A14.56,14.56,0,0,1,148.18,88a8.06,8.06,0,0,0-2.95,2.46l-.66,1-.74-1c-.32-.42-.64-.8-1-1.16A10.28,10.28,0,0,1,141,86.55a3.94,3.94,0,0,0-.9-1.15,4.41,4.41,0,0,1-1.64-3.4v-.34l.24-.24.6-.58c.53-.52,1-1,1.53-1.56s.74-.81,1.12-1.2a14.91,14.91,0,0,0,2.53-3.2,30.4,30.4,0,0,0,2-5.46l.41-1.41a6.37,6.37,0,0,1,2.11-3.39,10.11,10.11,0,0,0,2.64-2.74,26.88,26.88,0,0,1,4.83-6,20.53,20.53,0,0,0,2.09-2.35,26.21,26.21,0,0,1,6.42-6.18A10.2,10.2,0,0,0,166.58,46c.9-1,1.8-2,2.68-3l.23-.26c1.2-1.35,2.43-2.73,3.69-4.07.93-1,1.94-2,2.82-2.83,1.16-1.13,2.35-2.29,3.45-3.51,1.81-2,3.48-4,5.24-6.17l2.15-2.59a1.2,1.2,0,0,0-.24-1.19c-.68,0-1.22.44-2,1.11-.23.2-.44.4-.66.57a10.07,10.07,0,0,0-.74.69,6.93,6.93,0,0,1-1.64,1.34,30.33,30.33,0,0,0-6.07,4.66c-.55.5-1.12,1-1.69,1.52a42.52,42.52,0,0,0-5.73,6.61c-.86,1.15-1.71,2.26-2.59,3.33-.38.46-.75.93-1.11,1.38a22.2,22.2,0,0,1-4.73,4.86A11.07,11.07,0,0,0,157,51.21a11.86,11.86,0,0,1-4.38,3.67,12.83,12.83,0,0,0-6.11,7.41,20.23,20.23,0,0,1-2.73,5.21l-.87,1.18a20,20,0,0,0-3.57,6.19,20.59,20.59,0,0,1-1.69,3.79l-.09.18a5.5,5.5,0,0,1-1,1.26c-.15.15-.31.31-.45.48l-.46.53L133.75,80c-1.1-.63-2.06-1.19-3-1.77a2.94,2.94,0,0,1-1.54-3.17c.18-.82.3-1.71.41-2.49a16.68,16.68,0,0,1,1.31-5.24,15.27,15.27,0,0,0,1-3c.11-.46.23-.92.35-1.38.17-.6.3-1.25.43-1.87a13.5,13.5,0,0,1,1.41-4.29,13.33,13.33,0,0,0,1.74-5.25c0-.11,0-.22,0-.34a3.59,3.59,0,0,1,.49-1.74,5.26,5.26,0,0,0,.58-3.75,5.49,5.49,0,0,1,.93-4c.51-.68,1-1.43,1.45-2.15a18.92,18.92,0,0,1,3.25-4.18A11.7,11.7,0,0,0,145,32a16.54,16.54,0,0,1,1.8-2.86l.38-.48a8.69,8.69,0,0,1,1.06-1.2,5.76,5.76,0,0,0,1.88-3.35,10.74,10.74,0,0,1,2.6-5.46,2.59,2.59,0,0,0,.6-1.15,24.28,24.28,0,0,1,3-7.74A2.94,2.94,0,0,0,156.5,8a2.36,2.36,0,0,0-.44-.79l0,0c-.71.07-1,.46-1.33,1.11-1,2.12-2,4.28-2.93,6.38s-1.77,3.91-2.66,5.82a58.17,58.17,0,0,1-2.89,5.64c-.7,1.15-1.49,2.26-2.26,3.32-.53.73-1,1.42-1.49,2.12l-.7,1.05a35.92,35.92,0,0,1-4.6,6,2.89,2.89,0,0,0-.79,1.11c-.15.47-.3.94-.45,1.4a26.9,26.9,0,0,0-1.32,5,29.07,29.07,0,0,1-1.9,8c-.77,1.81-1.48,3.66-2.07,5.24a22.83,22.83,0,0,0-.95,3c-.3,1.33-.57,2.69-.84,4-.31,1.5-.61,3-1,4.48a8.78,8.78,0,0,1-1.84,4.2l-.31.34-6.56-1-.11-.58c0-.22-.1-.44-.16-.67a5.92,5.92,0,0,1-.27-1.82c.11-2.15.28-4.68.63-7.21A11.09,11.09,0,0,1,121,59.3c.67-1,1.26-2.07,1.83-3.11.41-.75.84-1.52,1.29-2.26a6.38,6.38,0,0,0,.61-5.12,8,8,0,0,1,.06-4.58,9,9,0,0,0,.31-1.87,26.28,26.28,0,0,1,2.28-8.6,18.55,18.55,0,0,0,1-3.66l.23-1a14.26,14.26,0,0,0,.22-1.46,9,9,0,0,1,.63-2.79,24.72,24.72,0,0,0,1.93-7.19c.15-1.05.35-2.11.54-3.14a26.92,26.92,0,0,0,.71-7.29A9.42,9.42,0,0,1,133,4.49c.09-.46.18-.89.23-1.31l0-.2A13.07,13.07,0,0,0,133.38.4a1.93,1.93,0,0,0-.27-.4,1.69,1.69,0,0,0-.5.84l-.08.21a62.47,62.47,0,0,0-3.37,14c-.07.42-.09.87-.12,1.3a10.89,10.89,0,0,1-.25,2c-1,4.18-2.13,8.36-3.25,12.42-.26.95-.59,1.9-.88,2.74a29.52,29.52,0,0,0-1.12,3.76c-.83,4.13-1.55,8.46-2.14,12.88A10.05,10.05,0,0,1,120,54.41a11.92,11.92,0,0,0-1.56,3.53l-.14.59a61.06,61.06,0,0,0-1.92,11.9,4.26,4.26,0,0,1-1.43,3.46l-.1.08-.2.09a13.67,13.67,0,0,1-2.49.27,7.53,7.53,0,0,1-3.31-.73l-.47-.23L108.31,71c0-1.24-.07-2.52-.09-3.77,0-1.82-.06-3.78,0-5.67v-.79c0-3.29.07-6.4-1.45-9.31a6.72,6.72,0,0,1-.51-3.33c0-1.22.15-2.45.25-3.65s.18-2.14.23-3.17c.18-3.74.34-7.55.5-11.24l.22-5.12c0-.07,0-.13,0-.2l-.14-1.82c-.13-1.63-.27-3.32-.44-5-.06-.54-.15-1.1-.25-1.64a18.25,18.25,0,0,1-.32-2.56A40.35,40.35,0,0,0,104.72,5c-.27-1.06-.53-2.06-.76-3.06a1.47,1.47,0,0,0-.28-.46,2.07,2.07,0,0,0-.17.62c-.13,3.07-.18,6.22-.21,8.94a3.61,3.61,0,0,0,.16.88l.1.38A56.92,56.92,0,0,1,105,24.87c.06,3.89-.18,7.83-.41,11.64-.09,1.48-.18,3-.26,4.51a6.86,6.86,0,0,1-.18,1.16c-.05.23-.1.45-.13.67a18.47,18.47,0,0,0,.21,7.64,8.69,8.69,0,0,1,.24,2.57v.35c0,3.33,0,7.08-.07,10.76a16.82,16.82,0,0,0,1,6.42,4.44,4.44,0,0,1,0,4l-.19.34-6.92,1.45L98,75.9a17,17,0,0,1-1.64-4.23c-.2-.69-.38-1.33-.61-2l-.33-.89c-1.29-3.57-2.63-7.26-5.46-10a6.55,6.55,0,0,1-2-4.59c0-1.58-.13-3.19-.21-4.75-.15-2.78-.3-5.62-.25-8.41a116.94,116.94,0,0,0-.87-14.48,7.42,7.42,0,0,0-.61-2c-1.3-3-2.67-6.16-4.07-9.27a3.24,3.24,0,0,0-.18-.34c0,.14,0,.29.06.47s0,.25.05.37c.34,2.73.71,5.65,1.12,8.57l.13,1a17.55,17.55,0,0,0,.7,3.53A32,32,0,0,1,85.2,35.8c.07.6.14,1.18.22,1.77a21.11,21.11,0,0,1,0,4.1c0,.74-.09,1.5-.09,2.24,0,1.45,0,2.92.07,4.35v.16c0,1.9.08,3.8.07,5.67a5.91,5.91,0,0,0,1.95,4.68,11.5,11.5,0,0,1,2.5,3.31,42.77,42.77,0,0,1,1.74,4.32l.48,1.32a47.39,47.39,0,0,1,2.12,9.45l.2,1.3-.65.51c-1.28,1-2.68,2.06-4.48,1.79l-.3-.09c-2.28-1.6-3.17-3.8-4-5.94-.17-.42-.34-.86-.53-1.28L83.68,73a17.89,17.89,0,0,1-6.74-5.94,83.89,83.89,0,0,1-4.16-7.67L72,57.78c-.6-1.18-1.14-2.4-1.67-3.57A45.8,45.8,0,0,0,67.11,48c-1.09-1.68-2-3.43-2.91-5.13-.57-1.08-1.21-2.3-1.89-3.47-.59-1-1.15-2.05-1.69-3.07a36.75,36.75,0,0,0-4.76-7.43,3.34,3.34,0,0,1-.66-1,23.62,23.62,0,0,0-4.51-6.54c-.6-.69-1.23-1.41-1.82-2.14a7.28,7.28,0,0,0-3-2.52c-.11.37,0,.67.38,1.15A25.83,25.83,0,0,1,48,20.31c1.15,1.88,2.3,3.8,3.41,5.66L53.86,30c1,1.68,2,3.41,3.06,5.13q1.14,1.93,2.26,3.87l.18.31c1,1.67,2,3.4,3,5.08.51.87,1.06,1.74,1.6,2.58,1.08,1.7,2.14,3.38,3,5.13,1.88,3.73,3.66,7.55,5.38,11.25l1.94,4.15a16,16,0,0,0,3.26,4.19c.73.75,1.44,1.49,2.09,2.3a2.25,2.25,0,0,0,.51.21,4.16,4.16,0,0,1,.85.36l.35.2a4.79,4.79,0,0,1,1.81,1.42c.94,1.43,1.78,2.91,2.6,4.34l.11.19.87,1.5.29.5L80.77,91l-.69-.63c-.16-.15-.33-.28-.5-.4a3.21,3.21,0,0,1-1.22-1.34c-.61-1.61-1.92-2.51-3.56-3.51A59.29,59.29,0,0,1,69,81.19l-.6-.46-.14-.11A11.09,11.09,0,0,1,64.78,77l-.17-.33c-.8-1.55-1.71-3.32-2.52-5l-.17-.36A14.27,14.27,0,0,0,59,66.6a11.57,11.57,0,0,1-2.3-3.1,21.48,21.48,0,0,0-4.78-5.62,38.63,38.63,0,0,1-6.7-7.57,6.68,6.68,0,0,0-3-2.52,14.34,14.34,0,0,1-2.35-1.52l-.72-.53a6.66,6.66,0,0,1-.65-.55,3.65,3.65,0,0,0-.64-.51.86.86,0,0,0-.39-.13c-.12,0-.24.15-.33.29l.09.17a8.63,8.63,0,0,0,.84,1.36,24,24,0,0,0,1.67,1.8l.74.75c3.75,3.9,6.67,7.36,8.77,11.6a9.75,9.75,0,0,0,1.55,2.26l.53.58c2.2,2.4,4.48,4.88,6.85,7.17a12.9,12.9,0,0,1,3.13,4.35,27.87,27.87,0,0,0,4.28,6.84A38,38,0,0,0,76,91l.14.08A3.12,3.12,0,0,1,78,93.83v.3l-.18.24a6.84,6.84,0,0,0-.51.86A4.48,4.48,0,0,1,74.13,98l-.34.07L70.66,96c-3.77-2.47-7.67-5-11.51-7.57a6.46,6.46,0,0,1-1.25-1.17,76.16,76.16,0,0,0-7-7.15,16.07,16.07,0,0,0-4.23-2.74,57.2,57.2,0,0,1-7.34-3.61c-1.82-1.12-3.59-2.44-5.15-3.61-.79-.59-1.61-1.2-2.43-1.79-.24-.17-.46-.34-.66-.3a2.06,2.06,0,0,0,.23.78c2.61,3.36,5.06,6.27,8.66,7.9,1.91.87,3.84,1.79,5.71,2.68l1.29.61a3.89,3.89,0,0,1,1.29.82,31,31,0,0,0,2.48,2.26,18.87,18.87,0,0,1,4.35,4.64,4,4,0,0,0,1.38,1.38c2.12,1.24,4.12,2.64,6.05,4A60.44,60.44,0,0,0,71,98.4l.33.16A5.3,5.3,0,0,1,74.2,101l.06.13,0,.24a7.6,7.6,0,0,1-1.64,4.15l-.28.34-.44,0a23.15,23.15,0,0,1-9.43-2.47,65.85,65.85,0,0,0-7-3.1l-1.63-.64A60.89,60.89,0,0,0,41.2,96.59c-1.92-.32-3.87-.65-5.81-1.06A37.91,37.91,0,0,0,30.75,95c-1.29-.11-2.62-.22-3.92-.44l-1.94-.32a73.29,73.29,0,0,1-11-2.38A14.41,14.41,0,0,0,8,91.19l-.46,0a17.86,17.86,0,0,1-4.83,0,7.54,7.54,0,0,0-2.58,0L0,91.41a2,2,0,0,0,.46.26l.58.18a31.48,31.48,0,0,0,5.61,1.41,30.56,30.56,0,0,1,5.68,1.46,31.84,31.84,0,0,0,5.21,1.38c1.31.19,2.62.45,3.88.7a46.65,46.65,0,0,0,6.34,1,27.49,27.49,0,0,1,3.84.59l1.55.3c.27,0,.53.11.79.17a8.08,8.08,0,0,0,.91.19c1.08.13,2.2.23,3.28.32A32.32,32.32,0,0,1,48,101.24a1.21,1.21,0,0,0,.53.1,10.26,10.26,0,0,1,5.48,2c.48.29,1,.59,1.46.85A4.5,4.5,0,0,1,58,107.26l.06.29-1.37,2.72c.47,2.62,2.91,5.6,8.29,5.6h.26a33.74,33.74,0,0,0,5.22-.68l.25,0A41.57,41.57,0,0,1,84,114.61a10.84,10.84,0,0,0,4.67-.32c.82-.25,1.64-.53,2.45-.8l.22-.07,1.85-.62a25.17,25.17,0,0,1,7.69-1.63,12.48,12.48,0,0,1,1.72.12,19.93,19.93,0,0,0,2.83.2A41.58,41.58,0,0,0,115,110a2.45,2.45,0,0,0,.76-.47c-.2-.46-.53-.58-1.06-.61a58.24,58.24,0,0,0-5.91-.1c-1.77.05-3.67.08-5.14,0a30.11,30.11,0,0,0-6.33.44c-2.63.42-5.29.74-7.86,1l-.64.08-2.49.31-2,.24-2.15.26-.9.12a37.92,37.92,0,0,1-5,.43l-1,0-.18-.58a5.94,5.94,0,0,1,.44-4.13,6.09,6.09,0,0,0,.5-1.82,3.86,3.86,0,0,1,1.37-2.58,5.25,5.25,0,0,0,.7-.83,7.07,7.07,0,0,1,2.7-5.93,3.34,3.34,0,0,0,.77-1.15,26.09,26.09,0,0,1,4.1-6c.58-.7,1.16-1.4,1.7-2.11a3.65,3.65,0,0,1,.95-.8l.18-.12A51.23,51.23,0,0,1,104,78.18c5.1-1.37,9-1.54,12.78-.63a7,7,0,0,0,1.6.12H119a18.2,18.2,0,0,1,11.09,3.68l1.82,1.4.2.15a47.35,47.35,0,0,1,7.18,6.27,31.22,31.22,0,0,1,4.34,6.26c1.83,3.56,3.33,7.32,4.77,11l.47,1.17a17.11,17.11,0,0,1,1,4.58,5.75,5.75,0,0,1-1.49,4.92l-.24.24h-.34c-1.22,0-2.46,0-3.66,0-2.8,0-5.68,0-8.48.25a22,22,0,0,1-8.82-1.28,32.54,32.54,0,0,0-10.33-1.44l-1.43,0a3.91,3.91,0,0,0-1.66.36,21.74,21.74,0,0,1-3.47,1.31c-.54.17-1.1.34-1.63.54a38.51,38.51,0,0,1-11,2,4.91,4.91,0,0,0-3.78,1.56c.11.51.38.64,1.17.64h.28c3-.11,5.25-.24,7.43-.39,4-.3,8.13-.63,12.09-1l1.3-.11c.81-.07,1.64-.17,2.44-.26l.79-.09c.68-.08,1.38-.2,2.06-.31a17.82,17.82,0,0,1,5.91-.26,38.15,38.15,0,0,0,10.13.74,29.47,29.47,0,0,1,4.92.11c1,.08,2,.16,2.91.17,5.33.09,10.75.13,16,.17l2.46,0a16.46,16.46,0,0,0,2.31-.13c2.14-.31,3.26-.85,3.63-1.76a4.42,4.42,0,0,0-2-5.24,19.4,19.4,0,0,0-7.16-2.79,1.32,1.32,0,0,0-.27,0s-.16.18-.41.9l.08.07a9.32,9.32,0,0,0,1.12.94c.54.36,1.12.7,1.67,1s1.27.76,1.89,1.18a2.33,2.33,0,0,1,.76,1.08,4,4,0,0,0,.17.36l.55,1-1.11.25a26.68,26.68,0,0,1-5.27.43,34.28,34.28,0,0,1-6.38-.52l-.54-.12-.12-.54a15.18,15.18,0,0,1,.07-6l.07-.42.38-.19c.24-.12.47-.27.72-.42a6.4,6.4,0,0,1,2.08-.95l2.08-.44a36.69,36.69,0,0,1,7.77-1.09,18.67,18.67,0,0,1,1.91.1,17.14,17.14,0,0,0,13.45-4.29,9.26,9.26,0,0,1,1.68-1.09l.48-.27,1-.6a31.81,31.81,0,0,1,3-1.62c.48-.22,1-.45,1.43-.68,2.11-1,4.28-2.09,6.76-2.09a17.29,17.29,0,0,0,8.54-1.82,4.48,4.48,0,0,1,.94-.34l.33-.1c4.15-1.37,7.83-2.72,10.91-5.44l.35-.31.45.13c1.3.36,2.6-.17,4-.79a14.12,14.12,0,0,1,2.35-.9C223.44,86.44,223.9,86.34,224.35,86.24ZM71.84,112.06l-.56.17a9.6,9.6,0,0,1-2.73.38,20,20,0,0,1-4.9-.8c-.87-.22-1.77-.44-2.67-.59L59.71,111l.69-1.09c1-1.63,1.9-2.78,3.57-2.78a6.16,6.16,0,0,1,1.42.2c1.43.35,2.84.77,4.22,1.18l1,.29a2.58,2.58,0,0,1,.77.42l.27.18.43.27Z"/><path d="M119.32,141.09l0-.47,1.77-.09a30.22,30.22,0,0,0,5.22-.53c2.7-.6,5.42-1.35,8.06-2.07,1.74-.48,3.47-1,5.19-1.39a27.61,27.61,0,0,1,7.92-1A8.22,8.22,0,0,1,153,137.4a8.28,8.28,0,0,0,5.49,2,8.12,8.12,0,0,0,5-1.6c1.37-1.07,2.69-2.19,4.08-3.38l1.61-1.36-.31-3,.27-.28.27-.32a3.94,3.94,0,0,1,.95-.91,28.59,28.59,0,0,1,9.28-3.95,25,25,0,0,0,4.42-1.29c4.18-1.67,7.88-4.37,11.45-7l1.49-1.09a2.9,2.9,0,0,0,.5-.54,4.79,4.79,0,0,0-1.82-4.5,11.14,11.14,0,0,0-6.44-2.31,3.43,3.43,0,0,0-1.88.29l2.39,1.27L188.32,111c.37.55.41.56.75.62l.31.06a4,4,0,0,1,3.16,1.84l.3.52-.38.46c-.12.14-.23.3-.34.44a5.21,5.21,0,0,1-1.16,1.27l-.74.52a26.15,26.15,0,0,1-6.94,3.91c-2.51.82-5.07,1.74-7.33,2.56l-1.29.46a4.37,4.37,0,0,0-1.39.66,8.34,8.34,0,0,1-4.85,1.9,3.88,3.88,0,0,0-2.65,1.23l-.05.93c-.06,1-.11,2-.19,2.95-.21,2.59-1,3.44-3.52,3.93-.67.13-1.35.22-2,.3s-1.25.16-1.84.27a6.58,6.58,0,0,1-5.42-1.39,5.53,5.53,0,0,0-2.19-1.2c-.53-.07-1.06-.16-1.58-.24l-.21,0a27,27,0,0,0-4.39-.49,9.23,9.23,0,0,0-4.4,1,13.87,13.87,0,0,1-4,1.13,15.79,15.79,0,0,0-3,.75,50.77,50.77,0,0,1-12.67,2.92,6.2,6.2,0,0,0-1.77.44.9.9,0,0,0-.11,1.62,1.86,1.86,0,0,0,.86.3v.47Z"/><path d="M77.49,129.79c0,.24-.08.43-.1.62-.26,1.91.08,2.55,1.83,3.41a8.29,8.29,0,0,0,3.7.85h0a9.31,9.31,0,0,0,1.06-.06c1.16-.13,2.34-.24,3.48-.35l.24,0A59.49,59.49,0,0,0,98,132.66a18.89,18.89,0,0,1,5.08-.7h.79a13.13,13.13,0,0,0,4.08-.72,15.09,15.09,0,0,1,4.64-.82h.32c2,.06,4.09.29,6.07.52l2.6.28c1.21.12,2.28.17,3.27.17A15.89,15.89,0,0,0,133,129.5a3.19,3.19,0,0,1,.82-.3,2,2,0,0,0,.37-.11l.42-.19c1.3-.59,2.64-1.2,3.94-1.84a18.27,18.27,0,0,1-2-.4,4.4,4.4,0,0,0-3.63.54,9.1,9.1,0,0,1-3.39,1.08,35.64,35.64,0,0,1-4.47.26h-.7c-2.89,0-5.53-.15-8.09-.32-1.35-.09-2.73-.24-3.95-.38h-.12c-1.1-.12-2.24-.24-3.36-.33-.55,0-1-.06-1.41-.06a6,6,0,0,0-3.75,1,4.8,4.8,0,0,1-2,.7c-1.12.22-2.19.44-3.22.66-2.82.59-5.73,1.21-8.64,1.54a12,12,0,0,1-1.42.08,30,30,0,0,1-3.88-.34c-.68-.09-1.34-.18-2-.24a1.57,1.57,0,0,1-1-.62l-.21-.22-.4-.35,1.37-4.82c-.14-.21-.27-.42-.4-.63-.49-.79-.87-1.41-1.63-1.69a39.1,39.1,0,0,0-13.5-2h-.38c-2.9,0-5.88.18-8.51.34-.5,0-1,0-1.38,0a11.88,11.88,0,0,1-4.57-.8,2.8,2.8,0,0,0-1.32-.29,11.48,11.48,0,0,1-1.3.07,21.89,21.89,0,0,1-5.47-.91,26.5,26.5,0,0,0-4-.81,3.31,3.31,0,0,1-3.29-2.72l-.08-.37.22-.31.21-.32a5.54,5.54,0,0,1,1-1.29,17.49,17.49,0,0,1,1.92-1.37l.61-.4a1.83,1.83,0,0,0,.91-2.1h0a3.48,3.48,0,0,0-.45-.05A10.93,10.93,0,0,0,35.49,112a5.28,5.28,0,0,0-1.6,4.3,4.34,4.34,0,0,0,2.25,3.3,8.17,8.17,0,0,0,2.51.91l3.58.71c2.76.54,5.6,1.11,8.39,1.69a46.11,46.11,0,0,0,9.34.67c.88,0,1.78,0,2.67,0,2.33,0,4.66.24,6.92.43h.12c2.08.18,4.23.36,6.35.42a2.4,2.4,0,0,1,.83.2l.2.08.6.19v1.54c0,.73,0,1.41,0,2.11A9.86,9.86,0,0,1,77.49,129.79Z"/></g></g></svg>