<svg xmlns="http://www.w3.org/2000/svg" viewBox="0 0 435.13 304.55">
	<defs>
		<style>.super-star-cls-1{fill:#fff;}.super-star-cls-2{fill:#d9a959;}.super-star-cls-3{fill:#f5e99f;}.super-star-cls-4{fill:#4a8363;}</style>
	</defs>
	<title>svg_super-star</title>

	<path id="stick-2" class="group-2 super-star-cls-1" d="M45.69,274.66c-.11.79.73,1.24.58,2,.71.65,1,1.6,1.65,2.29,1,1,2.15,1.87,2.63,3.31a4.21,4.21,0,0,0,.87,1.13c.26.32.53.63.81,1h1.6a4.92,4.92,0,0,0,1.62-2.15c.3-1.27,1-2.45.83-3.82,1.22-.86,1.65-2.2,2.42-3.28a23.14,23.14,0,0,1-.48-2.7,3.92,3.92,0,0,0-1.41-2.78c-.38,0-.74-.06-1.09-.13s-.68-.17-1.05-.26L53,271.66c-.15.39,0,1-.64,1.37-.23-.1-.59-.14-.76-.34-.92-1.1-2.2-1.81-3.11-3a4.09,4.09,0,0,0-2.55,0,4,4,0,0,0-.93,2.75,3.92,3.92,0,0,0,.27.84A3.65,3.65,0,0,1,45.69,274.66Z"/>
	<path id="stick-2-2" data-name="stick-2" class="group-2 super-star-cls-2" d="M172.75,290.57a10.3,10.3,0,0,0-1.25-.24,14.27,14.27,0,0,0-1.56,0,9.23,9.23,0,0,0-1.92.15,3.35,3.35,0,0,1-1.42,0c-.18-.18-.37-.3-.38-.61l.34-.56a3.14,3.14,0,0,0,1.42-.42,2.41,2.41,0,0,1,.94-.34c.43,0,.81-.25,1.25-.31a1.61,1.61,0,0,0,1.41-.11l1,.2.67-.43a3.6,3.6,0,0,0,.32-.44c.08-.16.1-.35.19-.5a11.21,11.21,0,0,0,1-2,.63.63,0,0,1,.14-.23,3.62,3.62,0,0,1,1.1-.85l.44.28c0,1.11,0,2.18,0,3.25a3.55,3.55,0,0,0,.28,1.65l.54,0A9.86,9.86,0,0,0,179,288a8.24,8.24,0,0,0,1.48-1.27,2.11,2.11,0,0,0,.81-.33,6.31,6.31,0,0,1,1.74-.78,1.38,1.38,0,0,1,.29,0l.23.14.2.73c-.18.4-.31.78-.5,1.12-.3.56-.64,1.11-1,1.67a7.32,7.32,0,0,1-1,1.51,2.39,2.39,0,0,0-.3.45,4,4,0,0,1-.7,1.06c-.08.07-.1.21-.14.3a.87.87,0,0,0,.11.18c.4.36,1,.31,1.4.63a.49.49,0,0,0,.26.07c.71,0,1.12.56,1.62.91,0,.42.35.76.18,1.25l-.31.33c-.18,0-.35-.12-.47-.08a6,6,0,0,1-1.73.15,2.55,2.55,0,0,0-.9.15,12.41,12.41,0,0,1-1.68.39,6.64,6.64,0,0,1-1,.17,3.86,3.86,0,0,1-1.75-.27,1.46,1.46,0,0,0-.76-.78c-.26.29-.49.57-.74.84a5.84,5.84,0,0,0-.62.78,5.55,5.55,0,0,1-.78.88c-.5.49-1,1-1.54,1.42a3.32,3.32,0,0,1-1.72,1l-.22-.15a2.07,2.07,0,0,1,0-.27,2.38,2.38,0,0,1,0-.3,3.2,3.2,0,0,0,.48-.64,8.85,8.85,0,0,0,1-2.36.62.62,0,0,1,.1-.25,16.61,16.61,0,0,0,1-2.64,1.38,1.38,0,0,0,0-.45c0-.28,0-.55,0-.82a1.5,1.5,0,0,0,.29-.36c.18-.51.34-1,.52-1.59C172.83,290.65,172.8,290.58,172.75,290.57Zm1.45-2.9a2.21,2.21,0,0,1-.37,1.1c-.47.18-1,0-1.5.11a12.07,12.07,0,0,1-1.46.17l0,.27c.33,0,.63,0,.93.08s.53.13.8.19a1.66,1.66,0,0,0,.44.06,1.81,1.81,0,0,1,1.17.36c.13.24-.08.36-.13.53l-.4.19a.61.61,0,0,0-.07.16,2.71,2.71,0,0,1-.06.55,12.44,12.44,0,0,0-.44,1.57c-.18.83-.43,1.65-.67,2.46a3,3,0,0,1-.41,1,2,2,0,0,0-.32,1.07c-.17.29-.5.48-.26.84a.38.38,0,0,0,.45-.22,2.61,2.61,0,0,1,.79-.74,3.08,3.08,0,0,0,.62-.66c.61-.75,1.19-1.54,1.75-2.29.31-.11.52.07.79.11.45.63.9,1.3,1.9,1.31.26-.06.61-.14,1-.21.81-.15,1.62-.26,2.42-.43a9.4,9.4,0,0,0,1.19-.42v-.19a8.39,8.39,0,0,0-.93-.57,4.45,4.45,0,0,0-1-.27c-.5-.1-1-.18-1.52-.27a.8.8,0,0,1-.2-.61,11.43,11.43,0,0,1,1.62-2.17,3.58,3.58,0,0,0,.45-.57,4.57,4.57,0,0,1,.5-.85,3,3,0,0,0,.46-.88c.16-.3.35-.57.52-.86a.46.46,0,0,0,.05-.51c-.17-.14-.34-.06-.51,0s-.5.4-.82.54-.56.36-.87.49a.77.77,0,0,0-.21.18,5.7,5.7,0,0,1-1.85,1.27c-.16.07-.3.2-.45.28s-.61.29-.91.43l-.66-.21-.61-1.27c0-.42,0-.91,0-1.39a4,4,0,0,1,.11-.53,2.74,2.74,0,0,0,0-.46,1.86,1.86,0,0,0-.09-.36C174.85,286.56,174.81,287.37,174.2,287.67Z"/>
	<path id="stick-2-3" data-name="stick-2" class="group-2 super-star-cls-3" d="M150.73,290.8c-.86.35-1.08,1.15-1.54,1.7l-.15.78a3.75,3.75,0,0,0,.4,1.25,7.18,7.18,0,0,1,.49,1.1l.66.75c.06.44.12.89.19,1.34a5,5,0,0,0,.61,1.67l.86.36.48.42h1.19l1.13-.77a9.77,9.77,0,0,1,.66-.77,9.62,9.62,0,0,0,1.09-1.23,5.47,5.47,0,0,1,.89-1,2.93,2.93,0,0,0,.75-1.23c.15-1,.5-2-.1-3.12l-.6-.4a5.42,5.42,0,0,1-1.57-.09l-1.5,1.06c-.36.17-.39.69-.82.79s-.37-.25-.44-.44c-.13-.34-.2-.7-.33-1.17a8.17,8.17,0,0,1-.64-.6,1,1,0,0,0-.71-.35Z"/>
	<path id="Stick-1" class="group-1 super-star-cls-2" d="M344.57,5.44c-.11.79.73,1.24.58,2,.71.65,1,1.6,1.65,2.29,1,1,2.15,1.87,2.63,3.31a4.21,4.21,0,0,0,.87,1.13c.26.32.53.63.81,1h1.6A4.92,4.92,0,0,0,354.34,13c.3-1.27,1-2.45.83-3.82,1.22-.86,1.65-2.2,2.42-3.28a23.14,23.14,0,0,1-.48-2.7A3.92,3.92,0,0,0,355.7.39c-.38,0-.74-.06-1.09-.13s-.68-.17-1.05-.26l-1.63,2.44c-.15.39,0,1-.64,1.37-.23-.1-.59-.14-.76-.34-.92-1.1-2.2-1.81-3.11-3a4.09,4.09,0,0,0-2.55,0,4,4,0,0,0-.93,2.75,3.91,3.91,0,0,0,.27.84A3.65,3.65,0,0,1,344.57,5.44Z"/>
	<path id="Stick-1-2" data-name="Stick-1" class="group-1 super-star-cls-2" d="M393.56,76.92c1.29-.72,2.65-1.29,3.26-2.58.67-.51,1.22-1,1.8-1.38a4,4,0,0,1,1.9-1c1.92,2.85,2.81,4.34,3.38,6.67a2,2,0,0,1-1.55-.12c-.32-.11-.58,0-.73.46a24.08,24.08,0,0,1,.85,2.83,21.9,21.9,0,0,0,.89,2.89,8.67,8.67,0,0,0,1.6,2.52,1.27,1.27,0,0,1,.1.2v.87c-.8,1.07-2,1.66-2.91,2.6a18.78,18.78,0,0,0-2.47,3,1.61,1.61,0,0,0,.8,2,5.34,5.34,0,0,1,2.35.42l2-.3c.65-.35,1.27-.71,1.92-1A2.58,2.58,0,0,1,409,94.8c.91.65.77,1.88,1.38,2.64s.7,1.91,1.51,2.8a11.42,11.42,0,0,0,1.32,1.2c.29.2.62.63,1.2.26a9.66,9.66,0,0,0,0-2.73l-.67-1.12L414,97c-.7-1.81.21-3.36.72-4.92.48-.37.9-.69,1.3-1A20.81,20.81,0,0,1,418,89.4a17.63,17.63,0,0,1,2.21-1V87.24l-.65-.58a19.58,19.58,0,0,0-5.77-.65c-.1,0-.19-.12-.29-.19a32.48,32.48,0,0,0-.73-3.49,35,35,0,0,0-1.47-3.39c-.25-.2-.57-.47-.91-.71a.65.65,0,0,0-.88.08,5.89,5.89,0,0,0-.4,1.48,6.1,6.1,0,0,1-.6,2.06c.3.73-.17,1.4-.18,2.11,0,.07-.16.13-.25.2a1,1,0,0,1-.83-.59,16.16,16.16,0,0,0-2.46-3.5v-.68l1.34-.59.33-2.63a17.76,17.76,0,0,1-.92-3.9,8.66,8.66,0,0,1-.12-1.8,2.29,2.29,0,0,1,.27-.7c.27.06.58,0,.71.17a6.69,6.69,0,0,0,2.94,1.37l1.83-1.2,1.25-.26,1.15.7L414,70c-.55-1.59-2.27-2-2.91-3.27l-4.48-2.84c-.18-1-1-2-1.14-3.21-.73-1-.46-2.47-1.35-3.45a.3.3,0,0,1,0-.17c-.06-1.23-1.29-2-1.26-3.29,0,0-.07-.1,0,0l-1-1c-.42.07-.85-.15-1.23.2-.22.37.22.65.18,1s-.12.7-.18,1a9.91,9.91,0,0,1,.24,1.44c0,1.32,0,2.65,0,4,0,.1-.11.2-.17.31l-.34.09c-1.13-.6-1.31-2-2-2.49-.66-1.22-1.16-2.16-1.66-3.1s-1.05-2-1.54-2.93c-.43-.24-.76-.37-1.13,0,.57,1.31.57,2.85,1.39,4.09.2,1.39-.18,2.79.37,4.12a1.88,1.88,0,0,1,0,.9,8.59,8.59,0,0,0,.31,3.53,5.92,5.92,0,0,1,.12,1.07,4.89,4.89,0,0,1-.77,2.44,3.35,3.35,0,0,1-.5,2.37,4,4,0,0,0-.25.85c-.17.51-.33,1-.54,1.51s-.43.86-.64,1.26L392,75.84l.18.61Zm11.28,5.31c.27.53.47,1.11,1.1,1.38.09,0,.15.18.21.28.23.35.47.69.7,1s.37.86.83,1.14a7,7,0,0,1,1,1l.83.08c.11-.14.24-.23.25-.32,0-.42,0-.84,0-1.26a4.12,4.12,0,0,1,.18-1.78,1.44,1.44,0,0,0,.09-.7,4.46,4.46,0,0,1,.55-2.24s.12,0,.14,0l.71.63c.25,1.3.5,2.46.69,3.63a7,7,0,0,0,1.47,3.23,6.41,6.41,0,0,1,.35.54c.61,0,.72-.47,1-.91l1.52-.68c.06.18.16.34.12.39a11.71,11.71,0,0,1-2.74,2.61c-.93,1.25-.6,2.87-1.09,4.15l.55,5.54-.72.19A24.24,24.24,0,0,1,411.18,96,5.39,5.39,0,0,0,409,93.06H407a17.94,17.94,0,0,1-3.54,1.48l-1.57-.3c.78-.92,1.47-1.82,2.25-2.64a10.12,10.12,0,0,1,1.54-1.23c.49-.35,1-.64,1.54-1l.05-.83a4.47,4.47,0,0,0-2-1.71c-.28-.57-.3-1.28-.85-1.73a1.2,1.2,0,0,1-.32-.64c-.21-.93-.4-1.87-.57-2.81a2.17,2.17,0,0,1,.13-.69A2.77,2.77,0,0,1,404.84,82.23Zm-8.77-11.07a8.21,8.21,0,0,1,.57-1.5c.2-.43.45-.83.76-1.41l.3-2.29-.95-2V59.47l.49-.24a3.63,3.63,0,0,1,1.33,1.64c.09.32.34.47.51.7.38.54,1,.82,1.37,1.39a1.6,1.6,0,0,0,1.75.61c.08-.1.23-.19.22-.27a11.3,11.3,0,0,1,0-1.94,4.09,4.09,0,0,0-.14-1.42,2.42,2.42,0,0,1,.35-2h.4l.25,1.06.62.65a5.43,5.43,0,0,0,.59,2,12.13,12.13,0,0,1,.75,2.62l.81,1.31c.72.34,1.54.15,2.27.53s1.05,1.14,1.92,1.24a2.78,2.78,0,0,1,.17.48,2.63,2.63,0,0,1,0,.49c-.5.82-1.36.75-2.12,1a20.16,20.16,0,0,0-3.81-.94l-.38,1.21a2.29,2.29,0,0,1,.14.51A12.56,12.56,0,0,0,405,74a8.51,8.51,0,0,1-.07,3.19,1.2,1.2,0,0,1-.31.15,1.9,1.9,0,0,1-.44,0c-.4-1.06-.81-2.16-1.24-3.26a1.8,1.8,0,0,0-.32-.62,2.33,2.33,0,0,1-.48-1.13,5.66,5.66,0,0,0-.76-1.59c-.18-.26-.57-.38-.9-.58-1.45.79-3.05,1.19-4.21,2.51A1.59,1.59,0,0,1,396.07,71.16Z"/>
	<path id="stick-2-4" data-name="stick-2" class="group-2group-2  super-star-cls-3" d="M135.93,277.36a10.8,10.8,0,0,1-1.55.39c-.74-.38-1.48,0-2.27,0a42.59,42.59,0,0,1-2.16-4.49,9.72,9.72,0,0,1-.91-3.39l-.59-.91-.11-1.35a3.73,3.73,0,0,1-1-2.44,9.62,9.62,0,0,0-.62-2.44c-.32-.23-.44-.74-1-.68-.09.08-.25.16-.25.24a19.65,19.65,0,0,0,.07,3.23c.12.7.27,1.4.32,2.12s.22,1.41.29,2.12c.06.54,0,1.09.07,1.62s.23.93.26,1.4-.07,1-.06,1.55c0,.84.11,1.68.12,2.52,0,.31-.14.59-.56.47a10.41,10.41,0,0,1-1.18-1.35,44.66,44.66,0,0,1-2.46-4,4.18,4.18,0,0,0-.7-1,.83.83,0,0,0-1.12-.19,1.11,1.11,0,0,0-.11,1,8.06,8.06,0,0,1,.76,2.56c0,.15.18.31.24.47.22.56.45,1.11.63,1.68.42,1.37.9,2.72,1.45,4.06a10.63,10.63,0,0,1,.81,2.75,4.4,4.4,0,0,0,1,2.64,1.56,1.56,0,0,1,.18.53,11,11,0,0,1-.93,2.5,25.49,25.49,0,0,1-1.56,2.8,4.92,4.92,0,0,0-.68,1.47,1.27,1.27,0,0,0,.2,1.39c1.23.54,1.79-.59,2.4-1a13.79,13.79,0,0,1,2.38-.95c.79-.14,1.08-1,1.83-1.15,1.11.46.95,1.56,1.17,2.4.67.33.49,1,.65,1.44a12.14,12.14,0,0,0,2.29,2.65c.45.1.81.17,1.13-.22a1.28,1.28,0,0,0,.13-.45c-.11-1.92-.46-3.81-.45-5.74a.62.62,0,0,0,0-.18c-.68-2.23-.66-4.58-1.19-6.89,1.45-.9,2.67-1.94,3-3.59,1.26-.83,2.25-1.91,3.67-2.33v-1a3,3,0,0,0-.79-.41A4.84,4.84,0,0,0,135.93,277.36Zm-1.69,3.41a7.1,7.1,0,0,0-.42.87c-.74.46-1.36,0-2.07,0a9.55,9.55,0,0,0,.27,4.63,7.91,7.91,0,0,1,.32,1.75c.14,1.72.27,3.43.41,5.15a2.74,2.74,0,0,0,.17.69,3.64,3.64,0,0,1,.06,1.9l-.47.15a2.07,2.07,0,0,1-.72-1.36,22.11,22.11,0,0,0-1.78-5c-.09-.22-.2-.44-.34-.74l-.67-.34c-1.16.45-.9,1.7-1.61,2.46a4.69,4.69,0,0,1-.9.38,3.59,3.59,0,0,1-.94,0,16.94,16.94,0,0,1,1.3-3.23,4.09,4.09,0,0,0,.37-1,1.86,1.86,0,0,0,0-.48,6.94,6.94,0,0,1-1.87-4.07,6.52,6.52,0,0,0-.52-1.33,21.86,21.86,0,0,1-1.39-4.45c.28-.33.53-.18.72.08s.47.85.78,1.21c.67.8,1.15,1.83,2.41,2.11l.64-.54a6.64,6.64,0,0,0-.18-2.5,1.65,1.65,0,0,1,0-1.05,4.68,4.68,0,0,0-.08-3.2l.36-.58c.16.06.31.06.36.14a1.31,1.31,0,0,1,.3.62,1.84,1.84,0,0,0,.47,1.32.66.66,0,0,1,.19.3c.22,1.44,1.1,2.61,1.63,4l1.52,1.06a2.46,2.46,0,0,0,1.71-.21l.72.56A8.84,8.84,0,0,0,134.24,280.77Z"/>
	<path id="stick-2-5" data-name="stick-2" class="group-1 super-star-cls-4" d="M19.12,287.24a17.81,17.81,0,0,1,2.16-.42,24.69,24.69,0,0,1,2.7-.07,16,16,0,0,1,3.32.27,5.8,5.8,0,0,0,2.47,0c.31-.31.64-.51.65-1l-.59-1a5.44,5.44,0,0,1-2.46-.72,4.17,4.17,0,0,0-1.63-.6c-.75-.09-1.4-.43-2.16-.54a2.79,2.79,0,0,1-2.44-.19l-1.72.35-1.16-.75a6.21,6.21,0,0,1-.55-.75c-.14-.27-.16-.61-.32-.87a19.4,19.4,0,0,1-1.8-3.47,1.1,1.1,0,0,0-.24-.4,6.27,6.27,0,0,0-1.9-1.47l-.76.48c0,1.92,0,3.78,0,5.63a6.15,6.15,0,0,1-.48,2.86l-.94.06a17.06,17.06,0,0,1-3-1.88,14.26,14.26,0,0,1-2.57-2.19A3.65,3.65,0,0,1,4.27,280a10.92,10.92,0,0,0-3-1.35,2.39,2.39,0,0,0-.51,0l-.4.24L0,280.13c.31.7.54,1.34.87,1.94.52,1,1.11,1.92,1.65,2.88a12.66,12.66,0,0,0,1.79,2.61,4.13,4.13,0,0,1,.52.78A6.88,6.88,0,0,0,6,290.18c.14.12.17.37.24.53a1.51,1.51,0,0,1-.2.32c-.69.62-1.7.54-2.43,1.09a.84.84,0,0,1-.45.13c-1.22.05-1.94,1-2.81,1.57-.08.73-.61,1.32-.31,2.16l.54.58c.32-.06.6-.22.81-.15a10.35,10.35,0,0,0,3,.26,4.41,4.41,0,0,1,1.55.26,21.48,21.48,0,0,0,2.9.68,11.48,11.48,0,0,0,1.7.3,6.69,6.69,0,0,0,3-.47,2.52,2.52,0,0,1,1.32-1.35c.45.51.85,1,1.28,1.45a10.09,10.09,0,0,1,1.08,1.36,9.62,9.62,0,0,0,1.34,1.53c.87.84,1.76,1.66,2.67,2.45a5.74,5.74,0,0,0,3,1.68l.38-.26a3.57,3.57,0,0,0,.08-.47,4.12,4.12,0,0,0,0-.51,5.53,5.53,0,0,1-.84-1.11c-.57-1.35-1.5-2.56-1.68-4.08a1.07,1.07,0,0,0-.17-.43c-.9-1.4-1-3.07-1.67-4.57a2.39,2.39,0,0,1-.06-.79c0-.48,0-1-.06-1.41a2.6,2.6,0,0,1-.5-.63c-.32-.89-.59-1.8-.89-2.76C19,287.39,19,287.26,19.12,287.24Zm-2.22,0,.69.33a1.05,1.05,0,0,1,.13.28,4.68,4.68,0,0,0,.1.94,21.54,21.54,0,0,1,.76,2.71c.31,1.44.75,2.85,1.17,4.26a5.2,5.2,0,0,0,.72,1.74,3.45,3.45,0,0,1,.55,1.86c.3.49.86.83.45,1.45a.66.66,0,0,1-.78-.39,4.51,4.51,0,0,0-1.36-1.29A5.33,5.33,0,0,1,18.23,298c-1.06-1.31-2.05-2.67-3-4-.53-.18-.9.12-1.37.18-.77,1.09-1.55,2.26-3.29,2.27-.45-.1-1.06-.25-1.68-.36-1.4-.25-2.8-.44-4.19-.74a16.27,16.27,0,0,1-2.06-.73l0-.33a14.54,14.54,0,0,1,1.61-1,7.71,7.71,0,0,1,1.65-.48c.87-.18,1.76-.31,2.63-.46a1.39,1.39,0,0,0,.34-1.05A19.79,19.79,0,0,0,6,287.58a6.2,6.2,0,0,1-.78-1,7.91,7.91,0,0,0-.86-1.48,5.16,5.16,0,0,1-.8-1.52c-.27-.51-.6-1-.91-1.49a.79.79,0,0,1-.09-.89c.3-.24.58-.11.88,0,.52.24.87.69,1.43.93s1,.62,1.5.84a1.33,1.33,0,0,1,.36.31,9.87,9.87,0,0,0,3.2,2.19c.28.12.51.35.79.49.52.26,1,.5,1.58.75l1.14-.36,1.06-2.19c0-.72,0-1.57,0-2.41a6.89,6.89,0,0,0-.2-.92,4.74,4.74,0,0,1-.08-.79,3.22,3.22,0,0,1,.15-.62c1.1.83,1.17,2.23,2.23,2.75a3.83,3.83,0,0,0,.64,1.91c.82.31,1.77,0,2.6.2a20.87,20.87,0,0,0,2.53.3l.05.48c-.56,0-1.09.06-1.6.14s-.92.22-1.38.32a2.87,2.87,0,0,1-.76.11,3.13,3.13,0,0,0-2,.62C16.44,286.7,16.81,286.9,16.89,287.21Z"/>
	<path id="stick-2-6" data-name="stick-2" class="group-2 super-star-cls-3" d="M434.54,146.09a5.43,5.43,0,0,1-2.46-.72,4.18,4.18,0,0,0-1.63-.6c-.75-.09-1.4-.43-2.16-.54a2.79,2.79,0,0,1-2.44-.19l-1.72.35-1.16-.75a6.24,6.24,0,0,1-.55-.75c-.14-.27-.16-.61-.32-.87a19.4,19.4,0,0,1-1.8-3.47,1.09,1.09,0,0,0-.24-.4,6.26,6.26,0,0,0-1.9-1.47l-.76.48c0,1.92,0,3.78,0,5.63a6.15,6.15,0,0,1-.48,2.86l-.94.06a17.05,17.05,0,0,1-3-1.88,14.25,14.25,0,0,1-2.57-2.19,3.64,3.64,0,0,1-1.41-.57,10.91,10.91,0,0,0-3-1.35,2.38,2.38,0,0,0-.51,0l-.4.24-.35,1.27c.31.7.54,1.34.87,1.94.52,1,1.11,1.92,1.65,2.88a12.66,12.66,0,0,0,1.79,2.61,4.14,4.14,0,0,1,.52.78,6.87,6.87,0,0,0,1.21,1.83c.14.12.17.37.24.53a1.52,1.52,0,0,1-.2.32c-.69.62-1.7.54-2.43,1.09a.84.84,0,0,1-.45.13c-1.22.05-1.94,1-2.81,1.57-.08.73-.61,1.32-.31,2.16l.54.58c.32-.06.6-.22.81-.15a10.35,10.35,0,0,0,3,.26,4.41,4.41,0,0,1,1.55.26,21.46,21.46,0,0,0,2.9.68,11.49,11.49,0,0,0,1.7.3,6.69,6.69,0,0,0,3-.47,2.52,2.52,0,0,1,1.32-1.35c.45.51.85,1,1.28,1.45A10.12,10.12,0,0,1,422,160a9.61,9.61,0,0,0,1.34,1.53c.87.84,1.76,1.66,2.67,2.45a5.74,5.74,0,0,0,3,1.68l.38-.26a3.57,3.57,0,0,0,.08-.47,4.12,4.12,0,0,0,0-.51,5.53,5.53,0,0,1-.84-1.11c-.57-1.35-1.5-2.56-1.68-4.08a1.08,1.08,0,0,0-.17-.43c-.9-1.4-1-3.07-1.67-4.57a2.39,2.39,0,0,1-.06-.79c0-.48,0-1-.06-1.41a2.6,2.6,0,0,1-.5-.63c-.32-.89-.59-1.8-.89-2.76.13-.15.19-.28.27-.3a17.84,17.84,0,0,1,2.16-.42,24.7,24.7,0,0,1,2.7-.07,16,16,0,0,1,3.32.27,5.8,5.8,0,0,0,2.47,0c.31-.31.64-.51.65-1Zm-9,.25c-.47.07-.92.22-1.38.32a2.87,2.87,0,0,1-.76.11,3.13,3.13,0,0,0-2,.62c-.22.41.15.62.23.93l.69.33a1.06,1.06,0,0,1,.13.28,4.67,4.67,0,0,0,.1.94,21.52,21.52,0,0,1,.76,2.71c.31,1.44.75,2.85,1.17,4.26a5.2,5.2,0,0,0,.72,1.74,3.45,3.45,0,0,1,.55,1.86c.3.49.86.83.45,1.45a.66.66,0,0,1-.78-.39A4.51,4.51,0,0,0,424,160.2a5.33,5.33,0,0,1-1.07-1.14c-1.06-1.31-2.05-2.67-3-4-.53-.18-.9.12-1.37.18-.77,1.09-1.55,2.26-3.29,2.27-.45-.1-1.06-.25-1.68-.36-1.4-.25-2.8-.44-4.19-.74a16.27,16.27,0,0,1-2.06-.73l0-.33a14.53,14.53,0,0,1,1.61-1,7.69,7.69,0,0,1,1.65-.47c.87-.18,1.76-.31,2.63-.46a1.39,1.39,0,0,0,.34-1.05,19.78,19.78,0,0,0-2.8-3.76,6.19,6.19,0,0,1-.78-1,7.92,7.92,0,0,0-.86-1.48,5.16,5.16,0,0,1-.8-1.52c-.27-.51-.6-1-.91-1.49a.79.79,0,0,1-.09-.89c.3-.24.58-.11.88,0,.52.24.87.69,1.43.93s1,.62,1.5.84a1.33,1.33,0,0,1,.36.31,9.87,9.87,0,0,0,3.2,2.19c.28.12.51.35.79.49.52.26,1,.5,1.58.75l1.14-.36,1.06-2.19c0-.72,0-1.57,0-2.41a6.89,6.89,0,0,0-.2-.92,4.75,4.75,0,0,1-.08-.79,3.24,3.24,0,0,1,.15-.62c1.1.83,1.17,2.23,2.23,2.75a3.82,3.82,0,0,0,.64,1.91c.82.31,1.77,0,2.6.2a20.87,20.87,0,0,0,2.53.3l.05.48C426.59,146.25,426.07,146.26,425.55,146.34Z"/>
	<path id="stick-2-7" data-name="stick-2" class="group-2 super-star-cls-4" d="M311.82,265.43a10.16,10.16,0,0,1-2.53-1.06c-.69-.49-1.63-.62-2.15-1.49-.34-1.19-.32-2.56-1-3.75a1.2,1.2,0,0,1-.09-.68,30.63,30.63,0,0,0-.31-3.45,29.35,29.35,0,0,0-.65-3.39,3.09,3.09,0,0,0-.64-1.59c-.77-.45-.78-.43-1.44-.25a9.69,9.69,0,0,0-.48,3.56,6.83,6.83,0,0,1-.19,1.89,2.22,2.22,0,0,0,0,1.36,1.82,1.82,0,0,1,.11.67.68.68,0,0,1-.56.66c-.27-.33-.57-.66-.83-1-.9-1.27-2-2.4-2.8-3.73a6.31,6.31,0,0,0-2.54-2.53l-.54.29a6.46,6.46,0,0,0,0,1c.21,1.31.68,2.57.84,3.89a10.07,10.07,0,0,1,.84,2.81,48.14,48.14,0,0,0,1.67,5.08c.34.66.73,1.29,1.13,2a2.27,2.27,0,0,1-.42.53,11.71,11.71,0,0,1-1.79,1.08,22.93,22.93,0,0,0-2.22,1.33,13.89,13.89,0,0,0-1.27.92,2.16,2.16,0,0,0-.41,2,4,4,0,0,0,.49.39,7.4,7.4,0,0,0,2.87.52,1.92,1.92,0,0,0,1.33-.06,3.91,3.91,0,0,1,1.45-.16l1.71,1,1.44,1.64a19.14,19.14,0,0,1,1.49,2.62c.34.91,1.16,1.61,1,2.57l1,1.54.88.41a1,1,0,0,0,.42-1.14c-.09-.8-.2-1.61-.31-2.41,0-.28-.11-.56-.17-.84a15.23,15.23,0,0,1-.58-3.41c0-1.28,0-2.56.08-3.84,0-.51.17-1,.24-1.53a1.35,1.35,0,0,0-.08-.39l-.5-.28a4.27,4.27,0,0,0-.38.21,3.15,3.15,0,0,0-.27.24l-.12.5a13.06,13.06,0,0,0,0,5.68,10.93,10.93,0,0,1,.46,3.25,2.26,2.26,0,0,1-.23.52c-.81-1.52-1.33-3.08-2.63-4.22.1-1.06-1-1.55-1.35-2.44a2,2,0,0,0-1.31-1h-2.14a6.83,6.83,0,0,1-2.05-.1l0-.44a7.37,7.37,0,0,0,1.49-1.1,2.29,2.29,0,0,1,1.15-.75,5.08,5.08,0,0,0,1.63-.93c.12-.21.22-.41.35-.61a1.44,1.44,0,0,0,0-1.49,3.66,3.66,0,0,0-.61-1,6.17,6.17,0,0,1-1.34-2.78c-.17-.49-.29-1-.45-1.49a3.4,3.4,0,0,1-.28-.81,6.86,6.86,0,0,0-.72-2.13,3.79,3.79,0,0,1,.12-1.69c.15,0,.3,0,.37,0a10.2,10.2,0,0,1,1.84,1.81,12,12,0,0,0,2.24,2.41,1.47,1.47,0,0,0,1.58.46c.4-.56.08-1.39.7-1.86.73.86.47,2,.82,3s.63,2.08,1,2.95c1,.38,1.87.69,2.71,1.06.42.18.75.55,1.16.74a8,8,0,0,0,1.32.34l.18.75c-.2.15-.36.37-.56.41a7.52,7.52,0,0,0-3.18,1.64c-.13.11-.25.23-.36.32l-.34,1.16.67.44,1-.91,1.09-.15a6.08,6.08,0,0,1,2.47-1.47,7.94,7.94,0,0,0,1.81-1c.21-.14.31-.45.45-.67l-.47-.83C313.47,265.92,312.63,265.71,311.82,265.43Z"/>
	<path id="stick-2-8" data-name="stick-2" class="group-2 super-star-cls-4" d="M8.57,145.66a7.4,7.4,0,0,0,2.87.52,1.92,1.92,0,0,0,1.33-.06,3.91,3.91,0,0,1,1.45-.16l1.71,1,1.44,1.64a19.13,19.13,0,0,1,1.49,2.62c.34.91,1.16,1.61,1,2.57l1,1.54.88.41a1,1,0,0,0,.42-1.14c-.09-.8-.2-1.61-.31-2.41,0-.28-.11-.56-.17-.84a15.22,15.22,0,0,1-.58-3.41c0-1.28,0-2.56.08-3.84,0-.51.17-1,.24-1.53a1.35,1.35,0,0,0-.08-.39l-.5-.28a4.23,4.23,0,0,0-.38.21,3.15,3.15,0,0,0-.27.24l-.12.5a13.05,13.05,0,0,0,0,5.68,10.92,10.92,0,0,1,.46,3.25,2.25,2.25,0,0,1-.23.52c-.81-1.52-1.33-3.08-2.63-4.22.1-1.06-1-1.55-1.35-2.44a2,2,0,0,0-1.31-1H12.88a6.83,6.83,0,0,1-2.05-.1l0-.44a7.38,7.38,0,0,0,1.49-1.1,2.29,2.29,0,0,1,1.15-.75,5.08,5.08,0,0,0,1.63-.93c.12-.21.22-.41.35-.61a1.44,1.44,0,0,0,0-1.49,3.66,3.66,0,0,0-.61-1,6.17,6.17,0,0,1-1.34-2.78c-.17-.49-.29-1-.45-1.49a3.38,3.38,0,0,1-.28-.81,6.86,6.86,0,0,0-.72-2.13,3.8,3.8,0,0,1,.12-1.69c.15,0,.3,0,.37,0a10.21,10.21,0,0,1,1.84,1.81,12,12,0,0,0,2.24,2.41,1.47,1.47,0,0,0,1.58.46c.4-.56.08-1.39.7-1.86.73.86.47,2,.82,3s.63,2.08,1,2.95c1,.38,1.87.69,2.71,1.06.42.18.75.55,1.16.74a8,8,0,0,0,1.32.34l.18.75c-.2.15-.36.37-.56.41A7.53,7.53,0,0,0,22.44,143c-.13.11-.25.23-.36.32l-.34,1.16.67.44,1-.91,1.09-.15A6.08,6.08,0,0,1,27,142.39a7.94,7.94,0,0,0,1.81-1c.21-.14.31-.45.45-.67l-.47-.83c-.85-.25-1.68-.46-2.5-.74a10.18,10.18,0,0,1-2.53-1.06c-.69-.49-1.63-.62-2.15-1.49-.34-1.19-.32-2.56-1-3.75a1.2,1.2,0,0,1-.09-.68,30.59,30.59,0,0,0-.31-3.45,29.35,29.35,0,0,0-.65-3.39,3.09,3.09,0,0,0-.64-1.59c-.77-.45-.78-.43-1.44-.25a9.69,9.69,0,0,0-.48,3.56,6.83,6.83,0,0,1-.19,1.89,2.22,2.22,0,0,0,0,1.36A1.82,1.82,0,0,1,17,131a.68.68,0,0,1-.56.66c-.27-.33-.57-.66-.83-1-.9-1.27-2-2.4-2.8-3.73a6.31,6.31,0,0,0-2.54-2.53l-.54.29a6.46,6.46,0,0,0,0,1c.21,1.31.68,2.57.84,3.89a10.06,10.06,0,0,1,.84,2.81,48.19,48.19,0,0,0,1.67,5.08c.34.66.73,1.29,1.13,2a2.27,2.27,0,0,1-.42.53A11.71,11.71,0,0,1,12,141a22.91,22.91,0,0,0-2.22,1.33,13.92,13.92,0,0,0-1.27.92,2.16,2.16,0,0,0-.41,2A4,4,0,0,0,8.57,145.66Z"/>
	<path id="stick-2-9" data-name="stick-2" class="group-2 super-star-cls-3" d="M283,245a11.19,11.19,0,0,1-1.25.18c-.5,0-1,0-1.54-.06-1.3.85-3,.92-4.22,1.92a2,2,0,0,1-.59.26,1.83,1.83,0,0,1-2-.37c-.79-.81-1.89-1.25-2.51-2.27-.2-.33-.67-.5-1-.7a3.63,3.63,0,0,0-2.63.36c-.21.32-.45.67-.68,1a2,2,0,0,0-.23,1.67,13.91,13.91,0,0,0,1.66,4.15c.3.39.62.76.89,1.17a14.9,14.9,0,0,1,.84,1.49,6.3,6.3,0,0,0,.59,1.35c1.25,1.44,1.44,3.43,2.6,4.91.16.2.13.55.19.83s.11.41.22.79l1.44,1.21c-.06,1.81,1.54,2.58,2.3,3.79.71.23,1.1.07,1.24-.54-.2-1.48-1.79-1.94-1.75-3.39l1.24-.38a8.07,8.07,0,0,0,1.8-2.59,5.94,5.94,0,0,1,1.25-1.74c1.25-1.07,2.26-2.36,3.4-3.53a9,9,0,0,0,.93-1.35v-5.84A4,4,0,0,0,283,245Zm.1,6.78-.91,1.76a10.66,10.66,0,0,0-3.15,3.13l-.89.38-2.36,3.59c-.09,0-.35-.07-.43-.21a25.42,25.42,0,0,1-1.89-3.36,8.92,8.92,0,0,0-1.59-3,6,6,0,0,1-.85-1.72c-.21-.45-.38-.92-.53-1.26l-1.14-.88-.26-2.13-.72-1.33,1.16-1.1c.84.83,1.61,1.57,2.36,2.33a3.22,3.22,0,0,1,.85,1.71c.14.7.3,1.39.48,2.2l1.73,1.76a6.3,6.3,0,0,0,.89.15,2.11,2.11,0,0,0,.57-.13c.72-1.2-.18-2.08-.49-3.11.23-1.33,1.52-1.74,2.37-2.54a.73.73,0,0,1,.6-.16c.75.23,1.21-.18,1.68-.63a4.65,4.65,0,0,1,.56-.39l1.18.26A9,9,0,0,1,283.06,251.77Z"/>
</svg>