<svg xmlns="http://www.w3.org/2000/svg" viewBox="0 0 121.32 303">
	<title>svg_sunflower</title>
	<path d="M120.93,64.26c-1.5-.69-3.16-.88-4.7-1.44a5.13,5.13,0,0,0-.76-.2l-1.93-.36c-1.33-.73-2.35-1.59-3.48-2.07-1.62,0-3.13.06-4.64,0a4.54,4.54,0,0,1-2.77-.72c-.28-.43-.51-.83-.78-1.2a2.87,2.87,0,0,0-2.16-1.22,8.59,8.59,0,0,0-2.36,0,9,9,0,0,1-2.75.12A17.15,17.15,0,0,1,90,56.09a3,3,0,0,1-.86-.47,7,7,0,0,0-1.86-1.1c-.18-.08-.35-.18-.73-.38l-.84-.88-2.07-.88a8.21,8.21,0,0,0-2.44,0c-.84.14-1.67.33-2.43.49a8.35,8.35,0,0,1-2.69-1.38.63.63,0,0,1,0-.87,10.21,10.21,0,0,1,3-1.52c.51-.13,1-.27,1.52-.42a6.9,6.9,0,0,1,2.54-.26c.46,0,.91.1,1.37.14a6.33,6.33,0,0,0,2.92-.26,3.36,3.36,0,0,1,1-.15c.72-.06,1.45-.07,2.17-.14a5.9,5.9,0,0,1,2.72.33,9,9,0,0,0,2.69.58c.39,0,.78.1,1.14.15l1.52-.56a8.69,8.69,0,0,1,2.65-.72,3.36,3.36,0,0,0,.94-.28c.49-.18,1-.39,1.47-.59a10,10,0,0,1,2.73,0c.49.23,1.16.51,1.8.84a4.46,4.46,0,0,0,2.29.49l2-.1,1.84-.72a11.14,11.14,0,0,0,1.07-.76,6.55,6.55,0,0,1,2.89-1.19,9.35,9.35,0,0,0,2.73-1.11c.13-.08.17-.31.26-.47-.17-.06-.29-.15-.4-.14a4.73,4.73,0,0,0-1.36.18,12.31,12.31,0,0,1-2.92.53l-1.33.83c-.44.28-.88.58-1.33.84a5.18,5.18,0,0,1-5.27.19c-.7-.36-1.43-.66-2.14-1l-2.48,0c-.84.34-1.55.69-2.3.93-1.44.47-2.89.88-4.35,1.32a7.84,7.84,0,0,1-2.91-.32l-1-.54a27.44,27.44,0,0,0-4.41,0c-.33,0-.66,0-1,.07l-.19,0a11.58,11.58,0,0,1-2.95.23c-.72,0-1.45,0-2.17,0a20.75,20.75,0,0,0-4.08.66,6.7,6.7,0,0,0-2,.83,1.19,1.19,0,0,1-.54,0,.79.79,0,0,1,.19-.49,8.05,8.05,0,0,1,1.27-1.28c1-.6,1.63-1.06,2.34-1.4s1.49-.53,2.21-.84a9.23,9.23,0,0,1,2.24-.45c.54-.41,1-.78,1.48-1.12a4.48,4.48,0,0,1,2.33-1,5.25,5.25,0,0,0,.95-.26,3.13,3.13,0,0,1,1.94.07c.67.26,1.36.49,2.07.75a6,6,0,0,0,1.14-.18,5.37,5.37,0,0,1,2.34-.23l.95.11,2.36-.37c.39-.06.79-.07,1.17-.16a4.17,4.17,0,0,0,1.47-.57c.81-.56,1.62-1.12,2.43-1.69a7.44,7.44,0,0,1,1.9-1,3.23,3.23,0,0,0,1.33-.83,3.74,3.74,0,0,1,1.6-.94l4-.25a11,11,0,0,1,3-1.05,7,7,0,0,0,2-.75.38.38,0,0,0,.16-.11c.06-.11.15-.23.14-.34A.37.37,0,0,0,119,34a6.42,6.42,0,0,0-2.91.29,12.37,12.37,0,0,1-5,.92l-.86,0a15.44,15.44,0,0,0-1.89.92c-1.27.83-2.61,1.53-3.91,2.31a4.88,4.88,0,0,0-.82.54,7.88,7.88,0,0,1-2.07,1.27c-.71.12-1.3.17-1.87.32a10.3,10.3,0,0,1-2.15.3l-3,.18c-.46,0-.92,0-1.25,0a16.41,16.41,0,0,0-2.45-.84l-3.05.44c-1.07.59-2.16,1.21-3.27,1.78a10.18,10.18,0,0,1-1.65.65c-.75.23-1.52.42-2.29.6a3.69,3.69,0,0,0-1.43.64c-.83.64-1.82,1.07-2.59,1.8a8.55,8.55,0,0,1-.81.56c-.25.19-.37.54-.74.58a1.25,1.25,0,0,1-.88-1A6.65,6.65,0,0,1,75.28,45a2.17,2.17,0,0,1,.57-.54,8.94,8.94,0,0,0,1.32-1.18c.48-.44,1-.82,1.51-1.26a9.24,9.24,0,0,1,1.65-1.4,8.75,8.75,0,0,1,4.29-2.28,6.42,6.42,0,0,0,3-1.49A10.31,10.31,0,0,1,88.73,36c.23-.38.46-.78.72-1.16s.56-.73.83-1.1,1-.71,1.29-1.19a9.88,9.88,0,0,1,1.1-1.39c.18-.19.38-.36.55-.51a14.58,14.58,0,0,1,3.72-1.38,5.63,5.63,0,0,0,1-.33,20.79,20.79,0,0,1,2.7-2.66,9.69,9.69,0,0,1,1.1-1.53,18.39,18.39,0,0,1,4.81-3.41c.83-.38,1.71-.68,2.59-1a19,19,0,0,0,2.3-2.4.32.32,0,0,0,.06-.18.33.33,0,0,0,0-.18c-.08-.13-.21-.2-.33-.13-.67.41-1.31.87-2,1.23A13.55,13.55,0,0,1,106.2,20a2.81,2.81,0,0,0-.53.25A20.84,20.84,0,0,0,102.84,22a12.51,12.51,0,0,0-3.13,3.26,4.46,4.46,0,0,1-.74.92,7.59,7.59,0,0,1-4,2.3,6.43,6.43,0,0,0-2.13,1,15.22,15.22,0,0,0-2,1.92c-1,1.23-2,2.41-3.07,3.61a3.87,3.87,0,0,1-1.56,1.18c-.74.28-1.46.6-2.17.95a9.59,9.59,0,0,0-1.11.38c-.55.37-1.17.6-1.73.94a8,8,0,0,0-1.29.9,48.79,48.79,0,0,0-3.67,3.28,23.8,23.8,0,0,1-2.18,2,1.68,1.68,0,0,1-.56.19,6,6,0,0,0-1.42-1.35,8.83,8.83,0,0,1-1.95-1.66,3.17,3.17,0,0,1-.28-.56,15,15,0,0,0,1-2.76c.56-.92.4-2.07.95-3A5.24,5.24,0,0,1,73,34.49c.49-.33.95-.71,1.42-1.06l1.25-.93A7.23,7.23,0,0,0,76.85,30a7.69,7.69,0,0,1,.68-3.3,3,3,0,0,1,1.16-1.56c.33-.22.64-.46.95-.71a6.31,6.31,0,0,1,2.68-1.36l2.3-.22,3.89-1.41c.28-.27.56-.55.84-.82.72-.67,1.44-1.35,2.17-2a3.93,3.93,0,0,1,.81-.54c.41-.21.83-.37,1.21-.54a10.61,10.61,0,0,1,2.89-3A2.58,2.58,0,0,0,97,14a11.89,11.89,0,0,1,1.92-1.69,2.58,2.58,0,0,0,.27-.28,1.37,1.37,0,0,0,.11-.95c-.18-.23-.42-.39-.67-.17-.63.57-1.26,1.15-1.93,1.67a16.66,16.66,0,0,0-3.23,3.17A4.61,4.61,0,0,1,92,17.07a13.05,13.05,0,0,0-3.11,2.4,7,7,0,0,1-3.61,1.91,16.91,16.91,0,0,1-3.11.48c-.39,0-.78.1-1.11.14a29.17,29.17,0,0,0-3.88,2.83c-.28.6-.53,1.21-.85,1.78a7.13,7.13,0,0,0-.45,1.91c-.16.63-.22,1.29-.32,1.92-.08.13-.16.24-.22.35a4.19,4.19,0,0,1-2,1.84,6.62,6.62,0,0,0-2.79,2.7l-.49,2.54-1,2.13a1.56,1.56,0,0,1-.63.75.94.94,0,0,1-.19,0,3.79,3.79,0,0,1-1.46-.56,2.64,2.64,0,0,1-.48-.39c.1-.65.17-1.29.3-1.93s.27-1.15.41-1.72.34-1.27.48-1.77V32.84l1-2.11a3.63,3.63,0,0,0,.46-1.7,6.5,6.5,0,0,1,.51-2.58,9.79,9.79,0,0,1,.92-1.4,15.83,15.83,0,0,0,2.14-3c.08-.47.22-1,.27-1.63s.16-1.3.26-2a11.26,11.26,0,0,1,.82-2.82,8.53,8.53,0,0,1,1.48-2.53,4.3,4.3,0,0,0,.35-.52l.26-.91a5.78,5.78,0,0,1,.77-1.81,12.35,12.35,0,0,0,1.09-2.09,15.5,15.5,0,0,1,.83-1.57,10.77,10.77,0,0,0,1.31-3.9.72.72,0,0,0,0-.38.6.6,0,0,0-.25-.23s-.14,0-.17.07a2.92,2.92,0,0,0-.42.65c-.22.62-.42,1.24-.59,1.88a5,5,0,0,1-.77,1.8,13.3,13.3,0,0,0-1.48,2.78c-.32.72-.67,1.43-1,2.13a16.58,16.58,0,0,1-1,2.11,12.17,12.17,0,0,0-2,4.27,11.39,11.39,0,0,0-.83,3.84,2.64,2.64,0,0,1-.23,1.13c-.73,1.21-2.07,2.15-2.92,3.5a43.25,43.25,0,0,0-.87,4.5c-.26.53-.57,1.11-.83,1.71a3.91,3.91,0,0,0-.41,1.31,13.19,13.19,0,0,1-.61,2.89,13.05,13.05,0,0,0-.23,1.32c-.35.82-.69,1.6-1,2.38,0,.05-.1.08-.19.14a2.73,2.73,0,0,1-1.63,0,1.11,1.11,0,0,1-.51-.89c-.06-1.32-.08-2.63-.15-3.95A8.6,8.6,0,0,1,61.92,33a10.28,10.28,0,0,1-.29-1.41,22.94,22.94,0,0,1-.21-3.94,2.21,2.21,0,0,0,0-.59,21.53,21.53,0,0,1-.2-3.35,10.94,10.94,0,0,1,.09-3.33,33.07,33.07,0,0,0-.45-7.26,8.08,8.08,0,0,0,.09-1,8.36,8.36,0,0,1,.37-2.73,5.63,5.63,0,0,0,.17-2.15,8.9,8.9,0,0,1,.17-3.33,3.19,3.19,0,0,0,0-1c0-.79-.07-1.58-.07-2.37,0-.13,0-.27,0-.41-.36,0-.73-.09-1.09-.15a10.21,10.21,0,0,0,0,2.65,2.78,2.78,0,0,1-.06,1,11.31,11.31,0,0,0-.19,2.16c-.06.79-.12,1.57-.14,2.36a8.85,8.85,0,0,1-.24,2,14.31,14.31,0,0,0-.36,2.33,4.34,4.34,0,0,0,.17,1.76A5.78,5.78,0,0,1,60,15.33a36.66,36.66,0,0,1,.15,5.13,16.88,16.88,0,0,0-.1,3.93c0,1.71.25,3.41.21,5.13a8.83,8.83,0,0,0,.31,2.34,4.86,4.86,0,0,1,.15,1.95,13,13,0,0,0-.07,2.36c0,1.38.06,2.76.09,4.08l-.29.44-2,.2c-.83-.36-.68-1.14-1-1.84a6.35,6.35,0,0,1-1.18-2.31,8.41,8.41,0,0,1,0-1c0-.32.15-.64.19-1a9.77,9.77,0,0,0,.09-1.37c0-1-.09-2-.13-2.93a9.74,9.74,0,0,1-.93-2.62A2.4,2.4,0,0,0,55,26.77a3.78,3.78,0,0,1-.81-2.65,13.69,13.69,0,0,0,1-2.84l-.2-2.55a39.1,39.1,0,0,0-2.5-5.9,8.91,8.91,0,0,0-.72-3,18.45,18.45,0,0,1-.8-2.84,12.59,12.59,0,0,0-1.55-3.82A1.54,1.54,0,0,0,49,2.7a.48.48,0,0,0-.36-.09c-.1,0-.18.16-.27.25a2.18,2.18,0,0,0,.3,1.32,11.42,11.42,0,0,1,1.44,4.06,2.64,2.64,0,0,0,.13.58,15.88,15.88,0,0,1,1.13,4.56c.5,1,1,1.86,1.45,2.82s.69,2,.92,2.67a7.61,7.61,0,0,1-.52,4.7c0,.91.08,1.76.13,2.62a1.6,1.6,0,0,0,.12.38l.76,1.09.19,1.5.8,1.63c0,.48,0,.88.07,1.27s.15.9.23,1.4a11.93,11.93,0,0,1-.3,1.5,4.66,4.66,0,0,0-.09,2.11c.36.82.79,1.78,1.19,2.75a3.41,3.41,0,0,1,.34,1.5c0,.06-.05.14-.1.18-.84.63-1.67,1.27-2.52,1.88-.09.06-.25,0-.37,0a1.55,1.55,0,0,1-.67-.71c-.19-.35-.36-.7-.56-1s-.36-.55-.54-.83l-.57-.89a4.89,4.89,0,0,1,.05-2.28,6.45,6.45,0,0,0,0-2.74c-.06-.32-.2-.63-.24-1a14,14,0,0,0-1.38-4.49c-.61-1.24-1.34-2.41-2-3.64a2.4,2.4,0,0,0-.31-.36l-1-.58a8.83,8.83,0,0,0-2-1.8c-.38-.26-.74-.54-1.12-.81a18.28,18.28,0,0,1-3.18-2.89,13.57,13.57,0,0,1-.62-1.71,12.76,12.76,0,0,1-.16-1.75c-.13-.24-.24-.49-.39-.71-.36-.56-.41-1.27-.87-1.76s-1-1-1.56-1.51l-.72-.68c0,.14-.14.27-.12.38a4.17,4.17,0,0,0,.24.74,12.11,12.11,0,0,0,1.34,1.93,8.59,8.59,0,0,1,1.07,3.76,13.91,13.91,0,0,0,1.23,2.41c.58.53,1.11,1,1.65,1.5a11.11,11.11,0,0,0,1.22,1,16.94,16.94,0,0,1,2.86,2.42A6.9,6.9,0,0,0,47,26.61c.18.33.35.61.49.91a7,7,0,0,0,1.15,2,2.22,2.22,0,0,1,.44.88A29.11,29.11,0,0,1,50.29,36a3.37,3.37,0,0,1-.11,1.56,3.09,3.09,0,0,0,.22,2.66A11,11,0,0,0,51,41.52c.56.82.95,1.73,1.46,2.57-.41.67-.64.88-1.11,1a1.26,1.26,0,0,1-1.26-.36c-.12-.16-.19-.34-.31-.5a12.13,12.13,0,0,1-2.18-4.16,3.75,3.75,0,0,0-.35-.71,4.76,4.76,0,0,1-.39-1.11,4.59,4.59,0,0,0-2.2-3.13,4.46,4.46,0,0,1-.8-.57,3.74,3.74,0,0,0-1.19-.68,1.26,1.26,0,0,1-.74-.54,3.26,3.26,0,0,1,.11-2l-.52-1.95-1-1a5.14,5.14,0,0,1-.8-.87,6,6,0,0,0-1.55-1.77,3.8,3.8,0,0,1-.76-.9,8.7,8.7,0,0,0-1.29-1.48,9.6,9.6,0,0,1-1.8-2.34,16.23,16.23,0,0,1-1.55-3.4,7.79,7.79,0,0,0-1.36-2.83,2.74,2.74,0,0,1-.38-.68,11.73,11.73,0,0,0-2-2.94,11,11,0,0,1-2-3.13,1.35,1.35,0,0,0-.54-.79,1.43,1.43,0,0,0-.17,1.12,2.6,2.6,0,0,0,.27,1.14,20.34,20.34,0,0,0,2.12,3.3,7.29,7.29,0,0,1,1.07,1.41c.62,1.08,1.18,2.2,1.75,3.31a2.6,2.6,0,0,1,.14.57,7.88,7.88,0,0,0,1.09,2.53,16.83,16.83,0,0,0,3,3.89C36.81,26,38,27.2,39.08,28.51a7.38,7.38,0,0,0,.93,1,4.08,4.08,0,0,1,.48.55,8.27,8.27,0,0,1,.15,2.22,12,12,0,0,0,0,1.38,1,1,0,0,0,.37.67,2.21,2.21,0,0,0,.66.43A10.76,10.76,0,0,1,43.94,36a3.27,3.27,0,0,1,1.39,1.62c.26.67.52,1.35.75,2a21.65,21.65,0,0,0,1.55,3.61,10.49,10.49,0,0,0,1.18,1.82,2.1,2.1,0,0,1,.56,1.33c-.3.3-.37.91-1,1.06a7.38,7.38,0,0,1-2.76-2,44.47,44.47,0,0,0-3.29-5.84,5.33,5.33,0,0,1-2.51-1.27,7.21,7.21,0,0,0-1.57-.82,5.61,5.61,0,0,1-1.66-.88l-.89-1.59a6,6,0,0,0-3.11-1.23c-1.29-.25-2.59-.44-3.88-.65a9,9,0,0,1-4.82-2.52,15.32,15.32,0,0,1-2-2.44,7.37,7.37,0,0,0-1.24-1.51,3.85,3.85,0,0,1-.82-.85,4.4,4.4,0,0,0-1.42-1.34c-.38-.26-.75-.54-1.13-.8a.64.64,0,0,0-.36-.13.65.65,0,0,0-.32.18.22.22,0,0,0,0,.18,1.4,1.4,0,0,0,.62.74,14.81,14.81,0,0,1,3,3.09c.46.64.88,1.31,1.34,2l1.62,1.42c1.89,1.65,1.19,1.19,3.64,2.29.18.08.37.13.55.23a4,4,0,0,0,1.71.46,11.18,11.18,0,0,1,3.27.67,1.7,1.7,0,0,0,.58.08,2.93,2.93,0,0,1,1.83.63,16.58,16.58,0,0,0,1.34,2.15,15.6,15.6,0,0,0,2.42.91L42,40.85a10.07,10.07,0,0,0,1.36,2.42,2.51,2.51,0,0,1,.24.54l.78,1.77a36.57,36.57,0,0,0,3.33,3,.86.86,0,0,1-.57,1,7.76,7.76,0,0,0-4.12-2l-4,0a9.17,9.17,0,0,1-3.23-1.26l-2.83.14c-.76.29-1.57.56-2.35.92a3.87,3.87,0,0,1-2.26.37A4.92,4.92,0,0,1,26,46.21c-.64-.75-1.28-1.5-1.89-2.28a8.89,8.89,0,0,1-1.28-2.21A29.61,29.61,0,0,0,20.37,37a8.78,8.78,0,0,0-.56-.81c-.7-.87-1.41-1.74-2.19-2.71l-.56-.35c-.56-.34-1.12-.7-1.7-1s-1-.33-1.47-.54-.92-.5-1.39-.72c-.08,0-.25.05-.33.13a1.23,1.23,0,0,0-.17.37,1.89,1.89,0,0,0,.33.45,9,9,0,0,0,2.95,1.33l2.08,1.48A20.66,20.66,0,0,1,20,38.26a15,15,0,0,1,1.8,4.09c.77.89,1.2,1.94,2,2.77s1.17,1.92,2.16,2.63c1.22.63,2.45,1.45,3.84,1.17L33,47.62l2.48-.12,1.33.58a7.58,7.58,0,0,0,1.89.55,10.08,10.08,0,0,0,1.77.12l2.86,0,2,.77c.34.32.73.67,1.1,1a2.87,2.87,0,0,1,.33.49.46.46,0,0,1-.21.5,2.64,2.64,0,0,1-.57.12,20.56,20.56,0,0,1-3.51-.35,13.73,13.73,0,0,0-2.15.38c-.82.28-1.69.28-2.51.52a24.35,24.35,0,0,0-2.38.93,3.62,3.62,0,0,1-.55.23,23.36,23.36,0,0,0-2.63.85,10.9,10.9,0,0,1-3.27.71c-.86,0-1.71,0-2.57.06a6.87,6.87,0,0,1-2.55-.14,1.75,1.75,0,0,0-.59,0l-3.55.11a7.68,7.68,0,0,0-2.5.5c-1.11.43-2.18.92-3.23,1.45l-1.67.84a10.54,10.54,0,0,1-2.74.1C8.6,57.07,7.24,57,6.09,56.43c-.78,0-1.51,0-2.23.11A7.06,7.06,0,0,0,.08,58.07a.36.36,0,0,0-.06.34c0,.09.2.12.34.19l.91-.66c2.39-.72,2.46-.72,4.46-.31a9.37,9.37,0,0,1,1,.26l3.21,1a5.15,5.15,0,0,0,2.38-.16c1.62-.88,3.31-1.77,5-2.54a16.65,16.65,0,0,0,2.37-.38,3.27,3.27,0,0,1,1.76,0,6.83,6.83,0,0,0,1.57.13,21.09,21.09,0,0,1,4.13.2,1.92,1.92,0,0,0,1,0c.88-.3,1.81-.35,2.69-.61a10,10,0,0,1,2.45-.41l1-.37c1-.42,2.15-.62,3.17-1.08a13.46,13.46,0,0,1,2.05-.69,8,8,0,0,1,3.91-.16,6.52,6.52,0,0,0,1.56.17l1.71,0c.44.19.44.5.36.89-.14.08-.31.24-.48.25a9.8,9.8,0,0,0-3.26.74,4,4,0,0,1-1.94.22,2.61,2.61,0,0,0-.77,0,25.6,25.6,0,0,1-3.33.39,3.2,3.2,0,0,0-1.83.67,5.26,5.26,0,0,1-2.51,1.06,4,4,0,0,0-1.11.38,6.13,6.13,0,0,0-1.47.94l-1.29,2-1.82.86A10.9,10.9,0,0,1,22,62.38c-.46,0-.92,0-1.38,0A4.23,4.23,0,0,0,18.2,63a42,42,0,0,1-3.66,2.3c-.34.43-.64.86-1,1.24s-.87.8-1.31,1.2a40.83,40.83,0,0,1-5.45,1.7,11.23,11.23,0,0,0-3.26,1.38,1.12,1.12,0,0,0-.56.7,1.68,1.68,0,0,0,.5-.11,8,8,0,0,1,2.19-.85,16,16,0,0,1,2.5-.51,4.92,4.92,0,0,0,1.34-.29c.82-.25,1.65-.43,2.48-.65.31-.08.62-.2.91-.29.91-1.17,2.06-2.07,2.89-3.24A14.94,14.94,0,0,0,19,63.83l2.18-.46a1.7,1.7,0,0,1,.58,0,3.13,3.13,0,0,0,1,0,14.26,14.26,0,0,0,4.16-1.11c.23-.11.52-.1.76-.2a10.21,10.21,0,0,0,2.26-.92l.45-.78a5,5,0,0,1,1-1.2,6.11,6.11,0,0,1,2.35-1.39,7.22,7.22,0,0,0,2.39-1.15,4.79,4.79,0,0,0,.86-.17A6.9,6.9,0,0,1,39.52,56c1,0,2-.09,3-.16a5.21,5.21,0,0,0,1.36-.22,12.42,12.42,0,0,1,3.07-.45l.31.3a.88.88,0,0,1-.17.93,26.82,26.82,0,0,1-3.4.88c-1.19.38-2.32.9-3.38,1.27a4.53,4.53,0,0,0-1.31,1.85c-.28.67-.57,1.33-.85,2A2.89,2.89,0,0,1,37,63.76c-.82.54-1.64,1.1-2.49,1.57A8.5,8.5,0,0,0,32,67.55,5.22,5.22,0,0,0,30.79,70a11.65,11.65,0,0,1-.4,1.52,5,5,0,0,0-.19,1.76c0,.46,0,.92.11,1.37a8.51,8.51,0,0,1,0,2.36c-.08.58-.13,1.17-.18,1.58l-.66,1.83a9.71,9.71,0,0,1-2.18,3.7,4.93,4.93,0,0,0-.53.59,5.12,5.12,0,0,0-1.24,4,.53.53,0,0,0,.3-.41A7.44,7.44,0,0,1,28,84.55a3.7,3.7,0,0,0,.27-.29c.5-.61,1-1.2,1.49-1.83a14.93,14.93,0,0,0,.8-1.35,5.82,5.82,0,0,1,.77-2.21,4.27,4.27,0,0,0,.3-1.34c0-1.18,0-2.36,0-3.55a4.93,4.93,0,0,1,.23-2.9c.12-.37.21-.76.3-1.14a3.77,3.77,0,0,1,.76-1.59,8.8,8.8,0,0,1,2-1.93c.66-.43,1.26-.94,2-1.32a11.51,11.51,0,0,0,1.29-.91,3.86,3.86,0,0,0,1.22-1.53l.32-.72,1.19-2.62A8.9,8.9,0,0,1,44,58.16a4.86,4.86,0,0,1,1.18-.09A11.65,11.65,0,0,1,46.54,58c.39,0,.71-.35,1.11-.14.21.48.4,1,.63,1.44s.72.93.76,1.54c-.05.07-.08.14-.14.16a34.42,34.42,0,0,0-3.52,2.15,3.06,3.06,0,0,0-.61.5,8.73,8.73,0,0,0-2,2.45A9.53,9.53,0,0,1,42,67.26a5.88,5.88,0,0,0-.49.85A13.48,13.48,0,0,1,39,72a9.66,9.66,0,0,0-2.19,4.13c-.11.38-.18.76-.24,1a6.36,6.36,0,0,0,.09,1.53,20.19,20.19,0,0,1,.92,4,4.37,4.37,0,0,0,.23.75,3,3,0,0,1,0,1.82c-.14.21-.31.49-.52.75-.85,1.08-1.58,2.25-2.37,3.38A3.31,3.31,0,0,0,34.29,91c-.09.91-.26,1.82-.41,2.72a34.24,34.24,0,0,1-1.21,5.56,5.3,5.3,0,0,0-.18,2.83c.09-.08.2-.15.21-.24a12.18,12.18,0,0,1,.65-2.27A28.62,28.62,0,0,0,35.19,94,11.83,11.83,0,0,1,36,89.6a33.75,33.75,0,0,1,2.37-3.39,3.53,3.53,0,0,0,.85-1.44A11.84,11.84,0,0,0,38.67,81a6.49,6.49,0,0,1-.19-1,6.37,6.37,0,0,0-.21-1,5.86,5.86,0,0,1-.27-2.9,17.56,17.56,0,0,1,1.31-2.9l1.17-1.17c.37-.66.68-1.25,1-1.81.86-1.4,1.77-2.77,2.61-4.19a6.75,6.75,0,0,1,1.68-1.92,18.21,18.21,0,0,1,2.13-1.42,6.9,6.9,0,0,1,2.19-.83c.8.48,1.57,1,2.39,1.41s1.68.74,2.52,1.11a1.16,1.16,0,0,1-.07.37.65.65,0,0,1-.28.26,2,2,0,0,0-1.23,1.67A16.42,16.42,0,0,1,53,68.66c-.17.63-.41,1.25-.5,1.53-.18,1.66-.29,3-.49,4.27a16.9,16.9,0,0,1-.64,2.89,13.74,13.74,0,0,1-1.1,2.09c-.09.17-.21.33-.33.52-.55.53-1.1,1.11-1.7,1.61a5.66,5.66,0,0,0-1.5,2.06c-.3.65-.55,1.33-.82,2a8.39,8.39,0,0,0,.25,3,11,11,0,0,1,1.69,3.24,10.22,10.22,0,0,0,.59,1.25L49,94.32a26.14,26.14,0,0,1,.21,3.18c-.54,1.51-1.44,2.86-1.6,4.3a8.55,8.55,0,0,0,1.31,3,9.6,9.6,0,0,1,1.38,3,8.75,8.75,0,0,1,.35,1.53,21.69,21.69,0,0,0,.56,2.5,2.16,2.16,0,0,0,.7,1.21,2.2,2.2,0,0,0,.51.18.41.41,0,0,0,.5-.36,15.38,15.38,0,0,1-.58-1.76c-.29-1.42-.52-2.84-.77-4.29a14.23,14.23,0,0,0-1.42-2.79,10.1,10.1,0,0,1-.94-2,3.18,3.18,0,0,1-.18-1.5c.16-.36.37-.84.57-1.32s.34-.86.52-1.28a4.17,4.17,0,0,0,.31-1.93c-.06-.92-.16-1.83-.23-2.59-.11-.28-.15-.41-.21-.52a13.44,13.44,0,0,1-1.28-2.87,2.83,2.83,0,0,0-.67-1.2A3.86,3.86,0,0,1,47.15,86c0-.33,0-.65,0-.91a8,8,0,0,1,.36-.79,8.28,8.28,0,0,1,2.33-2.9A3,3,0,0,0,51,80a11.32,11.32,0,0,1,1-1.69,5.05,5.05,0,0,0,.61-1.23c.24-.88.4-1.79.56-2.69a6.86,6.86,0,0,0,.08-1.18A22,22,0,0,1,54,68.79a8.57,8.57,0,0,0,.65-2.06A4.51,4.51,0,0,1,55,66l2.11-1a3.31,3.31,0,0,1,.81,0,8.15,8.15,0,0,0,3.28.27c.36.36.42.47.34.67-.13.37-.26.75-.42,1.1a3,3,0,0,0-.23,1.54,10,10,0,0,0,.22,1.16c.13.64.28,1.28.41,1.92a3.93,3.93,0,0,1,.07.59,8.82,8.82,0,0,0,.27,2,3.59,3.59,0,0,1-.06,1.95,9.21,9.21,0,0,0-.42,2.52,6,6,0,0,1-.16,1l-.34,2.07a23.79,23.79,0,0,0,.8,2.51,9.19,9.19,0,0,1,.62,2.88,3.5,3.5,0,0,1-.56,2.25,12,12,0,0,1-1.29,1.74,7.65,7.65,0,0,0-1.81,3.25c-.13.44-.23.89-.31,1.19a5.43,5.43,0,0,0,.07,1.14A22.11,22.11,0,0,1,59,99.58a6.27,6.27,0,0,0,.77,2.23l.74,1.26,1.65,1.46a6.63,6.63,0,0,1,.91,1.34,10.66,10.66,0,0,1,.8,1.39,7.58,7.58,0,0,1,.29,3.18,15.52,15.52,0,0,0,.5,3.32c.23,1.13.28,2.29.43,3.44a1.79,1.79,0,0,0,.27.86.65.65,0,0,0,.8.24c.32-.18.33-.63.29-1-.18-1.8-.47-3.57-.75-5.35a14.37,14.37,0,0,1-.08-2.28,5.79,5.79,0,0,0-.13-2.45c-.41-.68-.8-1.29-1.15-1.92a8.81,8.81,0,0,0-2.17-2.77,5,5,0,0,1-1.67-2.63,17.63,17.63,0,0,1-.69-5.5A11,11,0,0,1,62.71,90a9.8,9.8,0,0,0,1-3c-.06-.36-.12-.82-.23-1.27-.26-1.09-.6-2.15-.95-3.21a4.81,4.81,0,0,1-.1-3.28,2.55,2.55,0,0,0,.1-1,4.64,4.64,0,0,1,.15-1.37c.16-.64.28-1.28.43-2a9.82,9.82,0,0,0-.32-2.51,5.93,5.93,0,0,1-.08-1.35,5.2,5.2,0,0,1-.68-3.62,7.6,7.6,0,0,1,.9-1.76,8.08,8.08,0,0,1,1.6-.43,1.82,1.82,0,0,1,.81.74c.8,1.82,1.25,3.61,2.07,5.27.17.35.29.73.44,1.1a5.43,5.43,0,0,1,.32,3.1,13.13,13.13,0,0,0,.08,3.93A25.88,25.88,0,0,0,69,82.28a6.26,6.26,0,0,1,0,2.93,10.71,10.71,0,0,1-.81,2.34,25.73,25.73,0,0,0,.16,3.24,3.06,3.06,0,0,0,.14.77c.38,1.12.76,2.24,1.17,3.35a4.24,4.24,0,0,0,.57,1c.35.47.76.91,1.14,1.36a10.8,10.8,0,0,1,.88,1.06c.86,1.33,2.05,2.4,3,3.68a2.2,2.2,0,0,0,.43.41,7.41,7.41,0,0,1,2,2.35,12.14,12.14,0,0,1,.67,3.11c.22.35.23.79.69.88.09-2.88.09-2.88-.7-5.19a12.82,12.82,0,0,0-2.56-3,6.85,6.85,0,0,1-.93-1C73.85,98.38,73,97.16,72,96a11.9,11.9,0,0,1-2.28-4.1c-.15-.44-.23-.89-.37-1.33a3.8,3.8,0,0,1-.1-1.95,21.3,21.3,0,0,1,.53-2.3A5.39,5.39,0,0,0,70,84c-.17-1.43,0-2.91-.58-4.28a2.39,2.39,0,0,1-.13-.78c-.06-.79-.11-1.58-.14-2.37q-.07-1.58-.1-3.16A8.58,8.58,0,0,0,68.28,70c-.52-1.13-1-2.3-1.41-3.47-.18-.48-.28-1-.4-1.43a1,1,0,0,1,.86-.52,2.55,2.55,0,0,1,1.84.2c.5.71.93,1.38,1.42,2a9.62,9.62,0,0,1,1.95,4.47,4.82,4.82,0,0,0,.59,1.63c.83.78,1.48,1.42,2.17,2s1.4,1.2,2,1.72l.48.77a3.37,3.37,0,0,1,.52,2.45,7.11,7.11,0,0,0,.29,3.7,3.49,3.49,0,0,1,.11.58,4.78,4.78,0,0,0,.65,1.64A20.72,20.72,0,0,0,81.69,89a11.35,11.35,0,0,1,2.23,1.27,9.87,9.87,0,0,1,2.72,3.34c.17.36.33.72.52,1.06a9.91,9.91,0,0,0,.65,1c.07.09.22.13.33.19.05-.1.17-.22.15-.3-.1-.45-.28-.88-.34-1.33a8.6,8.6,0,0,0-3.2-5.05A15,15,0,0,0,82,87.51c-.29-.36-.59-.71-.84-1.09s-.51-.92-.79-1.37a7.46,7.46,0,0,1-1.14-3.93c0-1.12-.1-2.23-.15-3.35a6.51,6.51,0,0,1-.3-.73,4.89,4.89,0,0,0-1.95-2.65,25.81,25.81,0,0,1-3-2.79,8.72,8.72,0,0,1-.72-2.89,8.22,8.22,0,0,1-.56-1,11.42,11.42,0,0,0-1.48-2.55,10.6,10.6,0,0,1-.87-1.54,1.61,1.61,0,0,1,0-.58c.65-.67,1.29-1.33,1.94-2a1.87,1.87,0,0,1,.5-.26,4.15,4.15,0,0,1,1.42.73,13,13,0,0,0,2,1.33c.22.14.47.25.68.4a4.5,4.5,0,0,1,1.21,1.27c.48.78,1,1.55,1.43,2.36a7.82,7.82,0,0,0,.54.82c.27.38.55.74.81,1.12A9.87,9.87,0,0,0,84.09,72c1,.54,1.81,1.31,2.84,1.78a1.39,1.39,0,0,1,.32.23l2.09,1.81A5.81,5.81,0,0,1,91,78.06l.59,3.49,1.55,2.62c.57.44,1.11.82,1.6,1.26s.91.94,1.36,1.42a8.71,8.71,0,0,1,3,1.56,4.62,4.62,0,0,0,.7.34c1.09.6,2.18,1.21,3.26,1.83a3.72,3.72,0,0,1,.61.5c.29.27.56.56.86.81a5.83,5.83,0,0,1,1.65,2.18,15.09,15.09,0,0,0,1.24,2.24,7.41,7.41,0,0,0,3.65,2.88.23.23,0,0,0,.3-.17.41.41,0,0,0-.06-.34c-.3-.25-.64-.46-1-.69a5.85,5.85,0,0,1-1.7-1.89,17.93,17.93,0,0,1-1.5-3,3,3,0,0,0-.56-1,9.88,9.88,0,0,0-2.2-2.24c-.34-.2-.6-.51-.93-.74a8.31,8.31,0,0,0-1-.62c-1.05-.54-2.11-1.06-3.17-1.59a2.28,2.28,0,0,1-.52-.29,10.19,10.19,0,0,0-2.54-1.46l-2.63-2.5L92.38,80.3c-.14-1.46,0-2.88-.91-4.27a7.09,7.09,0,0,0-2.25-1.91,2.53,2.53,0,0,1-.91-.74A5.54,5.54,0,0,0,86.44,72a11.94,11.94,0,0,1-2.28-1.54c-.54-.48-1.15-.88-1.68-1.28a23.22,23.22,0,0,1-2.67-4c-.45-.81-1-1.53-1.54-2.28a4.51,4.51,0,0,0-1.46-1.31,7.12,7.12,0,0,0-.88-.45,6.51,6.51,0,0,1-2.38-1.9c0-.57.05-1,.56-1.16l.69.81c1,.19,2.09-.13,2.83,0a7.28,7.28,0,0,1,3.51,1.91c.57.54,1.22,1,1.88,1.53a6.16,6.16,0,0,1,1.18,2.41,12.35,12.35,0,0,0,.51,1.49,4.7,4.7,0,0,0,1.38,1.9,6.63,6.63,0,0,0,1.49,1,10.78,10.78,0,0,0,2.06.68,22.3,22.3,0,0,1,3.18,1.07,5.2,5.2,0,0,1,2.42,2,15.82,15.82,0,0,0,1.56,2,6,6,0,0,0,1,1.17,5.75,5.75,0,0,0,2.11.47,6.69,6.69,0,0,1,2.34.18,2.19,2.19,0,0,0,.78.06,4.57,4.57,0,0,1,1.55.26,11.75,11.75,0,0,1,4.13,1.81,8.7,8.7,0,0,1,3.1,2.69c.21.25.4.52.62.82a9.67,9.67,0,0,0,1.55.8,20,20,0,0,0,2.41.86c.09-.11.22-.2.23-.3a.43.43,0,0,0-.13-.34A31.11,31.11,0,0,0,114,81.43a5.92,5.92,0,0,1-1.84-1.74,7.31,7.31,0,0,0-2.15-2c-.89-.56-1.83-1-2.64-1.49l-3.45-1.07a14.09,14.09,0,0,1-2.21-.24,4.09,4.09,0,0,0-1.18-.06c-.39,0-.78,0-1,0a3,3,0,0,1-1.76-1.13c-.53-.67-1-1.37-1.55-2a8.86,8.86,0,0,0-.91-1c-.48-.45-1-.85-1.46-1.24-.32-.09-.58-.15-.83-.24a11.12,11.12,0,0,0-2.46-.69A9.39,9.39,0,0,1,87.09,67a3.25,3.25,0,0,1-1.3-1.45,13.73,13.73,0,0,1-.55-1.47c-.17-.5-.27-1-.47-1.5a4.71,4.71,0,0,0-2-2.41,14.82,14.82,0,0,1-2-1.56,4.9,4.9,0,0,0-3.43-1.26c-.65,0-1.31,0-1.91,0-.14-.14-.28-.22-.32-.33a2.32,2.32,0,0,1,0-1.73c.21-.55.43-1.1.7-1.63.07-.15.31-.22.49-.34l1.93.81a10.69,10.69,0,0,0,1.26-.06c.65-.1,1.29-.25,1.93-.4a3.49,3.49,0,0,1,1.75.07,5.37,5.37,0,0,1,2.11,1A8.17,8.17,0,0,0,87.06,56a8.12,8.12,0,0,1,1,.64,5.1,5.1,0,0,0,.65.45,12.75,12.75,0,0,0,4.11,1.33,14,14,0,0,0,3.94,0,5.73,5.73,0,0,1,3.22.28,5.9,5.9,0,0,1,1.66,2c.29.18.56.37.86.52s.61.24.94.37c1,0,2.09-.07,3.14,0s2.22.12,3.22.19a9.26,9.26,0,0,1,2.11,1.3,3.78,3.78,0,0,0,1.62.69c1.38.16,2.69.64,4.06.83a11.24,11.24,0,0,0,1.36.22,8.38,8.38,0,0,1,1.94.28c.09,0,.24-.08.32-.17a.4.4,0,0,0-.11-.51A1.73,1.73,0,0,0,120.93,64.26Zm-46.58-10a8.52,8.52,0,0,0-.93,2.51l-1.65,2.3-.85.31a.74.74,0,0,0-.22.89,2,2,0,0,1-.19.38,5.65,5.65,0,0,1-2,1.28,7.19,7.19,0,0,0-1.27.87,16.35,16.35,0,0,1-3.43,1,3.22,3.22,0,0,1-1,0c-.33,0-.65-.12-1-.13-.72,0-1.45,0-2.17,0s-1.39-.37-2.13-.31a2.58,2.58,0,0,1-1-.19c-.69-.22-1.35-.51-2-.71a12.42,12.42,0,0,1-3-1.5A6.25,6.25,0,0,1,49,57.43c-.1-1-.5-2-.62-3.08s0-2.37-.17-3.47l1-2.23,2-2.17a4,4,0,0,1,.53-.27,21.4,21.4,0,0,0,3.09-1.72,7.75,7.75,0,0,0,.9-.77,3.32,3.32,0,0,1,1-.63,8.16,8.16,0,0,1,2.66-.65,4.21,4.21,0,0,0,1.16-.18,15.47,15.47,0,0,1,5.8-.54,14.52,14.52,0,0,1,5.81,4c.25.54.55,1.27.92,2s.77,1.22,1.11,1.75C74.27,51,74.72,52.39,74.34,54.26Zm1.38-5.32c-.08,0,0-.16.15-.19a2,2,0,0,1,.3,0c0,.09-.06.2-.13.24A.38.38,0,0,1,75.72,48.93Z"/>
	<path d="M66.85,284.46A5.15,5.15,0,0,0,67,282.9c-.07-1.18-.16-2.37-.23-3.55a6.85,6.85,0,0,1,.08-2.23,6.18,6.18,0,0,0,.47-.79,7,7,0,0,1,2.08-2.6A7.34,7.34,0,0,1,73,271.8a1.48,1.48,0,0,0,.56-.17,23.5,23.5,0,0,1,2.14-1c.71-.35,1.37-.79,2-1.19a13.58,13.58,0,0,0,2.67-3.18c0-.44.05-.9,0-1.36a9,9,0,0,0-.12-1c-.18-.29-.33-.58-.52-.85a2.73,2.73,0,0,0-1.55-1.16c-.78-.18-1.46-.6-2.22-.81s-1.51-.48-2.28-.64c-1.36-.29-2.63-.84-4-1.22a2.41,2.41,0,0,1-1-.6,3.32,3.32,0,0,1-1-1.39c0-.54-.11-1.26-.14-2-.09-2.11-.16-4.21-.25-6.32-.06-1.25-.18-2.5-.2-3.75,0-1.84-.15-3.68-.29-5.52-.06-.79-.1-1.58-.12-2.37a4,4,0,0,1,.07-1,24.34,24.34,0,0,1,.8-3.74,5.62,5.62,0,0,1-.1-1.28,4.86,4.86,0,0,0-.24-2.28,7.37,7.37,0,0,0,.16-1.82c-.1-1.84-.18-3.68-.24-5.52a22.76,22.76,0,0,0-.23-3.74,4.94,4.94,0,0,1,0-.79c-.05-1.58-.1-3.16-.17-4.74a8.2,8.2,0,0,1,.06-2,11.42,11.42,0,0,0,1.6-4c-.61-.78-1-1.78-1.59-2.57l-.18-1.66c-.22-.43-.64-.49-.69-.87a3.49,3.49,0,0,0-.2-2.34v-1.66c.37-.56.74-1,1-1.55s.87-1,1-1.59c-.28-1.37-1.43-2.14-1.84-3.3.45-2.06,0-4.09-.08-6a3.7,3.7,0,0,1,1-1.81,2.43,2.43,0,0,0,.77-1.14,2.85,2.85,0,0,0-.13-1.34,5.7,5.7,0,0,1-1.17-2,5.44,5.44,0,0,0,.28-2.72c0-.59-.11-1.18-.13-1.77-.07-1.84-.06-3.69-.23-5.52a4,4,0,0,1,0-.79c0-.09.13-.17.23-.28a11.62,11.62,0,0,0,.95.7c.39.23.82.41,1.23.62A5.48,5.48,0,0,1,70.17,170c.13.26.26.56.42.85s.4.67.62,1a16.55,16.55,0,0,1-.23,1.94,2.4,2.4,0,0,0,.32,1.88l.31.52,1.72,1.6a11.63,11.63,0,0,0,1.17,3.76c.3.26.59.54.9.78s.66.43,1,.65.44.29.65.45a1.65,1.65,0,0,1,.65,1.17,4.42,4.42,0,0,1-.25,2.13,12.94,12.94,0,0,0-.42,1.31,8.87,8.87,0,0,0,.44,6.17A4.52,4.52,0,0,0,78.72,196c.41.34.82.67,1.19,1a8.05,8.05,0,0,0,3.33,1.92c1.44-.14,3,.06,4.55-.55a3.9,3.9,0,0,1,1-.15l1.44-.16a2,2,0,0,0,1-.8,1,1,0,0,0,.13-.56c0-.17-.19-.31-.29-.46l-1.33.28L88,196.09c-.66-.87-.66-.87-1.7-4-.09-2.21-.18-4.58-.29-6.94a7.3,7.3,0,0,0-.67-3.25c-.07-.18-.14-.36-.19-.47l-1.09-1.25L83,178.83l-.39-1.7a3.11,3.11,0,0,0,.07-1.75c-.13-.21-.34-.54-.52-.89A5.6,5.6,0,0,0,80,172.25c-.28-.17-.54-.37-.83-.52a9.52,9.52,0,0,0-3.65-1.41,2.23,2.23,0,0,1-.57-.16,23.7,23.7,0,0,1-4.7-2.46,5.49,5.49,0,0,0-1-.59,7.23,7.23,0,0,1-2.57-2,6.8,6.8,0,0,1-.33-.61,5.42,5.42,0,0,1-.58-3.81,4.89,4.89,0,0,0,0-1.57,37.18,37.18,0,0,1-.07-5.92.47.47,0,0,0,0-.19,1.4,1.4,0,0,1,.57-1.56,8.61,8.61,0,0,1,.76-.63,5.64,5.64,0,0,0,1.87-2.49,11.68,11.68,0,0,0,.6-2.05,5.25,5.25,0,0,0-.54-2.39l-1.15-1.23a7.78,7.78,0,0,1-2-1.82,1.89,1.89,0,0,1-.08-.63,8,8,0,0,0,.16-2.94,16.38,16.38,0,0,1,.38-5.29,11,11,0,0,0,.13-2,15.53,15.53,0,0,0,.33-1.94c0-.33,0-.66,0-1a3.36,3.36,0,0,1,0-.79,10.87,10.87,0,0,0,.1-3.54c-.11-1.31-.2-2.63-.29-3.94a8.49,8.49,0,0,0-.37-2.72A3.88,3.88,0,0,1,66,115c0-.46,0-.92-.07-1.38a4.35,4.35,0,0,0-.62-1.84.53.53,0,0,0-.34-.17.62.62,0,0,0-.71.71c.1.44.28.87.47,1.47.11,1.86.24,3.9.36,5.94a11.56,11.56,0,0,0,.22,1.76,15.23,15.23,0,0,1,.32,2.35,32.86,32.86,0,0,1-.31,5.31c-.06.52-.2,1-.26,1.55a30,30,0,0,0-.54,5.09,6,6,0,0,0-.14,2.35c0,.66,0,1.32.05,2a6.41,6.41,0,0,1-2.33,2.9,9.7,9.7,0,0,0-2.07,2.09c-.11.32-.23.63-.32.95a2.66,2.66,0,0,0,0,1.56,7.5,7.5,0,0,0,1.06,2.54A9.52,9.52,0,0,0,64,152.34a2.43,2.43,0,0,1,.19.52,6.52,6.52,0,0,1,.06,1,16.18,16.18,0,0,1,0,2.75,21,21,0,0,1,.2,3.73,2,2,0,0,1,0,.78,3.84,3.84,0,0,0-.13,1.56c.07,1,.12,2,.16,3a5.32,5.32,0,0,0,.4,2.31,1.5,1.5,0,0,1,.11.58c.09,1.45.21,2.89.23,4.34a23.24,23.24,0,0,0-.16,2.95,3.71,3.71,0,0,0-.07,1.89c-.08.23-.13.42-.21.6-.16.36-.33.72-.48,1-.35.35-.69.67-1,1a1.68,1.68,0,0,0-.59,1.2l1.51,2.41c0,.25,0,.38,0,.51a1.85,1.85,0,0,0,0,.58,7.37,7.37,0,0,1,.42,2.9c0,.86-.37,1.65-.37,2.53s-.72,1.67-1,2.53c-.13.37-.28.74-.41,1.11a1.18,1.18,0,0,0,.06,1c.38.49,1.1.81,1.43,1.58.23,1,.13,2.16.4,3.25a4.5,4.5,0,0,1-.05,1.18,3.53,3.53,0,0,0,.15,1.37,4.88,4.88,0,0,1,.13.56l-.31,1.34a11.07,11.07,0,0,0-1.29,2.89,1.21,1.21,0,0,0,.27,1.17l.85.68a8.31,8.31,0,0,1,1.08,2.25c0,1,.07,1.92.08,2.84a4.2,4.2,0,0,1-.09,1.37,5.35,5.35,0,0,0-.16,2.37l-1.75,2.52c-.53.32-1,.62-1.43.87s-.73.29-1.09.45a13.38,13.38,0,0,0-4,2.89,13.71,13.71,0,0,0-2,2.89,6.92,6.92,0,0,0-1,3,10.12,10.12,0,0,1-.73,2.86c-.21.55-.55,1.06-.72,1.62a9.17,9.17,0,0,1-1.38,2.6,9.1,9.1,0,0,1-2.72,2.8c-.51.29-1,.66-1.5.93s-1.26.71-1.88,1.08a.84.84,0,0,0-.14.14c-.19.47-.18.52-.07.73a.76.76,0,0,0,.65.37,2.6,2.6,0,0,0,.59-.06,4,4,0,0,1,.77-.13,31.28,31.28,0,0,1,3.15.23,10.74,10.74,0,0,0,2.69.07,3.7,3.7,0,0,0,1.53-1c.75-.83,1.56-1.61,2.23-2.51a7.69,7.69,0,0,1,.61-.66,8,8,0,0,0,3.44-2.54c.28-.83,1.05-1.57,1-2.56a7.91,7.91,0,0,1-.17-1,2.48,2.48,0,0,1,.14-.77,3.24,3.24,0,0,0,.08-1,16.22,16.22,0,0,1,.23-3.92,4.47,4.47,0,0,1,.48-1.9c.2-.49.37-1,.55-1.47a4.43,4.43,0,0,1,.22-.55c.34-.64.7-1.27,1.05-1.9a4.85,4.85,0,0,1,1.27-1.49s.13,0,.19,0a1.2,1.2,0,0,1,.17,1.11,6.42,6.42,0,0,0,.07,3.12,8.84,8.84,0,0,1,.19,3.34,15.89,15.89,0,0,0,0,3.15,5.8,5.8,0,0,1-.28,2.92,2.91,2.91,0,0,0-.1.58,16.2,16.2,0,0,0-.15,4.92c.15,1.57.23,3.15.28,4.73s.13,2.9.2,4.34a3.6,3.6,0,0,1-.12,1.37,5.1,5.1,0,0,0-.15,2.15c.08.85.09,1.71.13,2.52-.44.94-.6,1.93-1.09,2.8A8.76,8.76,0,0,1,63,259.9a13.63,13.63,0,0,0-2.13.93,5.68,5.68,0,0,1-1.66.6,8.37,8.37,0,0,0-1.65.63c-.65.31-1.33.55-2,.81-.43.17-.86.31-1.23.44l-1.52,1.46a4.65,4.65,0,0,1-.69,1.37l-.11.18a5.29,5.29,0,0,0,.38,1.42,4.62,4.62,0,0,0,.71,1.17,11.65,11.65,0,0,0,1.14.94,1.24,1.24,0,0,1,.87.46c.71.37,1.43.72,2.13,1.13a23.29,23.29,0,0,0,2.51,1.15c.36.16.75.25,1.1.41s.94.46,1.4.72a1.64,1.64,0,0,1,.63.73l-.06,0a5.55,5.55,0,0,1,1.44,1.93,6.85,6.85,0,0,1,.7,2.43l.27.55a12.45,12.45,0,0,0,.08,1.37c.08.52.25,1,.37,1.53l-.26,1.15.38,1.19c-.06.21-.09.43-.13.64.36.06.73.11,1.09.15A4.83,4.83,0,0,1,66.85,284.46Zm19-89.05s-.09,0-.11-.05a.36.36,0,0,1,0-.11C85.84,195.27,85.89,195.32,85.88,195.41ZM78.25,173a7.46,7.46,0,0,1,1,.63c.32.23.62.48,1,.8s.62.85,1,1.34a1.61,1.61,0,0,1,.23,1.49,5.61,5.61,0,0,0-.13.58l.6,2.13a12.58,12.58,0,0,1,2.22,2.47l.52,1.44c0,.31.06.64,0,1a7,7,0,0,0,.05,1.36,21.9,21.9,0,0,1,.16,2.74,5,5,0,0,1-.23,1.05,8.08,8.08,0,0,1,.39,2,4.49,4.49,0,0,0,.35,1.73,3.14,3.14,0,0,1,.25,1.49.89.89,0,0,1-1-.43,4.47,4.47,0,0,1-.64-1.21,11.58,11.58,0,0,0-.53-1.48c-.44-1-.42-2.19-.75-3.26.23-.54-.1-1-.18-1.52a17.24,17.24,0,0,1-.17-2,6.61,6.61,0,0,0-.49-2.7,4,4,0,0,1-.17-.77,9.52,9.52,0,0,0-1.93-4l-.26-1c-.24-.45-.77-.5-1.1-.8l-1.7-2.37a7.56,7.56,0,0,1-3.19-2.38A18.31,18.31,0,0,1,78.25,173Zm-4.88-1.81,0,0-.11-.06S73.35,171.15,73.37,171.17Zm-.81,1.8c.19,0,.41,0,.54.09.47.36.91.76,1.41,1.18l1.19.56A34.27,34.27,0,0,0,78.6,178c.47.93.94,1.87,1.4,2.81a5.94,5.94,0,0,1,.52,1.28,31.31,31.31,0,0,1,.7,3.48,11.61,11.61,0,0,0,.48,3.11,3.62,3.62,0,0,1,.13,1,15.83,15.83,0,0,0,.82,3.44c.16.5.27,1,.45,1.72l1,1.25c.32.42,1,.4,1.21,1a.73.73,0,0,1-.77.5c-.52,0-1-.12-1.54-.18a9.3,9.3,0,0,1-4.42-3.83,8.72,8.72,0,0,1-.54-1.88,6.29,6.29,0,0,1,.36-3.3c.24-.61.55-1.19.88-1.91l-.1-2.15,0-.08a4.32,4.32,0,0,0-2.21-2.66c-.11-.07-.24-.11-.35-.17a2.71,2.71,0,0,1-1.27-1.46,7.82,7.82,0,0,1-.63-2.07c0-.32-.12-.64-.19-.95a13.89,13.89,0,0,1-2-2A2.8,2.8,0,0,1,72.56,173Zm-12,55.55a5.27,5.27,0,0,0-.09.78q0,1.87,0,3.75c0,.46,0,.92.07,1.54a14.71,14.71,0,0,1-1.3,2.32A12.65,12.65,0,0,1,57.76,238a10.18,10.18,0,0,0-1.66.87,15,15,0,0,1-2.57,3.1,2,2,0,0,1-1.4.64l-1.51,0c-.48-.43-.48-.43,0-.64.3-.14.59-.29.89-.42s.37-.13.65-.22l2.48-2.58c.48-.89.84-1.52,1.16-2.16a27.29,27.29,0,0,0,1.17-2.5,12.25,12.25,0,0,1,.76-1.6,8.57,8.57,0,0,0,.77-1.59,6.22,6.22,0,0,1,.76-1.59,7.16,7.16,0,0,0,.93-1.94c0-.16.24-.29.41-.48a2,2,0,0,1,.18.59A9.48,9.48,0,0,1,60.59,228.52Zm-1.38-1.86-.56,1.69a7.32,7.32,0,0,0-1.21,2.33,7.61,7.61,0,0,1-.86,1.76,9.64,9.64,0,0,0-.76,1.59,11,11,0,0,1-.83,1.78c-.21.33-.38.68-.57,1s-.36.7-.58,1a5.25,5.25,0,0,1-.63.75,13.22,13.22,0,0,1-1,.94,9.49,9.49,0,0,1-.9.62c-.15-.16-.17-.29-.08-.41a21.87,21.87,0,0,0,1.72-2.39c.32-.57.7-1.11,1-1.69A13,13,0,0,0,55.13,232c.16-1,.38-2.06.54-2.92a12.74,12.74,0,0,1,3.89-4.83,3.89,3.89,0,0,1,1.53-.73A9.83,9.83,0,0,1,59.21,226.66Zm5.46-75.92c-.21-.08-.51-.2-.82-.3a3.54,3.54,0,0,1-2.16-1.88c-.11-.24-.25-.46-.36-.66l-.4-1.75a1.72,1.72,0,0,1,.55-1,5.33,5.33,0,0,1,.88-.79,14.83,14.83,0,0,0,2.26-1.87.51.51,0,0,1,.18-.07c.13,0,.28,0,.37.09.85.71,1.69,1.44,2.54,2.17l.5,1.49-.36,1.74A4.75,4.75,0,0,1,64.67,150.74Zm-.16,30.39a1.6,1.6,0,0,1,.88-.76c.54.1.68.55.88,1a2,2,0,0,1-1,1.36C64.85,182.16,64.33,181.81,64.51,181.13Zm0,13.17a.75.75,0,0,1,0-.74,5,5,0,0,1,.37-.68c.06-.09.22-.11.34-.17a2.77,2.77,0,0,1,1,1.35,1.81,1.81,0,0,1-.84,1.25A2.12,2.12,0,0,1,64.46,194.3ZM66,208.76l-1.11-1.11a2.08,2.08,0,0,1,.9-2.32c.78.4.81.45,1.14,2C66.48,208.54,66.48,208.54,66,208.76ZM66,275.57c-.57-.25-.52-.88-.81-1.29s-.63-.84-1-1.28a14.71,14.71,0,0,0-3.3-1.66,10.75,10.75,0,0,1-3.16-1.58,2.29,2.29,0,0,0-.71-.32c-.75-.25-1.46-.55-2.11-.83a5.54,5.54,0,0,1-1.2-1.87c0-.14,0-.27,0-.4a2,2,0,0,1,1-1.62c.28-.17.52-.4.8-.62,1-.49,2.11-.66,2.87-1.42a8.29,8.29,0,0,0,2-.51c.17-.09.42-.07.55-.19.71-.69,1.69-.68,2.61-1a12.88,12.88,0,0,0,2-2.54,1.32,1.32,0,0,1,.8-.8,2.28,2.28,0,0,1,.52.83,3.8,3.8,0,0,0,1.64,1.65,10.84,10.84,0,0,0,2,.88l5.07,1.57c.69.21,1.36.48,2,.76a3.71,3.71,0,0,1,.83.52,1.49,1.49,0,0,1,.42,2.08,3.11,3.11,0,0,1-.29.51c-.37.46-.75.92-1.14,1.36a2.47,2.47,0,0,1-.59.52,19.6,19.6,0,0,1-4,2.06c-.19.06-.36.17-.55.21A8.5,8.5,0,0,0,67.33,274c-.37.46-.71.94-1.07,1.41A1.29,1.29,0,0,1,66,275.57Z"/>
	<path d="M69.19,297.09a11.75,11.75,0,0,1-1.81-3.18c0-.29,0-.71-.07-1.12s-.19-.93-.28-1.37c.06-.37.13-.7.16-1a3,3,0,0,0,0-.82,41,41,0,0,1-.29-4.31,5.75,5.75,0,0,1,.13-2L65.43,281c.06,1.26.11,2.49.18,3.72.08,1.44.1,2.89.28,4.31a29,29,0,0,1,.18,3.08,4.41,4.41,0,0,1-.49,2.09,7.27,7.27,0,0,0-2.47,3.9c0,.55.06,1.17.11,1.78a2.65,2.65,0,0,0,.48,1.34,5.11,5.11,0,0,0,2,1.76,1.06,1.06,0,0,0,.25,0l1.38-.44,1.22-1.36,1.18-2.42Zm-1.14,1.69A13.24,13.24,0,0,1,66.8,301l-.75.33a2.12,2.12,0,0,1-1.57-1.76,3,3,0,0,1,0-1.63c.1-.33.2-.65.31-1a4.43,4.43,0,0,1,1.64-1.61c.59.37.64.9.9,1.29s.48.66.72,1Z"/>
</svg>