<svg xmlns="http://www.w3.org/2000/svg" viewBox="0 0 239.77 115.31">
	<defs>
		<style>.cover-cls-1{fill:#d9a959;}.cover-cls-2{fill:#4a8363;}.cover-cls-3{fill:#f5e99f;}</style>
	</defs>
	<title>svg_coverimg-stars</title>
	<path class="cover-cls-1" d="M.2,47c-.41-.62,0-1.09,0-1.56a2.06,2.06,0,0,0,.12-.23c.44-1.13,1.49-1.74,2.26-2.59.22-.24.5-.43.71-.69a4.94,4.94,0,0,0,.42-.77l1.1-.59,2-2.07.63-.18a20.67,20.67,0,0,1,1.79-1.53c.66-.53,1.55-.61,2.13-1.26a10.79,10.79,0,0,0,2.52-.94A5.77,5.77,0,0,1,15,34a7.07,7.07,0,0,0,2.07-1.07l1-.65a3,3,0,0,0,0-.79c-.21-.84-.47-1.66-.73-2.55a4.89,4.89,0,0,0,0-2.11,1.83,1.83,0,0,1,.1-1.33,3,3,0,0,0,.29-1.69c.25-.48.51-1,.74-1.44a15.22,15.22,0,0,1,.69-1.59c.29-.47.2-1,.51-1.51a8.38,8.38,0,0,0,.6-1.5l-.21-.56.48-.25.3-.66L20.7,15a.71.71,0,0,1,1-.2,5.69,5.69,0,0,0,1.14,1.65L23.28,18c0,.08,0,.18.08.23a6.87,6.87,0,0,1,1,2.11,7.85,7.85,0,0,0,.43.75,2,2,0,0,1,.27.41c.38,1.32,1.27,2.4,1.76,3.73-.06.71-.49,1.45-.16,2.3a1.21,1.21,0,0,0,.31-.16,3.53,3.53,0,0,1,1.52-1.23.91.91,0,0,0,.3-.22,9.1,9.1,0,0,1,1.38-1A15.11,15.11,0,0,1,31.44,24c.42-.19.71-.66,1.09-1,1.08-.88,2.16-1.78,3.31-2.57a8.57,8.57,0,0,1,1.42-.94,9,9,0,0,0,1.38-.92c.56.27,1.12-.34,1.82-.11a1.71,1.71,0,0,1,.24.47,6.83,6.83,0,0,1,.07.92A16.06,16.06,0,0,0,40,21.49a16.21,16.21,0,0,1-2,2.66c-.53.62-1,1.3-1.53,1.95a12.62,12.62,0,0,1-1.33,1.47,8.07,8.07,0,0,0-1.45,1.52c-1,.55-1.43,1.58-2.21,2.32a20,20,0,0,0-1.9,2.29.55.55,0,0,0,0,.82,13,13,0,0,0,1.72,0l.85.46a1.73,1.73,0,0,1,.12.34,1.45,1.45,0,0,1,0,.61,3.19,3.19,0,0,0,0,1.73,5.72,5.72,0,0,0,1.24,1.33c.73.67,1.5,1.29,2.26,1.93s1.37,1.31,2,2a.8.8,0,0,1,.06.25c0,.24-.08.49-.13.75l-.38.21c-.14,0-.24,0-.3,0a7.17,7.17,0,0,0-2.76-1c-.83-.54-1.84-.32-2.73-.63A8.92,8.92,0,0,1,30.31,42a7.87,7.87,0,0,0-1.18-.32,12.35,12.35,0,0,1-2-.88,4.81,4.81,0,0,0-.88-.29c-.47.22-.47.73-.87.95s-.5.54-.76.81a7.86,7.86,0,0,0-.83.92c-.21.32-.52.55-.71.84a13,13,0,0,1-2,2,2,2,0,0,0-.37.47,2.5,2.5,0,0,1-.54.67,8.14,8.14,0,0,0-1.1,1.17c-.27.34-.68.56-1,.94-.56.76-1.22,1.46-1.81,2.21a10.71,10.71,0,0,1-1,1.12c-.35.34-.54.83-.86,1.21s-.78.74-1.14,1.14a20.4,20.4,0,0,1-3.12,2.81,2.34,2.34,0,0,1-.5.35,3.43,3.43,0,0,0-1.3.92,1.56,1.56,0,0,1-.34.21,1.48,1.48,0,0,1-.31-.13,2,2,0,0,1-.27-.29l.12-.94,1-1a.55.55,0,0,1,.11-.28A7.28,7.28,0,0,0,9.93,54c0-.16.17-.29.21-.45.15-.61.69-1,.82-1.65a7.89,7.89,0,0,1,.72-1.7,17.14,17.14,0,0,1,.95-1.87c.26-.4.83-.61.9-1.13a3.89,3.89,0,0,1,.59-1.35c.38-.69.81-1.34,1.25-2.06a5.42,5.42,0,0,1,.74-2.3l-.44-.67c-.75-.24-1.23.28-1.81.43a4.26,4.26,0,0,0-1.52.75l-2.95.74a3.71,3.71,0,0,1-1,.54c-.63.19-1.2.53-1.83.73a3.68,3.68,0,0,0-1,.55c-.64.45-1.44.59-2.08,1.06s-1.37.55-2,1a1.11,1.11,0,0,1-.45.19C.79,46.92.5,46.94.2,47ZM19.34,33.29a8.87,8.87,0,0,1-2.41,1.27,11.27,11.27,0,0,1-2.22.77,2,2,0,0,0-.57.24c-.56.27-1.12.53-1.66.82a38.72,38.72,0,0,0-3.38,2,6,6,0,0,0-1.34,1.09,8.16,8.16,0,0,1-1.35,1.07,1.83,1.83,0,0,0-.34.36,7.93,7.93,0,0,1-1.6,1.54,14.74,14.74,0,0,0-1.75,1.68l.15.24c.08,0,.18,0,.23-.07a7.51,7.51,0,0,1,2.59-1.39,19,19,0,0,0,2-.87,5.09,5.09,0,0,1,2.11-.69.79.79,0,0,0,.36-.11,3.49,3.49,0,0,1,1.56-.37,2,2,0,0,0,.37-.09l.29-.34,1.64-.82a13.75,13.75,0,0,1,2-.23l.74.78.36,1.34L17,42.66l-.51.86a2.85,2.85,0,0,1-.65,1.88,15.3,15.3,0,0,0-.92,1.48c-.54,1-1,2-1.59,3-.43.8-.74,1.64-1.17,2.44A21.8,21.8,0,0,1,10.78,55a.32.32,0,0,0,.17.51,11.41,11.41,0,0,0,1.27-1.13,15.69,15.69,0,0,1,1.89-1.86,3.08,3.08,0,0,1,.15-.54,4.18,4.18,0,0,1,.35-.51c.45-.63,1.08-1.1,1.54-1.74A15.32,15.32,0,0,1,17.69,48c.54-.55,1.08-1.1,1.6-1.68s1-1,1.4-1.56a10.82,10.82,0,0,1,1.45-1.5,4.27,4.27,0,0,0,1.55-1.87A1.78,1.78,0,0,1,24,41a10.12,10.12,0,0,1,1.55-1.59c.24-.22.5-.41.75-.6a4.65,4.65,0,0,1,.86.31,1,1,0,0,0,.56.22,1.4,1.4,0,0,1,.91.34c.2.14.39.36.61.38.71.07,1.33.43,2,.55a3.43,3.43,0,0,1,1.42.38c.14.1.41,0,.57-.32a22.49,22.49,0,0,0-2-2.07l-.68-2.79-2.34-.12a3.18,3.18,0,0,1-.34-.4,2.59,2.59,0,0,1-.17-.44,5.29,5.29,0,0,0,.44-.78,3.57,3.57,0,0,1,1.33-1.89,2.32,2.32,0,0,0,.42-.46l2.47-2.93a1.94,1.94,0,0,1,.42-.45,2.5,2.5,0,0,0,1-1.32c.62-.39,1.27-.68,1.56-1.39a.57.57,0,0,1,.28-.23,1.31,1.31,0,0,0,.65-.72,1,1,0,0,1,.28-.38A21,21,0,0,0,39,21.6,2.48,2.48,0,0,0,39.58,20a1.1,1.1,0,0,0-.15-.35l-.65.07c-.59.37-1.21.79-1.85,1.16a11.7,11.7,0,0,0-2.37,1.73c-.18.17-.36.34-.55.5-.77.62-1.53,1.26-2.32,1.85a20.82,20.82,0,0,0-2.25,1.87,5.44,5.44,0,0,1-.8.58c-.27.19-.57.34-.83.55-.42.33-.94.59-1.16,1.08a1.91,1.91,0,0,1-1.07,1,11.94,11.94,0,0,0-1.33.66,2.84,2.84,0,0,1-1.41.43,1.75,1.75,0,0,1-.29,0l-.26-.33.16-1.25.75-.56c.08-.27.07-.53.2-.65a10.63,10.63,0,0,0,1.21-1.84,3.4,3.4,0,0,0,.67-1.81,7.51,7.51,0,0,0-.35-1,6.08,6.08,0,0,0-.61-.9A3,3,0,0,1,23.6,21l-.76-1-.19-1c-.29-.45-.48-.77-.69-1.07-.06-.08-.19-.1-.33-.16-.71,1.75-1.46,3.44-2,5.2a3.57,3.57,0,0,1-.36.92,2.3,2.3,0,0,0-.37,1.29,5.71,5.71,0,0,1-.33,1.44c0,.51,0,1,.08,1.5a9.5,9.5,0,0,0,1,4.07,1.1,1.1,0,0,1,0,.32Zm5.54-4.47c.48-.77.55-1.2.28-1.72-.25.38-.5.74-.73,1.1a1.41,1.41,0,0,0-.15.33.88.88,0,0,0,0,.24C24.44,29,24.63,28.88,24.89,28.82Z"/>
	<path class="cover-cls-2" d="M116.33,69.6l.11.23A5.92,5.92,0,0,0,117,71a14.72,14.72,0,0,0,1.23,1.38,2.88,2.88,0,0,0,.49.37c.41.28.83.54,1.24.82a6.59,6.59,0,0,0,1.13.74.89.89,0,0,1,.52,1.12c-.75.24-.91.28-1.32.14a16.1,16.1,0,0,1-2.76-1.1,1,1,0,0,1-.31-.19,8.78,8.78,0,0,0-1.45-1.12c-.44-.37-.93-.7-1.35-1.09s-1-1-1.48-1.5a16.12,16.12,0,0,0-1.79-1.85,5.78,5.78,0,0,0-2.29-1.41,2,2,0,0,0-.33,0,1.06,1.06,0,0,0-.69.72,9.6,9.6,0,0,1-1.35,2.21c-.39.52-.74,1.07-1.12,1.59a25.14,25.14,0,0,1-2.8,3.31,32.35,32.35,0,0,0-2.54,2.7,11.4,11.4,0,0,0-1.17,2,5.31,5.31,0,0,1-1.28,1.72l-.83-.06-.19-1.07,1.75-2.14.7-1.7A10.2,10.2,0,0,1,99,75.19a11.24,11.24,0,0,0,.28-2.56,2.69,2.69,0,0,1,.25-1.19c.31-.77.5-1.57.76-2.35,0-.09,0-.23-.09-.39a2.33,2.33,0,0,0-1.74.37L97.68,69c-.78.45-1.74.29-2.6.56s-1.83.44-2.71.82c-1.17.5-2.39.9-3.59,1.33a4.51,4.51,0,0,1-.7.14,16,16,0,0,1-2.83,1.56,12.09,12.09,0,0,0-1.41.76,3.5,3.5,0,0,1-2.24.59,1.53,1.53,0,0,1-.39-.18L81,73.34a1.72,1.72,0,0,0,.76-1,6.22,6.22,0,0,1,.57-1.08,2.23,2.23,0,0,1,.95-1,3.36,3.36,0,0,0,.25-.52,2,2,0,0,1,.9-1.13,2.6,2.6,0,0,0,1.17-1.07C86.42,67,87,66.12,88,66l.35-.46a3.31,3.31,0,0,0,1.71-.58.7.7,0,0,1,.21-.13c1.22-.24,2.29-.92,3.52-1.17a1.94,1.94,0,0,0,1.51-1.13c0-.56-.27-1-.2-1.59A7.86,7.86,0,0,0,95,59.2q-.09-.8-.18-1.61a2.29,2.29,0,0,1,0-.37c0-.41.08-.81.08-1.22s-.1-.83-.11-1.24.07-.74.06-1.11-.1-1-.16-1.5l.62-.75a8.81,8.81,0,0,1,2.08,1.66c.44.76.87,1.42,1.22,2.11s1,1.35,1.37,2.06,1.23,1,1.59,1.74a1.67,1.67,0,0,1,1.37.28c.4-.09.68-.54,1.12-.11l-.45,1,.4.12a2.06,2.06,0,0,0,.91-.65,7.7,7.7,0,0,0,.66-.74,13.12,13.12,0,0,1,1.91-1.93,4.5,4.5,0,0,0,.6-.63,8.93,8.93,0,0,0,.49-.8c.69-.06.83-1.07,1.62-1l.78-1.44a9.22,9.22,0,0,0,2.3-2.06,2.56,2.56,0,0,0,1-.51A7,7,0,0,1,116.36,49c.71-.34,1.43-.65,2.12-1a4.47,4.47,0,0,1,1.72-.45l.47.35L120.28,49c-.87.81-1.66,1.81-2.58,2.7-.43.42-.79.94-1.26,1.34a4.1,4.1,0,0,0-.57.8,9.66,9.66,0,0,1-1.47,1.84l-1.09,1.76c-.11.17-.3.32-.33.51a19.26,19.26,0,0,1-1.3,2.89,3.68,3.68,0,0,0,.26.73,17.11,17.11,0,0,1,1.45,3.13,12.3,12.3,0,0,0,1.4,3.14C115.22,68.51,115.55,69.27,116.33,69.6Zm1-20.23c-.16.14-.32.41-.53.45-.53.09-.75.66-1.26.73s-.81.54-1.22.81a12.41,12.41,0,0,0-2.3,1.86c-.67.73-1.37,1.43-2,2.16a25.51,25.51,0,0,1-2,2.15,8.26,8.26,0,0,0-.89,1A17.4,17.4,0,0,1,105.92,60c-.59.57-1.13,1.18-1.65,1.77a10,10,0,0,1-1,.5.87.87,0,0,1-1.21-.39l.13-1c-.24-.47-.68-.44-.93-.76s-.92-.71-1.13-1.29c0-.09-.2-.13-.29-.21a4.56,4.56,0,0,1-.52-.51c-.26-.32-.49-.66-.74-1l-.2-.75c-.73-.27-.73-1.15-1.29-1.5l-.2-.91c-.34-.18-.59-.48-1-.5l-.19.27-.08,1.85.13.24-.2,1a16.34,16.34,0,0,1,.34,1.78,13,13,0,0,0,1,4.25l-.19.66a4.14,4.14,0,0,1-1.36.86c-1.41.59-2.86,1.07-4.3,1.57-.54.19-1.09.36-1.6.59a15.12,15.12,0,0,0-2.71,1.69,4.15,4.15,0,0,0-.78.6,42.65,42.65,0,0,0-3,3.76c-.12.18-.21.36,0,.53a6.35,6.35,0,0,0,1.38-.52,7.38,7.38,0,0,1,2-.86l1.14-1a13.68,13.68,0,0,0,1.57-.51c.53-.24,1.1-.35,1.64-.54.93-.32,1.86-.69,2.81-.92.68-.16,1.35-.37,2-.54l1.36-.34c.94.35,1.92-.27,3-.44a2.59,2.59,0,0,1,2.34-.61c-.14.64-.11,1.28-.62,1.74a.48.48,0,0,0-.09.22c-.23.83-.53,1.63-.73,2.46a9.09,9.09,0,0,0-.47,3.16,2.35,2.35,0,0,1-.09.48c0,.07.05.14.1.27h.5a3.85,3.85,0,0,0,1.58-1.64.61.61,0,0,1,.23-.29c.46-.25.68-.72,1-1.09a11.33,11.33,0,0,1,1.25-1.37,2.38,2.38,0,0,0,.72-1A5,5,0,0,1,106.69,68V66.72c.69-.88,1.65-.73,2.51-.84a3.15,3.15,0,0,0,.64.41,1.84,1.84,0,0,1,.92.6,4,4,0,0,0,.59.45,5.92,5.92,0,0,1,1.1,1,7.78,7.78,0,0,0,1.36,1.38c.28.24.54.5.81.76a5,5,0,0,0,1.28,1.18l.23-.25a10.61,10.61,0,0,0-1.34-1.78,2.32,2.32,0,0,1-.41-.62,16.44,16.44,0,0,0-1-1.72,3.29,3.29,0,0,1-.7-1.6l-.49-.62-.2-1.2-1.46-2.12a1.83,1.83,0,0,1,.36-1.72,1.51,1.51,0,0,0,.34-.52,1.37,1.37,0,0,1,.57-.77,6.51,6.51,0,0,0,.77-.89,2.08,2.08,0,0,1,.34-1.6,4.58,4.58,0,0,1,1.23-1.82.92.92,0,0,0,.31-.39,6.91,6.91,0,0,1,1.84-2.14,23.59,23.59,0,0,0,2-2.38s0-.13,0-.24Z"/>
	<path class="cover-cls-2" d="M91.62,108.16l-.17-.61c.17-.36.31-.71.69-.87a.6.6,0,0,0,.21-.13c.64-.7,1.27-1.41,1.9-2.12.31-.35.29-.37,1-.61.55-.86,1.6-1.37,2.08-2.44A4.07,4.07,0,0,0,97,99.85a2.55,2.55,0,0,1-.16-.59c-.12-.9-.51-1.74-.62-2.65-.05-.47-.38-.91-.2-1.43A10.69,10.69,0,0,0,95.57,94a3.12,3.12,0,0,1-.28-1.33,2.26,2.26,0,0,1,.16-.62l.89-.18a1.06,1.06,0,0,1,.2.06l.4.29a13.53,13.53,0,0,1,1.71,2.09c.13.14.13.39.18.56.32.35.62.69.94,1a2.38,2.38,0,0,1,.52.83.59.59,0,0,0,.89.3,36.21,36.21,0,0,0,1.08-5.69l.68-.58.74.41a5.41,5.41,0,0,1,1.16,2.36,13.93,13.93,0,0,1,.27,1.84,8.74,8.74,0,0,0,.5,2.92c.1.21-.2.48.12.71l2.53-.95.66.34h.61c.65.29,1.22.53,1.78.8s1,.53,1.51.83a2,2,0,0,1,.38.37c.07.42-.09.72-.36.8a1.79,1.79,0,0,0-.89.63.49.49,0,0,1-.2.14c-.67.22-1.15.78-1.78,1.05-1,.43-1.75,1.21-2.67,1.69a11.83,11.83,0,0,0-.43,2.73,8.11,8.11,0,0,0,0,1.48,20.09,20.09,0,0,1,.1,4.32,4.15,4.15,0,0,1-.25,1.69,1.52,1.52,0,0,1-.26.31.82.82,0,0,1-.71-.34,6.56,6.56,0,0,1-1.4-2.16,5.39,5.39,0,0,0-.63-1.19,9.93,9.93,0,0,1-.83-1.51,14.45,14.45,0,0,1-1.19-2.62l-.65-.67a.58.58,0,0,0-.22,0l-.94.57c-.3,0-.59,0-.87,0a14.16,14.16,0,0,1-2.06.22,11.7,11.7,0,0,0-2,.19,4.63,4.63,0,0,0-.74.11A5,5,0,0,1,91.62,108.16Zm14.21,5,.48-.75c-.05-.46-.11-.91-.15-1.36a7.47,7.47,0,0,1-.06-1.24,5.51,5.51,0,0,0,0-2.42c0-.1.05-.24.05-.36,0-.41,0-.82,0-1.23L105,105.3l0-.59c.21-.15.37-.28.55-.38a2.12,2.12,0,0,0,1.1-1.28c.06-.22.28-.39.46-.61l1.3.15,2.78-1.69a.55.55,0,0,0-.31-.73c-.21-.11-.5-.11-.69-.24a3,3,0,0,0-2.67-.21L106.09,101c-.68.21-1-.26-1.37-.69a4.9,4.9,0,0,0-.09-.72,5.34,5.34,0,0,0-.25-.66,4.42,4.42,0,0,0-.06-1.35,12.58,12.58,0,0,1-.46-2.56A2.34,2.34,0,0,0,103.6,94l-.29-.06a2.81,2.81,0,0,0-.16.45c-.14.77-.32,1.54-.38,2.32a13.17,13.17,0,0,1-.83,2.81s-.06.05-.11.1l-.36,0A4.39,4.39,0,0,1,100,98.14c-.29-.5-.72-.88-1-1.38a7,7,0,0,0-1-1.4c-.31-.31-.44-.81-1-1a6.45,6.45,0,0,0,0,1.59c.13.78.27,1.55.42,2.37a6.1,6.1,0,0,1,.81,4.13,12,12,0,0,1-3,2.7l-1.08,1.12s0,.07,0,.15l.34.23a13,13,0,0,1,2.64-.14,6.51,6.51,0,0,0,1.94-.35,2.56,2.56,0,0,0,1.32-.62c.33-.65.33-.64.8-.94.11.1.28.18.34.31a6.63,6.63,0,0,1,.71,2.28c.75,1.67,1.7,3.08,2.33,4.75C105.08,112.2,105.24,112.85,105.83,113.12Z"/>
	<path d="M155.82,98.43a6.72,6.72,0,0,0-.88-1.93c-.65-1.1-1.27-2.21-1.88-3.34a15.34,15.34,0,0,0-1.26-2c-.62-.82-1.16-1.71-1.71-2.59-.11-.17-.09-.41-.18-.59-.18-.35-.13-.76-.41-1.1s-.2-.34-.21-1.2l.32-.21a2.63,2.63,0,0,1,1.16.67,11.23,11.23,0,0,0,2.41,1.93c.53.32,1,.7,1.61,1.11l.19.36c.57.24,1,.81,1.84.64a4.09,4.09,0,0,0,.2-1.55c0-.66-.1-1.32-.18-2a5.88,5.88,0,0,1,0-2.21,5.16,5.16,0,0,0,0-2c0-.29-.07-.57-.09-.79a.54.54,0,0,1,.78-.17,9,9,0,0,1,1.93,3.27l.4.46a.75.75,0,0,1,.06.16,8.06,8.06,0,0,0,1,2.65,6,6,0,0,0,.76,1.79l.18,1,.5.79,1.77.56.25.33c.5.39,1.12.22,1.67.42a6.72,6.72,0,0,0,1.75.16,1.94,1.94,0,0,1,1.18-.21l.38.55a.88.88,0,0,1-.4.78c-.81.21-1.65.44-2.5.63a4.6,4.6,0,0,0-2.2,1c-.3.27-.74.38-1,.89,0,.43.08,1,.13,1.49,0,.29.07.58.11.86a4.16,4.16,0,0,0,.11,1.21c.16.37.07.84.21,1.22a22.12,22.12,0,0,1,.68,3.63,6.4,6.4,0,0,1,.9,2.19c.2.67.45,1.33.71,2l-.21.6a6.52,6.52,0,0,1-2.12-2.26,3.63,3.63,0,0,0-.27-.56,22.85,22.85,0,0,1-2-3.4c-.51-.34-.61-.94-.84-1.44a1.53,1.53,0,0,0-.77-.85c-.14.09-.31.19-.47.31s-.24.3-.37.31a2.89,2.89,0,0,0-1,.44c-.74-.14-1.32.35-2,.5s-1.33.45-2,.56a8.59,8.59,0,0,0-1.31.42l-.79-.61v-.78a7.43,7.43,0,0,0,1.63-1.89,4.43,4.43,0,0,1,.82-1.05c.28-.25.51-.67,1-.62Zm5-.55a2.88,2.88,0,0,1,.81-1,7,7,0,0,0,.72-1.12l.77-.21c.28-.23.48-.37.66-.54s.34-.36.54-.51a4.84,4.84,0,0,1,.59-.34l-.07-.36a3.57,3.57,0,0,0-1.69-.73l-.93.45a6.47,6.47,0,0,1-.91-1.28,7.71,7.71,0,0,0-.38-1.36c-.54-1.07-.78-2.26-1.31-3.32a3.31,3.31,0,0,1-.17-.91l-.32-.22a5.58,5.58,0,0,0-1-2l-.32,0c0,.53,0,1.05,0,1.58s0,1.07.08,1.61.07,1,.12,1.49.15,1.07.21,1.6a5.39,5.39,0,0,1,.15,1.54.86.86,0,0,1-1.09,0c-.75-.51-1.52-1-2.22-1.55-1.15-.93-2.37-1.76-3.62-2.58l-.38.15.32.85c.68.08.64.88,1.15,1.19a6.62,6.62,0,0,1,.94,2l.69.69a4.43,4.43,0,0,0,1,2c.36.37.52.92,1,1.26a4.92,4.92,0,0,0,1,1.57,3.05,3.05,0,0,1-.21,1.59c-.31.31-.58.75-1,.92a3.54,3.54,0,0,0-1.5,1.57c0,.08,0,.22,0,.34a1.22,1.22,0,0,0,.39.05l3.34-.86,1.69-1.67h.4a4.6,4.6,0,0,1,.94,1.83c.21.65.69,1.11.9,1.72a7.31,7.31,0,0,0,1,1.83c.4.56.52,1.3,1,1.83l.3-.18c0-.11,0-.21,0-.28-.28-.61-.29-1.29-.52-1.9a10.24,10.24,0,0,1-.42-1.93,1.88,1.88,0,0,0-.09-.49,7.84,7.84,0,0,1-.49-2.42,10.12,10.12,0,0,0-.57-1.9l-1.24.37Z"/>
	<path class="cover-cls-3" d="M58.75,53.25a3.1,3.1,0,0,0-.54-2.42c-.37-.59-.8-1.14-1.19-1.72a5.19,5.19,0,0,1-.78-1.4c-.12-.38-.44-.71-.56-1.09a3.37,3.37,0,0,0-.5-1,4.93,4.93,0,0,1-.52-1.25c0-.1,0-.24,0-.35s.21-.07.25,0a5.54,5.54,0,0,0,1.47.63,4.1,4.1,0,0,1,1.31.92,3.07,3.07,0,0,0,1.21.79,2.08,2.08,0,0,1,.62.4,16.71,16.71,0,0,1,2.88,3.07L63,50a4.65,4.65,0,0,0,.27-.46,3.78,3.78,0,0,1,.33-.8,4.84,4.84,0,0,0,.82-2.27,7.21,7.21,0,0,1-.57-3.2l.79.1a5.81,5.81,0,0,1,1.49,2.37,19.55,19.55,0,0,0,1.11,2.48,2.48,2.48,0,0,0,.52.69,3.32,3.32,0,0,1,.88,1.6,6.71,6.71,0,0,0,.56,1.23,6.64,6.64,0,0,1,1.13.13,7.18,7.18,0,0,1,1,.48l.6.26a7.44,7.44,0,0,1,.94.91,4.11,4.11,0,0,0,.7.86l0,.73c-.94.63-1.85.16-2.71.06-.62.24-1.2.45-1.77.68a4.86,4.86,0,0,0-.75.42c-.42.27-.82.56-1.24.84l-1.1.13a1.16,1.16,0,0,0-.14.36,8.28,8.28,0,0,0,.6,2.4A23.86,23.86,0,0,0,68,63.56a4,4,0,0,1,.22.76.44.44,0,0,1-.61.17c-.24-.16-.17-.45-.28-.68l-.51-.33a18.16,18.16,0,0,1-1-1.52,9.2,9.2,0,0,0-.94-1.3c-.36-.45-.7-.91-1.06-1.36s-.68-.83-1-1.24c-.6-.16-.82-.81-1.39-1a1,1,0,0,0-.35,0c-1.14.48-2.33.81-3.47,1.26a3.54,3.54,0,0,1-1,.24,8.36,8.36,0,0,0-2.91.65L53.23,59c-.07-.09-.1-.12-.11-.16-.08-.36-.15-.73-.2-1a7.2,7.2,0,0,1,1.76-2.64,11.49,11.49,0,0,0,1.93-1C57.27,53.78,58,53.56,58.75,53.25Zm8.79-1.88a4.68,4.68,0,0,0-1.37-3.17,3.71,3.71,0,0,1-.41-.75c0-.07-.21-.08-.34-.12a15.19,15.19,0,0,1-.7,2.14,6,6,0,0,0-.59,2.23l-.4,0a14,14,0,0,1-1.25-1c-.62-.59-1.17-1.26-1.78-1.85a9.89,9.89,0,0,0-2-1.69A10.81,10.81,0,0,0,56.65,46a1.21,1.21,0,0,0-.3,0,1,1,0,0,0,0,.3,5.88,5.88,0,0,1,.73,1.56,2.17,2.17,0,0,0,.46.87,21.39,21.39,0,0,1,1.8,2.63l.51,2a1.31,1.31,0,0,1-1.12,1,11.26,11.26,0,0,0-2,1c-.18.09-.33.27-.52.33a4,4,0,0,0-2,1.76.49.49,0,0,0,0,.65l1.89-.13,2.77-1.28.86-.16c.52-.3,1-.84,1.75-.54a16.69,16.69,0,0,1,1.89,1.85c.43.56.91,1.06,1.38,1.58.08.09.15.19.22.27l.33,0c0-.24,0-.48,0-.72a1.35,1.35,0,0,0-.13-.6,2.4,2.4,0,0,1-.32-1.19,2.05,2.05,0,0,0-.26-.95,1.6,1.6,0,0,1-.14-.6.44.44,0,0,1,.24-.51c.8,0,1.2.65,1.64,1.22a2.57,2.57,0,0,0,.62-.17,4.77,4.77,0,0,0,.91-.65,4.25,4.25,0,0,1,1-.53c.63-.37,1.41-.2,1.95-.63a6.45,6.45,0,0,0,.73.34.5.5,0,0,0,.6-.22c0-.14-.06-.38-.19-.49a5.38,5.38,0,0,0-2.07-1.33c-.52-.15-1-.38-1.52-.54A1.51,1.51,0,0,1,67.54,51.37Z"/>
	<path class="cover-cls-3" d="M202.93,21.74c-.39.3-.69,1.11-1.57.84a.88.88,0,0,1-.25-.93,3.39,3.39,0,0,1,.35-1.06,17.56,17.56,0,0,0,.85-2,7.58,7.58,0,0,0,.44-1.78c-.06-.13-.08-.28-.17-.35a3,3,0,0,1-.89-1.73,7.32,7.32,0,0,0-.77-1.82c-.48-.87-.91-1.76-1.31-2.66-.17-.38-.37-.74-.56-1.1-.06-.11-.19-.2-.2-.3a5.56,5.56,0,0,0-.72-1.69.77.77,0,0,1,0-.72.57.57,0,0,1,.78,0,2.88,2.88,0,0,1,.56.66,30.79,30.79,0,0,0,2,2.52,7.18,7.18,0,0,0,.91.83c.3,0,.38-.15.35-.37-.08-.57-.2-1.14-.28-1.71,0-.35,0-.72-.08-1.07s-.22-.62-.29-.94-.1-.74-.18-1.1-.27-.95-.36-1.43-.25-1-.39-1.43a13.54,13.54,0,0,1-.3-2.21c0-.05.1-.12.15-.18.35-.09.48.26.72.39A6.62,6.62,0,0,1,202.32,2a2.57,2.57,0,0,0,.88,1.59l.18.92.48.58a6.7,6.7,0,0,0,.89,2.25,29.34,29.34,0,0,0,1.83,2.9c.54,0,1-.37,1.56-.17a7.45,7.45,0,0,0,1-.39,3.33,3.33,0,0,1,1.93-.29,2.09,2.09,0,0,1,.57.22l.08.7a10,10,0,0,0-2.33,1.88,4,4,0,0,1-1.79,2.7c.54,1.54.71,3.14,1.35,4.62a.43.43,0,0,1,0,.12c.15,1.32.53,2.59.76,3.89a.88.88,0,0,1-.06.32c-.19.29-.44.27-.76.24a8.37,8.37,0,0,1-1.77-1.64c-.14-.32-.07-.76-.56-.94-.22-.56-.19-1.32-1-1.55-.5.19-.63.78-1.16.93A9.5,9.5,0,0,0,202.93,21.74Zm5.67.75a2.51,2.51,0,0,0-.19-1.29,1.88,1.88,0,0,1-.17-.46c-.23-1.16-.46-2.33-.69-3.49a5.45,5.45,0,0,0-.36-1.17,6.58,6.58,0,0,1-.55-3.15c.49,0,.95.24,1.42-.13a4.89,4.89,0,0,1,.22-.63,6.1,6.1,0,0,1,.42-.64l-.54-.33a1.7,1.7,0,0,1-1.15.28l-1.13-.61a13.48,13.48,0,0,1-1.43-2.6.45.45,0,0,0-.15-.19,1.27,1.27,0,0,1-.42-.87.9.9,0,0,0-.26-.4s-.14,0-.26-.07l-.2.43a3.22,3.22,0,0,1,.3,2.18,1.13,1.13,0,0,0,.11.72,4.57,4.57,0,0,1,.32,1.7l-.39.42c-.89-.1-1.3-.76-1.82-1.26-.24-.22-.4-.52-.63-.77s-.34-.24-.5,0a15.06,15.06,0,0,0,1.3,2.94,4.5,4.5,0,0,1,.46.87,4.78,4.78,0,0,0,1.6,2.64,1.28,1.28,0,0,1,0,.33,2.82,2.82,0,0,1-.17.72,11.67,11.67,0,0,0-.64,2.31,2.47,2.47,0,0,0,.64,0,3.23,3.23,0,0,0,.58-.33c.42-.58.15-1.41.91-1.81l.49.18c.12.2.21.33.29.48a15.23,15.23,0,0,1,1.61,3.32,1.9,1.9,0,0,0,.26.56,1.88,1.88,0,0,0,.34.32Z"/>
	<path class="cover-cls-3" d="M56.66,14.05A13.69,13.69,0,0,0,56,12.63c-.24-.38.15-.86-.29-1.1l.2-.64c.41-.31.73-.07,1.09.08a7.88,7.88,0,0,0,1.93,1.88,15.88,15.88,0,0,1,1.42,1.2,8.91,8.91,0,0,0,3,1.68,3.07,3.07,0,0,1,1,.46,3.16,3.16,0,0,0,.85.42,4.4,4.4,0,0,1,1.21.61A13.36,13.36,0,0,0,69,19.11a3.93,3.93,0,0,1,.57.48l-.2.37a3.34,3.34,0,0,1-1.46.14,4.7,4.7,0,0,0-2.54.34,2.91,2.91,0,0,1-.49.11l-.61.54L63.12,21l-.59.68a5,5,0,0,0-.13,2.59c.1,1,.24,2,.34,3a3.34,3.34,0,0,1,0,1.36c.2.86.78,1.64.56,2.6l-.43.1a6.16,6.16,0,0,1-2-2A16.07,16.07,0,0,1,60,27.85a16.57,16.57,0,0,0-1.48-2.4,2.14,2.14,0,0,1-.33-.52,3.07,3.07,0,0,0-1.66-1.71l-.63.07-.47.09-1.84,1a1.59,1.59,0,0,1-1,.16c-.37,0-.73,0-1.2-.07a.58.58,0,0,1-.4-.59.92.92,0,0,1,.06-.23A5.62,5.62,0,0,1,52.7,22,17,17,0,0,0,54,20.84c.09-.08.12-.22.18-.32l.6-.85-.16-1.37L52.8,16.21a29.52,29.52,0,0,1-1.49-3.53.64.64,0,0,1,.75-.45,1.69,1.69,0,0,1,.72.18,9.5,9.5,0,0,1,1.55,1c.7.62,1.33,1.33,2,2.05l.38.08C57,15,56.65,14.48,56.66,14.05Zm8.84,3.44c-.87-.28-1.69-.53-2.51-.8a4.8,4.8,0,0,1-.89-.42,25.76,25.76,0,0,1-3.43-2.42,2.16,2.16,0,0,0-1.4-.54A7.74,7.74,0,0,1,58,16.42c.34.88,1,1.34,1.21,2.13l-.37.15a7.52,7.52,0,0,1-2.54-1.85c-.48-.42-.81-1-1.28-1.5A12.59,12.59,0,0,0,53.44,14l-.36.13a.81.81,0,0,0,.07.85,4.62,4.62,0,0,1,.49.85,5.07,5.07,0,0,0,.93,1.45c.42.4.71.9,1.14,1.26l.17,1.5-.45,1.11c-.6.59-1.08,1-1.54,1.51-.07.07-.08.19-.13.34l2.17-.73.81.25a2.5,2.5,0,0,1,1.46,1.08,6.92,6.92,0,0,0,1.15,1.6c.34.94,1,1.72,1.37,2.63.24.58.65,1,.86,1.55.26,0,.34-.15.35-.34a30.14,30.14,0,0,0-.19-3.45,4.92,4.92,0,0,0-.13-.6c-.07-.32-.16-.64-.22-1-.19-1.15.06-2.31-.14-3.47l.61-.41,1,.27a12.42,12.42,0,0,1,1.79-1,11.86,11.86,0,0,1,1.93-.34.47.47,0,0,0,.23-.07,1.56,1.56,0,0,0,.2-.29C66.47,18.36,65.84,18.18,65.5,17.49Z"/>
	<path class="cover-cls-3" d="M139.23,44.56a3.08,3.08,0,0,0-.29,1.91,7.72,7.72,0,0,0,.47,2.8.61.61,0,0,1,.06.36c-.16.7.4,1.34.16,2.13l-.53.35-.7-.22a9.68,9.68,0,0,1-1.15-1.65,8.93,8.93,0,0,0-.66-.88c-.24-.38-.42-.79-.74-1.41l-.62-.41L134,48.2a8,8,0,0,0-2.26.48,4,4,0,0,1-1.17.15L130,48a16.74,16.74,0,0,0,1.56-1,14.37,14.37,0,0,0,1.22-1.29l-.07-1.23-1.89-3.36-.21-1a5.76,5.76,0,0,1-.9-2.31l.51-.31A19,19,0,0,0,133,40c.29-.51.29-.51.07-3l.45-1.23,1.41.31a6.38,6.38,0,0,1,1.51,2c.11.22.18.51.36.63.48.32.54.9.92,1.3A5.79,5.79,0,0,0,139,41.12a3.56,3.56,0,0,0,.64-.17,7,7,0,0,0,.75-.45c.41,0,.83-.08,1.24-.07s.81.08,1.26.14c.35.26.92.29,1.12.89-.75.55-1.69.81-2.43,1.39S140.05,43.87,139.23,44.56Zm-4.7-6.81a4,4,0,0,0,.11,2.75,2.48,2.48,0,0,1,.1,1.09c-.18.29-.33.6-.78.56a5.29,5.29,0,0,1-1-.8,3.75,3.75,0,0,0-.79-.59c-.05,0-.16,0-.26,0l-.14.36a4.69,4.69,0,0,1,.55.79A9.12,9.12,0,0,0,133,43a4.46,4.46,0,0,1,.93,2.63c-.1.23-.21.46-.29.69a.37.37,0,0,0,.15.51l1.37-.48.53.2a4.14,4.14,0,0,1,1.3,1.73c.24.54.63,1,.89,1.43a.4.4,0,0,0,.55-.25,4.35,4.35,0,0,0-.29-1.78c.08-.62-.38-1.18-.25-1.79a1.41,1.41,0,0,0-.09-.83,4.37,4.37,0,0,1-.16-.82,1.48,1.48,0,0,1,.76-.83,14.72,14.72,0,0,0,1.33-.85c.05,0,.06-.14.09-.22-.27-.44-.78-.17-.87-.23L137.08,41a6.75,6.75,0,0,1-1.62-2.5,1.4,1.4,0,0,0-.7-.82Z"/>
	<path class="cover-cls-3" d="M198.14,41.56c-.42-1-1.41-1.63-1.45-2.77l-.53-.64a3.64,3.64,0,0,0,.16-2.41c.55-.42,1-.14,1.5.11a2,2,0,0,1,.61.59A6.94,6.94,0,0,0,200.05,38l1,.73a.76.76,0,0,0,.18.05l.42-.24,0-.79.88-2.2.53-.2c.56.38,1.29.49,1.69,1a6.61,6.61,0,0,1,.76,3.34l-.29,1.16-.56.6a4.91,4.91,0,0,0-.22,1,3.41,3.41,0,0,1-1,2.2c-.07.67-.14,1.38-.84,1.72-.64-.08-.59-.56-.71-1-.79-.46-1.22-1.33-1.87-2S198.87,42.2,198.14,41.56Z"/>
	<path class="cover-cls-3" d="M179,7.54c.83,1.16,1.48,2.29.88,3.81a5.49,5.49,0,0,0-1.27,2.5,3.23,3.23,0,0,1-.5,1.09,19.58,19.58,0,0,0-1.1,2c-.25.16-.49.07-.77-.22l-.26-.89a.8.8,0,0,0-.17-.16A4.65,4.65,0,0,1,174,13.91a5.25,5.25,0,0,0-.77-1,5.21,5.21,0,0,1-.92-1.13c-.2-.38-.64-.62-.89-1a2.59,2.59,0,0,1-.56-1.36c0-.57-.24-1.15.17-1.76l.89-.15a5.75,5.75,0,0,0,2.63,1.12c.88-.25,1.11-1.32,2-1.64C177.6,6.91,177.6,6.91,179,7.54ZM172.07,9l-.23.63a.84.84,0,0,0,.91,0C172.56,9.13,172.56,9.13,172.07,9Z"/>
	<path class="cover-cls-3" d="M99,38.2a4.31,4.31,0,0,1-1,0,1.63,1.63,0,0,0-1.05,0,1.56,1.56,0,0,0-.27.59,7.81,7.81,0,0,0-.17,1.83A4.74,4.74,0,0,1,96.46,42c0,.41-.11.81-.17,1.23l-.29.28-.65-.21a5.79,5.79,0,0,1-1.09-1.52A14.4,14.4,0,0,0,92.5,39c-1.16.32-1.88,1.36-3,1.78l-1.27.15-.62-.29c.21-1.15.26-1.23,1.62-2.38l.93-3-.1-.84-.42-.5a1.58,1.58,0,0,1,0-1.26l-1-2.33c.21-.27.46-.23.7-.23a16.3,16.3,0,0,0,1,1.55,13.28,13.28,0,0,0,1.23,1.19l.43-.1a5.91,5.91,0,0,1,.58-1.76l1.17-.13a4.54,4.54,0,0,1,.47.49,9.63,9.63,0,0,1,1.31,2.64,4.41,4.41,0,0,0,.39.73l2,.56,1.92,1.87,0,.39c-.08.11-.11.2-.17.25C99.53,37.88,99.28,38,99,38.2Zm-5.69-5.08c-.16.84.23,1.7-.27,2.46l-.39,0-1.05-1.11a.64.64,0,0,0-.41.72,5.12,5.12,0,0,1-.33,2.06,1.79,1.79,0,0,0-.13.47c0,.1.1.2.15.3l1-.33,1.14.28a7.52,7.52,0,0,1,1.28,2.28,4.1,4.1,0,0,0,.58,1.09c.05.09.18.14.32.24l.55-1-.18-2.76.5-.81c.56-.2,1.17-.08,1.73-.29l0-.42-1-.48-1.29.36a3.12,3.12,0,0,1-.77-1.52A4.4,4.4,0,0,0,93.78,33Z"/>
	<path class="cover-cls-3" d="M197.75,28.41l-1-.24A2.82,2.82,0,0,0,195,26.93a4.19,4.19,0,0,1-1.44-1.49c-.38-.59-.76-1.18-1.11-1.79a5.57,5.57,0,0,1-.33-.85c.08-.2.11-.32.17-.43s.12-.22.18-.32l-.05-1.42.42-.47,1.79.13a2.13,2.13,0,0,0,.45-.09l.52-.52a3.24,3.24,0,0,0,1.51-.92,3.43,3.43,0,0,1,.73-.45l1.18.6.49,1c.12.46-.19.83.08,1.18a3.9,3.9,0,0,1-.4,1.67c-.25.55-.16,1.14-.36,1.67a5.62,5.62,0,0,1-.54,2.37c-.07.23-.13.47-.21.7S197.9,28,197.75,28.41Z"/>
	<path class="cover-cls-3" d="M237.17,54.77c-.06.63.1,1.32,0,2a4,4,0,0,0,.28,1.7,10.8,10.8,0,0,1,.31,2c0,.16-.16.34-.24.49a1,1,0,0,1-.88-.51,8.82,8.82,0,0,0-.94-1.44c-.43-.4-.66-.95-1.1-1.31a1.34,1.34,0,0,0-.64-.88,1.67,1.67,0,0,1-.64-.89l-.83-2.09-1.24-.33-2.08.44a5,5,0,0,1-2.56,1,2.47,2.47,0,0,0-1.31.34,2,2,0,0,1-.83.22c-.37,0-.74,0-1.13.06l-.61-.3a.7.7,0,0,1,.18-.85,19.13,19.13,0,0,0,2.86-3.25l.64-.3.64-1.18-.07-1c-.23-.29-.42-.56-.64-.8-.58-.65-.77-1.55-1.47-2.12a3,3,0,0,0-.48-1c-.8-1.54-1.79-3-2.67-4.57a5.17,5.17,0,0,1-.21-1.51c.56-.53,1.09-.16,1.46-.07.79.72,1.47,1.33,2.13,2a4,4,0,0,1,.68.72,22.43,22.43,0,0,0,3.3,3.52s.15,0,.24,0a1.05,1.05,0,0,0,.26-.91c-.09-1-.17-1.91-.33-2.85a5.48,5.48,0,0,1-.14-1.33,9.47,9.47,0,0,0-.11-1.36c0-.53-.08-1.07-.11-1.53a.67.67,0,0,1,.78-.23l.69,1c.17.24.29.55.51.69a3,3,0,0,1,1,1.38A11.23,11.23,0,0,1,233,42.7a1.7,1.7,0,0,0,.11.35l.74,1.87c.15.11.35,0,.6,0,.41-.53,1.15-.64,1.67-1.11s1.09-.89,1.74-1.41L239,42c.61.36.61.36.74.88,0,.32-.37.29-.53.44a5.29,5.29,0,0,0-.87,2.06,20.68,20.68,0,0,0-.27,2.18,2.1,2.1,0,0,1,.26,1.9c-.06.24-.14.48-.22.71a5.18,5.18,0,0,0-.29,2.55Zm-3.78-8.88a6.49,6.49,0,0,1-.4-1.28,6.43,6.43,0,0,0-.87-2.43,19.13,19.13,0,0,1-1-2.45l-.59-.36-.27.41c0,.6,0,1.14,0,1.68a2.82,2.82,0,0,0,.05.48c.11.61.22,1.22.33,1.84a8.08,8.08,0,0,0,.35,1.57,2.45,2.45,0,0,1-.12,2,1.83,1.83,0,0,1-1.34-.68,9.46,9.46,0,0,1-1-1.08c-.26-.36-.73-.6-.95-1s-.67-.71-.93-1.12a25.91,25.91,0,0,0-2-2.19,7.27,7.27,0,0,0-1.35-1.09c-.07-.05-.19,0-.41-.07.36.59.33,1.23.84,1.62a.33.33,0,0,1,.1.22,2.64,2.64,0,0,0,.61,1.21c.3.49.56,1,.86,1.51a17.67,17.67,0,0,0,1,1.58A11.21,11.21,0,0,1,227.42,48a11.3,11.3,0,0,0,1.07,1.47l.09.76-.51,1.31a7.85,7.85,0,0,0-1.75,1.72c-.06.08,0,.22,0,.31a.78.78,0,0,0,.75,0c.15-.05.26-.22.41-.26a27.35,27.35,0,0,0,3.41-1.11,2.47,2.47,0,0,1,.61-.08l2,1.72a3.53,3.53,0,0,0,.31.79,3.66,3.66,0,0,1,.6,1.72,5.57,5.57,0,0,1,.62,1,2,2,0,0,0,1.27,1.19,1.9,1.9,0,0,0,.19-1.2,6,6,0,0,1-.13-1.73,9.38,9.38,0,0,0,.06-1.62,5,5,0,0,0,.43-2.75,7.56,7.56,0,0,0,.28-1,.76.76,0,0,0-.16-.74c-.44-.31-1,0-1.33-.48.13-.24.2-.59.41-.74.63-.43.78-1.14,1.17-1.73,0-.38,0-.75-.05-1.12,0-.06-.1-.12-.17-.21l-.68.08a6.84,6.84,0,0,0-1.15,1.15,1,1,0,0,1-.29.18l-.75-.17.21-.27Z"/>
	<path class="cover-cls-3" d="M216.14,57.65c.44.57,1.11.59,1.65.88a7.27,7.27,0,0,0,1.88.55c.6.14,1.21.22,1.83.33l.4.55c-.08.17-.13.4-.27.52a5.68,5.68,0,0,1-1.21.86,4.35,4.35,0,0,0-1.64,1.24l-.76.2-.64.72-.51-.25.15-.85c.06-.07.14-.17.23-.26a5.38,5.38,0,0,1,2.13-1.42c.14,0,.23-.21.36-.34l-.19-.52a5.7,5.7,0,0,1-1-.14c-.31-.1-.58-.33-.89-.43-.63-.2-1.27-.34-2-.53-.35-.58-.61-1.32-1-2s-.24-1.49-.83-2c-.4.39-.11,1-.35,1.38a1,1,0,0,1-1.16-.2,8.6,8.6,0,0,1-1.79-1.53,7.3,7.3,0,0,0-1.45-1.14c-.05,0-.16,0-.26,0a2.71,2.71,0,0,0,0,1.21,4.9,4.9,0,0,1,.69,1.45,2.42,2.42,0,0,0,.26.55c.15.34.28.69.44,1a4.41,4.41,0,0,0,1.18,1.86A2.61,2.61,0,0,1,212,60a1,1,0,0,1,.09,1.06c-.07.15-.13.3-.2.46-.35.26-.61.64-1.09.79a1.64,1.64,0,0,0-.75.62,5.27,5.27,0,0,1-1,.9l0,.32a4.89,4.89,0,0,0,1.47-.09l1.52-.17a1.43,1.43,0,0,1,1,.6c.34.6,1.14.86,1.16,1.62a9.68,9.68,0,0,1,2.21,2.79,1.61,1.61,0,0,0,.12-.39,7.81,7.81,0,0,0-.59-2.27,9.33,9.33,0,0,1-.43-4l0-.37a2.25,2.25,0,0,1,.17-.19,3,3,0,0,1,.25-.18l.37.16a1,1,0,0,1,.09.27c0,.37-.07.74,0,1.11.06.91.16,1.82.25,2.73a10.88,10.88,0,0,0,.69,2.38c.07.19.14.39.19.59.15.56.29,1.12.42,1.68a.71.71,0,0,1-.21.84l-.66-.22-.83-1c0-.68-.64-1.12-1-1.74a13.68,13.68,0,0,0-1.27-1.74l-1.15-1.05-1.29-.57a2.79,2.79,0,0,0-1,.23,1.37,1.37,0,0,1-.94.15,5.29,5.29,0,0,1-2.08-.14,2.89,2.89,0,0,1-.38-.24,1.54,1.54,0,0,1,.13-1.46,10,10,0,0,1,.83-.75,16.37,16.37,0,0,1,1.47-1.12,8.36,8.36,0,0,0,1.18-.91,1.62,1.62,0,0,0,.26-.41c-.34-.46-.67-.88-1-1.32a34.42,34.42,0,0,1-1.6-3.47,7.2,7.2,0,0,0-.82-1.93c-.22-.93-.66-1.78-.92-2.69a4.62,4.62,0,0,1-.09-.72l.36-.25a4.51,4.51,0,0,1,2,1.59c.7.87,1.55,1.59,2.29,2.42.21.24.46.45.67.66a.48.48,0,0,0,.34-.51,1.3,1.3,0,0,0-.13-.47,1.59,1.59,0,0,1-.13-1,4.88,4.88,0,0,0,0-1.36,6.93,6.93,0,0,1,.05-2.57c.45-.18.46-.19,1,.06a2.21,2.21,0,0,1,.58,1.08,21,21,0,0,1,.73,2.35,21.87,21.87,0,0,1,.5,2.43.86.86,0,0,0,.12.48A10.88,10.88,0,0,1,216.14,57.65Z"/>
</svg>