<svg xmlns="http://www.w3.org/2000/svg" viewBox="0 0 383.68 209.38"><defs><style>.cls-1{fill:#f5e99f;}</style></defs><title>svg_logo</title><g id="Layer_2" data-name="Layer 2"><g id="Plane_3" data-name="Plane 3"><path class="cls-1" d="M377.49,92c-8.65-8.4-23.61-8-33.51-7.67l-2.08.06h-11a.45.45,0,0,0-.45.45V87a.45.45,0,0,0,.45.45h.51c1.46,0,2.14.62,2.14,2.86h0v58.6c-.17,1.51-.85,2-2.09,2h-.6a.45.45,0,0,0-.45.45v2.14a.45.45,0,0,0,.45.45h7.84v0c.49,0,1,0,1.48,0H341v-.07c18-1.54,42.63-20.24,42.63-45.68C383.68,101.41,381.59,96,377.49,92ZM341,146.29V91.89l3.15-.07c8.11-.23,21.68-.64,28.06,5.55,2.63,2.56,3.91,6.08,3.91,10.78C376.17,128.2,355.77,144.65,341,146.29Z"/><path class="cls-1" d="M351,168.91c-4.41,1.84-6.63,2.69-12.38,1.37-8.19-2.17-14.86-7.95-21.21-21.7-7.58-16.41-12-26-14.12-30.76,13.27-4.79,19.13-9.94,19.13-18.79,0-7.31-6.57-14.72-19.12-14.72H279.72v.05h-5.33a.45.45,0,0,0-.45.45V87a.45.45,0,0,0,.45.45h.51c1.46,0,2.14.62,2.14,2.86h0v57.81h0c0,2.24-.68,2.86-2.14,2.86h-.51a.45.45,0,0,0-.45.45v2.14a.45.45,0,0,0,.45.45h12.87a.45.45,0,0,0,.45-.45v-2.14a.45.45,0,0,0-.45-.45h-.6c-1.24,0-1.91-.46-2.09-2V123.37c4.2-1.09,8.06-2.14,11.5-3.18,2,4.49,6.49,14.26,14.48,31.55,9.67,20.92,21.08,26.43,35,27.12h.76c.9.05,1.76.08,2.57.05h0c6.11-.2,9.71-2.52,10.51-5.82C360.39,169.25,355.7,166.93,351,168.91ZM284.57,91.82h18.68c8,0,11.62,3.74,11.62,7.21,0,5.7-4.69,9.76-30.3,16.58Z"/><path class="cls-1" d="M119.27,3h.6c1.46,0,2.14.62,2.14,2.86h0c-.21,16.93-.4,39.93,13,53.46,6.66,6.74,16,10.25,27.73,10.53,0,0,.07,0,.12,0h7.77a.45.45,0,0,0,.45-.45V67.34a.45.45,0,0,0-.45-.45h-.51c-1.45,0-2.17-.62-2.17-2.83V5.9h0c0-2.24.68-2.86,2.14-2.86h.51a.45.45,0,0,0,.45-.45V.45a.45.45,0,0,0-.45-.45H157.7a.45.45,0,0,0-.45.45V2.59a.45.45,0,0,0,.45.45h.6c1.24,0,1.91.46,2.09,2v57.3c-8.62-.59-15.22-3.3-20.08-8.23-11.25-11.39-11-32.81-10.79-48.45V5.27c.13-1.71.8-2.22,2.11-2.22h.51a.45.45,0,0,0,.45-.45V.45a.45.45,0,0,0-.45-.45H119.27a.45.45,0,0,0-.45.45V2.59A.45.45,0,0,0,119.27,3Z"/><path class="cls-1" d="M179.86,69.84h12.87a.45.45,0,0,0,.45-.45V67.25a.45.45,0,0,0-.45-.45h-.6c-1.24,0-1.92-.46-2.09-2V16.66c4.49,3.93,10.45,7.17,16.32,10.36C217.28,33,227.6,38.57,227.6,47.18V64.73c-.16,1.59-.83,2.07-2.1,2.07H225a.45.45,0,0,0-.45.45v2.14a.45.45,0,0,0,.45.45h12.87a.45.45,0,0,0,.45-.45V67.25a.45.45,0,0,0-.45-.45h-.6c-1.46,0-2.14-.62-2.14-2.86h0V5.9h.1c0-2.24.68-2.86,2.14-2.86h.51a.45.45,0,0,0,.45-.45V.45a.45.45,0,0,0-.45-.45H225a.45.45,0,0,0-.45.45V2.59A.45.45,0,0,0,225,3h.6a1.75,1.75,0,0,1,2,1.54V31.92c-4.89-4.54-11.48-8.14-17.65-11.49-9.29-5.05-18.09-9.86-19.64-16.24A1.73,1.73,0,0,1,192.22,3h.51a.45.45,0,0,0,.45-.45V.45a.45.45,0,0,0-.45-.45H179.86a.45.45,0,0,0-.45.45V2.59a.45.45,0,0,0,.45.45h.6c1.24,0,1.91.46,2.09,2V63.94h0c0,2.24-.68,2.86-2.14,2.86h-.51a.45.45,0,0,0-.45.45v2.14A.45.45,0,0,0,179.86,69.84Z"/><path class="cls-1" d="M98.08,60.73c-8.33-3.39-16.66-6.25-24.71-9-22.67-7.79-42.25-14.52-42.25-27.1,0-8.23,2.72-17,35.24-17h36.3c2.46,0,3.16.81,3.16,2.39v.64a.43.43,0,0,0,.43.42h2.61a.43.43,0,0,0,.43-.42V.13H66.35c-30.13,0-43,7.32-43,24.48,0,17.84,22,25.39,47.39,34.13,8,2.73,16.18,5.56,24.3,8.87,29.72,12.09,42.4,30.09,42.4,60.2,0,35.72-30.18,64.77-67.28,64.77-33.9,0-62.42-27.06-62.43-57.81,0-9.5.19-12.64,4.07-20.57a46.13,46.13,0,0,1,9.6-12.31,13.62,13.62,0,0,1,1.77-1.32,3.74,3.74,0,0,1,3.76,0l.52.41a.45.45,0,0,0,.61-.06L29.73,99a.41.41,0,0,0-.06-.59l-2.43-1.92h0l-6-4.73c-2.47,1.77-8.47,8.13-10.48,10.38a40.75,40.75,0,0,0-5.5,7.77h0C1,117.72,0,126.08,0,134.76,0,169.92,31.66,200,70.17,200c41.37,0,75-32.4,75-72.23C145.2,94.67,130.67,74,98.08,60.73Z"/><path class="cls-1" d="M228.22,88a2.43,2.43,0,0,1,1.71-.63h.6A.45.45,0,0,0,231,87V84.82a.45.45,0,0,0-.45-.45h-8.88L196,121.91,170.9,84.37H160.56a.45.45,0,0,0-.45.45V87a.45.45,0,0,0,.45.45h.6a5.51,5.51,0,0,1,3.24.72l27.06,40.45L140.3,203.48h0c-1.23,1.84-2.86,2.86-4.32,2.86h-.51a.45.45,0,0,0-.45.45v2.14a.45.45,0,0,0,.45.45h9.63a.43.43,0,0,0,.34-.19l0,0Z"/><path class="cls-1" d="M263.89,84.37h-2.73v-.05h-3.75c-.15,0-.32,0-.48.05h-.28s-.06,0-.1,0c-5.45.91-16.19,10.1-28.18,29.15-11.46,18.2-19.3,30.12-23.11,35.84-.68,1-1.22,1.53-2.27,1.53h-.51a.45.45,0,0,0-.45.45v2.14a.45.45,0,0,0,.45.45h8.36a.42.42,0,0,0,.19-.08h.26c3.55-5.31,10-15.13,18.67-28.8h23.7v23.33c-.07,1.93-.75,2.5-2.12,2.5H251a.45.45,0,0,0-.45.45v2.14a.45.45,0,0,0,.45.45h12.87a.45.45,0,0,0,.45-.45v-2.14a.45.45,0,0,0-.45-.45h-.6c-1.44,0-2.11-.61-2.14-2.76v-58c0-2.15.7-2.76,2.14-2.76h.6a.45.45,0,0,0,.45-.45V84.82A.45.45,0,0,0,263.89,84.37ZM234.7,117.59l0,0c8.17-13,14.84-19.85,18.94-23.16v23.19Z"/></g></g></svg>